<svg width="213" height="35" fill="none" xmlns="http://www.w3.org/2000/svg"><g clip-path="url(#clip0)"><path fill-rule="evenodd" clip-rule="evenodd" d="M62.625 19.197h2.187c.21 0 1.173 1.044 1.173 1.367v2.46c-.352.812-1.478 1.695-3.123 1.695-2.68 0-4.49-2.135-4.817-5.082a21.667 21.667 0 01-.025-4.454c.4-3.945 2.35-5.29 4.677-5.244 2.936.07 5.497 4.06 5.497 4.895h.965V9.058h-.94c-.236.324-.704.464-1.082.464-1.573 0-2.936-.697-4.674-.765-5.076-.187-8.462 3.572-8.484 8.56-.025 5.151 3.267 8.933 8.764 8.933 2.21 0 3.642-1.068 4.534-2.25l2 1.948h.21v-5.43c0-.324.988-1.345 1.197-1.345h.802v-.882h-8.86v.906zm22.465 4.981c-.31 0-.858-.548-.858-.856v-8.739H79.19v.833h.785c.309 0 1.19 1.001 1.19 1.334v5.334c-.739.998-2.215 2.094-2.951 2.094-.881 0-1.334-.762-1.334-1.643v-7.952h-4.663v.833h.43c.305 0 1.165 1.001 1.165 1.334v6.143c0 1.595 1.261 3.357 3.021 3.357 1.38 0 3.33-1.358 4.544-2.74l.05.478c.117 1.238 1.094 2.262 2.428 2.239 1.119-.025 2.569-1.764 2.95-2.215l-.618-.644c-.263.24-.834.81-1.097.81zm7.247-.08V8.02s-2.163.85-4.635 1.37v.733h.404c.285 0 1.235.804 1.235 1.159v12.815c0 .379-.973 1.302-1.308 1.302h-.499v.85H94.1v-.85h-.524c-.284 0-1.238-.923-1.238-1.302zm5.774-10.973c.998 0 1.824-.835 1.824-1.822 0-.989-.826-1.824-1.824-1.824a1.825 1.825 0 00-1.823 1.824c0 .987.799 1.822 1.823 1.822zm1.012 10.944v-9.486s-1.973.973-4.228 1.518v.759h.412c.26 0 1.085.783 1.085 1.16v6.049c0 .426-.826 1.328-1.108 1.328h-.455v.853h5.835v-.853h-.498c-.26 0-1.043-.925-1.043-1.328zm9.809-1.359c-.428.768-1.291 1.747-2.198 1.747-.981 0-1.815-.721-1.815-1.677 0-1.07.739-1.676 1.862-1.979l2.151-.582v2.491zm3.919 1.583c-.333 0-.907-.489-.907-.86V18.1c0-2.212-2.126-3.517-4.874-3.517-2.246 0-4.947 1.19-4.947 3.937l.501.511c1.193.187 2.126-.442 2.006-1.444-.118-1 .647-1.722 1.792-1.722 1.651 0 2.489.908 2.489 2.071v1.352l-2.773.557c-1.578.327-3.729 1.095-3.729 3.307 0 1.793 1.408 3.098 3.297 3.098 1.412 0 2.893-1.35 3.442-2.073h.121c.26 1.095.955 2.05 2.222 2.027 1.144-.024 2.7-1.7 3.033-2.212l-.62-.606c-.215.28-.837.907-1.053.907zm14.148-.201v-6.094c0-1.59-1.295-3.368-3.1-3.368-1.618 0-3.307 1.827-4.277 2.917l-.601-2.964s-1.781.902-3.768 1.518v.71h.439c.231 0 1.155.807 1.155 1.139v6.142c0 .403-.786 1.305-1.087 1.305h-.393v.853h5.92v-.853h-.532c-.276 0-.97-.925-.97-1.305v-5.193c0-.402 1.894-2.228 2.981-2.228.648 0 1.32.876 1.32 1.611v5.81c0 .38-.764 1.305-1.041 1.305h-.534v.853h5.873v-.853h-.348c-.3 0-1.037-.95-1.037-1.305zm5.396-10.967c.998 0 1.824-.835 1.824-1.822 0-.989-.826-1.824-1.824-1.824a1.824 1.824 0 000 3.646zm1.742 10.944v-9.486s-1.973.973-4.228 1.518v.759h.412c.259 0 1.086.783 1.086 1.16v6.049c0 .426-.827 1.328-1.109 1.328h-.455v.853h5.835v-.853h-.498c-.26 0-1.043-.925-1.043-1.328zm17.481-4.872h2.186c.211 0 1.172 1.044 1.172 1.367v2.46c-.349.812-1.479 1.695-3.122 1.695-2.68 0-4.489-2.135-4.817-5.082a21.68 21.68 0 01-.024-4.454c.399-3.945 2.349-5.29 4.676-5.244 2.938.07 5.496 4.06 5.496 4.895h.966V9.058h-.941c-.238.324-.706.464-1.08.464-1.572 0-2.939-.697-4.675-.765-5.076-.187-8.461 3.572-8.482 8.56-.026 5.151 3.266 8.933 8.763 8.933 2.21 0 3.64-1.068 4.531-2.25l2.003 1.948h.206v-5.43c0-.324.992-1.345 1.205-1.345h.798v-.882h-8.861v.906zm17.328-4.566c-1.259 0-1.964.83-2.561 1.709l-1.24 1.92h-.092l-.778-3.677s-1.235.95-3.066 1.613v.71h.432c.366 0 1.193.783 1.193 1.189v5.926c0 .38-.87 1.376-1.144 1.376h-.438v.853h6.94v-.853h-1.235c-.298 0-1.168-.996-1.168-1.376v-4.86c0-.308 1.26-2.372 1.6-2.372.14.617.62 1.21 1.284 1.352h.663c.87-.237 1.356-.949 1.356-1.778 0-.95-.712-1.732-1.746-1.732zm11.109 7.607c-.228 1.717-1.251 2.713-2.712 2.713-1.509 0-2.576-1.182-2.81-2.877-.142-1.042-.142-2.573 0-3.593.234-1.717 1.233-2.738 2.693-2.738 1.528 0 2.601 1.207 2.829 2.9.142 1.044.142 2.574 0 3.595zm-2.786-7.655c-2.878 0-5.848 2.344-5.848 5.869 0 3.664 2.952 5.798 5.873 5.798 3.02 0 5.798-2.272 5.798-5.845 0-3.526-2.76-5.822-5.823-5.822zm19.429 9.595c-.31 0-.86-.548-.86-.856v-8.739h-5.044v.833h.784c.308 0 1.194 1.001 1.194 1.334v5.334c-.739.998-2.219 2.094-2.952 2.094-.884 0-1.334-.762-1.334-1.643v-7.952h-4.664v.833h.429c.304 0 1.164 1.001 1.164 1.334v6.143c0 1.595 1.264 3.357 3.021 3.357 1.384 0 3.331-1.358 4.551-2.74l.044.478c.12 1.238 1.093 2.262 2.428 2.239 1.119-.025 2.572-1.764 2.952-2.215l-.62-.644c-.259.24-.834.81-1.093.81z" fill="#000"/><mask id="mask0" maskUnits="userSpaceOnUse" x="199" y="14" width="14" height="17"><path d="M199.87 14.583H213v16.042h-13.13V14.583z" fill="#000"/></mask><g mask="url(#mask0)"><path fill-rule="evenodd" clip-rule="evenodd" d="M209.767 21.73c-.161 1.726-1.296 3.041-2.69 3.041-1.537 0-2.419-1.152-2.536-2.835a22.708 22.708 0 010-3.042c.117-1.66 1.252-3.042 2.672-3.042 1.535 0 2.393 1.129 2.554 2.81.092.923.092 2.121 0 3.067zm-2.203-7.146c-1.697.023-2.931.969-3.486 1.66l-.278-1.406h-3.93v.922h.487c.303 0 1.167.876 1.167 1.313v11.454c0 .438-.84 1.269-1.141 1.269h-.396v.829h6.713v-.829h-1.043c-.278 0-1.091-.83-1.091-1.269v-3.48c.604.576 1.646 1.061 2.714 1.084 2.838.046 5.72-2.075 5.72-5.74 0-3.802-2.579-5.853-5.436-5.807z" fill="#000"/></g><path fill-rule="evenodd" clip-rule="evenodd" d="M8.502 21.725c-.168-.187-.404-.33-.65-.457-.163-.281-.377-.512-.716-.58a7.174 7.174 0 00-.798-.817c-1.504-1.31-2.579-3.056-3.681-4.726a10.25 10.25 0 01-.412-1.918c.075-.085.12-.2.112-.351-.245-3.899 2.117-7.71 5.577-9.5.785-.407 1.653-.385 2.48-.644 1.065-.334 1.9-.612 3.057-.393.993.188 1.99.501 2.93.93.316.173.628.356.936.54a.533.533 0 00.099.128c.35.329.655.696 1.085.927.075.04.153.074.232.108.359.412.844.484 1.274.345.716.05 1.394-.391 1.021-1.195-.01-.022-.023-.04-.035-.059 0-.314-.132-.65-.457-.966-.353-.345-.872-.477-1.312-.67-.662-.292-1.104-.782-1.712-1.134a1.758 1.758 0 00-.247-.12c-.01-.006-.016-.013-.024-.019-2.759-1.837-7.418-1.243-10.25.128-1.43.692-2.844 1.874-3.966 2.966A13.29 13.29 0 001.517 6.03c-.294.424-.329.918-.417 1.407C.432 9.18-.164 10.988.041 12.874c.203 1.877 1.098 3.585 2.01 5.214.842 1.508 1.983 2.724 3.131 4 .603.67 1.304 1.724 2.204 2.033.155.202.33.386.54.514.067.04.142.059.219.066.551.293 1.212-.169 1.322-.718.074-.366-.057-.717-.245-1.027-.237-.389-.417-.894-.72-1.23z" fill="#DEA92E"/><path fill-rule="evenodd" clip-rule="evenodd" d="M8.91 17.784a1.076 1.076 0 00-.53-.612 5.876 5.876 0 00-.414-.465c-1.123-1.161-2.038-2.213-2.115-3.926-.152-3.41 3.45-6.372 6.716-5.903 1.222.176 1.688.346 2.703 1.044.294.203.564.44.916.548.552.169 1.205.144 1.648-.276 1.382-1.313-1.173-2.412-1.996-2.882-1.64-.939-4.383-1.226-6.178-.615-1.655.561-3.396 1.315-4.293 2.883-.624 1.09-1.413 2.273-1.649 3.525-.192 1.015.05 2.325.206 3.303.183 1.136.691 1.79 1.359 2.754.506.731.905 1.48 1.596 1.932.01.014.018.028.029.04.552.682 1.22 1.631 2.24 1.153 1.01-.474.29-1.804-.172-2.438-.018-.026-.043-.043-.065-.065z" fill="#DEA92E"/><path fill-rule="evenodd" clip-rule="evenodd" d="M10.513 14.413a.507.507 0 00-.353-.45 1.719 1.719 0 00-.261-.387c-.274-.785-.546-1.623-.088-2.331.681-1.054 2.261-1.35 3.346-.801.685.346 1.5 1.012 2.034-.018.398-.766-.209-1.534-.82-1.958a2.184 2.184 0 00-1.415-.428c-.681.014-1.49-.06-2.173.015-2.462.269-3.976 3.153-3.345 5.327.246.846.869 2.436 1.847 2.635.988.202 1.288-.87 1.228-1.604zm23.851 1.12c.667.685 1.523.17 1.976-.457 1.605-2.224.86-5.254-1.34-6.668-.877-.562-2.587-1.23-3.624-1.1-1.38.172-2.468 1.75-3.354 2.68-2.608 2.734-5.381 5.37-7.804 8.282-1.775 2.136-4.098 4.783-1.654 7.261.957.97 2.356 2.122 3.741 2.175 1.383.055 2.585-1.158 3.602-1.962.782-.62 3.09-2.054 2.924-3.306-.042-.319-.24-.445-.44-.668-.692-.767-1.782-1.408-2.68-2.026a.549.549 0 00-.187-.241c-.573-.424-1.203-.293-1.468.412-.368.983.69 1.563 1.157 2.253a.533.533 0 00.083.135c.1.184.152.375.12.587-.138.89-2.017 2.105-2.691 2.265-2.45.584-3.257-2.222-2.02-4.02 1.05-1.524 2.487-2.963 3.737-4.32 1.147-1.244 2.488-2.287 3.656-3.532.628-.67 1.29-1.31 1.986-1.906.746-.64 1.1-.951 2.089-1.04 1.298-.12 2.296.17 2.502 1.674.131.965-1.229 2.58-.311 3.522z" fill="#DEA92E"/><path fill-rule="evenodd" clip-rule="evenodd" d="M38.522 18.696c.746-.498 1.05-1.773 1.385-2.517.52-1.16 1.05-2.156.923-3.453-.232-2.373-1.01-4.576-2.899-6.134-1.793-1.48-3.74-2.482-6.123-2.155-2.891.395-5.03 2.278-7.099 4.153-1.198 1.085-2.135 2.318-3.195 3.522-1.1 1.248-2.538 2.197-3.773 3.313-2.046 1.85-3.58 3.923-3.844 6.723-.22 2.339.542 4.558 1.966 6.376a.55.55 0 00.203.616c2.126 1.573 4.078 2.457 6.784 2.156 2.433-.272 3.898-.983 5.486-2.803 1.018-1.165 2.12-2.22 3.392-3.117.648-.457 1.72-.939 1.926-1.795.164-.68-.273-1.124-.68-1.603-1.124-1.326-2.349-2.597-3.535-3.868-.675-.722-2.486-2.292-3.11-.548-.21.583.069 1.177.443 1.618 1.082 1.278 2.618 1.82 3.018 3.573.275 1.204-.182 1.552-1.056 2.44-.379.384-.784.744-1.186 1.103-1.376 1.227-2.877 2.508-4.824 2.585-3.497.134-6.595-2.323-6.675-5.804-.045-1.941 1.02-2.907 2.149-4.283.71-.865 1.183-1.843 1.984-2.643 2.234-2.236 4.538-4.407 6.81-6.604 1.047-1.01 2.158-2.182 3.603-2.613 1.67-.499 4.004.146 5.488.99 1.6.908 2.355 2.675 2.339 4.441-.016 1.875-.988 3.187-1.553 4.884-.355 1.066.518 2.204 1.653 1.447z" fill="#DEA92E"/><path fill-rule="evenodd" clip-rule="evenodd" d="M44.479 11.309C44.117 4.818 37.321-.711 30.799.075c-3.198.384-6.007 2.191-8.15 4.505-2.52 2.722-5.231 5.249-7.759 7.96-4.409 4.73-6.44 11.236-2.793 17.089 3.532 5.67 12.168 7.24 17.337 2.824 1.607-1.373 3.124-2.857 4.619-4.35 1.416-1.417 3.21-2.866 4.35-4.511 1.847-2.667-2.733-4.647-4.307-5.968-.565-.475-4.331-6.072-5.295-2.941-.268.871.458 1.558 1.053 2.087 1.755 1.56 3.45 2.952 4.808 4.899 1.557 2.232-1.142 3.118-2.407 4.412-1.517 1.553-2.614 3.136-4.495 4.332-1.986 1.26-3.815 1.892-6.195 1.867-1.402-.015-3.095-.432-4.556-1.149a9.814 9.814 0 01-1.715-1.283 9.945 9.945 0 01-1.814-2.285c-.707-1.557-1.128-3.457-1.088-4.83.032-1.141.613-2.136.914-3.212.401-1.438.567-2.389 1.663-3.567 3.129-3.363 6.547-6.724 10.06-9.691 1.968-1.661 4.383-3.82 7.11-3.405 1.841.28 4.558.739 6.357 1.7a9.962 9.962 0 012.334 2.498c.842 1.655 1.236 3.735 1.282 5.29.08 2.662-.847 5.154-2.753 7.038-.246.244-.176.554.017.741.125.788 1.093 1.378 2.02.598.98-.823 1.63-2.617 2.09-3.776.71-1.787 1.1-3.713.993-5.638z" fill="#DEA92E"/></g><defs><clipPath id="clip0"><path fill="#fff" d="M0 0h213v35H0z"/></clipPath></defs></svg>