<svg width="190" height="38" fill="none" xmlns="http://www.w3.org/2000/svg"><path d="M71.92 30.732c-1.44-.171-2.232-.593-3.688-1.967-.951-.88-2.59-2.56-4.338-4.635l-.004-.005a131.217 131.217 0 01-5.605-6.97l8.278-8.14c1.097-1.093 2.4-1.773 3.67-1.913a.542.542 0 00.481-.538v-.937a.541.541 0 00-.542-.54H62.5a.54.54 0 00-.542.54v.937c0 .299.243.54.542.54.32 0 1.063.043 1.063.436 0 .36-.176.966-1.013 1.8l-6.802 6.704c-.348.312-.535.439-.96.439h-.983v-3.987c0-3.15.04-3.838.511-4.642.387-.652 1.075-.75 1.452-.75a.54.54 0 00.542-.54v-.937a.541.541 0 00-.542-.54h-8.534a.54.54 0 00-.542.54v.937c0 .299.243.54.542.54 1.088 0 1.68.596 1.81 1.825.102.877.153 2.078.153 3.567v10.147c0 3.904-.069 6.198-.432 7.14-.235.599-.56.945-1.53.945-.3 0-.543.242-.543.54v.937c0 .299.243.54.542.54h8.534a.54.54 0 00.542-.54v-.937a.541.541 0 00-.542-.54c-.736 0-1.35-.394-1.563-1.004-.241-.686-.4-1.14-.4-7.159v-3.674h.005c.335 0 .42.039.627.296 4.248 5.753 6.43 8.387 10.827 13.375a.542.542 0 00.407.184h6.184c.3 0 .543-.242.543-.54v-.938a.541.541 0 00-.478-.537z" fill="#fff"/><path d="M91.819 30.728c-.932 0-1.416-.352-1.672-1.213-.214-.71-.37-2.665-.37-4.647v-1.795c0-1.737.09-4.38.134-5.65.014-.417.023-.693.023-.75a.541.541 0 00-.542-.541h-6.146a.541.541 0 00-.542.54v.937c0 .267.196.493.46.534.903.138 1.429.429 1.877 1.035.469.634.677 1.607.677 3.153v2.81c0 2.45-2.437 5.04-4.742 5.04-2.056 0-3.098-1.38-3.098-4.103V20.77c0-1.672.083-2.947.133-3.709l.023-.357a.54.54 0 00-.541-.573h-6.146c-.3 0-.542.243-.542.541v.937a.54.54 0 00.439.53c.907.176 1.507.589 1.943 1.34.349.6.632 2.002.632 3.125v2.264c0 .903.037 2.287.08 2.966.269 3.716 3.277 5.38 6.138 5.38 2.2 0 4.105-.963 5.681-2.866v1.857c0 .299.243.54.543.54h5.558a.54.54 0 00.542-.54v-.937a.541.541 0 00-.542-.54zm10.999 0c-1.007 0-1.438-.333-1.708-1.32-.333-1.237-.333-5.838-.333-7.35v-7.103c0-4.515.035-6.412.117-9.665a.542.542 0 00-.405-.537l-.9-.234a.545.545 0 00-.311.01l-5.206 1.757a.542.542 0 00-.357.402l-.196.937a.54.54 0 00.412.637c1.448.325 1.84.89 2.103 1.268.571.805.683 2.627.683 5.503v7.025c0 3.7-.126 6.456-.337 7.366-.234.963-.66 1.304-1.626 1.304a.54.54 0 00-.542.54v.937c0 .299.243.54.542.54h8.064a.541.541 0 00.542-.54v-.937a.542.542 0 00-.542-.54zm11.273 0c-.944 0-1.467-.42-1.749-1.402-.247-.882-.292-2.01-.292-3.912v-2.927c0-2.106.035-3.432.117-6.228a.541.541 0 00-.427-.544l-.9-.195a.544.544 0 00-.209-.005l-4.932.859a.542.542 0 00-.437.422l-.196.937a.538.538 0 00.442.643c1.132.188 1.493.467 1.869 1.016.396.591.613 1.788.613 3.368v2.693c0 1.962-.152 3.23-.295 3.768-.288 1.112-.583 1.507-1.668 1.507a.542.542 0 00-.542.54v.937c0 .299.243.54.542.54h8.064a.541.541 0 00.542-.54v-.937a.542.542 0 00-.542-.54zm-4.502-18.065c1.917 0 3.476-1.58 3.476-3.52 0-1.88-1.559-3.41-3.476-3.41-1.916 0-3.475 1.53-3.475 3.41 0 1.94 1.559 3.52 3.475 3.52zm27.596 18.065c-1.097 0-1.496-.377-1.779-1.681-.179-.82-.262-2.838-.262-3.945V22.41c0-4.464-2.245-6.824-6.492-6.824-2.216 0-4.182 1.217-5.49 2.68l.082-2a.54.54 0 00-.41-.547l-.783-.195a.55.55 0 00-.225-.008l-4.932.859a.54.54 0 00-.437.422l-.196.937a.54.54 0 00.418.639c1.241.262 1.655.516 2.02 1.243.304.582.486 2.24.486 4.433v1.25c0 2.028-.209 3.782-.409 4.417-.204.71-.669 1.013-1.554 1.013a.541.541 0 00-.542.54v.937c0 .299.243.54.542.54h8.103a.541.541 0 00.542-.54v-.937a.541.541 0 00-.542-.54c-1.091 0-1.667-.497-1.814-1.578-.159-.954-.266-2.518-.266-3.892V23.19c0-2.097 1.968-4.533 4.507-4.533 2.305 0 3.333 1.23 3.333 3.986v2.46c0 1.098-.16 3.074-.27 3.949-.182 1.395-.783 1.676-1.693 1.676a.54.54 0 00-.542.54v.937c0 .299.242.54.542.54h8.063a.54.54 0 00.542-.54v-.937a.54.54 0 00-.542-.54zm20.771.37a.539.539 0 00-.705-.42 2.21 2.21 0 01-.69.089c-.718 0-.928-.13-1.183-.721-.306-.733-.41-2.62-.502-4.284l-.044-.764-.195-4.062c-.195-3.627-2.395-5.39-6.727-5.39-1.621 0-3.246.396-4.457 1.086-1.438.82-2.23 2.012-2.23 3.358 0 1.42.963 2.413 2.342 2.413 1.496 0 2.422-1.131 2.422-2.18 0-.96-.388-1.3-.797-1.659a8.615 8.615 0 01-.153-.135l-.01-.011c.179-.21.963-.659 2.453-.659 2.038 0 2.993.937 3.099 3.037l.053 1.086c-6.998.72-10.544 2.998-10.544 6.771 0 2.77 1.949 4.56 4.965 4.56 2.29 0 4.52-1.236 6.081-3.35.121.556.292 1.13.589 1.623.699 1.069 1.879 1.61 3.507 1.61.977 0 1.844-.174 2.58-.519a.54.54 0 00.303-.582l-.157-.897zm-8.717-2.44c-.804.831-1.748 1.29-2.659 1.29-1.23 0-1.963-.747-1.963-1.997 0-1.254.671-2.208 2.054-2.915 1.042-.535 2.514-.851 4.069-.875l.034 1.078c.039 1.055-.578 2.429-1.535 3.42zm22.392-13.034c-2.338 0-4.329 1.216-5.696 3.411.11-1.345.154-2.312.171-2.773a.541.541 0 00-.41-.544l-.783-.195a.55.55 0 00-.225-.008l-4.932.859a.541.541 0 00-.438.422l-.195.937a.537.537 0 00.433.642c1.173.212 1.539.495 1.87 1.005.395.625.621 2.17.621 4.239v1.6c0 1.643-.166 3.83-.47 4.639-.216.537-.54.87-1.493.87a.541.541 0 00-.542.54v.937c0 .299.243.54.542.54h8.024a.54.54 0 00.542-.54v-.937a.54.54 0 00-.542-.54c-.968 0-1.406-.318-1.672-1.215-.198-.655-.33-2.208-.33-3.864 0-3.467 2.045-7.343 4.781-7.343.196 0 1.145.02 1.216.425a3.037 3.037 0 01-.139.17c-.087.102-.196.23-.314.398-.274.41-.444.785-.444 1.393 0 1.265.991 2.219 2.304 2.219 1.59 0 2.578-1.195 2.578-3.117 0-2.572-1.708-4.17-4.457-4.17zm15.227 15.104c-.944 0-1.467-.42-1.749-1.402-.247-.882-.293-2.01-.293-3.912v-2.927c0-2.106.036-3.432.117-6.228a.54.54 0 00-.426-.544l-.9-.195a.545.545 0 00-.209-.005l-4.932.859a.543.543 0 00-.438.422l-.195.937a.54.54 0 00.441.643c1.132.188 1.493.467 1.869 1.016.396.591.614 1.788.614 3.368v2.693c0 1.962-.152 3.23-.296 3.768-.288 1.112-.583 1.507-1.667 1.507a.542.542 0 00-.542.54v.937c0 .299.243.54.542.54h8.064a.541.541 0 00.542-.54v-.937a.542.542 0 00-.542-.54zm-8.15-21.064c1.723 1.283 2.058 1.619 3.433 3.43.21.275.626.27.829-.01a15.341 15.341 0 013.533-3.529.513.513 0 00.012-.827c-1.815-1.371-2.151-1.705-3.439-3.424a.516.516 0 00-.826.002 16.818 16.818 0 01-3.538 3.534.512.512 0 00-.004.824zM37.293 18.74c-.12-2.479-.176-5.017-.859-7.42-.508-1.788-1.522-3.435-2.986-4.6-1.422-1.133-3.104-1.835-4.813-2.412a5.418 5.418 0 01-1.115-.514c-.52-.369-.994-.797-1.506-1.176-.712-.528-1.477-.976-2.363-1.136-.34-.06-.688-.074-1.028-.13a22.177 22.177 0 01-1.12-.224c-.75-.165-1.494-.351-2.249-.486a9.343 9.343 0 00-2.386-.133c-.884.07-1.759.25-2.62.455-.71.17-1.43.36-2.11.631-.868.347-1.669.844-2.403 1.417-.734.573-1.43 1.2-2.122 1.82A33.174 33.174 0 005.72 6.65c-1.264 1.33-2.38 2.83-3.148 4.5-.779 1.693-1.266 3.533-1.514 5.376a21.08 21.08 0 00-.11 4.875c.16 1.607.516 3.219 1.11 4.722.316.801.702 1.582 1.143 2.321l.087.142c.035.184.106.356.214.514a20.828 20.828 0 001.976 3.126c.074.13.149.258.228.384.355.563.834 1.153 1.446 1.462l.18.166a11.62 11.62 0 002.756 1.862c1.174.559 2.46.9 3.747 1.072 1.32.178 2.66.21 3.99.213a92.277 92.277 0 003.2-.036c2.129-.07 4.282-.288 6.318-.94 1.042-.333 2.055-.8 2.978-1.387 1.033-.659 1.948-1.506 2.786-2.393a20.684 20.684 0 002.278-2.89 12.966 12.966 0 001.542-3.313c.39-1.267.483-2.603.491-3.921.008-1.255-.064-2.512-.125-3.765zm-2.657 4.735a11.08 11.08 0 01-.45 2.496 12.258 12.258 0 01-1.267 2.515 18.858 18.858 0 01-2.91 3.32c-.616.525-1.278.984-1.992 1.363-.912.44-1.877.754-2.864.977-2.34.47-4.745.48-7.123.484a47.165 47.165 0 01-2.318-.041c-1.178-.076-2.353-.24-3.482-.59a9.797 9.797 0 01-1.958-.957c-.47-.326-.91-.689-1.326-1.08a1.232 1.232 0 00-.148-.142 13.512 13.512 0 01-.535-.552 15.266 15.266 0 01-.505-.616 14.057 14.057 0 01-.186-.35c-.334-.673-.634-1.394-1.096-1.989a14.097 14.097 0 01-1.353-2.087 15.225 15.225 0 01-1.146-3.284 18.545 18.545 0 01-.335-4.513c.105-1.605.392-3.205.886-4.737.374-1.065.86-2.082 1.474-3.03C7.118 9.05 8.538 7.678 10.004 6.38c.847-.746 1.713-1.49 2.71-2.027.858-.402 1.807-.644 2.73-.847.807-.165 1.634-.287 2.459-.268.93.079 1.848.326 2.755.531.503.114 1.008.226 1.519.308.404.064.814.079 1.21.18.229.091.447.206.656.336.935.658 1.744 1.493 2.797 1.978.506.233 1.056.378 1.578.574.497.186.988.388 1.467.615.443.21.874.442 1.287.705.456.318.882.677 1.263 1.082.325.388.608.807.847 1.252.316.664.537 1.365.703 2.08.259 1.293.35 2.61.428 3.925.088 1.46.16 2.92.213 4.381.028.763.043 1.527.01 2.29z" fill="#fff"/><path d="M17.016 18.705c-.482.658-.437 1.639.081 2.268.518.63 1.45.869 2.22.596a1.64 1.64 0 00.562-.328c.357-.328.51-.827.549-1.31.03-.365-.004-.753-.205-1.06-.232-.351-.64-.536-1.03-.7l.009-.003c-.728-.37-1.704-.12-2.186.537zm.611-4.779c-.125 1.22.198 2.595 1.183 3.308 0 0 .396.323 1.9-1.065.21-.169.42-.34.631-.498 1.824-1.36 4.305-1.872 6.47-1.165 1.277.417 2.579 1.24 3.86.835.17-.054.342-.135.444-.281.106-.151.121-.346.121-.53.002-1.44-.704-2.81-1.67-3.88-1.88-2.08-4.883-3.157-7.62-2.534-2.737.623-5.033 3.025-5.319 5.81z" fill="#fff"/><path d="M13.723 16.429c.264.33 2.126 1.72 2.484 1.105 0 0 .22-.21.209-2.061.004-.371-.008-.742-.038-1.112-.206-2.524.92-5.12 2.908-6.697.328-.26.684-.502.915-.85.23-.35.301-.846.036-1.17-.317-.388-.916-.344-1.408-.242-1.63.34-3.238.958-4.505 2.037s-2.16 2.665-2.146 4.327c.009 1.072.381 2.104.76 3.108.206.545.42 1.098.785 1.555zm16.085.514c-.798-.45-1.708-.658-2.61-.817-1.006-.176-2.04-.298-3.044-.117-1.005.18-1.988.7-2.525 1.566-.172.278-.29.608-.303.936 0 0-.08.558.346.875a.411.411 0 00.162.093c.119.055.262.097.445.113.32.063.794.109 1.49.091.332.03.715.062 1.16.094.817.111 1.632.247 2.402.534.909.34 1.762.914 2.25 1.75.712 1.219.548 2.772 1.124 4.06.101.226.256.465.5.504.372.06.622-.363.744-.717.546-1.578.834-3.28.54-4.923-.292-1.643-1.224-3.22-2.681-4.042zm-17.481 4.466c.693.105 1.448.16 2.05-.198.497-.294.783-.974.589-1.476 0 0-.026-.383-2.752-2.543 0 0-1.273-.972-1.603-4.665a11.422 11.422 0 00-.177-1.196c-.08-.374-.212-.775-.535-.98-.631-.399-1.42.208-1.843.823A8.163 8.163 0 006.63 15.92c.02 1.038.252 2.095.828 2.96 1.042 1.566 3.005 2.243 4.869 2.527z" fill="#fff"/><path d="M18.356 25.178c.205-.552.337-1.16.186-1.728-.152-.57-.656-1.077-1.246-1.07l.133.075c-1.07-.447-2.205.348-3.293.746-1.938.709-4.198.092-5.787-1.222-.734-.608-1.393-1.377-2.308-1.647-.18-.053-.385-.083-.548.01-.188.109-.259.343-.293.557-.136.865.057 1.75.343 2.578a11.676 11.676 0 002.997 4.642c.49.464 1.03.89 1.656 1.147.553.226 1.155.312 1.752.317 2.764.023 5.447-1.822 6.408-4.405zm3.454-2.654a1.365 1.365 0 00-1.528.167 1.36 1.36 0 00-.43 1.152l-.064-.257a5.649 5.649 0 01-.378 2.997c-.58 1.38-1.683 2.47-2.81 3.457-.602.527-1.284 1.213-1.102 1.99.201.863 1.32 1.136 2.2 1.006 1.848-.272 3.454-1.58 4.322-3.23.867-1.651 1.049-3.602.763-5.444-.11-.71-.345-1.488-.974-1.838zm3.37-1.042c-.348-.163-.717-.324-1.1-.298-.383.026-.777.304-.795.686a.688.688 0 00.06.305c.018.04.039.08.062.119.131.26.447.928.648 1.685.447 1.963.285 4.071-.091 6.07-.056.299-.116.611-.024.9.184.583.939.825 1.524.643.585-.182 1.022-.663 1.388-1.153.84-1.124 1.482-2.433 1.621-3.828.14-1.396-.271-2.882-1.276-3.864-.57-.557-1.295-.927-2.018-1.265z" fill="#fff"/></svg>