<svg version="1.1" id="Layer_1" xmlns="http://www.w3.org/2000/svg" x="0" y="0" viewBox="0 0 140.1 66.5" xml:space="preserve"><style>.st0{fill:#010101}</style><path class="st0" d="M25 33.3c4.3-.5 8.7-.9 13-1.3v.1c.2 1.6 2.7 1.6 2.5 0v-.3c9.4-.7 18.8-1.1 28.3-1.1 15.6-.1 31 1.5 46.5 2.6 1.6.1 1.6-2.4 0-2.5-15.5-1.1-31-2.7-46.5-2.6-5 0-9.9.1-14.9.4.5-.1.9-.6.9-1.2 0-2.9-1.3-8.5 2.6-9.5 5.2-1.3 7.6 4.2 8.9 8.2.4 1.3 2.5 1.1 2.4-.3-.1-2.4.5-6.5 3.8-6.3 3.1.2 3.6 3.9 3.3 6.3-.2 1.5 2 1.5 2.4.3.9-2.4.9-6.8 4.2-7 3.9-.2 5.8 4.4 5.9 7.7 0 1.4 2 1.7 2.4.3 1-3 1-10.5 4.9-11.5 2.8-.7 4.9 1.8 5.3 4.2s0 4.8-.3 7.2c-.2 1.6 2.2 2.2 2.4.7.3-2 .5-4.4.4-6.7.6-.4 1.9-.5 2.6-.7.8-.3 1.5-.7 2.2-1.2 1.5-1.2 2.4-2.9 3.3-4.5.8-1.4-1.3-2.6-2.1-1.2-.9 1.6-1.8 3.5-3.6 4.4-.7.3-1.8.5-2.7.8-.7-2.9-2.5-5.1-6.4-5.3-4.6-.3-6.1 4.2-7.1 8.4-1.2-2.6-3.4-4.7-6.5-4.9-3.3-.2-4.7 1.5-5.6 3.8-.9-1.9-2.5-3.4-5-3.5-2.9-.1-4.7 1.8-5.6 4.1-1.9-3.6-4.9-6.5-9.6-5.8-2.4.4-3.6 1.6-4.3 3.2-1.4-4.2-3.8-7.8-8.7-7-4.3.7-6.2 3.4-6.9 6.7-3.2-1.2-5.6-3.6-8.2-5.8-1.2-1-3 .7-1.8 1.8 3 2.6 5.8 5.3 9.6 6.6-.2 2.9.2 6 .6 8.6-4.2.4-8.4.8-12.7 1.3-1.5.3-1.5 2.7.1 2.5zm19.3-19.1c6.5-1.3 7.3 9.4 8 13.6.1.5.4.8.8.9-4.4.2-8.7.4-13.1.8-.9-5.8-2.2-14 4.3-15.3zm-6.6-8v.2c.1 1.4 1.2 2.6 2.6 2.9 1.9.4 4.4.2 5.4-1.7C47.1 4.8 44.6.1 41.4 0c-2.6-.2-3.8 2.7-4.4 4.8-.2.6.2 1.2.7 1.4zM41 2.4c.1 0 .1-.1.2-.1h.3c.1 0 .1 0 .2.1h.1c.1.1.2.1.3.2.1 0 0 0 0 0l.1.1c.2.2.4.4.5.6 0 0 .1.1.1.2.1.1.2.2.2.3.1.1.1.3.2.4 0 0 0 .1.1.1.1.2.2.5.2.7v1.1c-.1.2-.1.2-.2.3-.1.1-.1.1-.3.2.1.2 0 .2 0 .2-.2.1-.3.1-.5.1h-1.1c-.3 0-.8 0-1-.3-.5-.5 0-1.4.5-1.8.9-.6.6-1.8-.1-2.2l.1-.1c-.1 0-.1 0 .1-.1z"/><path class="st0" d="M60 12.9c1.4-.5 2.7-1.7 2.6-3.4-.1-1.4-1.1-2.6-2.5-3-1-.3-2-.2-2.9.2-.2 0-.3-.1-.5-.1-.4-.1-.8.3-1.1.6-.9 1.3-1.5 3.3-.6 4.8 1.2 1.6 3.4 1.5 5 .9zm.1-3.5l.1.3v.1c-.1.1-.1.2-.2.3-.2.2-.5.3-.8.4-.5.2-1.3.4-1.8.2-.2-.1-.2-.3-.2-.7 0-.1 0-.2.1-.3l.1-.1c.1.1.2.1.3.2.9.6 1.8-.2 1.8-1.1 0 0 .1 0 .2.1 0 .1.3.4.4.6zm7.8 3c.2.9.8 1.9 1.7 2.5 1 .7 2.2.6 3.2-.1 1.8-1.2 3.2-4.4 1.5-6.2-1.2-1.3-3.1-1-4.6-.6-.7.2-.9.8-.9 1.3-.6.9-1.1 1.9-.9 3.1zm3.1.4zm.1 0zm1.1-2.8h.4c0 .1 0 .2.1.2-.1-.3 0 .1 0 .3v.1c0 .1-.1.2-.1.4 0 .1 0 .1-.1.2l-.1.2-.3.6v.1l-.2.2-.1.1-.2.1s-.1 0-.1.1h-.1c.1-.1 0 0-.1 0h-.1s-.1 0-.1-.1c0 0 0-.1-.1-.1 0 0-.1-.2-.1-.1-.2-.2-.4-.5-.4-.8 0-.4.3-.7.6-1 .2-.2.3-.4.3-.6.1.1.4.1.8.1zm13.1 4.2c1.5-.7 2.3-2.5 1.8-4.1S85.2 7.9 83.7 8c-.2-.1-.3-.3-.5-.4-.6-.3-1.3-.1-1.7.4-.8 1.3-1.4 3.1-.8 4.6.8 2 3 2.5 4.6 1.6zm-1.4-2.1c-.3.1-.6.1-.8 0 0 0-.1-.1-.1 0v-1.2c.5.3 1.1.1 1.5-.3h.1c.1.1.2.2.2.4.1.4-.2 1-.9 1.1zm15.2-.1c1.4-.3 2.5-1.6 3.2-2.8.7-1.1 1.3-2.7.9-4.1-.7-2-2.8-1.6-4.4-.9-.7-.2-1.5-.2-2.1.3-1.4.9-1.3 2.9-1 4.3.3 1.7 1.4 3.6 3.4 3.2zm1-3.9c-.1.1-.2.2-.2.4l-.1.1c-.2.2-.3.4-.5.5-.1.1-.2.1-.2.2-.1 0-.1.1-.2.1s-.1.1-.2.1h-.1c-.1-.1-.1-.2-.2-.3 0 0-.1-.3-.1-.4-.1-.2-.1-.5-.2-.7-.1-.4-.1-.9 0-1.3.3.1.5.2.9.1.1.1.2.1.4.2.6.4 1.1.2 1.4-.2 0 .1 0 .1-.1.2 0 .1-.1.2-.1.2-.2.3-.3.6-.5.8zm.8-2.1zM90.8 56.2c-1.7 3.2-5-.2-4.7-2.8.1-1 .7-2 1.2-2.8.2-.4.6-1.1 1.1-1.3.3-.2.1-.2.4.4.7 1.4 2.8.2 2.1-1.2-1.9-3.8-5-.7-6.4 2.3-.9-2.6-3.2-4.6-6.9-3.7-1.6.4-.9 2.7.7 2.4 6-1.4 5.6 10.3.3 7.9-1.4-.6-2.7 1.5-1.2 2.1 3.8 1.7 6.2-.1 7.2-2.8 1.8 3.3 6.3 5 8.6.8.5-1.4-1.6-2.7-2.4-1.3zm14.4-8.3c-.9 2.3-2 4.5-3.2 6.6-1.8-1.9-2.9-4.5-4-6.8-.7-1.4-2.8-.2-2.1 1.2 1.4 2.7 2.6 5.7 4.9 7.8-.6.9-1.2 1.9-1.8 2.8-.4.7-2.3 3.5-3.4 4.2-.2-.4-.6-.7-1.1-.7h-.7c-1 0-1.5 1-1.1 1.9 4.1 7.5 14.2-14.2 15-16.3.5-1.6-1.9-2.2-2.5-.7zM5 47c-.3-.2-.6-.3-1-.2-.1 0-.2.1-.4.1-.4 0-.8 0-1.2.1-.9.1-1.3 1-1.1 1.7-1.6 2.3-1.7 6-.4 8.1 2.1 3.3 6.9 3.4 10 1.6 3-1.7 4.1-5.3 1.6-8-1.7-1.9-4.7-3.1-7.5-3.4zm5.9 8.3c-1.3 1.6-4.4 2.3-6.3 1.5-1.4-.6-2.1-1.9-2.1-3.4 0-1.2.4-3.2 1.5-4 3.5.4 9.6 2.6 6.9 5.9zM58.5 57c-2 .1-4.9.1-6-2-1.2-2.3.2-6.1 3.1-5.6 1.6.3 2.2-2.1.7-2.4-3.9-.6-6.6 2.3-6.6 5.9-.1 0-.1.1-.2.1-.5.3-.9.7-1.3 1 .1-1.8.3-3.6.4-5.3.1-1.6-2.3-1.6-2.5 0-.1 1.2-.9 2.4-1.8 3.2-1-3.2-5.4-6.7-8.4-4.7-1.3.9-.1 3 1.2 2.1 1.8-1.2 4.8 2.2 4.9 3.9.2 3-3.5 4.1-5.9 3.8-1.6-.2-2.2 2.2-.7 2.4 3.5.5 7.9-1 8.9-4.6.1 0 .2-.1.2-.1.4-.2.8-.5 1.1-.8-.1 1.2-.1 2.4 0 3.6.1 1.1 1.7 1.8 2.3.6.5-1.1 1.3-1.9 2.2-2.6 1.3 3.2 5.1 4.1 8.4 3.9 1.6 0 1.6-2.5 0-2.4zm-28.2-2.8h-1.6c-.2-1.9.2-3.8.3-5.7 0-.7-.6-1.2-1.2-1.2-2.5-.2-4.8-1-6.9.4-.5.1-1 .5-1 1.2 0 2 0 3.9-.2 5.9h-2.1c-.9 0-1.3.8-1.2 1.6.3 1.5.3 3.1.5 4.6.2 1.6 2.7 1.6 2.5 0-.2-1.2-.2-2.5-.3-3.7 3.4 0 6.8-.5 10.2-.5.1 1.1.2 2.2-.3 3-.8 1.4 1.4 2.6 2.1 1.2.9-1.7.6-3.6.5-5.5-.1-.8-.6-1.3-1.3-1.3zm-8-4.6c1.1-.7 2.7-.4 4.1-.1-.1 1.6-.3 3.2-.2 4.8-1.4.1-2.7.2-4.1.3.2-1.7.2-3.4.2-5zm50.5 5.2c.1-2.6-.2-5.2-2-7-2.4-2.3-5.8-1.2-7.3 1.5-.8 1.4 1.4 2.7 2.1 1.2 1.3-2.4 3.7-1.7 4.4.8.2.7.3 1.4.3 2.1-2.8-.9-6.4-1.5-7.3 1.8-.4 1.6.6 3.2 2 4 1.8 1 3.6.4 5.4-.1.6.9 2.3.7 2.3-.7 0-.8.1-1.7.1-2.6.2-.3.2-.7 0-1zm-6 2.5c-.8-.2-1.9-1.3-.9-1.9 1.1-.7 3 0 4.4.6v.6c-1.1.3-2.4 1-3.5.7zm46.7-9.7c-.4-1.2-2.5-1.1-2.4.3.1 3.2 0 6.5-.2 9.7-.2 2.5-.5 5-.1 7.6.2 1.6 2.6.9 2.4-.7-.2-1.7-.1-3.5 0-5.2 2.4.6 4.9.7 6.7-1.5 1.6-1.9 2-5.1.7-7.3-1.3-2.3-4.8-3.8-7.1-2.9zm4.5 8.6c-1.2 1.5-3 1-4.6.6.1-2 .2-3.9.2-5.9.7-2.3 4-.6 4.9.9.7 1.3.4 3.3-.5 4.4zm20.2.8c-2.3 1.1-2.3-1.6-2.4-3.3-.1-2 .1-4-.1-6-.2-1.6-2.7-1.6-2.5 0s0 4.4.3 7c-.1 0-.1 0-.2.1-1.3.8-4.2 3.4-5.8 2.4-1.3-.8-1.1-3.2-1-4.5.2-1.8.4-3.4-.1-5.1-.4-1.5-2.8-.9-2.4.7 1 3.5-1.8 9.1 2.5 11.2 2.5 1.3 5.4-.8 7.5-2.2.7 2.2 2.3 3.4 5.4 1.9 1.5-.8.2-2.9-1.2-2.2z"/></svg>