<svg width="330" height="83" fill="none" xmlns="http://www.w3.org/2000/svg"><path d="M0 17.672h20.635v29.915h7.524V17.672h20.635V.664H0v17.008zM58.346 5.977V21.83l48.389 8.663a77.816 77.816 0 01-19.362 2.165c-18.609 0-27.61-4.822-28.94-6.323v15.852c4.138 3.379 16.264 6.093 28.94 6.093 12.677 0 24.745-2.714 28.941-6.093V26.392L68.128 17.73a79.787 79.787 0 0119.216-2.108c18.494 0 27.668 4.678 28.941 6.18V5.976C111.713 2.454 100.397 0 87.345 0c-12.648 0-24.514 2.454-29 5.977zm67.517 1.993v30.117c4.515 4.418 15.744 10.193 31.835 10.193 16.497 0 27.06-5.775 31.835-10.193V7.97C184.99 3.754 174.224 0 157.698 0c-15.946 0-27.465 3.812-31.835 7.97zm24.166 8.662a10.584 10.584 0 00-2.894 7.364 10.411 10.411 0 002.894 7.363 36.572 36.572 0 01-19.506-7.421c2.026-1.675 8.19-5.804 19.506-7.161v-.145zm15.078 14.987a10.527 10.527 0 003.006-7.363c0-2.752-1.079-5.395-3.006-7.364a36.427 36.427 0 0119.506 7.306 36.686 36.686 0 01-19.506 7.421zM232.425 38L218.591.665h-19.767v46.923h17.017V13.543l12.619 34.044h19.766l13.979-33.727v33.727h7.496V.664h-21.822l-15.454 37.337zm96.576-20.328V.664h-49.778v17.008h21.127v12.936h-21.127v16.98h49.778v-16.98h-21.127V17.672h21.127zM8.896 64.533h1.952v9.978h2.06v-9.978h2.604V63.23h-2.603v-.434c0-2.69.65-3.752 2.407-3.752 1.476 0 2.625.91 1.693 3.752h2.169c.867-3.622-1.15-4.989-3.601-4.989-2.668 0-4.73 1.475-4.73 5.206v.217h-1.95v1.302zm9.482 4.056h2.169c-.282-.542-.434-1.106-.434-1.627 0-1.8 1.063-2.711 2.712-2.711 1.952 0 2.906.91 2.906 3.123v.5l-1.93.325c-2.647.455-5.445.78-5.445 3.709 0 2.104 1.692 2.82 3.449 2.82 1.67 0 3.037-.824 3.926-1.692v1.475h2.061v-6.92c0-3.362-1.952-4.577-4.88-4.577-2.93 0-4.903 1.454-4.903 3.861 0 .521.043 1.107.369 1.714zm2.147 3.124c0-1.28.846-2.018 3.232-2.386l1.974-.304v2.755c-.716.672-1.952 1.497-3.427 1.497-.911 0-1.779-.434-1.779-1.562zm15.023 3.015c2.95 0 4.599-1.367 4.599-3.232 0-4.642-7.224-2.083-7.224-5.488 0-1.107.803-1.844 2.452-1.844 1.822 0 2.646.802 2.646 2.538 0 .629-.13 1.02-.26 1.432h2.169c.152-.282.26-.955.26-1.345 0-2.538-1.67-3.775-4.685-3.775-2.603 0-4.534 1.28-4.534 3.297 0 4.773 7.224 2.061 7.224 5.554 0 1.214-1.128 1.713-2.452 1.713-1.605 0-2.971-.716-2.971-2.624 0-.434.021-.868.216-1.324H30.82c-.152.26-.217.63-.217 1.345 0 2.56 2.213 3.753 4.946 3.753zm8.221-3.731c0 2.56 1.41 3.731 3.927 3.731 2.277 0 4.533-1.779 3.123-5.01h-1.952c1.106 2.472.26 3.6-1.236 3.6-1.302 0-1.8-.78-1.8-2.495v-6.29h4.554V63.23H45.83v-3.254l-4.013 4.556h1.952v6.464zm25.209-2.625c.78-3.557-1.215-5.358-4.447-5.358-3.363 0-5.792 2.3-5.792 5.966 0 3.579 2.386 5.748 5.64 5.748 3.102 0 5.032-1.909 4.208-5.336h-2.234c.824 2.494.021 4.1-1.974 4.1-1.996 0-3.471-1.41-3.471-4.512 0-2.994 1.345-4.73 3.47-4.73 2.257 0 3.124 1.476 2.43 4.122h2.17zm3.046.217h2.169c-.282-.542-.434-1.106-.434-1.627 0-1.8 1.063-2.711 2.712-2.711 1.952 0 2.906.91 2.906 3.123v.5l-1.93.325c-2.647.455-5.445.78-5.445 3.709 0 2.104 1.692 2.82 3.45 2.82 1.67 0 3.036-.824 3.925-1.692v1.475h2.061v-6.92c0-3.362-1.952-4.577-4.88-4.577-2.929 0-4.903 1.454-4.903 3.861 0 .521.043 1.107.369 1.714zm2.147 3.124c0-1.28.846-2.018 3.232-2.386l1.974-.304v2.755c-.715.672-1.952 1.497-3.427 1.497-.911 0-1.779-.434-1.779-1.562zm15.023 3.015c2.95 0 4.599-1.367 4.599-3.232 0-4.642-7.224-2.083-7.224-5.488 0-1.107.803-1.844 2.452-1.844 1.822 0 2.646.802 2.646 2.538 0 .629-.13 1.02-.26 1.432h2.17c.15-.282.26-.955.26-1.345 0-2.538-1.67-3.775-4.686-3.775-2.603 0-4.534 1.28-4.534 3.297 0 4.773 7.224 2.061 7.224 5.554 0 1.214-1.128 1.713-2.452 1.713-1.605 0-2.971-.716-2.971-2.624 0-.434.021-.868.216-1.324h-2.169c-.152.26-.217.63-.217 1.345 0 2.56 2.213 3.753 4.946 3.753zm16.79-11.497h-2.061v8.677c-.672.542-1.8 1.193-3.037 1.193-1.713 0-2.169-.716-2.169-2.798V63.23h-2.06v7.744c0 2.365.802 3.753 3.275 3.753 1.627 0 3.189-.954 3.991-1.584v1.367h2.061V63.23zm3.29 5.358h2.17c-.282-.542-.434-1.106-.434-1.627 0-1.8 1.063-2.711 2.711-2.711 1.953 0 2.907.91 2.907 3.123v.5l-1.931.325c-2.646.455-5.444.78-5.444 3.709 0 2.104 1.692 2.82 3.449 2.82 1.67 0 3.037-.824 3.926-1.692v1.475h2.061v-6.92c0-3.362-1.953-4.577-4.881-4.577s-4.902 1.454-4.902 3.861c0 .521.043 1.107.368 1.714zm2.148 3.124c0-1.28.846-2.018 3.232-2.386l1.974-.304v2.755c-.716.672-1.952 1.497-3.427 1.497-.911 0-1.779-.434-1.779-1.562zm10.402 2.798h2.061V58.025h-2.061v16.486zm11.163-11.28v11.28h2.061v-9.978h5.51V63.23h-7.571zm10.075 16.92h2.061v-6.768c.846.824 2.039 1.345 3.666 1.345 2.755 0 5.011-2.43 5.011-5.857 0-3.406-2.104-5.857-5.032-5.857-1.606 0-2.929.694-3.645 1.584V63.23h-2.061v16.92zm5.076-6.79a3.829 3.829 0 01-3.015-1.431v-6.16c.477-.63 1.432-1.346 3.015-1.346 2.278 0 3.493 1.91 3.493 4.447 0 2.603-1.215 4.49-3.493 4.49zm11.171 3.037c-.781 2.148-1.085 2.669-2.061 2.669-.716 0-1.128-.434-1.128-1.172 0-.52.087-.998.455-1.627h-2.256c-.325.716-.412 1.128-.412 1.736 0 1.214.846 2.364 3.146 2.364 2.169 0 2.841-1.453 3.666-3.688l4.924-13.449h-1.519l-3.21 8.764-3.948-8.764h-2.061l5.098 11.28-.694 1.887zm13.268-2.841c-2.473 0-3.514-1.584-2.603-4.209h-2.235c-1.041 3.254 1.389 5.38 4.708 5.38 3.492 0 5.054-1.367 5.054-3.124 0-2.039-1.714-2.733-3.124-2.776 1.28-.13 2.69-.955 2.69-2.712 0-1.952-1.562-3.102-4.534-3.102-3.774 0-6.008 1.844-5.032 5.402h2.169c-.803-2.69.152-4.252 2.668-4.252 1.866 0 2.56.998 2.56 2.126 0 1.453-.825 2.017-2.495 2.017h-1.996v1.302h2.365c1.54 0 2.56.585 2.56 1.735 0 1.584-.998 2.213-2.755 2.213zm9.688.954l5.315-8.894v8.894h2.061v-11.28h-2.061l-5.315 8.894v-8.894h-2.06v11.28h2.06zm10.639-11.28v11.28h2.061V69.37h5.097v5.141h2.061v-11.28h-2.061v4.837h-5.097v-4.837h-2.061zm22.163 5.141c.781-3.557-1.215-5.358-4.447-5.358-3.363 0-5.792 2.3-5.792 5.966 0 3.579 2.386 5.748 5.64 5.748 3.102 0 5.033-1.909 4.208-5.336h-2.234c.824 2.494.022 4.1-1.974 4.1s-3.471-1.41-3.471-4.512c0-2.994 1.345-4.73 3.471-4.73 2.256 0 3.124 1.476 2.429 4.122h2.17zm3.003 6.14h2.06v-5.229l5.315 5.228h2.711l-6.16-6.074 5.51-5.206h-1.844l-5.532 5.206v-5.206h-2.06v11.28zm16.437.216c3.232 0 5.466-2.43 5.466-5.857 0-3.384-2.234-5.857-5.466-5.857-3.211 0-5.467 2.473-5.467 5.857 0 3.428 2.256 5.857 5.467 5.857zm0-1.236c-2.148 0-3.298-1.866-3.298-4.62 0-2.712 1.15-4.621 3.298-4.621 2.147 0 3.297 1.909 3.297 4.62 0 2.755-1.15 4.62-3.297 4.62zm10.238 1.02l5.315-8.895v8.894h2.061v-11.28h-2.061l-5.315 8.894v-8.894h-2.061v11.28h2.061zm6.269-16.704h-1.865c.152.347.173.63.173.89.022 1.127-.585 1.67-1.865 1.67-1.193 0-1.909-.52-1.909-1.67 0-.26 0-.543.173-.89h-1.865a2.7 2.7 0 00-.13.868c0 1.648 1.106 2.646 3.731 2.646 2.69 0 3.687-1.084 3.687-2.755 0-.238-.043-.499-.13-.759zm10.227 16.703h2.06v-5.228l5.315 5.228h2.712l-6.161-6.074 5.51-5.206h-1.844l-5.532 5.206v-5.206h-2.06v11.28zm14.723 1.887c-.781 2.148-1.084 2.669-2.061 2.669-.715 0-1.128-.434-1.128-1.172 0-.52.087-.998.456-1.627h-2.256c-.325.716-.412 1.128-.412 1.736 0 1.214.846 2.364 3.145 2.364 2.169 0 2.842-1.453 3.666-3.688l4.924-13.449h-1.518l-3.211 8.764-3.948-8.764h-2.06l5.097 11.28-.694 1.887zm8.256-1.887L287.626 70l3.427 4.512h2.387l-4.621-6.095 3.926-5.185h-1.67l-3.08 4.078-3.102-4.078h-2.386l4.295 5.662-4.252 5.618h1.67zm11.496-11.28v11.28h2.061V69.37h5.098v5.141h2.06v-11.28h-2.06v4.837h-5.098v-4.837h-2.061zm14.527 11.28l5.315-8.894v8.894h2.061v-11.28h-2.061l-5.315 8.894v-8.894h-2.061v11.28h2.061z" fill="#000" fill-opacity=".85"/></svg>