<svg width="273" height="175" fill="none" xmlns="http://www.w3.org/2000/svg"><g clip-path="url(#clip0_131_288)" fill="#000" fill-opacity=".85"><path d="M.49 149.024h17.08v24.772h6.19v-24.772h17.08v-14.101H.49v14.101zm48.244-9.712v13.141l39.991 7.194a62.505 62.505 0 01-16 1.823c-15.378 0-22.815-4.005-23.99-5.252v13.117c3.43 2.83 13.458 5.084 23.99 5.084 10.53 0 20.462-2.254 23.989-5.084v-13.117l-39.847-7.194a65.753 65.753 0 0115.905-1.751c15.257 0 22.862 3.885 23.99 5.132v-13.093c-3.767-2.926-13.123-4.94-23.99-4.94-10.531 0-20.44 2.014-24.038 4.94zm55.92 1.654v24.94c3.623 3.621 12.931 8.418 26.125 8.418 13.626 0 22.358-4.653 26.197-8.442v-24.94c-3.791-3.501-12.691-6.594-26.197-6.594-13.074.024-22.598 3.165-26.125 6.618zm26.221 19.88c-13.41 0-20.343-4.796-22.382-6.546 2.039-1.799 8.972-6.403 22.382-6.403 13.41 0 20.319 4.604 22.358 6.403-2.135 1.798-9.116 6.546-22.454 6.546h.096zm61.772 5.012l-11.443-30.935h-16.337v38.873h14.082v-28.225l10.436 28.225h16.337l11.539-27.937v27.937h6.213v-38.873h-18.04l-12.787 30.935zm38.72-16.834h17.465v10.695h-17.465v14.077h41.143v-14.077h-17.489v-10.695h17.489v-14.101h-41.143v14.101z"/></g><g clip-path="url(#clip1_131_288)" fill="#000" fill-opacity=".85"><path d="M102.1 72.017V105c4.888 4.844 17.207 11.172 34.64 11.172 18.032 0 29.581-6.181 34.641-11.172V72.017c-4.986-4.612-16.761-8.71-34.641-8.71-17.274 0-29.874 4.171-34.64 8.71zm26.397 25.795c-12.38-1.521-19.101-6.163-21.332-8.143 2.231-1.979 8.958-6.523 21.338-8.001a11.503 11.503 0 000 16.144h-.006zm37.824-8.143c-2.23 1.98-8.994 6.616-21.331 8.137a11.503 11.503 0 000-16.138c12.361 1.484 19.083 6.022 21.331 8.001zm-19.853-52.262c0 5.821-1.283 12.693-3.727 15.466h-16.077c2.444-2.773 3.727-9.645 3.727-15.466 0-8.723-3.379-11.899-3.379-21.947 0-5.809 1.284-12.29 3.728-15.46h16.077c-2.445 3.17-3.728 9.651-3.728 15.46 0 10.048 3.379 13.224 3.379 21.947zm-24.558 0c0 5.821-1.283 12.693-3.727 15.466H102.1c2.444-2.773 3.727-9.645 3.727-15.466 0-8.723-3.379-11.899-3.379-21.947 0-5.809 1.283-12.29 3.727-15.46h16.077c-2.444 3.17-3.727 9.651-3.727 15.46 0 10.048 3.385 13.224 3.385 21.947zm49.124 0c0 5.821-1.277 12.693-3.727 15.466h-16.065c2.444-2.773 3.728-9.645 3.728-15.466 0-8.723-3.38-11.899-3.38-21.947 0-5.809 1.284-12.29 3.728-15.46h16.089c-2.444 3.17-3.727 9.651-3.727 15.46-.025 10.048 3.354 13.224 3.354 21.947z"/></g><defs><clipPath id="clip0_131_288"><path fill="#fff" transform="translate(.49 134.372)" d="M0 0h272.019v40.048H0z"/></clipPath><clipPath id="clip1_131_288"><path fill="#fff" transform="translate(102.1)" d="M0 0h69.287v116.185H0z"/></clipPath></defs></svg>