<svg width="36" height="32" viewBox="0 0 36 32" fill="none" xmlns="http://www.w3.org/2000/svg">
<path d="M11.7101 10C11.7509 10.0182 11.7895 10.0406 11.832 10.053C12.39 10.2194 12.5678 10.6161 12.3028 11.1059C11.8242 11.9897 11.175 12.7379 10.3262 13.3457C9.64352 13.8355 8.9938 14.3647 8.32507 14.8717C8.10981 15.0349 7.88112 15.1826 7.60043 15.3781C7.95437 15.3994 8.25127 15.4238 8.54873 15.4342C11.9421 15.5507 15.3355 15.4956 18.7267 15.3755C21.1875 15.2881 23.6465 15.1493 26.1062 15.0333C28.4635 14.9221 30.8214 14.8155 33.1787 14.6959C33.6366 14.6725 33.9056 14.8769 34.0918 15.2283V15.7462C33.8754 16.2266 33.4588 16.3508 32.9332 16.3701C31.1781 16.4351 29.4235 16.5266 27.669 16.6092C25.7377 16.7002 23.8076 16.8011 21.8758 16.8822C19.8047 16.969 17.7331 17.0673 15.6609 17.1063C13.681 17.1432 11.7 17.1094 9.71956 17.1073C9.06984 17.1068 8.42013 17.1073 7.80228 17.1073C7.80004 17.1057 7.84701 17.1463 7.90069 17.1765C9.48137 18.0692 10.7914 19.2208 11.8068 20.6604C12.1457 21.1408 12.125 21.5329 11.6754 21.8074C11.1811 22.1095 10.7115 22.0673 10.3637 21.602C9.77212 20.8102 9.09109 20.0953 8.2932 19.4797C6.99153 18.4757 5.52492 17.7889 3.84751 17.5149C3.66467 17.4853 3.47847 17.4749 3.29396 17.4551C2.83211 17.4057 2.51005 17.1609 2.41052 16.7829C2.31883 16.4361 2.4888 16.1049 2.88523 15.8735C4.5755 14.8883 6.25683 13.889 7.96275 12.9282C8.67733 12.5258 9.23087 11.9788 9.78666 11.4241C10.0142 11.1969 10.2301 10.9582 10.4302 10.7102C10.6835 10.3983 10.9519 10.1128 11.3752 10H11.7101Z" fill="white"/>
</svg>
