<?xml version="1.0" encoding="utf-8"?>
<!-- Generator: Adobe Illustrator 18.1.1, SVG Export Plug-In . SVG Version: 6.00 Build 0)  -->
<!DOCTYPE svg PUBLIC "-//W3C//DTD SVG 1.1//EN" "http://www.w3.org/Graphics/SVG/1.1/DTD/svg11.dtd">
<svg version="1.1" id="Layer_1" xmlns="http://www.w3.org/2000/svg" xmlns:xlink="http://www.w3.org/1999/xlink" x="0px" y="0px"
	 viewBox="0 0 117.9 32.1" style="enable-background:new 0 0 117.9 32.1;" xml:space="preserve">
<g>
	<path d="M19.5,29.9c-6.1,3.2-14.4,0.8-17.8-5.1S0.3,10.4,6,6.8C9.8,4.3,14.5,4,19,3.7c15-1,30-2,44.9-3c10.1-0.7,20.5-1.4,30.3,1.1
		s19.4,8.6,23.3,18c0.3,0.7,0.5,1.4,0.3,2c-0.2,0.6-0.7,1-1.2,1.4c-8.5,6-19.6,6.9-30,7.5c-21.8,1.3-43.7,2.6-65.3-0.2"/>
</g>
</svg>
