<?xml version="1.0" encoding="utf-8"?>
<!-- Generator: Adobe Illustrator 18.1.1, SVG Export Plug-In . SVG Version: 6.00 Build 0)  -->
<!DOCTYPE svg PUBLIC "-//W3C//DTD SVG 1.1//EN" "http://www.w3.org/Graphics/SVG/1.1/DTD/svg11.dtd" [
	<!ENTITY st0 "fill:none;stroke:#010101;stroke-width:3;stroke-linecap:round;stroke-linejoin:round;stroke-miterlimit:10;">
]>
<svg version="1.1" id="Layer_1" xmlns="http://www.w3.org/2000/svg" xmlns:xlink="http://www.w3.org/1999/xlink" x="0px" y="0px"
	 viewBox="0 0 141.7 141.7" style="enable-background:new 0 0 141.7 141.7;" xml:space="preserve">
<g>
	<path style="&st0;" d="M18.2,89c1.2,9.7,1.5,19.5,0.8,29.2c-0.1,1.1-0.1,2.3,0.4,3.3c0.5,0.9,1.3,1.6,2.2,2.3
		C35,134,56,136.5,75.4,136.7c10,0.1,20.1-0.2,29.5-2.5c5.3-1.3,10.6-3.4,13.6-6.9c2.9-3.5,3.2-7.8,3.2-11.8
		c0.1-8.3-0.2-16.5-0.8-24.7"/>
	<path style="&st0;" d="M16.8,85.6c-1,1.8,0.6,4,2.5,4.9s4.1,0.9,5.8,2c1.8,1.1,3.2,3.3,5.3,3.3c2,0,3.6-2,5.6-1.8
		c2.3,0.2,3.3,3.1,5.3,4.1c2.2,1,4.7-0.4,7.1-0.9c8.5-1.8,16.8,8.2,24.8,5c3.1-1.2,5.5-4.3,8.8-4.6c4-0.3,7.5,3.6,11.5,3
		c2.3-0.4,4.1-2.2,6.3-2.9c1.9-0.6,3.9-0.3,5.9-0.2c6.7,0.2,13.4-2.7,17.8-7.7c0.6-0.6,1.1-1.3,1.4-2.1c0.6-1.5,0.2-3.4-1-4.6
		c-4.1-0.7-8-2.4-11.3-4.8"/>
	<path style="&st0;" d="M19.8,101.9c3.1-0.4,5,3.7,8.1,4.5c1.5,0.4,3,0,4.5,0c5.7-0.1,10.4,4.6,16,5.6c3.6,0.7,7.3-0.2,10.9-0.5
		c8.4-0.9,16.9,1,25.3,1.3c12.2,0.5,24.4-2.2,35.3-7.7"/>
	<path style="&st0;" d="M19,106.6c3.9,3.8,9.3,5.9,14.8,5.8c1.3,0,2.6-0.1,3.9,0.1c2.1,0.5,3.8,1.9,5.7,2.9
		c4.5,2.3,9.8,1.5,14.9,1.3c12.5-0.3,24.7,3.8,37.2,3.5c8.8-0.2,17.6-2.8,25.2-7.3"/>
	<path style="&st0;" d="M88.9,127.2c-0.1-0.3-0.3-0.6-0.4-0.9"/>
	<path style="&st0;" d="M105.2,126c0,0.2-0.4,0.2-0.4,0"/>
	<path style="&st0;" d="M47.5,124.2c-0.1,0.1-0.3,0.3-0.4,0.4"/>
	<path style="&st0;" d="M51.8,106.1c0,0.1,0,0.3,0,0.4"/>
	<path style="&st0;" d="M61.5,35.7c0.6,0,1.2-0.9,1.1-1.7c-0.2,3.7,0.1,15.8-4.4,15c-4.3-0.8-4.4-12.1-4-16.2"/>
	<path style="&st0;" d="M58,32.5c0.4,5.5,0.7,11,0.6,16.5c-0.4,0-0.8-0.4-0.8-0.9"/>
	<path style="&st0;" d="M53.4,18.9c0.2,5.1,0.5,10.2,0.7,15.3"/>
	<path style="&st0;" d="M62.2,21.5c0.2,4.3,0.5,8.6,0.7,12.8c0,0.3,0,0.5-0.1,0.7c-0.2,0.2-0.5,0.2-0.6,0"/>
	<path style="&st0;" d="M62.4,31.7c-2.8,0.6-5.7,0.7-8.5,0.3c0.2-0.3,0.4-0.6,0.6-0.9"/>
	<path style="&st0;" d="M52.7,15.5c-0.7,0.7-2.1,0.3-2.6,1.2c-0.2,0.3-0.2,0.6-0.2,0.9c-0.1,4.2,0.8,8.5,2.6,12.3
		c0-0.2-0.1-0.5-0.1-0.7"/>
	<path style="&st0;" d="M63.1,16c0.1-0.1-0.1-0.3-0.2-0.1c-0.1,0.1,0,0.3,0,0.5c1.5,3,3.5,5.8,6.1,8c0.1,0.1,0.4,0.3,0.5,0.2
		c0.2-0.1-0.1-0.4-0.2-0.2"/>
	<path style="&st0;" d="M63.4,24.1c1.7,1.7,3.8,3.1,6,4.1"/>
	<path style="&st0;" d="M72.1,25.8c1.9-1.9,3.8-3.8,5.6-5.7"/>
	<path style="&st0;" d="M73,48.4c-0.2-9.2,2-18.9,7.5-26.3c-0.2-0.1,0.1-0.3,0.2-0.1c0.1,0.2-0.1,0.3-0.2,0.5
		c-2.8,2.5-5.7,5.1-9.4,6"/>
	<path style="&st0;" d="M73.6,47c2.2,0.1,4.3,0.9,6.4,1.2c3.5,0.5,6.4-0.7,9.8-1.5c-0.1,0.2,0.2,0.5,0.3,0.3
		c-0.4-8.4-2.2-16.7-5.4-24.4"/>
	<path style="&st0;" d="M81.1,9.6c-1.1,0-2,0.8-2.2,1.9c-0.3,1.4,0.8,2.9,2.2,3.2c1.4,0.3,2.9-0.6,3.4-2c0.4-1.1,0.1-2.4-0.7-3.1
		s-2.3-0.8-3.1,0C80.5,9.8,80.9,10,81,9.8"/>
	<path style="&st0;" d="M77.1,18.7c-2-1.6-2.9-4.4-2.9-7c0.1-2.1,0.8-4.2,2.4-5.6c2.7-2.2,7-1.1,9.1,1.6c2.1,2.7,2.2,6.6,1.2,9.8
		c-0.3-0.5-0.7-1-1-1.5"/>
	<path style="&st0;" d="M89.1,31.6c0.9-5.1,0.3-10.4-1.9-15.1C87,16,87,15.8,87,15.2"/>
	<path style="&st0;" d="M56.6,6.9c-1.7,1-2.3,3.5-1.2,5.1c0.2,0.4,0.6,0.7,1,0.9c0.6,0.2,1.4,0,2-0.3c1.9-1.2,2.3-4.2,0.7-5.9
		c-0.3-0.3-0.6-0.5-1-0.7c-0.7-0.2-1.5,0.2-2,0.7c-0.5,0.6-0.8,1.3-1,2"/>
	<path style="&st0;" d="M57.1,14.9c-0.3,3.8-0.3,7.6,0.2,11.3c2.4-3.2,2.4-8,0.1-11.2"/>
	<path style="&st0;" d="M53.2,40.8c-3.2,1-6.2,2.6-8.7,4.9c-0.8,0.7-1.5,1.5-1.6,2.5c-0.1,2.1,2.6,3,4.6,3.2
		c15.2,1.8,31.1,3.6,45.7-1.2c1.6-0.5,3.4-1.3,3.9-2.9c0.4-1.5-0.5-3.1-1.7-3.9s-2.8-1.2-4.3-1.5"/>
	<path style="&st0;" d="M64.2,39.9c-0.4,0.2-0.6,0.5-0.6,0.9c2.9-0.2,5.8-0.5,8.7-0.7"/>
	<path style="&st0;" d="M42.9,51.5c-0.4,1.4-0.4,2.9-0.2,4.3c0.1-0.5,0.2-0.9,0.2-1.4"/>
	<path style="&st0;" d="M97.2,48.3c0.1,1.7,0.4,3.3,0.9,4.9"/>
	<path style="&st0;" d="M16.8,84.3C23,80,29.9,76.6,37.1,74.2"/>
	<path style="&st0;" d="M112.8,77.9c-2.5-3.4-7.1-5-11.2-4.1"/>
	<path style="&st0;" d="M43.9,55.1c2.9,0.7,5.7,1.5,8.4,2.4c3.9,1.3,7.7,2.9,11.7,4.1c11,3.2,23.1,3.2,34.1,0"/>
	<path style="&st0;" d="M53.2,58c0.4,7.2,0.8,14.3,1.2,21.5c-2.2-0.1-4.5-0.2-6.7-0.2c-0.4,0-0.9,0-1.3,0.2c0-0.3,1.1,0.1,1.1-0.2
		c0.2,0.5,0.4,1,0.7,1.6c0-7.7-0.7-15.8-0.7-23.5c0-0.1,0-0.2,0-0.3"/>
	<path style="&st0;" d="M67.5,63.1c0,8.1,0.2,16.1,0.6,24.2c1.1,0.7,2.5,0.8,3.8,0.4c0.3-0.1,0.6-0.2,0.8-0.5
		c0.2-0.3,0.3-0.6,0.3-0.9c0.5-3.7,1-7.4,0.5-11.1c-0.5-3.9-2-7.7-1.9-11.7c0-0.3,0.1-0.7,0.3-0.9s0.8,0.1,0.6,0.4"/>
	<path style="&st0;" d="M94.3,63.1C94.2,70,94.1,76.9,94,83.8c-1.2,0.6-2.3,1.2-3.5,1.7c-0.3,0.1-0.6,0.3-0.9,0.2
		c-0.7-0.1-0.9-1-0.9-1.8c-0.2-6.9-0.4-13.8-0.6-20.7c-0.1,0.4-0.2,0.7-0.3,1.1"/>
	<path style="&st0;" d="M76.8,64.1c0.5,5.7,0.5,11.4-0.1,17.1c-1.1,0.3-2.1,0.5-3.2,0.8c0.1-0.6,0.2-1.1,0.3-1.7"/>
	<path style="&st0;" d="M59.7,83.1C58.8,83.6,57.9,84,57,84c-0.9,0.1-2-0.2-2.5-1c-0.9-1.3,0-3.2,1.3-4.1c2.1-1.4,5.4-1,6.5,1.2
		c0.4,0.9,0.5,2-0.1,2.8c-0.5,0.6-1.2,0.9-1.9,1.1c-1.1,0.4-2.3,0.9-3.5,0.7s-2.4-1.1-2.4-2.3"/>
	<path style="&st0;" d="M46,78c-1.6-2.9-7.8,0.5-7.7-4.3c0-1.8,1.4-3.3,2.9-4.3c1.3-0.9,2.7-1.5,4.2-1.9c0.6-0.2,1.3-0.3,1.8-0.1
		c0.6,0.2,1,1,0.7,1.5"/>
	<path style="&st0;" d="M62.5,79.2c-0.3,0.4-0.9,0.3-1.2,0s-0.4-0.8-0.5-1.3c-0.2-2.6,1.6-5.2,4.1-6c0.3-0.1,0.7-0.2,0.9,0
		c0.3,0.1,0.4,0.4,0.5,0.7c0.5,1.3,0.8,2.6,0.6,4c-0.2,1.3-1,2.7-2.3,3.1c-1.3,0.5-2.9-0.2-3.3-1.5"/>
	<path style="&st0;" d="M46.5,79.3c-0.3-1.3-2.2-1.7-3.3-1c-1.2,0.7-1.7,2.1-2.1,3.4c-0.7,2-1.2,4.4,0,6.2c1.4,2,4.5,2,6.4,0.5
		c1.8-1.5,2.4-4.2,2.1-6.5c-0.1-0.9-0.4-1.8-1-2.4c-1.4-1.3-3.7-0.5-5.3,0.4c-0.4,0.3-0.9,0.5-1,1c-0.2,0.5,0.1,1.1,0.6,1.1"/>
	<path style="&st0;" d="M94.9,69.6c-0.2-0.1-0.3-0.2-0.5-0.4c1.5-1.3,3.8-1.6,5.5-0.6c1.7,1,2.7,3.2,2.3,5.1
		c-0.4,1.8-1.8,3.2-3.5,3.8c-1.7,0.6-3.6,0.2-5.2-0.7"/>
	<path style="&st0;" d="M104.6,81.2c-2.2,0.3-4.2,2.2-4.3,4.4s2.1,4.3,4.3,3.9c0.9-0.2,1.7-0.7,2.4-1.2c0.8-0.6,1.5-1.4,1.9-2.3
		s0.4-2.1-0.2-2.9c-0.7-0.9-1.9-1.1-3.1-1c-1.1,0.1-2.2,0.4-3.4,0.3c-0.3,0-0.8-0.4-0.5-0.6"/>
	<path style="&st0;" d="M80.8,82.7c-1.9,1.3-2.7,4-1.9,6.2c0.4,1.1,1.2,2.1,2.3,2.2c1.1,0.2,2.1-0.5,2.8-1.2
		c1.3-1.3,2.1-3.1,1.8-4.8s-1.8-3.4-3.6-3.4c-1.9,0-3.4,1.5-4.7,2.9"/>
	<path style="&st0;" d="M54.2,68.2c1.4-1.2,3.7-1.1,5,0.2c0.9,0.9,1.2,2.2,1.9,3.2c0.7,1,2.2,1.7,3.2,0.9"/>
	<path style="&st0;" d="M77.8,69.6c0.4-1,1.6-1.4,2.6-1.3c1.9,0.3,3.1,2.6,2.3,4.4c-0.8,1.7-3.4,2.3-4.8,1"/>
	<path style="&st0;" d="M88.7,72.9c-1.7-1.4-4.5-1.3-6.1,0.3"/>
</g>
</svg>
