<svg width="48" height="48" viewBox="0 0 48 48" fill="none" xmlns="http://www.w3.org/2000/svg">
<g clip-path="url(#clip0)">
<path d="M39.7059 28.675V30.2978C39.5829 30.8737 39.5079 31.4654 39.3289 32.0219C39.0521 32.8821 38.6326 33.6678 37.8189 34.143C37.1553 34.5305 36.4191 34.5869 35.6804 34.5493C34.9417 34.5118 34.216 34.3784 33.4828 34.3615C31.6229 34.3246 29.7612 34.2889 27.9019 34.3289C25.4688 34.3815 23.0369 34.4974 20.6056 34.605C19.3705 34.6601 18.1361 34.7453 16.903 34.8361C15.4041 34.9462 13.9071 35.0909 12.4033 34.9124C11.1117 34.759 10.0501 34.2006 9.28621 33.1037C8.55369 32.0513 8.27691 30.8499 8.29475 29.5978C8.31259 28.3457 8.44359 27.1105 8.54508 25.869C8.7179 23.7467 8.90857 21.6256 9.08816 19.5039C9.14967 18.7595 9.17858 18.0101 9.27268 17.2695C9.32127 16.8851 9.49287 16.5182 9.5802 16.1357C9.6743 15.7288 9.75119 15.6292 10.1577 15.5841C10.8072 15.5115 11.4573 15.4232 12.1093 15.3901C14.754 15.2555 17.3987 15.077 20.0434 15.0307C24.3893 14.9543 28.731 14.8429 33.0652 14.4892C34.1028 14.4034 35.1533 14.4785 36.154 14.8291C36.7537 15.0388 37.2986 15.3381 37.4659 16.0443C37.9352 16.0862 38.1332 16.2271 38.2107 16.6704C38.3952 17.7015 38.6074 18.7313 38.7028 19.7718C38.9186 22.1709 39.0103 24.5818 39.4543 26.9565C39.562 27.5268 39.6235 28.1028 39.7059 28.675ZM10.2297 23.6628C10.2119 23.8105 10.1934 23.9527 10.1774 24.0954C10.103 24.7659 10.0403 25.4383 9.95354 26.1069C9.76472 27.5606 9.56237 29.0125 9.74565 30.4831C9.82438 31.1179 9.99475 31.7233 10.3546 32.2579C10.9432 33.1344 11.8202 33.4349 12.8012 33.4155C15.7247 33.3567 18.6479 33.2782 21.5706 33.1801C23.7983 33.1031 26.0241 32.9598 28.2518 32.8846C29.303 32.8489 30.3578 32.8771 31.4095 32.9228C32.5012 32.9698 33.5899 33.1106 34.6816 33.1351C35.303 33.1391 35.9227 33.0659 36.5267 32.9172C37.4013 32.7125 37.9893 32.1559 38.1449 31.2162C38.3044 30.2929 38.32 29.3497 38.191 28.4215C38.0114 27.18 37.7906 25.9441 37.5957 24.7046C37.5305 24.2876 37.4905 23.8663 37.4351 23.413C37.1971 23.413 36.9819 23.4255 36.769 23.413C33.9263 23.2202 31.0854 23.3203 28.2445 23.4625C26.3046 23.5589 24.3647 23.6828 22.4237 23.7354C20.7273 23.7811 19.0286 23.7536 17.3317 23.741C14.9816 23.7223 12.6308 23.6897 10.2297 23.6628V23.6628ZM36.8552 16.6647C35.1847 16.0687 33.457 15.9679 31.7152 16.0387C30.009 16.1075 28.3054 16.2603 26.5992 16.2891C23.3579 16.3517 20.1148 16.3448 16.8728 16.3767C14.9293 16.3961 12.9863 16.4343 11.0428 16.4619C10.8847 16.4619 10.7519 16.4713 10.6775 16.6603C10.3804 17.4172 10.3736 18.2061 10.3619 19.0481C11.1701 18.5773 12.0121 18.4847 12.8596 18.4427C15.5142 18.3075 18.1687 18.1716 20.8233 18.0546C23.3265 17.9438 25.8292 17.8204 28.333 17.7691C30.3278 17.7211 32.3231 17.839 34.299 18.1216C35.2529 18.2624 36.2057 18.4271 37.1897 18.5861C37.0766 17.9469 36.9665 17.3071 36.8552 16.6647V16.6647ZM10.3693 19.2798C10.3693 19.7806 10.3545 20.2245 10.3779 20.6696C10.3867 20.8279 10.4524 20.9774 10.5624 21.0897C11.0588 21.5217 11.5914 21.9098 12.081 22.3493C12.3793 22.6167 12.696 22.5904 13.0103 22.5703C12.2337 21.7556 11.4594 20.9432 10.6873 20.1331C10.6301 20.0705 10.5526 20.0166 10.5311 19.9453C10.5199 19.9051 10.517 19.863 10.5226 19.8216C10.5282 19.7802 10.5422 19.7405 10.5637 19.7049C10.5907 19.6685 10.7137 19.6729 10.7728 19.7049C10.8504 19.755 10.9202 19.8166 10.9801 19.8877C11.9328 20.7998 12.9027 21.687 14.0135 22.4082C14.5787 22.7757 15.1532 22.5547 15.7245 22.5997C15.5769 22.4803 15.4222 22.3701 15.2614 22.2698C14.3247 21.6312 13.5909 20.7785 12.8627 19.9215C12.7705 19.8132 12.6007 19.7099 12.4672 19.7099C11.7519 19.7074 11.0576 19.6498 10.3693 19.2798V19.2798ZM18.2518 19.3655C19.218 20.3265 20.0742 21.3733 21.2434 22.0438L21.2526 21.9486L21.7059 21.8234C21.7569 22.0739 21.8086 22.3243 21.8646 22.5947L23.8672 22.4914C23.5787 22.2554 23.3321 22.057 23.0897 21.8541C22.2047 21.116 21.319 20.3791 20.4413 19.6322C20.338 19.5446 20.2808 19.4018 20.1732 19.2416L18.2518 19.3655ZM23.6642 18.9899L23.6494 19.1151C24.3315 19.7255 25.0025 20.3509 25.7012 20.9401C26.1564 21.3232 26.654 21.655 27.1349 22.0044C27.1964 22.0501 27.2832 22.1052 27.3514 22.0983C27.7543 22.0544 28.1553 21.9937 28.5631 21.938C28.5471 21.8917 28.5465 21.8673 28.5342 21.8547C27.614 20.9236 26.6929 19.9943 25.7707 19.0669C25.7196 19.0213 25.6542 18.9955 25.5862 18.9943C24.9435 18.9905 24.3032 18.9924 23.6624 18.9924L23.6642 18.9899ZM22.9876 19.0857L20.8091 19.204C21.0152 19.3918 21.236 19.5039 21.4279 19.6529C22.1432 20.2057 22.8425 20.7798 23.5615 21.3282C23.8436 21.5498 24.1472 21.7415 24.4675 21.9004C24.6999 22.0119 24.9527 22.0557 24.9429 22.4013L26.1619 22.2554C25.0032 21.2725 24.0012 20.2358 22.9827 19.0882L22.9876 19.0857ZM13.1715 19.6767C13.9298 20.52 14.69 21.2625 15.6569 21.7527C16.104 21.9793 16.5469 22.2128 16.9915 22.4451C17.0967 22.5002 17.1964 22.6035 17.304 22.611C17.625 22.6336 17.9486 22.6192 18.2678 22.6192C18.2715 22.5822 18.2764 22.5672 18.2727 22.5641C17.116 21.592 15.9578 20.6212 14.7983 19.6516C14.7385 19.5979 14.6626 19.5664 14.583 19.5621C14.1242 19.5934 13.6709 19.6366 13.1666 19.6792L13.1715 19.6767ZM15.4287 19.5127C15.508 19.5878 15.5462 19.6322 15.5917 19.666C16.5057 20.3309 17.4258 20.9876 18.3323 21.6625C18.6928 21.9311 19.0243 22.2404 19.3712 22.529C19.4113 22.5724 19.4631 22.6028 19.52 22.6167C19.889 22.6242 20.2581 22.6204 20.6831 22.6204C20.4401 22.4113 20.2378 22.2667 20.068 22.0883C19.2906 21.2631 18.523 20.4279 17.748 19.6003C17.6755 19.5227 17.5746 19.4125 17.4891 19.4125C16.8163 19.435 16.1471 19.4788 15.4238 19.5152L15.4287 19.5127ZM30.9113 21.6938L30.9728 21.5749C30.0326 20.7176 29.092 19.862 28.151 19.0081C28.1137 18.9725 28.0659 18.9505 28.0151 18.9454C27.4886 18.9417 26.9615 18.9454 26.4344 18.9454C26.4215 18.978 26.4092 19.0081 26.3969 19.0431C26.4584 19.0907 26.5248 19.1345 26.5814 19.1877C27.1128 19.6742 27.6325 20.1757 28.1805 20.6464C28.6153 21.0221 29.0779 21.3639 29.5336 21.7107C29.6146 21.7719 29.7132 21.804 29.8141 21.8021C30.1776 21.779 30.5417 21.7327 30.9064 21.6963L30.9113 21.6938ZM31.3517 19.0531C31.389 19.1012 31.4288 19.1472 31.471 19.1909C32.2847 19.8795 33.1187 20.5488 33.9066 21.2687C34.4669 21.7809 35.1521 21.7395 35.8864 21.8854C35.7062 21.6857 35.5789 21.5392 35.4479 21.3996C34.9786 20.9081 34.4768 20.4455 34.0444 19.9221C33.6274 19.4169 33.1747 19.0901 32.4932 19.1333C32.1316 19.1583 31.7687 19.0888 31.3468 19.0556L31.3517 19.0531ZM37.3017 22.062L37.3915 22.025C37.3515 21.2268 37.3121 20.4286 37.2746 19.6692C36.344 19.815 35.5162 19.4018 34.6145 19.405L37.3017 22.062ZM32.9139 21.6012C32.107 20.7598 31.3011 19.9208 30.4962 19.0844C30.4561 19.0393 30.4016 19.0101 30.3424 19.0018C29.9408 18.9949 29.5391 18.998 29.1375 18.998C29.1375 19.075 29.199 19.0932 29.2439 19.132C30.0515 19.8313 30.883 20.5056 31.6531 21.245C32.0399 21.6243 32.4446 21.6776 32.909 21.6037L32.9139 21.6012ZM10.3447 21.6531C10.3263 22.0413 10.3121 22.3418 10.2967 22.6586L11.3497 22.5866L10.3447 21.6531Z" fill="black"/>
<path d="M13.4803 25.2803C14.2878 25.3698 15.2203 25.4844 16.1545 25.5726C17.3342 25.6828 18.5151 25.7761 19.6966 25.8675C20.2409 25.9095 20.5392 26.2745 20.3688 26.7208C20.2507 27.0301 19.9998 27.1259 19.7034 27.1077C18.7463 27.0489 17.7875 27 16.8335 26.9049C15.676 26.7891 14.5222 26.6351 13.3677 26.4867C13.0756 26.4491 12.7871 26.3784 12.4987 26.3126C12.2447 26.2544 12.102 26.0672 12.1173 25.8181C12.1327 25.5689 12.2748 25.3648 12.5553 25.3385C12.8197 25.3135 13.0854 25.3022 13.4803 25.2803Z" fill="black"/>
<path d="M26.2752 26.9302C26.2795 27.2658 26.0599 27.54 25.7407 27.5256C24.8538 27.4843 23.9681 27.4192 23.0824 27.3578C23.0037 27.3522 22.8979 27.3328 22.8561 27.279C22.7638 27.1681 22.6365 27.0235 22.6482 26.9033C22.6599 26.7831 22.7989 26.6179 22.9182 26.574C23.1514 26.4977 23.3942 26.4555 23.6391 26.4488C24.3224 26.4087 25.0069 26.3862 25.6909 26.3624C26.0507 26.3486 26.2709 26.5715 26.2752 26.9302Z" fill="black"/>
</g>
<defs>
<clipPath id="clip0">
<rect width="31.4118" height="20.5385" fill="white" transform="translate(8.29419 14.4614)"/>
</clipPath>
</defs>
</svg>
