<svg width="234" height="120" viewBox="0 0 234 120" fill="none" xmlns="http://www.w3.org/2000/svg">
<path fill-rule="evenodd" clip-rule="evenodd" d="M51.9661 25.1642C55.939 21.0784 62.1248 17.5281 69.8901 14.6669L77.5635 30.0895C78.3042 31.5727 80.1315 32.1986 81.6588 31.4704C83.177 30.7393 83.8044 28.9371 83.0637 27.4448L75.7484 12.7413C88.2824 9.02255 103.941 6.8924 120.812 6.8924C137.681 6.8924 153.34 9.02556 165.873 12.7413L158.558 27.4448C157.817 28.9371 158.445 30.7393 159.963 31.4704C161.487 32.1986 163.312 31.5757 164.058 30.0895L171.729 14.6669C179.491 17.5251 185.674 21.0724 189.644 25.1552C190.439 25.9766 190.644 27.2282 190.173 28.3384L182.368 46.7907C167.845 39.3412 145.216 34.9455 120.812 34.9455C96.3996 34.9455 73.7712 39.3412 59.2446 46.7937L51.4457 28.3354C50.9774 27.2282 51.1825 25.9766 51.9661 25.1642ZM173.437 77.5366C172.791 77.2087 172.121 76.9499 171.423 76.7574V59.8786C174.128 60.1704 176.745 60.8474 179.243 61.9245C181.536 62.8963 183.617 64.181 185.508 65.6673L173.437 77.5366ZM171.423 96.8795C172.133 96.6719 172.815 96.3951 173.464 96.0491L185.524 107.906C181.563 111.029 176.721 113.099 171.423 113.677V96.8795ZM163.256 96.0491C163.908 96.3981 164.588 96.6749 165.301 96.8825V113.677C160.006 113.096 155.152 111.032 151.188 107.915L163.256 96.0491ZM146.845 69.8885L158.892 81.7578C158.537 82.3957 158.255 83.0666 158.044 83.7706H140.965C141.555 78.5536 143.661 73.7848 146.845 69.8885ZM165.301 76.7574C164.594 76.9499 163.915 77.2087 163.263 77.5396L151.179 65.6372C155.139 62.5232 159.991 60.4562 165.301 59.8786V76.7574ZM173.011 86.7793C173.011 89.2735 170.954 91.3526 168.362 91.3526C165.858 91.3526 163.679 89.3307 163.679 86.7793C163.679 84.0535 165.993 82.2061 168.362 82.2061C170.746 82.2061 173.011 84.0805 173.011 86.7793ZM140.949 89.788H158.053C158.264 90.4921 158.552 91.166 158.913 91.8099L146.854 103.664C143.664 99.7619 141.534 94.9961 140.949 89.788ZM189.846 103.646L177.792 91.7948C178.144 91.154 178.429 90.486 178.637 89.788H195.695C195.107 94.9931 193.01 99.7558 189.846 103.646ZM195.652 83.7706H178.646C178.438 83.0636 178.156 82.3926 177.801 81.7548L189.821 69.9366C193.014 73.872 195.067 78.6348 195.652 83.7706ZM84.738 101.54C85.0349 101.435 85.3195 101.317 85.6042 101.182L94.2815 109.712C91.5329 111.73 88.2824 113.102 84.738 113.614V101.54ZM77.7594 101.173C78.041 101.308 78.3225 101.429 78.6164 101.534V113.614C75.072 113.105 71.8153 111.736 69.0667 109.718L77.7594 101.173ZM64.751 80.6897L73.4008 89.2134C73.2692 89.4872 73.1498 89.77 73.0488 90.0588H60.7781C61.2892 86.6439 62.6697 83.4307 64.751 80.6897ZM78.6164 84.6462C78.3287 84.7424 78.0563 84.8808 77.7777 85.0072L69.0728 76.4264C71.9806 74.3173 75.1393 73.0416 78.6164 72.5452V84.6462ZM85.5705 84.9831C85.3012 84.8628 85.0226 84.7665 84.738 84.6732V72.5602C88.2487 73.0657 91.5054 74.4166 94.2662 76.4384L85.5705 84.9831ZM81.6772 96.0762C80.107 96.0762 78.6164 94.7795 78.6164 93.0675C78.6164 91.2412 80.1682 90.0889 81.6772 90.0889C83.3545 90.0889 84.7074 91.3796 84.7074 93.0675C84.7074 94.8126 83.2596 96.0762 81.6772 96.0762ZM90.278 90.0588C90.1739 89.77 90.0576 89.4902 89.926 89.2164L98.5697 80.7198C100.158 82.8229 101.407 85.2088 102.108 87.8655C102.304 88.5815 102.439 89.3187 102.552 90.0588H90.278ZM60.775 96.0762H73.0641C73.1682 96.3711 73.2845 96.6509 73.4192 96.9277L64.7388 105.463C62.685 102.765 61.2923 99.5603 60.775 96.0762ZM98.6034 105.451L89.926 96.9186C90.0576 96.6418 90.1739 96.365 90.278 96.0762H102.552C102.035 99.5573 100.648 102.753 98.6034 105.451ZM134.773 84.0715H107.32C102.454 72.2473 92.644 66.2901 81.6772 66.2901C77.3951 66.2901 72.4795 67.5267 68.8219 69.4613L61.6014 52.3658C75.2067 45.1991 97.0454 40.9629 120.812 40.9629C144.573 40.9629 166.409 45.1961 180.008 52.3628L178.766 55.3084C175.885 54.3727 171.946 53.6837 168.362 53.6837C150.928 53.6837 136.187 66.9941 134.773 84.0715ZM144.472 110.058C144.509 110.094 144.518 110.145 144.555 110.178C144.58 110.202 144.61 110.208 144.638 110.232C150.741 116.183 159.137 119.875 168.362 119.875C177.581 119.875 185.943 116.198 192.025 110.268C192.068 110.232 192.123 110.217 192.163 110.178C192.205 110.139 192.218 110.082 192.257 110.037C198.272 104.055 202 95.8385 202 86.7793C202 77.8766 198.37 69.5696 192.239 63.492C192.205 63.4589 192.196 63.4138 192.163 63.3807C192.135 63.3536 192.101 63.3476 192.071 63.3235C189.824 61.1242 187.241 59.2287 184.379 57.7063L186.702 52.2214V52.2154L195.823 30.6521C197.228 27.3455 196.546 23.5636 194.079 21.0062C179.653 6.16429 146.771 0.875 120.812 0.875C94.8508 0.875 61.9687 6.16429 47.531 21.0182C45.0762 23.5636 44.3937 27.3455 45.7924 30.6491L63.6889 72.9995C60.4353 75.8036 57.6347 79.6216 56.0124 84.0775H53.169C46.322 84.0775 39.5515 85.1426 33.0473 87.2427C23.9996 90.1641 10.4525 94.5418 2.1027 97.2466C0.498843 97.7671 -0.376544 99.47 0.156034 101.047C0.676369 102.599 2.38123 103.49 4.02181 102.963C12.3655 100.255 25.9126 95.8776 34.9603 92.9592C40.8462 91.0577 46.9709 90.0949 53.169 90.0949H54.5861C54.4729 91.0788 54.4055 92.0686 54.4055 93.0675C54.4055 107.849 66.6395 119.875 81.6772 119.875C89.1639 119.875 95.9527 116.887 100.881 112.058C100.902 112.04 100.93 112.034 100.951 112.013C100.975 111.992 100.982 111.959 101.003 111.935C105.894 107.088 108.921 100.421 108.921 93.0675C108.921 92.0626 108.839 91.0727 108.722 90.0889H134.843C135.63 97.8363 139.165 104.807 144.472 110.058Z" fill="black" fill-opacity="0.85"/>
</svg>
