<svg width="48" height="48" viewBox="0 0 48 48" fill="none" xmlns="http://www.w3.org/2000/svg">
<path fill-rule="evenodd" clip-rule="evenodd" d="M32.2929 17.52C32.6834 17.1294 32.6834 16.4963 32.2929 16.1058L31.8942 15.7071C31.5037 15.3166 30.8706 15.3166 30.48 15.7071L24.7071 21.48C24.3166 21.8706 23.6834 21.8706 23.2929 21.48L17.52 15.7071C17.1294 15.3166 16.4963 15.3166 16.1058 15.7071L15.7071 16.1058C15.3166 16.4963 15.3166 17.1294 15.7071 17.52L21.48 23.2929C21.8706 23.6834 21.8706 24.3166 21.48 24.7071L15.7071 30.48C15.3166 30.8706 15.3166 31.5037 15.7071 31.8942L16.1058 32.2929C16.4963 32.6834 17.1294 32.6834 17.52 32.2929L23.2929 26.52C23.6834 26.1294 24.3166 26.1294 24.7071 26.52L30.48 32.2929C30.8706 32.6834 31.5037 32.6834 31.8942 32.2929L32.2929 31.8942C32.6834 31.5037 32.6834 30.8706 32.2929 30.48L26.52 24.7071C26.1294 24.3166 26.1294 23.6834 26.52 23.2929L32.2929 17.52Z" fill="black" fill-opacity="0.85"/>
</svg>
