<svg width="56" height="42" viewBox="0 0 56 42" fill="none" xmlns="http://www.w3.org/2000/svg">
<path d="M1.08985 26.1645C1.09362 18.0639 1.30318 9.96887 1.69376 1.85916C2.03257 1.84165 2.35915 1.8232 2.68604 1.80851C3.8653 1.75535 5.04456 1.69907 6.22414 1.65185C7.77421 1.58994 9.3246 1.5321 10.8753 1.47863C12.2171 1.43235 13.5588 1.39139 14.9009 1.35324C16.1439 1.31791 17.3868 1.28758 18.6297 1.25944C19.6954 1.23536 20.7608 1.2141 21.8265 1.1969C23.1225 1.17626 24.4181 1.15813 25.7141 1.14437C27.0104 1.1303 28.3063 1.12154 29.6026 1.11279C30.4336 1.10716 31.265 1.10403 32.096 1.10278C33.3663 1.10122 34.6362 1.10247 35.9064 1.10278C36.8934 1.10278 37.88 1.10278 38.8441 1.10278C38.7249 1.22004 38.5636 1.31666 38.5015 1.45705C38.4372 1.60214 38.4466 1.79193 38.4629 1.95859C38.5573 2.92728 38.6618 3.89534 38.7663 4.86309C38.7998 5.17515 39.0631 5.39278 39.3567 5.36338C39.6735 5.33149 39.8862 5.0654 39.8527 4.74021C39.7683 3.92223 39.6826 3.10426 39.5983 2.28597C39.5935 2.24032 39.5976 2.19373 39.5976 2.12338C39.8555 2.11275 40.1115 2.07929 40.364 2.09524C42.4455 2.22437 44.0875 3.13678 45.2395 4.87685C45.7537 5.65355 45.9959 6.52062 45.9196 7.45679C45.8597 8.19503 45.6241 8.85448 44.9653 9.2841C44.5895 9.52924 44.16 9.63024 43.7221 9.67558C42.2761 9.82473 40.833 9.81222 39.3981 9.55238C38.0378 9.30599 36.8178 8.74817 35.7697 7.85233C34.9612 7.16099 34.1866 6.43025 33.3986 5.71515C32.5848 4.9766 31.734 4.28964 30.7402 3.79966C29.772 3.3222 28.7459 3.06736 27.6686 3.0164C25.8656 2.93103 24.1785 3.3272 22.6535 4.29839C20.7191 5.53067 19.5154 7.2967 19.0137 9.5183C18.5381 11.6252 18.8453 13.6344 19.9844 15.4808C21.1432 17.3594 22.8499 18.4544 25.0296 18.8053C25.8901 18.9438 26.7484 18.8972 27.5917 18.6621C28.9902 18.2725 29.9311 17.3894 30.337 16.0039C30.8465 14.2651 30.6501 12.6004 29.5662 11.1142C28.7848 10.0427 27.6805 9.54738 26.3494 9.58928C25.0675 9.62961 24.0614 10.4351 23.796 11.6405C23.6 12.5316 23.8349 13.2999 24.5292 13.9124C25.017 14.343 25.8732 14.0897 26.0099 13.4772C26.0636 13.2373 25.9908 13.041 25.796 12.9003C25.6052 12.7627 25.3969 12.7649 25.1908 12.8774C25.1638 12.8921 25.1384 12.91 25.1052 12.9303C24.8272 12.6273 24.7827 12.2686 24.8646 11.8928C25.0192 11.1811 25.5874 10.7202 26.3503 10.6871C27.438 10.6399 28.29 11.0823 28.8497 12.0032C29.5631 13.1767 29.6782 14.4446 29.2685 15.7463C28.9378 16.7969 28.1893 17.4207 27.1192 17.6499C25.4468 18.0079 23.9221 17.6205 22.5471 16.6515C21.1715 15.6822 20.359 14.3227 20.054 12.6901C19.5687 10.0918 20.3342 7.85984 22.214 6.01939C23.2373 5.01725 24.5025 4.45504 25.9111 4.21084C27.2146 3.98477 28.4911 4.08076 29.7312 4.55385C30.6667 4.91093 31.4711 5.47939 32.2118 6.13727C32.9995 6.83737 33.7634 7.56404 34.5474 8.2682C35.7367 9.33663 37.0731 10.1412 38.6499 10.5108C39.4969 10.7093 40.3543 10.8375 41.2233 10.8406C42.0634 10.8438 42.9048 10.8206 43.7437 10.7722C44.3686 10.7359 44.9697 10.5695 45.5099 10.2381C46.3604 9.71654 46.804 8.9242 46.9596 7.96834C47.2278 6.31988 46.7234 4.87998 45.684 3.61268C44.6911 2.40198 43.4137 1.6184 41.9012 1.21191C41.857 1.20003 41.8131 1.18721 41.7726 1.18815C42.475 1.18815 43.1774 1.18471 43.8795 1.1894C44.3812 1.19284 44.8828 1.2044 45.3841 1.2166C46.9301 1.25381 48.4758 1.29258 50.0218 1.33167C50.9463 1.35512 51.8708 1.37701 52.7951 1.40452C53.6462 1.43016 54.497 1.4608 55.3478 1.49301C55.5517 1.50083 55.734 1.46143 55.8679 1.29696C56.0081 1.12373 56.0392 0.92987 55.9492 0.725689C55.8563 0.514942 55.685 0.404878 55.4573 0.396748C54.6899 0.369857 53.9222 0.347657 53.1546 0.323893C51.9069 0.285433 50.659 0.244472 49.4113 0.209764C48.7218 0.190378 48.0322 0.180372 47.3427 0.167865C45.5767 0.135971 43.8112 0.104078 42.0452 0.0737477C41.3137 0.0612405 40.5824 0.0484205 39.8508 0.0434176C38.0055 0.030285 36.1602 0.0215299 34.3153 0.0115241C33.4736 0.00683384 32.6322 -0.00160856 31.7905 0.000267528C30.3217 0.00339435 28.8525 0.0102733 27.3837 0.0215299C26.2446 0.030285 25.1052 0.0456064 23.9661 0.0624912C22.7328 0.0806267 21.4999 0.100326 20.267 0.12534C18.9036 0.152856 17.5402 0.183499 16.1771 0.219457C14.7619 0.256667 13.3468 0.298253 11.9319 0.344843C10.4963 0.392058 9.06045 0.443025 7.6252 0.500871C5.94462 0.568723 4.26435 0.644392 2.58408 0.71881C2.09877 0.740385 1.61376 0.764149 1.12907 0.795417C0.832603 0.814491 0.634651 1.03149 0.621475 1.32854C0.546497 3.03985 0.46838 4.75084 0.39748 6.46215C0.350109 7.60656 0.308384 8.75129 0.272308 9.89602C0.225563 11.3791 0.185093 12.8624 0.146194 14.3461C0.121098 15.3039 0.0994492 16.2619 0.0837631 17.22C0.0592957 18.7093 0.0294914 20.1989 0.0222778 21.6885C0.00721741 24.8356 0.00094223 27.9825 0 31.1296C-0.000312805 32.2443 0.021019 33.359 0.0398445 34.4734C0.0674515 36.0928 0.100391 37.7122 0.133644 39.3313C0.148075 40.0288 0.167213 40.7264 0.186352 41.4237C0.19545 41.7564 0.434185 42.0016 0.742882 42C1.06382 41.9984 1.28561 41.7555 1.2853 41.4037C1.2853 41.2474 1.28498 41.091 1.28091 40.9347C1.26083 40.1539 1.23573 39.3732 1.21973 38.5924C1.19244 37.2594 1.16671 35.9265 1.14758 34.5935C1.13848 33.9531 1.14601 33.3128 1.16734 32.6327C1.18021 32.6646 1.18648 32.7015 1.20687 32.7271C2.15053 33.9284 3.39567 34.6326 4.88488 34.9249C6.00423 35.1444 7.10725 35.08 8.15538 34.6173C9.76945 33.9047 10.7219 32.6433 11.0679 30.9339C11.3142 29.7172 11.1049 28.5741 10.3878 27.541C10.1566 27.208 9.86482 26.9447 9.48146 26.7987C9.10908 26.6567 8.74516 26.6651 8.4076 26.9015C8.15067 27.0816 8.0804 27.3859 8.23098 27.6438C8.37623 27.8924 8.67583 27.9843 8.95253 27.8496C9.05167 27.8014 9.11974 27.8286 9.19692 27.8793C9.42844 28.0319 9.56554 28.2614 9.68757 28.4975C10.1814 29.4515 10.1723 30.4317 9.79612 31.4142C9.19064 32.9963 7.79021 33.9453 6.0861 33.9419C4.69728 33.9391 3.48634 33.4688 2.48056 32.5142C1.79038 31.8588 1.40451 31.0371 1.28561 30.0971C1.03213 28.095 2.01783 25.9632 4.22043 24.8381C5.20927 24.3332 6.25834 24.0099 7.33972 23.7916C8.62313 23.5327 9.91502 23.3148 11.2003 23.0652C12.3805 22.8364 13.5394 22.5334 14.6336 22.0193C16.4911 21.1466 17.6936 19.717 18.285 17.7662C18.6448 16.579 18.8349 15.3661 18.861 14.1244C18.8952 12.4738 18.6445 10.8738 17.9709 9.36165C16.691 6.48873 14.5044 4.66267 11.4278 3.98571C8.78595 3.40475 6.44688 4.08577 4.48991 5.96029C3.4261 6.97932 2.73436 8.21973 2.48589 9.67933C2.26849 10.9563 2.44354 12.1961 2.97843 13.3712C3.93213 15.4655 5.51043 16.8585 7.75665 17.4479C8.83363 17.7306 9.91313 17.7171 10.9465 17.2512C11.9137 16.8154 12.6202 16.1199 12.9342 15.0865C13.3132 13.8389 12.6362 12.5748 11.4155 12.2314C10.9311 12.0951 10.4734 12.1598 10.0609 12.4603C9.78953 12.6579 9.7271 12.9909 9.90874 13.2436C10.092 13.4984 10.421 13.5485 10.6984 13.3537C10.8458 13.2502 10.9945 13.2423 11.1576 13.2983C11.7471 13.5009 12.0721 14.1138 11.8917 14.7301C11.6514 15.5518 11.0657 16.0527 10.2855 16.3344C9.43064 16.6434 8.55882 16.589 7.71743 16.2994C5.3771 15.4946 3.98169 13.8493 3.55817 11.4291C3.31755 10.053 3.69433 8.78068 4.49682 7.64627C5.53239 6.1823 6.94098 5.27114 8.71756 4.97316C10.0546 4.74897 11.3534 4.94814 12.5938 5.48252C15.2479 6.62599 16.8337 8.6528 17.4988 11.4297C17.6889 12.2233 17.7771 13.0316 17.7705 13.8446C17.7589 15.3067 17.544 16.7372 16.9928 18.103C16.4155 19.5332 15.3687 20.4987 13.9717 21.1147C13.0014 21.5425 11.9802 21.7976 10.944 21.9977C9.5715 22.2629 8.19302 22.4996 6.82491 22.7854C5.59388 23.0424 4.40741 23.4392 3.3185 24.0874C2.45797 24.5996 1.72827 25.2499 1.17707 26.0907C1.16013 26.1167 1.13942 26.1402 1.11966 26.1642C1.11777 26.1664 1.11056 26.1642 1.08891 26.1642L1.08985 26.1645Z" fill="black"/>
</svg>
