<svg width="56" height="42" viewBox="0 0 56 42" fill="none" xmlns="http://www.w3.org/2000/svg">
<path d="M54.9101 26.1645C54.9064 18.0639 54.6968 9.96887 54.3062 1.85916C53.9674 1.84165 53.6409 1.8232 53.314 1.80851C52.1347 1.75535 50.9554 1.69907 49.7759 1.65185C48.2258 1.58994 46.6754 1.5321 45.1247 1.47863C43.7829 1.43235 42.4412 1.39139 41.0991 1.35324C39.8561 1.31791 38.6132 1.28758 37.3703 1.25944C36.3046 1.23536 35.2392 1.2141 34.1735 1.1969C32.8775 1.17626 31.5819 1.15813 30.2859 1.14437C28.9896 1.1303 27.6937 1.12154 26.3974 1.11279C25.5664 1.10716 24.735 1.10403 23.904 1.10278C22.6337 1.10122 21.3638 1.10247 20.0936 1.10278C19.1066 1.10278 18.12 1.10278 17.1559 1.10278C17.2751 1.22004 17.4364 1.31666 17.4985 1.45705C17.5628 1.60214 17.5534 1.79193 17.5371 1.95859C17.4427 2.92728 17.3382 3.89534 17.2337 4.86309C17.2002 5.17515 16.9369 5.39278 16.6433 5.36338C16.3265 5.33149 16.1138 5.0654 16.1473 4.74021C16.2317 3.92223 16.3174 3.10426 16.4017 2.28597C16.4065 2.24032 16.4024 2.19373 16.4024 2.12338C16.1445 2.11275 15.8885 2.07929 15.636 2.09524C13.5545 2.22437 11.9125 3.13678 10.7605 4.87685C10.2463 5.65355 10.0041 6.52062 10.0804 7.45679C10.1403 8.19503 10.3759 8.85448 11.0347 9.2841C11.4105 9.52924 11.84 9.63024 12.2779 9.67558C13.7239 9.82473 15.167 9.81222 16.6019 9.55238C17.9622 9.30599 19.1822 8.74817 20.2303 7.85233C21.0388 7.16099 21.8134 6.43025 22.6014 5.71515C23.4152 4.9766 24.266 4.28964 25.2598 3.79966C26.228 3.3222 27.2541 3.06736 28.3314 3.0164C30.1344 2.93103 31.8215 3.3272 33.3465 4.29839C35.2809 5.53067 36.4846 7.2967 36.9863 9.5183C37.4619 11.6252 37.1547 13.6344 36.0156 15.4808C34.8568 17.3594 33.1501 18.4544 30.9704 18.8053C30.1099 18.9438 29.2516 18.8972 28.4083 18.6621C27.0098 18.2725 26.0689 17.3894 25.663 16.0039C25.1535 14.2651 25.3499 12.6004 26.4338 11.1142C27.2152 10.0427 28.3195 9.54738 29.6506 9.58928C30.9325 9.62961 31.9386 10.4351 32.204 11.6405C32.4 12.5316 32.1651 13.2999 31.4708 13.9124C30.983 14.343 30.1268 14.0897 29.9901 13.4772C29.9364 13.2373 30.0092 13.041 30.204 12.9003C30.3948 12.7627 30.6031 12.7649 30.8092 12.8774C30.8362 12.8921 30.8616 12.91 30.8948 12.9303C31.1728 12.6273 31.2173 12.2686 31.1354 11.8928C30.9808 11.1811 30.4126 10.7202 29.6497 10.6871C28.562 10.6399 27.71 11.0823 27.1503 12.0032C26.4369 13.1767 26.3218 14.4446 26.7315 15.7463C27.0622 16.7969 27.8107 17.4207 28.8808 17.6499C30.5532 18.0079 32.0779 17.6205 33.4529 16.6515C34.8285 15.6822 35.641 14.3227 35.946 12.6901C36.4313 10.0918 35.6658 7.85984 33.786 6.01939C32.7627 5.01725 31.4975 4.45504 30.0889 4.21084C28.7854 3.98477 27.5089 4.08076 26.2688 4.55385C25.3333 4.91093 24.5289 5.47939 23.7882 6.13727C23.0005 6.83737 22.2366 7.56404 21.4526 8.2682C20.2633 9.33663 18.9269 10.1412 17.3501 10.5108C16.5031 10.7093 15.6457 10.8375 14.7767 10.8406C13.9366 10.8438 13.0952 10.8206 12.2563 10.7722C11.6314 10.7359 11.0303 10.5695 10.4901 10.2381C9.63959 9.71654 9.19599 8.9242 9.04039 7.96834C8.77216 6.31988 9.27662 4.87998 10.316 3.61268C11.3089 2.40198 12.5863 1.6184 14.0988 1.21191C14.143 1.20003 14.1869 1.18721 14.2274 1.18815C13.525 1.18815 12.8226 1.18471 12.1205 1.1894C11.6188 1.19284 11.1172 1.2044 10.6159 1.2166C9.06988 1.25381 7.5242 1.29258 5.9782 1.33167C5.05368 1.35512 4.12915 1.37701 3.20495 1.40452C2.35383 1.43016 1.50303 1.4608 0.652233 1.49301C0.448317 1.50083 0.266048 1.46143 0.132091 1.29696C-0.00814048 1.12373 -0.0391984 0.92987 0.0508382 0.725689C0.143698 0.514942 0.314988 0.404878 0.542746 0.396748C1.3101 0.369857 2.07776 0.347657 2.84543 0.323893C4.09308 0.285433 5.34104 0.244472 6.58869 0.209764C7.27824 0.190378 7.96779 0.180372 8.65734 0.167865C10.4233 0.135971 12.1888 0.104078 13.9548 0.0737477C14.6863 0.0612405 15.4176 0.0484205 16.1492 0.0434176C17.9945 0.030285 19.8398 0.0215299 21.6847 0.0115241C22.5264 0.00683384 23.3678 -0.00160856 24.2095 0.000267528C25.6783 0.00339435 27.1475 0.0102733 28.6163 0.0215299C29.7554 0.030285 30.8948 0.0456064 32.0339 0.0624912C33.2672 0.0806267 34.5001 0.100326 35.733 0.12534C37.0964 0.152856 38.4598 0.183499 39.8229 0.219457C41.2381 0.256667 42.6532 0.298253 44.0681 0.344843C45.5037 0.392058 46.9395 0.443025 48.3748 0.500871C50.0554 0.568723 51.7356 0.644392 53.4159 0.71881C53.9012 0.740385 54.3862 0.764149 54.8709 0.795417C55.1674 0.814491 55.3653 1.03149 55.3785 1.32854C55.4535 3.03985 55.5316 4.75084 55.6025 6.46215C55.6499 7.60656 55.6916 8.75129 55.7277 9.89602C55.7744 11.3791 55.8149 12.8624 55.8538 14.3461C55.8789 15.3039 55.9006 16.2619 55.9162 17.22C55.9407 18.7093 55.9705 20.1989 55.9777 21.6885C55.9928 24.8356 55.9991 27.9825 56 31.1296C56.0003 32.2443 55.979 33.359 55.9602 34.4734C55.9325 36.0928 55.8996 37.7122 55.8664 39.3313C55.8519 40.0288 55.8328 40.7264 55.8136 41.4237C55.8046 41.7564 55.5658 42.0016 55.2571 42C54.9362 41.9984 54.7144 41.7555 54.7147 41.4037C54.7147 41.2474 54.715 41.091 54.7191 40.9347C54.7392 40.1539 54.7643 39.3732 54.7803 38.5924C54.8076 37.2594 54.8333 35.9265 54.8524 34.5935C54.8615 33.9531 54.854 33.3128 54.8327 32.6327C54.8198 32.6646 54.8135 32.7015 54.7931 32.7271C53.8495 33.9284 52.6043 34.6326 51.1151 34.9249C49.9958 35.1444 48.8927 35.08 47.8446 34.6173C46.2305 33.9047 45.2781 32.6433 44.9321 30.9339C44.6858 29.7172 44.8951 28.5741 45.6122 27.541C45.8434 27.208 46.1352 26.9447 46.5185 26.7987C46.8909 26.6567 47.2548 26.6651 47.5924 26.9015C47.8493 27.0816 47.9196 27.3859 47.769 27.6438C47.6238 27.8924 47.3242 27.9843 47.0475 27.8496C46.9483 27.8014 46.8803 27.8286 46.8031 27.8793C46.5716 28.0319 46.4345 28.2614 46.3124 28.4975C45.8186 29.4515 45.8277 30.4317 46.2039 31.4142C46.8094 32.9963 48.2098 33.9453 49.9139 33.9419C51.3027 33.9391 52.5137 33.4688 53.5194 32.5142C54.2096 31.8588 54.5955 31.0371 54.7144 30.0971C54.9679 28.095 53.9822 25.9632 51.7796 24.8381C50.7907 24.3332 49.7417 24.0099 48.6603 23.7916C47.3769 23.5327 46.085 23.3148 44.7997 23.0652C43.6195 22.8364 42.4606 22.5334 41.3664 22.0193C39.5089 21.1466 38.3064 19.717 37.715 17.7662C37.3552 16.579 37.1651 15.3661 37.139 14.1244C37.1048 12.4738 37.3555 10.8738 38.0291 9.36165C39.309 6.48873 41.4956 4.66267 44.5722 3.98571C47.2141 3.40475 49.5531 4.08577 51.5101 5.96029C52.5739 6.97932 53.2656 8.21973 53.5141 9.67933C53.7315 10.9563 53.5565 12.1961 53.0216 13.3712C52.0679 15.4655 50.4896 16.8585 48.2434 17.4479C47.1664 17.7306 46.0869 17.7171 45.0535 17.2512C44.0863 16.8154 43.3798 16.1199 43.0658 15.0865C42.6868 13.8389 43.3638 12.5748 44.5845 12.2314C45.0689 12.0951 45.5266 12.1598 45.9391 12.4603C46.2105 12.6579 46.2729 12.9909 46.0913 13.2436C45.908 13.4984 45.579 13.5485 45.3016 13.3537C45.1542 13.2502 45.0055 13.2423 44.8424 13.2983C44.2529 13.5009 43.9279 14.1138 44.1083 14.7301C44.3486 15.5518 44.9343 16.0527 45.7145 16.3344C46.5694 16.6434 47.4412 16.589 48.2826 16.2994C50.6229 15.4946 52.0183 13.8493 52.4418 11.4291C52.6824 10.053 52.3057 8.78068 51.5032 7.64627C50.4676 6.1823 49.059 5.27114 47.2824 4.97316C45.9454 4.74897 44.6466 4.94814 43.4062 5.48252C40.7521 6.62599 39.1663 8.6528 38.5012 11.4297C38.3111 12.2233 38.2229 13.0316 38.2295 13.8446C38.2411 15.3067 38.456 16.7372 39.0072 18.103C39.5845 19.5332 40.6313 20.4987 42.0283 21.1147C42.9986 21.5425 44.0198 21.7976 45.056 21.9977C46.4285 22.2629 47.807 22.4996 49.1751 22.7854C50.4061 23.0424 51.5926 23.4392 52.6815 24.0874C53.542 24.5996 54.2717 25.2499 54.8229 26.0907C54.8399 26.1167 54.8606 26.1402 54.8803 26.1642C54.8822 26.1664 54.8894 26.1642 54.9111 26.1642L54.9101 26.1645Z" fill="black"/>
</svg>
