<svg width="48" height="48" viewBox="0 0 48 48" fill="none" xmlns="http://www.w3.org/2000/svg">
<g clip-path="url(#clip0)">
<path d="M28.0383 14.666C27.865 14.6672 27.6917 14.6559 27.52 14.6323C27.0258 14.5633 26.5273 14.5308 26.0283 14.5351C25.551 14.5351 25.055 14.5575 24.574 14.5799C23.8729 14.6099 23.142 14.6398 22.4335 14.6099C21.6205 14.5725 20.7889 14.5052 19.935 14.4378C19.6651 14.4232 19.3944 14.4307 19.1257 14.4603C18.8098 14.4916 18.492 14.5004 18.1748 14.4865L17.6341 14.6061C17.5309 14.6262 17.4241 14.6168 17.3259 14.5791C17.2277 14.5415 17.142 14.477 17.0785 14.393C17.0147 14.3096 16.976 14.2098 16.9668 14.1052C16.9575 14.0005 16.9781 13.8954 17.0262 13.8021C17.3992 13.0916 18.2867 10.8329 18.7081 9.74097C18.7424 9.6393 18.8054 9.54982 18.8895 9.48343C18.9736 9.41703 19.0751 9.37658 19.1817 9.36701C19.7779 9.33313 20.3755 9.33313 20.9717 9.36701C21.4311 9.39752 21.892 9.39752 22.3514 9.36701C22.7923 9.31824 23.2355 9.29452 23.679 9.29596C24.1973 9.29596 24.7642 9.32214 25.4578 9.37075C26.0917 9.41937 26.6511 9.43806 27.2478 9.4605L27.9265 9.48668C28.0352 9.49075 28.1404 9.52652 28.2291 9.58962C28.3179 9.65272 28.3863 9.7404 28.4262 9.84194C28.5007 10.0364 29.172 11.7528 29.295 12.2091C29.3323 12.3474 29.3659 12.4895 29.3957 12.6316C29.4289 12.873 29.4994 13.1076 29.6046 13.3272C29.6903 13.4207 29.7985 13.5516 29.9402 13.7273C30.011 13.8139 30.0543 13.9198 30.0645 14.0313C30.0748 14.1428 30.0516 14.2548 29.9978 14.3529C29.9441 14.451 29.8623 14.5308 29.763 14.5819C29.6636 14.6331 29.5513 14.6532 29.4405 14.6398C29.1687 14.6174 28.8956 14.6174 28.6238 14.6398C28.4262 14.6547 28.2285 14.666 28.0383 14.666ZM26.0321 13.4132C26.5859 13.4093 27.1392 13.4455 27.6878 13.5217C27.9482 13.5484 28.2106 13.5484 28.4709 13.5217C28.3994 13.3037 28.3421 13.0814 28.2994 12.856C28.2733 12.7363 28.2472 12.6129 28.2173 12.4821C28.1465 12.224 27.7959 11.2966 27.5163 10.5711H27.2067C26.5989 10.5487 26.0283 10.5263 25.3795 10.4814C24.7306 10.4365 24.1712 10.4066 23.6753 10.4066C23.2755 10.4053 22.8759 10.4253 22.4782 10.4664C21.9618 10.503 21.4434 10.503 20.9269 10.4664C20.4981 10.4477 20.017 10.4328 19.6217 10.4477C19.3793 11.061 18.8759 12.3736 18.447 13.3534C18.6335 13.3534 18.8423 13.3347 19.0437 13.3197C19.3707 13.2858 19.7 13.2783 20.0282 13.2973C20.871 13.3646 21.6914 13.4282 22.4894 13.4656C23.1569 13.4955 23.8505 13.4656 24.5292 13.4356C25.0215 13.4356 25.5436 13.4132 26.0321 13.4132V13.4132Z" fill="black"/>
<path d="M11.6824 34.426C11.534 34.426 11.3917 34.3669 11.2868 34.2617C11.1819 34.1565 11.123 34.0138 11.123 33.865C11.123 28.7718 11.1491 24.5162 11.1976 20.4812C11.1976 19.5201 11.1789 18.5366 11.1528 17.583C11.1118 16.2031 11.0708 14.7784 11.1528 13.376C11.22 12.1046 11.5668 10.3844 13.7632 10.0777C14.7539 9.96991 15.7521 9.94863 16.7465 10.0142C17.4732 10.0516 18.2013 10.0516 18.928 10.0142C19.0015 10.0093 19.0752 10.0189 19.1449 10.0426C19.2147 10.0662 19.2791 10.1034 19.3345 10.152C19.3899 10.2006 19.4352 10.2597 19.4679 10.3259C19.5005 10.3921 19.5198 10.464 19.5247 10.5377C19.5296 10.6114 19.52 10.6853 19.4964 10.7552C19.4728 10.8252 19.4357 10.8897 19.3872 10.9453C19.3388 11.0009 19.2798 11.0463 19.2138 11.079C19.1479 11.1118 19.0761 11.1311 19.0026 11.136C18.2374 11.1754 17.4707 11.1754 16.7055 11.136C15.7721 11.072 14.835 11.0908 13.9049 11.1921C12.7862 11.3455 12.335 11.94 12.2529 13.4359C12.1783 14.7933 12.2194 16.1957 12.2529 17.5494C12.279 18.5142 12.3089 19.5126 12.2977 20.4961C12.2492 24.5274 12.2231 28.7755 12.2231 33.865C12.2232 34.0106 12.1668 34.1505 12.0659 34.2552C11.965 34.3599 11.8275 34.4211 11.6824 34.426V34.426Z" fill="black"/>
<path d="M35.3026 14.1688C35.1572 14.1698 35.0171 14.1136 34.9125 14.0122C34.8079 13.9109 34.7472 13.7724 34.7433 13.6266V13.3648C34.7655 12.8829 34.6985 12.4011 34.5456 11.9438C34.2324 11.2295 33.5276 11.1697 32.4014 11.1585H31.9576C31.566 11.1395 31.1761 11.0946 30.7904 11.0238C30.507 10.979 30.2422 10.9341 29.9737 10.9116C29.7005 10.8949 29.4265 10.8949 29.1533 10.9116C28.9072 10.9116 28.6536 10.9378 28.4075 10.9116C28.334 10.9092 28.2618 10.8923 28.1948 10.8618C28.1279 10.8313 28.0676 10.788 28.0174 10.7341C27.9672 10.6803 27.9281 10.6171 27.9022 10.5481C27.8764 10.4791 27.8643 10.4057 27.8668 10.332C27.8692 10.2584 27.8861 10.1859 27.9165 10.1188C27.9469 10.0517 27.9901 9.99121 28.0438 9.94086C28.0975 9.8905 28.1605 9.85125 28.2293 9.82533C28.2981 9.79941 28.3713 9.78733 28.4448 9.78978C28.6573 9.78978 28.8774 9.78978 29.1123 9.77109C29.4339 9.75046 29.7565 9.75046 30.0781 9.77109C30.3914 9.79726 30.6934 9.84588 30.9843 9.89449C31.3234 9.95541 31.6659 9.99538 32.0098 10.0142H32.4275C33.4977 10.0142 34.9595 10.0403 35.586 11.4688C35.8066 12.0664 35.9055 12.7021 35.8769 13.3386V13.5892C35.8789 13.6628 35.8664 13.7362 35.8401 13.805C35.8138 13.8738 35.7742 13.9368 35.7237 13.9902C35.6731 14.0437 35.6125 14.0867 35.5454 14.1167C35.4783 14.1467 35.4059 14.1631 35.3325 14.1651L35.3026 14.1688Z" fill="black"/>
<path d="M35.3623 15.3543C35.2142 15.353 35.0725 15.294 34.967 15.1898L34.9073 15.1262C34.855 15.0744 34.8135 15.0127 34.7851 14.9446C34.7568 14.8766 34.7422 14.8036 34.7422 14.7298C34.7422 14.6561 34.7568 14.5831 34.7851 14.515C34.8135 14.447 34.855 14.3852 34.9073 14.3334C35.0127 14.2293 35.1547 14.1709 35.3026 14.1709C35.4506 14.1709 35.5925 14.2293 35.6979 14.3334L35.7576 14.397C35.8357 14.4754 35.8889 14.5753 35.9104 14.6841C35.932 14.7928 35.9209 14.9055 35.8786 15.008C35.8363 15.1104 35.7647 15.198 35.6728 15.2596C35.5809 15.3213 35.4728 15.3542 35.3623 15.3543Z" fill="black"/>
<path d="M11.6229 36.1087C11.4735 36.1084 11.3302 36.0493 11.2238 35.9442L11.1642 35.8806C11.1119 35.8288 11.0703 35.767 11.042 35.699C11.0136 35.631 10.999 35.558 10.999 35.4842C10.999 35.4105 11.0136 35.3374 11.042 35.2694C11.0703 35.2014 11.1119 35.1396 11.1642 35.0878C11.2695 34.9837 11.4115 34.9253 11.5595 34.9253C11.7074 34.9253 11.8494 34.9837 11.9547 35.0878L12.0181 35.1514C12.122 35.257 12.1802 35.3994 12.1802 35.5478C12.1802 35.6961 12.122 35.8385 12.0181 35.9442C11.9127 36.0484 11.7709 36.1074 11.6229 36.1087Z" fill="black"/>
<path d="M14.2256 41.0038C13.4275 41.0038 12.5922 40.8692 11.9881 40.3083C11.2721 39.6277 11.2423 38.603 11.1863 37.6906C11.1816 37.3978 11.1592 37.1056 11.1192 36.8155C11.1014 36.741 11.0989 36.6635 11.1121 36.5879C11.1253 36.5124 11.1538 36.4403 11.1958 36.3762C11.2379 36.3121 11.2926 36.2574 11.3566 36.2154C11.4206 36.1733 11.4925 36.1449 11.5678 36.1318C11.6432 36.1187 11.7205 36.1213 11.7948 36.1394C11.8692 36.1574 11.939 36.1906 12.0001 36.2368C12.0611 36.283 12.1121 36.3413 12.1498 36.408C12.1875 36.4748 12.2112 36.5485 12.2193 36.6248C12.2692 36.9617 12.2978 37.3015 12.3051 37.642C12.3386 38.3675 12.3722 39.1154 12.76 39.4856C13.2747 39.9755 14.4046 39.882 15.2324 39.8147L15.6762 39.781C16.0491 39.7586 16.422 39.7212 16.7651 39.6875C17.5994 39.5768 18.4429 39.5517 19.2823 39.6127C21.2959 39.7567 23.3172 39.7567 25.3309 39.6127C25.8343 39.5865 26.3378 39.5604 26.8412 39.5417C28.5267 39.4669 32.1253 39.6613 32.4796 39.6613C33.6505 39.6239 33.9153 39.6052 34.3442 39.2462C34.7171 38.9396 34.7171 38.5769 34.7171 37.9038C34.7171 37.7205 34.7171 37.5298 34.7171 37.3466C34.7171 37.081 34.7581 36.8268 34.7842 36.5986C34.8587 36.1204 34.8587 35.6334 34.7842 35.1552C34.6433 34.2726 34.6008 33.3771 34.6574 32.4851C34.6574 32.1112 34.6574 31.7634 34.6574 31.3857C34.6221 30.8316 34.6221 30.2757 34.6574 29.7216C34.7432 28.7381 34.7395 27.7583 34.7283 26.8459C34.7283 26.5019 34.6984 26.1616 34.6686 25.7988C34.635 25.3463 34.5977 24.8826 34.6052 24.4114C34.6228 24.0213 34.6665 23.6328 34.7357 23.2484C34.8312 22.8164 34.875 22.3745 34.8662 21.9321C34.8028 21.1094 34.8028 20.2867 34.7991 19.4939C34.8142 18.5289 34.7744 17.5638 34.6798 16.6033C34.664 16.4557 34.7068 16.3078 34.7989 16.1916C34.8911 16.0755 35.0251 16.0003 35.172 15.9825C35.2454 15.9731 35.3198 15.9785 35.3911 15.9984C35.4623 16.0182 35.5288 16.0521 35.5868 16.0981C35.6448 16.1441 35.6931 16.2012 35.7288 16.2661C35.7645 16.331 35.787 16.4024 35.7948 16.4761C35.8933 17.4701 35.9356 18.4689 35.9216 19.4678C35.9216 20.2456 35.9216 21.0459 35.9887 21.8274C36.0104 22.3501 35.9704 22.8736 35.8694 23.3868C35.8082 23.7204 35.7696 24.0577 35.7538 24.3965C35.7538 24.8116 35.7799 25.2304 35.8134 25.6717C35.8433 26.0456 35.8731 26.4196 35.8768 26.7935C35.8768 27.7359 35.8768 28.7456 35.8023 29.7852C35.7704 30.292 35.7704 30.8004 35.8023 31.3072C35.8023 31.6811 35.8284 32.0813 35.8023 32.4777C35.7484 33.2907 35.7847 34.1071 35.9104 34.9121C36.0041 35.4992 36.0041 36.0975 35.9104 36.6847C35.888 36.9128 35.8619 37.1409 35.8507 37.384C35.8507 37.5485 35.8507 37.713 35.8507 37.8776C35.8507 38.5694 35.8507 39.4332 35.0676 40.0914C34.2845 40.7495 33.7139 40.7271 32.4983 40.7645H32.4535C32.4125 40.7645 28.5901 40.5701 26.9083 40.6374L25.4167 40.7084C23.3497 40.858 21.2747 40.858 19.2077 40.7084C18.4403 40.655 17.6695 40.6788 16.9068 40.7795C16.5339 40.8169 16.161 40.8543 15.7881 40.8767L15.3704 40.9103C14.9975 40.9702 14.6171 41.0038 14.2256 41.0038Z" fill="black"/>
<path d="M21.6278 10.4928H21.5271C21.4534 10.4802 21.3828 10.453 21.3197 10.4128C21.2565 10.3725 21.202 10.3201 21.1593 10.2584C21.1166 10.1968 21.0865 10.1273 21.071 10.0539C21.0554 9.98046 21.0545 9.90468 21.0685 9.83095C21.2363 8.90728 21.4936 7.51243 23.0971 7.0936C23.3717 7.0059 23.6616 6.9769 23.9481 7.00846C24.2345 7.04002 24.5112 7.13145 24.7603 7.27683C25.5285 7.7555 25.8119 8.74274 25.9573 9.44577C25.99 9.58998 25.9649 9.74127 25.8875 9.86713C25.8101 9.99299 25.6865 10.0834 25.5434 10.1189C25.4698 10.1357 25.3935 10.1374 25.3193 10.1237C25.245 10.11 25.1744 10.0813 25.1115 10.0393C25.0487 9.99729 24.9951 9.9429 24.9539 9.87943C24.9128 9.81597 24.885 9.74476 24.8722 9.67015C24.7081 8.88858 24.4992 8.4174 24.1823 8.22668C24.0606 8.1654 23.9278 8.1295 23.792 8.12114C23.6561 8.11279 23.5199 8.13215 23.3917 8.17807C22.6049 8.38374 22.3848 8.92598 22.1797 10.0478C22.1518 10.1738 22.0819 10.2865 21.9816 10.3674C21.8813 10.4483 21.7565 10.4925 21.6278 10.4928V10.4928Z" fill="black"/>
<path d="M23.1049 37.2043C22.732 37.2043 22.359 37.1856 22.0234 37.1632C21.5168 37.1298 21.0086 37.1298 20.5019 37.1632C19.7573 37.2174 19.0101 37.2261 18.2645 37.1894C18.0137 37.1721 17.7645 37.1371 17.5186 37.0847C17.3277 37.046 17.1347 37.0185 16.9406 37.0024C16.1826 36.937 15.4193 36.9696 14.6696 37.0996C14.5822 37.1198 14.4913 37.1187 14.4044 37.0965C14.3175 37.0743 14.2372 37.0316 14.17 36.972C14.1029 36.9123 14.051 36.8375 14.0185 36.7537C13.9861 36.6699 13.974 36.5795 13.9834 36.4901C14.0095 36.1161 13.9834 35.4953 13.9573 34.9381C13.9387 34.5642 13.92 34.1902 13.9238 33.9322C13.9275 33.6742 13.9238 33.3114 13.9499 33.0011C14.0147 32.2901 13.9884 31.5738 13.8716 30.8695C13.7615 30.241 13.7439 29.5997 13.8194 28.9661C13.8417 28.6632 13.8604 28.3752 13.8604 28.0948C13.8604 27.8143 13.8417 27.4329 13.8268 27.1C13.7916 26.5511 13.7842 26.0006 13.8044 25.4509C13.8492 24.5198 13.9238 23.6036 13.9797 22.908C13.9967 22.5775 13.988 22.2462 13.9536 21.917C13.9147 21.5632 13.9023 21.207 13.9163 20.8513L13.9499 20.3352C14.0634 19.2993 14.037 18.2528 13.8716 17.2239C13.6478 16.1282 13.8716 13.963 13.9685 12.8C13.9909 12.5756 14.0133 12.3475 14.0207 12.2503C14.0169 12.2167 14.0169 12.1829 14.0207 12.1493C14.0285 12.0022 14.0932 11.8639 14.2012 11.764C14.3092 11.6641 14.4519 11.6105 14.5987 11.6146C15.1229 11.6444 15.6483 11.6444 16.1724 11.6146C16.3067 11.6146 16.5864 11.6146 17.1868 11.6407C17.541 11.6407 18.0706 11.6819 18.2197 11.6744C18.3519 11.6519 18.4877 11.6772 18.6031 11.7456C18.7185 11.8141 18.806 11.9214 18.8499 12.0484C18.9003 12.1882 18.8933 12.3424 18.8303 12.477C18.7674 12.6117 18.6537 12.7157 18.5143 12.7663C18.3577 12.8262 18.216 12.8262 17.1345 12.7663C16.8064 12.7663 16.3589 12.729 16.2619 12.7364C15.889 12.7663 15.4751 12.7701 15.0984 12.7626C15.0984 12.8112 15.0984 12.8561 15.0984 12.9085C14.9978 13.9331 14.7889 16.0646 14.9828 16.9958C15.1705 18.1241 15.2031 19.2728 15.0798 20.41L15.0462 20.9186C15.0388 21.2232 15.0512 21.528 15.0835 21.831C15.121 22.2163 15.1272 22.604 15.1022 22.9903C15.0462 23.6746 14.9754 24.5796 14.9269 25.4995C14.9045 26.0044 14.9269 26.5092 14.9493 27.0477C14.9679 27.3955 14.9828 27.7395 14.9866 28.0873C14.9903 28.4351 14.9642 28.7342 14.9418 29.0446C14.8801 29.5721 14.8901 30.1055 14.9717 30.6302C15.1101 31.4301 15.1452 32.2445 15.0761 33.0534C15.0761 33.3488 15.05 33.6443 15.05 33.9359C15.05 34.1715 15.05 34.5193 15.0798 34.8858C15.1096 35.2523 15.1134 35.5664 15.1171 35.8805C15.7438 35.8292 16.3736 35.8292 17.0003 35.8805C17.2398 35.8976 17.4777 35.9314 17.7126 35.9815C17.9144 36.0233 18.1186 36.052 18.3241 36.0675C19.0239 36.1005 19.7249 36.0918 20.4236 36.0413C20.9787 36.0057 21.5355 36.0057 22.0905 36.0413C22.7585 36.1088 23.4322 36.095 24.0968 36.0002C24.7687 35.9058 25.4483 35.8795 26.1254 35.9216C26.5543 35.9216 26.9608 35.9216 27.3561 35.9216C28.3629 35.8543 29.9664 35.8282 30.6228 35.8207C31.2791 35.8132 31.6893 35.8207 32.0286 35.8207C31.9592 35.2 31.9305 34.5754 31.9429 33.9509C31.9429 33.7378 31.9839 33.5209 32.01 33.304C32.0779 32.8863 32.0992 32.4624 32.0734 32.04C31.9941 31.1261 31.9667 30.2084 31.9913 29.2914C31.9913 28.5435 31.9913 27.7545 31.9466 27.0028C31.9149 26.4024 31.9149 25.8008 31.9466 25.2004C31.9466 24.9162 31.9466 24.6319 31.9466 24.3515C31.9466 23.9775 31.9168 23.6036 31.8869 23.1922C31.8571 22.7809 31.8198 22.3733 31.8198 21.9469V17.2239C31.8198 16.5239 31.8621 15.8246 31.9466 15.1297C31.9802 14.8231 31.969 13.6975 31.9466 12.7925C31.6192 12.7609 31.2895 12.7609 30.9621 12.7925H30.8055C30.5439 12.8329 30.277 12.824 30.0186 12.7663C29.6119 12.7309 29.2034 12.721 28.7955 12.7364H28.6948C28.5465 12.7364 28.4042 12.6773 28.2993 12.5721C28.1944 12.4669 28.1354 12.3243 28.1354 12.1755C28.1354 12.0267 28.1944 11.8841 28.2993 11.7789C28.4042 11.6737 28.5465 11.6146 28.6948 11.6146H28.7955C29.2941 11.5901 29.7939 11.6164 30.2871 11.6931C30.4313 11.72 30.5792 11.72 30.7234 11.6931L30.9024 11.6744C31.473 11.6315 32.0466 11.6592 32.6104 11.7567C32.74 11.7775 32.8582 11.8431 32.9447 11.9422C33.0312 12.0412 33.0804 12.1673 33.084 12.2989C33.084 12.542 33.1399 14.7109 33.084 15.2681C32.9978 15.9167 32.9492 16.5697 32.9385 17.2239C32.9385 18.1962 32.9385 19.1722 32.9385 20.1445V21.8946C32.9385 22.2685 32.9684 22.6425 32.9982 23.0539C33.028 23.4652 33.0653 23.8728 33.0653 24.2991C33.0653 24.5871 33.0653 24.8825 33.0653 25.1779C33.0354 25.7397 33.0354 26.3027 33.0653 26.8645C33.125 27.661 33.1213 28.4687 33.1138 29.2466C33.0895 30.1198 33.1144 30.9938 33.1884 31.8642C33.2254 32.3711 33.2042 32.8805 33.125 33.3825C33.0989 33.5807 33.0765 33.7826 33.0616 33.9771C33.0615 34.7521 33.1088 35.5264 33.2033 36.2956C33.2206 36.4047 33.2054 36.5164 33.1597 36.6169C33.1139 36.7173 33.0396 36.802 32.946 36.8603C32.8283 36.9341 32.6876 36.9621 32.5507 36.9388C32.1219 36.9164 28.9186 36.9388 27.4306 37.0398C26.9869 37.0697 26.5356 37.0398 26.1031 37.0398C25.498 37.0033 24.8908 37.0284 24.2907 37.1146C23.8991 37.1814 23.5021 37.2114 23.1049 37.2043V37.2043ZM14.2967 12.6579C14.3646 12.6959 14.4394 12.7201 14.5167 12.729C14.4393 12.7207 14.3644 12.6965 14.2967 12.6579V12.6579Z" fill="black"/>
<path d="M22.1241 17.4743C21.7139 17.4743 21.2999 17.4743 20.8823 17.4407C20.4646 17.407 20.0581 17.4107 19.6442 17.4107H18.2271C18.1526 17.4107 18.0631 17.4107 17.9661 17.4107C17.5452 17.4863 17.1112 17.4288 16.7243 17.2462C16.6619 17.2072 16.6077 17.1562 16.5649 17.0961C16.5221 17.0361 16.4916 16.9682 16.4749 16.8963C16.4414 16.7512 16.4667 16.5986 16.5453 16.4721C16.6239 16.3457 16.7494 16.2557 16.8942 16.222C17.039 16.1884 17.1911 16.2138 17.3172 16.2926C17.5068 16.3152 17.6983 16.3152 17.8878 16.2926C18.0108 16.2926 18.1302 16.2739 18.2271 16.2739H19.6442C20.0731 16.2739 20.5019 16.2739 20.9233 16.3076C21.3447 16.3412 21.7251 16.3375 22.1241 16.3375C22.2724 16.3375 22.4147 16.3966 22.5196 16.5018C22.6245 16.607 22.6834 16.7497 22.6834 16.8984C22.6834 17.0472 22.6245 17.1899 22.5196 17.2951C22.4147 17.4003 22.2724 17.4594 22.1241 17.4594V17.4743Z" fill="black"/>
<path d="M24.4733 20.4884C24.3523 20.4884 24.2345 20.4491 24.1377 20.3762C23.955 20.2379 23.4366 20.2828 23.1271 20.3089H23.0041C22.5733 20.3389 22.1409 20.3389 21.7101 20.3089C21.1246 20.2753 20.5466 20.2753 19.9798 20.2454C19.674 20.2454 19.3682 20.2154 19.0587 20.2154C18.7593 20.2189 18.4605 20.2402 18.1637 20.279C17.7536 20.3358 17.3393 20.3558 16.9256 20.3389C16.8522 20.3335 16.7805 20.3136 16.7147 20.2804C16.6489 20.2472 16.5902 20.2014 16.5421 20.1455C16.494 20.0896 16.4573 20.0247 16.4341 19.9546C16.411 19.8845 16.4019 19.8104 16.4073 19.7368C16.4127 19.6631 16.4325 19.5912 16.4655 19.5253C16.4986 19.4593 16.5444 19.4005 16.6001 19.3522C16.6559 19.3039 16.7205 19.2671 16.7905 19.2439C16.8604 19.2207 16.9342 19.2116 17.0077 19.217C17.3554 19.2239 17.7031 19.2052 18.0481 19.1609C18.38 19.1272 18.723 19.0898 19.0549 19.0898C19.3868 19.0898 19.7075 19.0898 20.032 19.1198C20.6025 19.1497 21.1805 19.1497 21.7735 19.1833C22.1521 19.2093 22.5322 19.2093 22.9108 19.1833H23.0264C23.556 19.1347 24.2794 19.0711 24.8052 19.4675C24.864 19.5117 24.9135 19.5671 24.9509 19.6305C24.9884 19.6939 25.013 19.764 25.0234 19.837C25.0337 19.9099 25.0297 19.9841 25.0115 20.0555C24.9933 20.1269 24.9612 20.1939 24.9171 20.2528C24.8662 20.3237 24.7996 20.3817 24.7227 20.4226C24.6457 20.4635 24.5604 20.486 24.4733 20.4884V20.4884Z" fill="black"/>
<path d="M17.1903 23.2072C17.0784 23.2072 16.9703 23.2072 16.8621 23.2072C16.7138 23.1963 16.5758 23.1268 16.4786 23.0138C16.3814 22.9009 16.3329 22.7539 16.3438 22.6052C16.3547 22.4564 16.424 22.318 16.5366 22.2206C16.6492 22.1231 16.7958 22.0744 16.9442 22.0854C17.3026 22.1001 17.6616 22.0876 18.0182 22.048L18.3053 22.0255C18.6333 22.0089 18.9618 22.0089 19.2898 22.0255C19.4464 22.0255 19.5956 22.0255 19.7634 22.0255H20.1885C20.4607 22.0255 20.733 22.0255 21.0052 22.0255C21.2367 22.0136 21.4658 21.9734 21.6876 21.9059C21.8749 21.8514 22.0655 21.809 22.2582 21.7787C22.7872 21.7183 23.322 21.7334 23.8468 21.8236C24.1408 21.8672 24.4372 21.8934 24.7343 21.9021C24.9077 21.9045 25.0807 21.917 25.2526 21.9395C25.3995 21.9619 25.5479 21.9719 25.6964 21.9694C25.8903 21.9694 26.0693 21.9358 26.2744 21.9096C26.5648 21.868 26.8575 21.8443 27.1508 21.8385V21.8385C27.2991 21.8385 27.4414 21.8976 27.5463 22.0028C27.6512 22.108 27.7101 22.2507 27.7101 22.3995C27.7101 22.5482 27.6512 22.6909 27.5463 22.7961C27.4414 22.9013 27.2991 22.9604 27.1508 22.9604C26.901 22.965 26.6519 22.9863 26.4049 23.024C26.1924 23.0502 25.9724 23.0763 25.7412 23.0876C25.5318 23.0943 25.3222 23.083 25.1147 23.0539C24.9844 23.0292 24.8518 23.0192 24.7194 23.024V23.024C24.3773 23.0167 24.0361 22.988 23.6976 22.938C23.2769 22.862 22.8478 22.8444 22.4222 22.8856C22.2675 22.912 22.1144 22.947 21.9636 22.9903C21.6544 23.0826 21.3349 23.1354 21.0126 23.1474H19.7634H19.2637C18.9718 23.1324 18.6793 23.1324 18.3873 23.1474L18.1114 23.1698C17.8056 23.2072 17.4924 23.2072 17.1903 23.2072Z" fill="black"/>
<path d="M29.9962 34.4781C29.9048 34.4788 29.8149 34.4556 29.7352 34.4108C29.3801 34.168 29.104 33.826 28.9409 33.4273C28.5008 34.0294 28.072 34.5492 27.5051 34.4258C27.2123 34.3214 26.9541 34.1376 26.7593 33.8948C26.7071 33.8424 26.6661 33.7975 26.6325 33.7714C26.4908 33.6554 26.3491 33.532 26.2111 33.3974C25.9366 33.8286 25.5497 34.1765 25.0924 34.4033C24.969 34.4449 24.835 34.4422 24.7133 34.3959C24.5916 34.3495 24.4897 34.2623 24.4249 34.149C24.2497 33.8786 24.0459 33.6278 23.8171 33.4011C23.4964 33.0809 23.2204 32.7186 22.9966 32.3241C22.9284 32.1917 22.9154 32.0376 22.9605 31.8956C23.0056 31.7536 23.1051 31.6353 23.2372 31.5669C23.3692 31.4985 23.5229 31.4854 23.6646 31.5307C23.8062 31.5759 23.9241 31.6757 23.9923 31.8081C24.1683 32.1121 24.3854 32.3902 24.6375 32.6345C24.768 32.7804 24.9022 32.9262 25.0327 33.0833C25.2562 32.8283 25.4571 32.5542 25.6331 32.2643C25.6771 32.1885 25.7381 32.1241 25.8112 32.076C25.8844 32.028 25.9677 31.9977 26.0545 31.9875C26.1414 31.9774 26.2294 31.9876 26.3116 32.0175C26.3938 32.0474 26.4679 32.096 26.5281 32.1596C26.7758 32.4279 27.0425 32.6778 27.3262 32.9075C27.3821 32.9524 27.4529 33.0234 27.535 33.1057L27.6692 33.2366C27.8221 33.0721 28.0421 32.7841 28.154 32.6121C28.314 32.371 28.4963 32.1457 28.6985 31.939C28.7642 31.8783 28.8438 31.8346 28.9302 31.8118C29.0167 31.789 29.1074 31.7877 29.1944 31.8081C29.281 31.8277 29.3618 31.8674 29.4305 31.9239C29.4991 31.9803 29.5536 32.0521 29.5897 32.1334L29.6531 32.2905C29.7857 32.7095 29.9971 33.0992 30.2759 33.4385C30.3962 33.5157 30.4833 33.6354 30.5199 33.7739C30.5565 33.9124 30.5399 34.0596 30.4735 34.1864C30.4271 34.2733 30.3583 34.3461 30.2744 34.3974C30.1905 34.4486 30.0945 34.4765 29.9962 34.4781Z" fill="black"/>
</g>
<defs>
<clipPath id="clip0">
<rect width="25" height="34" fill="white" transform="translate(11 7)"/>
</clipPath>
</defs>
</svg>
