<svg width="36" height="32" viewBox="0 0 36 32" fill="none" xmlns="http://www.w3.org/2000/svg">
<path d="M24.0974 11C24.3621 11.1396 24.6386 11.2633 24.8904 11.4208C27.0242 12.7563 29.2296 13.9606 31.6829 14.7097C32.097 14.836 32.5189 14.9428 32.9414 15.0433C33.2655 15.1205 33.5167 15.2764 33.585 15.591C33.6639 15.9558 33.5911 16.2989 33.2319 16.5199C32.5161 16.9592 31.8127 17.4202 31.069 17.8135C29.1412 18.8328 27.1926 19.8172 25.2558 20.8206C24.7136 21.1013 24.276 21.0548 24.0029 20.6652C23.7203 20.2618 23.8361 19.7353 24.2888 19.4138C25.4601 18.5817 26.7589 17.9579 28.0774 17.3642C28.529 17.1611 28.9593 16.9169 29.4691 16.6557C29.3325 16.6415 29.2693 16.6298 29.2061 16.6288C22.624 16.5257 16.0419 16.4221 9.45984 16.3206C7.24436 16.2862 5.02832 16.2608 2.81229 16.2228C2.24764 16.2132 1.92643 15.9124 1.90908 15.4245C1.8895 14.8752 2.19784 14.5617 2.77983 14.5643C3.72948 14.5691 4.67913 14.5828 5.62878 14.5987C8.28187 14.6426 10.935 14.6922 13.5886 14.7351C17.7963 14.8027 22.0045 14.8678 26.2127 14.9317C26.6666 14.9386 27.121 14.9328 27.6213 14.9328C27.5603 14.89 27.5306 14.8651 27.497 14.8461C26.2665 14.1419 25.0493 13.416 23.8003 12.742C22.9486 12.282 23.0202 11.2976 23.9296 11H24.0974Z" fill="white"/>
</svg>
