<?xml version="1.0" encoding="utf-8"?>
<!-- Generator: Adobe Illustrator 18.1.1, SVG Export Plug-In . SVG Version: 6.00 Build 0)  -->
<!DOCTYPE svg PUBLIC "-//W3C//DTD SVG 1.1//EN" "http://www.w3.org/Graphics/SVG/1.1/DTD/svg11.dtd" [
	<!ENTITY st0 "fill:none;stroke:#010101;stroke-width:3;stroke-linecap:round;stroke-linejoin:round;stroke-miterlimit:10;">
]>
<svg version="1.1" id="Layer_1" xmlns="http://www.w3.org/2000/svg" xmlns:xlink="http://www.w3.org/1999/xlink" x="0px" y="0px"
	 viewBox="0 0 141.7 141.7" style="enable-background:new 0 0 141.7 141.7;" xml:space="preserve">
<g>
	<path style="&st0;" d="M34.4,102.5c16.1,9.1,36.4,10.4,53.4,3.2c1.6-0.7,3.2-1.4,4.3-2.7c2-2.3,1.9-5.9,0.6-8.6
		c-1.3-2.7-3.6-4.9-5.9-6.9c-4.8-4.2-9.6-8.3-14.6-12.2c4.3,3.9,7,10.5,9.1,15.9c1.2,3.2,1.8,7.4-1,9.4c-3.5-0.8-6.3-3.5-8-6.7
		s-2.5-6.7-3.3-10.1c-0.5-2.2-1-4.4-1.5-6.7"/>
	<path style="&st0;" d="M60.7,80c1.5,5.6,1.3,11.7-0.3,17.2c-0.2,0.6-0.4,1.1-0.8,1.5c-0.6,0.5-1.5,0.5-2.3,0.3
		c-4.3-1.2-6.8-6.1-6.6-10.6c0.2-4.5,2.4-8.6,4.5-12.6c0.5-0.9,1.3-2,2.3-1.8c0.8,0.5,0.2,2-0.7,1.7S56.1,74,57,74"/>
	<path style="&st0;" d="M49.5,74.9c-0.7,4.8-2.6,9.3-5.5,13.1c-0.9,1.2-2.2,2.5-3.7,2.5c-0.9,0-1.7-0.4-2.4-1
		c-1.9-1.7-2.3-4.7-1.5-7.2c0.9-2.4,2.7-4.4,4.7-6c2.2-1.7,4.5-3.2,7-4.4"/>
	<path style="&st0;" d="M34.1,104.1c-2.9-3.4-5.9-6.9-6.9-11.3c-1.5-6.5,2-13.2,7.1-17.5c5.1-4.2,11.5-6.4,17.9-8.3
		c-0.8-4-2.4-7.9-4.7-11.3c3.3,2.6,7.1,4.6,11.2,5.2c4.1,0.6,8.6-0.3,11.8-3c-6-2.1-12.3-3.2-18.6-3.4c0.7,0.2,1.4,0.4,2.1,0.6"/>
	<path style="&st0;" d="M72.2,74.9c-2.9-1.8-4-6-2.4-9c0.9-1.8,2.7-3.2,3.2-5.2c0.1-0.6-0.7-1.3-0.8-0.7"/>
	<path style="&st0;" d="M30.3,73.5c0.3,1.1,0.8,2.2,1.4,3.1C21.6,78,11,75.4,2.9,69.3c-2-1.5-0.7-6.3,0.8-8.3
		c5.6-7.4,12.8-13.5,21.1-17.6c-1.5-2.8-3.1-5.6-4.6-8.4c-0.5-0.9-1-1.9-0.5-2.8c0.6-1.1,2.2-1,3.5-0.7c4,1,8,1.9,12.1,2.9
		c2.4,0.6,4.6,1.3,6,3.4c-2.5,2-3.7,5.6-5.2,8.5c4,7.2,8.9,13.8,14.7,19.7c-0.9,0.2-1.9-0.1-2.4-0.9"/>
	<path style="&st0;" d="M21.2,53c-0.7-0.5-1.7-0.2-2.3,0.3c-0.6,0.5-1,1.3-1.4,2c-1.3,2.2-3.3,4-4.1,6.4s0.4,5.8,3,5.8
		c2.3,0,3.6-2.5,4.3-4.6c1.2-3.4,2.3-7.7-0.3-10.2"/>
	<path style="&st0;" d="M32.8,53.5c1.8,2.8,3.6,5.7,5.3,8.5c0.7,1.1,1.4,2.8,0.3,3.7c-1.2,1.1-3-0.5-3.8-1.9
		c-1.7-2.9-3.5-6.1-2.8-9.4c0.3-1.2,0.6-3-0.7-3.4"/>
	<path style="&st0;" d="M22.5,33.1c-0.7-0.1-1.4-0.1-2.1-0.2c4.6,3.2,9.4,6,14.4,8.4c0.4-0.8,0-1.8-0.7-2.3"/>
	<path style="&st0;" d="M74.8,74.3c-0.1-0.4-0.6,0.4-0.2,0.5s0.7-0.4,0.9-0.8c3.9-8.8,10.8-16.2,19.2-20.9c1-0.6,2.2-1.4,2-2.6
		c-0.1-0.5-0.6-0.9-1-1.3c-3.6-3-7.2-5.9-10.9-8.9c0.9,0.7,10.5-2,12.1-2.2c4.5-0.5,9-0.5,13.4-0.2c11.4,0.8,5.1,7,0.1,12.9
		c-0.5,0.6-1,1.3-1,2c0,1.1,0.9,1.8,1.8,2.5c8.4,6.3,16.8,12.5,25.2,18.8c1.6,1.2,3.4,2.7,3.5,4.7c0.1,1.8-1.1,3.5-2.7,4.4
		s-3.4,1.1-5.2,1.4c-6.2,0.8-12.3,1.6-18.5,2.3c-7.7,1-16.1,1.9-22.9-1.8"/>
	<path style="&st0;" d="M93.8,61.7c-2.8,2.2-5.2,4.8-7.2,7.7c-1,1.5-2,3.1-2.2,4.9c-0.2,1.8,0.5,3.8,2,4.7
		c5.4-4.8,8.2-12.4,7.4-19.6"/>
	<path style="&st0;" d="M100.2,62.8c-0.7,4.4-0.6,9,0.4,13.4c0.3,1.4,0.8,2.8,2,3.6c1.2,0.7,2.8,0.5,3.8-0.4c1.1-0.8,1.7-2.1,2-3.5
		c0.6-3.1-0.6-6.4-2.6-8.9c-2-2.5-4.6-4.4-7.2-6.3c-0.4-0.3-1-0.7-1.5-0.6"/>
	<path style="&st0;" d="M90.5,42.8c2.4-0.4,4.6,0.8,6.8,1.7c3.1,1.3,6.5,1.9,9.9,1.8c1.5,0,3.1-0.3,4.2-1.3c1.1-1,1.3-3.1,0-3.9"/>
	<path style="&st0;" d="M112.5,66.7c-0.2,2.8,1.1,5.8,3.5,7.4c0.5,0.3,1,0.6,1.6,0.5c1-0.1,1.6-1.1,1.7-2.1c0.3-1.9-0.9-3.9-2.4-5.1
		c-1.5-1.2-3.4-1.9-5.3-2.5c0.2-0.5,0.4-1.1,0.6-1.6"/>
</g>
</svg>
