<?xml version="1.0" encoding="utf-8"?>
<!-- Generator: Adobe Illustrator 23.0.0, SVG Export Plug-In . SVG Version: 6.00 Build 0)  -->
<svg version="1.1" id="Layer_1" xmlns="http://www.w3.org/2000/svg" xmlns:xlink="http://www.w3.org/1999/xlink" x="0px" y="0px"
	 viewBox="0 0 223.5 384.73" style="enable-background:new 0 0 223.5 384.73;" xml:space="preserve">
<style type="text/css">
	.st0{fill:#FFE0AD;}
</style>
<path class="st0" d="M222.6,366c-0.5,8.2-8.5,14-16.2,14.8s-15.4-1.5-23.2-2.6c-30-4.5-107.6,13.4-136.6,3.5
	c-2.5-0.8-4.9-1.9-7.7-1.9c-3.6-0.1-7.1,1.8-10.6,2.5C16.8,384.5,6,373.9,2.5,362s-1.7-24.7-1.1-37.2c1.1-19.5-0.8-39.3,1.7-58.8
	C4.5,255,7.3,146.9,8,135.8c0.8-10.3-0.1-20.9-1.1-31.1C4.7,79.5,2.7,54.5,0.4,29.4c-0.5-6-1-12.3,1.6-17.8C6.8,2.1,18.6,0.3,28.8,0
	c15.6-0.2,31.1,0.7,46.5,1.7c8.5,0.6,17.2,1.1,25.6,1.7c20.8,1.4,87.4-0.6,108.2,0.9c3,0.2,6.2,0.6,8.6,2.6c2,2,2.9,5.1,3.5,8.1
	c7.7,42.8-7,183.4-6.2,227c0.2,17.6,3,35,4.8,52.6c2.5,24.1,3.1,48.4,1.8,72.8"/>
</svg>
