<svg width="0" height="0" viewBox="0 0 359 211" fill="none" xmlns="http://www.w3.org/2000/svg">
  <defs>
    <clipPath id="svgPath" clipPathUnits="objectBoundingBox">
      <path d="M17.4782 210.208C9.82724 209.736 4.41553 202.181 3.6691 194.91C2.92267 187.639 5.06866 180.367 6.09503 173.002C10.2938 144.672 -6.40784 71.3925 2.82935 44.007C3.57578 41.6462 4.60217 39.3799 4.60217 36.7357C4.69547 33.3362 2.92267 30.031 2.26953 26.7259C0.216827 15.8662 10.1071 5.66747 21.2104 2.36233C32.3137 -0.942805 44.2567 0.75698 55.9198 1.32357C74.1142 2.36233 92.5886 0.568115 110.783 2.92893C121.047 4.25098 221.909 6.89509 232.266 7.55612C241.876 8.31158 251.767 7.46168 261.284 6.51736C284.796 4.43985 308.123 2.5512 331.542 0.37925C337.14 -0.0929124 343.019 -0.565075 348.15 1.89017C357.014 6.42293 358.694 17.566 358.974 27.1981C359.16 41.9295 358.321 56.5666 357.388 71.1092C356.828 79.1359 356.361 87.3515 355.801 95.2839C354.495 114.926 356.361 177.818 354.962 197.46C354.775 200.293 354.402 203.315 352.536 205.581C350.67 207.47 347.777 208.32 344.978 208.886C305.044 216.157 173.857 202.276 133.176 203.031C116.755 203.22 100.52 205.864 84.0979 207.564C61.6114 209.925 38.9383 210.491 16.172 209.264" fill="#FFE0AD"/>
    </clipPath>
  </defs>
</svg>
