<svg width="37" height="34" viewBox="0 0 37 34" fill="none" xmlns="http://www.w3.org/2000/svg">
<path fill-rule="evenodd" clip-rule="evenodd" d="M2.10468 17.0921C2.22463 16.9373 2.3486 16.7845 2.4766 16.6338C2.90801 16.1254 3.38516 15.6583 3.90196 15.2387L4.90715 14.3627L8.55499 11.6525C9.93213 10.7633 11.1266 9.61493 12.0732 8.27009C12.5666 7.53441 12.7629 6.63644 12.622 5.75965C12.3743 4.98844 12.0806 4.23305 11.7425 3.49763C11.3514 2.77977 11.5574 1.88015 12.2209 1.40797C13.2607 1.02776 14.3898 0.971589 15.4617 1.24676C15.7791 1.32264 16.1065 1.34728 16.4317 1.31976C16.9644 1.23155 17.461 1.20823 17.9395 1.08656L20.568 0.268335C21.3123 -0.0437302 22.141 -0.0849525 22.9121 0.151735C24.4129 1.02369 22.8327 3.65478 23.1001 5.2456C23.1866 5.76472 23.1906 6.28384 23.3172 6.74923C23.6676 8.22797 24.4667 9.55959 25.603 10.5585C27.2284 11.8715 29.4067 12.562 31.2462 13.6813C33.7017 15.1998 35.4799 17.6172 36.2088 20.4278C36.7678 22.6991 36.5169 25.0963 35.5002 27.1997C34.9737 28.3028 34.2298 29.2861 33.3139 30.0894C31.4955 31.441 29.4073 32.3772 27.1943 32.833L23.9676 33.417L20.5087 33.8398L19.5548 33.8986L18.2239 34H15.1601L13.5397 33.8834C12.1407 33.7034 10.7541 33.4352 9.38829 33.0804C8.81433 32.8999 8.27354 32.7468 7.75385 32.541C7.57769 32.4917 7.40561 32.4287 7.23919 32.3524C2.1288 29.7913 -1.85477 22.2326 2.11272 17.1002L2.10468 17.0921ZM8.68767 19.3835L10.4829 15.8987C10.9906 15.0349 11.5887 14.2643 12.1475 13.4653L12.7406 12.3997C12.9154 12.124 13.1089 11.8608 13.3196 11.6119L13.3055 11.5977C10.6693 13.0785 8.37968 15.1138 6.59185 17.5656C6.32686 17.9458 6.08903 18.3446 5.88018 18.759C4.96646 20.3163 4.60961 22.9535 5.57862 23.1188C6.12243 23.21 8.32681 20.0111 8.68466 19.3937L8.68767 19.3835ZM18.2953 11.4314C18.2968 11.996 18.2538 12.5599 18.1666 13.1176V14.5046L18.2109 16.9856L18.239 18.8401C18.3395 19.4717 18.1938 20.1642 18.2973 20.8395L18.3556 21.8899C18.4475 22.6797 18.5817 23.4639 18.7577 24.2391C18.9613 25.0283 19.3206 25.768 19.8141 26.414C19.9247 26.5569 20.1227 26.8814 20.4072 26.8195C20.7299 26.7536 20.8545 26.3592 20.956 26.0601C21.2763 24.9216 21.3504 23.7269 21.1732 22.557C20.8917 20.8709 20.5208 19.3845 20.1318 17.8718L19.3819 14.827C19.1671 13.9257 18.8965 13.0388 18.5717 12.1716L18.2963 11.4274L18.2953 11.4314ZM24.1415 11.5927C24.3076 11.8399 24.4861 12.0785 24.6763 12.3075L25.2794 13.4025L25.9016 14.2197L26.958 15.8541C27.8551 17.7113 28.8514 19.518 29.9424 21.2663C30.4324 21.9382 31.0232 22.529 31.6935 23.0174C31.8443 23.1248 32.2494 23.5365 32.5037 23.353C32.6937 23.2232 32.6916 22.552 32.6323 22.2296C32.4855 21.1852 32.2183 20.1616 31.8362 19.1797C30.619 16.8476 28.869 14.8413 26.7309 13.3264C26.0569 12.7436 25.3198 12.2395 24.5335 11.8238L24.1475 11.5906L24.1415 11.5927ZM15.5471 11.7093L14.6645 13.1368L13.0864 16.6125C12.3231 17.977 11.7209 19.427 11.2921 20.9328C11.0803 22.068 11.135 23.2375 11.452 24.3476C11.5273 24.6011 11.6118 25.0391 11.854 25.107C12.0762 25.1679 12.2561 24.7866 12.3315 24.67C12.7094 24.0962 13.0251 23.4827 13.3729 22.8744C13.9115 21.7529 14.2821 20.557 14.4726 19.3257L14.7037 17.7937L15.2687 14.68C15.3947 13.9462 15.4766 13.2054 15.5139 12.4616L15.5421 11.7022L15.5471 11.7093ZM21.2063 12.2162C21.2068 13.5333 21.5998 14.8198 22.3342 15.9089L23.0287 17.3831C23.4442 18.3635 23.7546 19.3859 23.9545 20.4329C24.1556 21.2968 24.2119 22.2002 24.4179 23.0163C24.6094 23.8645 24.9212 24.6803 25.3437 25.4386C25.4804 25.6738 25.601 26.054 25.9468 25.978C26.291 25.4888 26.5548 24.9469 26.7278 24.373C27.0817 23.0204 27.026 21.592 26.568 20.2717C25.9528 18.6991 25.1055 17.2293 24.055 15.9119C23.7083 15.4577 23.2831 15.0592 22.9272 14.6141L21.6205 12.9381C21.525 12.8023 21.3189 12.2892 21.2013 12.2233L21.2063 12.2162Z" fill="black"/>
</svg>
