<svg width="48" height="48" viewBox="0 0 48 48" fill="none" xmlns="http://www.w3.org/2000/svg">
<g clip-path="url(#clip0)">
<path d="M15.1049 40.0001C14.8664 40.0001 14.6329 40.0001 14.4462 40.0001C13.2585 39.8909 11.552 38.6942 11.1008 38.292C10.3764 37.6869 9.81109 36.927 9.45064 36.0738C9.0902 35.2206 8.94475 34.2981 9.0261 33.381C9.28025 30.3024 11.9981 27.2436 14.5759 25.5801C15.9141 24.7161 17.2937 24.6764 18.1755 25.4808C19.0572 26.2852 18.9691 27.7799 18.2688 28.6588C17.9021 29.0798 17.4658 29.4404 16.9773 29.7264C16.8684 29.7959 16.7543 29.8654 16.6506 29.9399C15.9028 30.5241 15.2583 31.2199 14.7419 32.0006C14.3625 32.4578 14.0822 32.9828 13.9172 33.5449C13.8467 33.7661 13.8388 34.0013 13.8944 34.2264C13.95 34.4515 14.0671 34.6584 14.2336 34.826C14.613 35.1205 15.0557 35.3311 15.53 35.4427C16.0043 35.5543 16.4986 35.5641 16.9773 35.4715C19.2854 35.1289 19.8767 34.7217 21.6091 32.9887C21.6765 32.9192 22.4649 32.0602 22.9317 31.5388C23.5489 30.8685 24.1143 30.1087 24.6641 29.3738C24.8715 29.0908 25.079 28.8127 25.2917 28.5396C25.3332 28.4651 25.411 28.3062 25.4888 28.1622L25.6029 27.9437L25.8726 27.4472L26.2771 26.6874C26.2771 26.5981 26.3446 26.4541 26.4276 26.1909C26.5105 25.9277 26.5676 25.7291 26.6195 25.5652C26.7965 25.0605 26.8199 24.518 26.6869 24.0011C26.2894 23.915 25.908 23.771 25.5562 23.574C25.0771 23.2714 24.7321 22.8096 24.5875 22.2779C24.4429 21.7461 24.5089 21.1819 24.773 20.694C24.9114 20.472 25.0946 20.2787 25.3118 20.1252C25.5291 19.9718 25.7762 19.8613 26.0386 19.8002C27.1122 19.5321 28.1495 20.1726 28.7045 20.5252L29.4825 20.9771C30.1794 21.3843 30.6877 22.0307 30.9037 22.7845C31.2356 24.6764 31.2201 26.3498 30.079 28.3509L29.8404 28.7928L29.384 29.6122L29.3373 29.6916C29.2388 29.8604 28.9846 30.2875 28.8601 30.5308C28.5641 31.0919 28.2169 31.6269 27.8228 32.1297L27.5894 32.4028C26.9825 33.1228 26.3653 33.8478 25.7222 34.5479L25.5562 34.7267L25.3332 34.9601C25.1327 35.1848 24.9457 35.4202 24.773 35.6652C24.3701 36.2944 23.8413 36.8411 23.217 37.274C22.9529 37.7536 22.5321 38.1373 22.0188 38.3665L21.801 38.4707C20.1464 39.2702 18.4452 40.0895 16.2616 39.9604H16.0334C15.7844 39.9852 15.4369 40.0001 15.1049 40.0001ZM16.6091 26.3895C16.1874 26.4267 15.7841 26.5726 15.4421 26.8116C13.1755 28.3013 10.774 30.9131 10.5717 33.5002C10.5099 34.1944 10.6221 34.8928 10.899 35.5371C11.176 36.1814 11.6097 36.7531 12.1641 37.2045C12.6205 37.6117 13.9742 38.4509 14.5655 38.4906C14.9908 38.5253 15.6029 38.4906 15.9815 38.4906H16.1008H16.2823C18.0821 38.5998 19.4722 37.9295 21.0904 37.1499L21.3134 37.0406C21.4409 36.9902 21.5565 36.9158 21.6536 36.8221C21.7507 36.7283 21.8272 36.6169 21.8788 36.4944L21.9825 36.2362L22.2315 36.1071C22.7451 35.771 23.1724 35.3279 23.4815 34.8111C23.6961 34.5048 23.9299 34.2113 24.1817 33.9322L24.4047 33.7038L24.5863 33.5151C25.1776 32.8646 25.7896 32.1496 26.3757 31.4594L26.6247 31.1664C26.9394 30.7499 27.2187 30.3099 27.4597 29.8505C27.5946 29.5923 27.8695 29.1206 27.9784 28.9418L28.0199 28.8773L28.4607 28.0778L28.7097 27.6259C29.6485 25.9774 29.6641 24.6863 29.3684 23.008C29.3217 22.7349 28.7979 22.2582 28.1703 21.9255H28.1392L28.0354 21.8659L27.3249 21.4885C27.0447 21.3204 26.7158 21.2422 26.3861 21.2651C26.3219 21.2805 26.2617 21.3082 26.209 21.3467C26.1564 21.3851 26.1125 21.4333 26.08 21.4885C26.0278 21.6454 26.0299 21.8142 26.086 21.9699C26.1421 22.1256 26.2491 22.2598 26.3912 22.3525C26.6277 22.461 26.8767 22.5427 27.1329 22.5958L27.0033 23.3158L27.3715 22.6703C27.4372 22.6991 27.4997 22.734 27.5583 22.7746L28.0043 23.0328L27.9525 23.1569C28.6008 24.0656 28.2066 25.6099 28.1029 25.9625C28.0458 26.1412 27.9784 26.3697 27.911 26.5881L27.7554 27.0847V27.1989L27.7139 27.2535L27.273 28.0828L26.9929 28.6191L26.8944 28.8077L26.6298 29.3043L26.5883 29.3639C26.3705 29.6469 26.1527 29.93 25.94 30.218C25.3695 30.9827 24.7782 31.7722 24.1195 32.4972C23.7045 32.959 22.8435 33.8974 22.7502 33.9868C20.8051 35.9731 19.8975 36.5342 17.2263 36.9314C15.634 37.1648 14.0261 36.7377 13.1236 35.8439C12.7864 35.5031 12.5433 35.0871 12.4165 34.6336C12.2897 34.1801 12.2832 33.7035 12.3975 33.247C12.5971 32.4793 12.9629 31.7603 13.4711 31.1366C14.0849 30.2182 14.8524 29.4029 15.7429 28.7233C15.8674 28.6389 15.9919 28.5545 16.1215 28.4751C16.4687 28.2774 16.7804 28.0276 17.0448 27.7352C17.1952 27.573 17.2834 27.3665 17.2947 27.1498C17.306 26.9331 17.2398 26.7192 17.107 26.5434C17.0391 26.4871 16.96 26.4444 16.8744 26.418C16.7889 26.3915 16.6986 26.3818 16.6091 26.3895V26.3895Z" fill="black"/>
<path d="M23.7926 30.0589C23.1158 30.0027 22.4604 29.8035 21.8738 29.4754C21.2872 29.1474 20.784 28.6988 20.4004 28.1621L20.3486 28.1174C20.0108 27.7994 19.7226 27.4365 19.4928 27.0399C19.3765 26.7988 19.2358 26.5693 19.0726 26.3546C18.6785 25.8581 18.4814 25.4658 18.3465 24.2293C18.0197 21.1904 20.0841 17.6798 22.2884 15.7879L22.8071 15.2913C23.3984 14.7948 24.0778 14.184 24.7314 13.5832C24.9492 13.3796 25.1878 13.1462 25.4419 12.8979C26.998 11.4083 29.0726 9.35253 31.5623 9.30287H31.6764C32.4991 9.11845 33.3418 9.02844 34.1868 9.03473C35.4731 9.13901 36.3237 9.93846 36.9409 10.5244C37.0706 10.6485 37.2002 10.7727 37.3299 10.8819L37.9108 11.3785L37.7708 11.5225C38.166 12.1137 38.4242 12.7791 38.528 13.4739C38.8681 14.2467 39.0103 15.086 38.943 15.922C38.645 17.0316 38.1157 18.072 37.387 18.9807L37.3818 19.0354C37.2273 19.3124 37.054 19.5794 36.8631 19.8348L36.749 19.9838C36.2978 20.5697 35.5405 21.5579 34.4202 21.682C34.1532 21.7112 33.8828 21.6864 33.6264 21.6095C33.37 21.5325 33.1333 21.405 32.9316 21.2351C32.7198 21.065 32.5466 20.8552 32.4227 20.6187C32.2987 20.3822 32.2265 20.1239 32.2106 19.8597C32.1536 18.8665 32.9419 18.0472 33.4087 17.5656L33.4814 17.496C33.5436 17.3818 33.6473 17.1882 33.6836 17.0988C33.7926 16.8456 33.8859 16.637 33.9741 16.4433C34.3046 15.8605 34.4826 15.2096 34.4928 14.5465C34.465 14.4613 34.4303 14.3783 34.389 14.2982C34.2749 14.1542 34.1504 13.9854 34.026 13.8017C33.8634 13.5473 33.6721 13.3108 33.4554 13.0966C33.2171 13.1064 32.9797 13.1313 32.7448 13.171L32.3403 13.2257L30.9347 13.7917L30.7428 13.8712C30.3612 14.0649 30.0029 14.298 29.6743 14.5664L29.3631 14.7799L28.388 15.7035L27.0498 17.0491C26.6141 17.4911 26.1577 17.8685 25.7168 18.2409L25.4108 18.4941C24.8748 19.0773 24.4021 19.7112 24 20.386C23.1494 22.3226 22.8745 23.6037 23.6836 25.4409L23.8081 25.4956C24.5343 25.8283 25.8828 26.444 25.8828 27.9039C25.9073 28.1785 25.8718 28.4551 25.7785 28.7159C25.6853 28.9767 25.5363 29.2161 25.3412 29.4188C25.146 29.6215 24.909 29.7831 24.645 29.8933C24.3811 30.0035 24.0961 30.0599 23.8081 30.0589H23.7926ZM31.7231 10.147L31.6712 10.7925C29.7884 10.7925 27.9316 12.6099 26.5778 13.9407L25.8361 14.6508C25.1619 15.2715 24.472 15.8773 23.8859 16.3838C23.7303 16.5278 23.3673 16.8356 23.3258 16.8803C21.4637 18.4842 19.6276 21.5479 19.8973 24.0655C20.0011 25.0586 20.1048 25.1728 20.3278 25.4707C20.549 25.76 20.7368 26.0713 20.888 26.3993C21.0569 26.6519 21.2534 26.8866 21.4741 27.0994L21.5156 27.1342C21.5486 27.1673 21.5798 27.2022 21.609 27.2385L21.6971 27.3626C21.9409 27.6866 22.2501 27.9603 22.6065 28.1676C22.9629 28.3749 23.3592 28.5115 23.7718 28.5692C23.8253 28.5746 23.8792 28.5746 23.9326 28.5692C24.0208 28.5692 24.2957 28.4898 24.3009 27.9088C24.3009 27.4768 23.917 27.2236 23.1079 26.8561L22.6826 26.6525L22.4544 26.5334L22.3455 26.3099C21.1785 23.8718 21.5104 22.1438 22.5374 19.8199C23.0183 18.9641 23.6033 18.1657 24.2801 17.4414L24.3372 17.3967L24.6691 17.1137C25.0892 16.7661 25.5146 16.4086 25.9036 16.0163L27.2677 14.6557C27.9056 14.045 28.2635 13.7024 28.3465 13.6626L28.4087 13.613L28.7303 13.3895C29.1672 13.0642 29.6404 12.7861 30.1411 12.5603L30.3278 12.4858C30.9762 12.2177 31.6816 11.9346 31.8838 11.8552L32.0706 11.8154L32.5063 11.7608C33.1598 11.6665 33.9067 11.5572 34.4772 12.0339C34.7927 12.3321 35.0696 12.6655 35.3019 13.027C35.4212 13.1909 35.5249 13.3448 35.6338 13.4739C35.8135 13.7442 35.945 14.0413 36.0229 14.3528V14.4373V14.5167C36.0347 15.3957 35.8247 16.2645 35.4108 17.0491L35.1307 17.6798C35.0304 17.9005 34.9178 18.116 34.7936 18.3253L34.6899 18.4594L34.5498 18.6034C34.249 18.9112 33.7459 19.4227 33.7666 19.805C33.7723 19.8684 33.7918 19.9299 33.824 19.9855C33.8562 20.0411 33.9003 20.0896 33.9534 20.1278C33.992 20.1638 34.0387 20.1911 34.0899 20.2074C34.1411 20.2237 34.1955 20.2288 34.249 20.2221C34.6951 20.1725 35.2397 19.4624 35.499 19.1198L35.6183 18.9659C35.7559 18.7689 35.8822 18.565 35.9969 18.3551L36.0747 18.2111C36.6869 17.4455 37.1427 16.5762 37.4181 15.6489C37.4109 15.0647 37.2895 14.487 37.0602 13.9457V13.9457L37.0031 13.7619C36.9282 13.0919 36.6383 12.4604 36.1733 11.9545L35.748 11.4579C35.3265 10.9535 34.7304 10.61 34.0675 10.4896C33.3687 10.4985 32.6731 10.58 31.9928 10.733L31.8683 10.7578L31.7231 10.147Z" fill="black"/>
</g>
<defs>
<clipPath id="clip0">
<rect width="30" height="31" fill="white" transform="translate(9 9)"/>
</clipPath>
</defs>
</svg>
