<?xml version="1.0" encoding="utf-8"?>
<!-- Generator: Adobe Illustrator 18.1.1, SVG Export Plug-In . SVG Version: 6.00 Build 0)  -->
<!DOCTYPE svg PUBLIC "-//W3C//DTD SVG 1.1//EN" "http://www.w3.org/Graphics/SVG/1.1/DTD/svg11.dtd">
<svg version="1.1" id="Layer_1" xmlns="http://www.w3.org/2000/svg" xmlns:xlink="http://www.w3.org/1999/xlink" x="0px" y="0px"
	 viewBox="0 0 291 670" enable-background="new 0 0 291 670" xml:space="preserve">
<path d="M148,6c-2.5,1.3-5.1,2.6-6.6,3.3c-3,5.9-5.7,11.4-8.4,16.9c-0.3,0.6-0.4,1.2-0.4,1.9c-0.2,7.8-0.3,15.6-0.5,23.5
	c-0.1,3.8,1.4,5.9,5.4,6.2c31.1,2.1,58.8,14.7,85.9,28.7c3.8,2,4.7,11.6,1.2,14.1c-1.1,0.8-3.6,0.4-5.1-0.2
	c-13.4-4.9-26.8-9.8-40.1-15c-13.7-5.3-27.7-9.4-42.3-11.1c-8.4-0.9-8.4-1-11.9,7.1c5.6,2.7,11.4,4.1,17.7,3c1.6-0.3,3.4-0.5,4.8,0
	c22.6,8.4,45.1,17,67.6,25.5c3.8,1.4,6.1,3.7,5.3,7.4c-1.9,3.1-3.7,6.2-6,10.1c-1.9-0.6-4.5-1.2-7.1-2.2
	c-17.8-6.5-35.4-13.6-53.4-19.3c-8.9-2.8-18.6-2.9-28-4.2c-2.8-0.4-4.3,0.7-5,3.6c-0.7,3,0.6,4.6,3.2,5.1c3.7,0.7,7.5,1,11.3,1.5
	c2.1,0.3,4.3,0.3,6.4,0.9c6.2,1.7,12.4,3.4,18.5,5.6c17,6.3,33.8,13,50.8,19.1c5.1,1.9,6.1,5,5,9.6c-0.6,2.6-1.3,5.1-2.3,8.8
	c-23.7-9-48.2-14.5-70.3-25.7c-6.2-0.6-12.5-1-18.8-1.8c-6.1-0.7-8.6,0.8-10.5,7.1c8.7,6,14,6.7,18.3,3.1c13.2,4.2,26.3,8,39.1,12.4
	c11.2,3.8,22.2,7.9,33.2,12.3c6.9,2.8,7.6,4.6,6.2,12.2c-0.3,1.4-0.8,2.8-1.5,5.4c-7.5-1.9-14.9-3.4-22.1-5.6
	c-17.6-5.4-35.1-11.3-52.8-16.5c-5.3-1.6-11.1-1.8-16.8-2.1c-7.2-0.4-7.3-0.1-8.4,7.5c5.4,2.6,11.1,3.8,17.2,3.4
	c2-0.1,4.1,0.9,6.2,1.6c1.2,0.4,2.3,1.3,3.5,1.7c18.3,5.3,36.7,10.6,55,15.9c1.7,0.5,3.5,1.2,5.1,2.1c13.1,7.3,11.7,6.2,7.2,19.6
	c-16.8-0.5-31.1-9.5-46.7-14.1c-15.9-4.6-31.7-8.7-48.3-9.8c-4.4-0.3-5.6,1.5-6.2,5c-0.7,3.9,2.3,4.6,4.8,5c5,0.7,10.2,0.9,15.5,1.3
	c-0.3-1.8-0.6-3.5-1-6c1,0.8,1.7,1.1,1.7,1.5c0.6,7.1,6.2,7.5,11.4,8.5c21.2,4.4,41.9,10.5,61.6,19.7c5.2,2.4,6.3,12,1.6,15.3
	c-0.9,0.6-2.6,0.5-3.7,0.2c-14.7-4.1-29.4-8.1-44-12.7c-17.4-5.5-34.8-10.3-53.3-8.2c-0.2,2.3-0.5,4.6-0.8,7.2
	c12.4,2.5,24.9,4.8,37.3,7.5c19.5,4.3,38.6,9.9,56.8,18.4c6.5,3.1,7,4.1,4.3,10.9c-0.8,2-2.1,3.7-3.2,5.7c-1.3-0.8-2.2-1.7-3.3-2
	c-16.6-4.5-33.3-9-50-13.4c-6.6-1.7-13.2-3.1-19.9-4.6c-3.1-0.7-5.2,0.2-5.6,2.8c-1.4-1.3-2.9-3.5-5-4.3c-7.6-3.3-15.5-3.4-23.3-0.5
	c-1.3,0.5-2.1,2.3-3.2,3.5c1.6,0.7,3.1,1.5,4.7,2.1c0.8,0.3,1.9-0.1,2.5,0.4c6.4,4.8,13.5,4.9,21,3.7c0.9-0.1,2.3-0.4,2.6,0.1
	c3.3,4.7,8.6,4.5,13.3,5.7c19.7,5.3,39.4,10.7,59.1,16.3c6.6,1.9,7.6,4.1,5.2,10.5c-0.8,2.2-2.4,4-4.1,5.7c0.9-3.4,1.8-6.8,2.9-10.9
	c-1.6,0.4-2.1,0.4-2.1,0.6c-3.5,11.1-3.7,11.6-14.9,8.8c-14-3.5-27.8-7.9-41.8-11.6c-5.6-1.5-11.5-1.8-17.2-2.8
	c-1.9-0.3-3.9-0.9-5.7-1.5c-8.7-2.9-17.6-5.1-26.9-3.5c-2,0.4-4,1.2-6.5,2c1.2,1.5,2,2.5,2.8,3.5c-0.7,0.4-1.4,0.8-2.5,1.4
	c5.6,6.5,7.8,13.6,4.2,23.3c-0.5-3.4-0.8-5.4-1.1-7.3c-1.3,4.4-5,8.3-1.5,13.4c3.5,5,5.1,10.6,5.1,16.9c0,3.5,2.2,7,2.5,11.2
	c-1.7-2.4-3.4-4.7-5.4-7.4c-0.1,9.5,15.1,24.3,28.1,27.5c-1.3-1.5-2.4-2.7-4.1-4.6c9.3,4.6,17.5,9.2,26.3,12.7
	c9.2,3.6,18.6,4.2,27.3-2c-4.5,0-8.7-2-13.7,0c-2.5,1.1-7-1.9-10.4-3.5c-4.8-2.3-9.5-4.9-14.1-7.8c-7.4-4.7-14.6-9.7-22-14.4
	c-1.1-0.7-2.9-0.5-5.1-0.9c1.6-2,2.9-3.6,4.2-5.3c-0.6-0.3-1-0.7-1.1-0.6c-5.2,4-5.3,4-7.3-2.7c-3.4-11-2.9-21.6,3.1-31.7
	c0.4-0.6,0.7-1.3,0.1-2.7c-1.5,1.7-3,3.4-5.6,6.3c0.7-2.4,0.7-3.9,1.4-4.7c3.8-4.4,9.5-4.9,14.3-1.2c5.8,4.4,8.2,10.7,8.9,17.7
	c0.4,3.9,1.4,7.8,1.7,11.8c0.5,7.7,5,13,10.6,17.3c10.5,8.1,21.6,15,35.4,15.8c1.5,0.1,3.3,0.9,4.5,1.9c4.7,4,9.5,5.8,15.6,2
	c-1.1,1.2-2.1,2.5-3.2,3.7c-1.1,1.2-2.2,2.5-4.1,4.6c6.6,2.8,12.8,5.3,19,7.9c-11.5,1.5-23.1,1.9-34.5-1c-4.3-1.1-6.9-1-6.2,5
	c-1.6-2.6-2.8-4.5-4.5-7.1c-1.4,2.1-2.7,3.3-3,4.7c-3,14.9-6,29.9-8.7,44.9c-1.7,9.3-3.2,18.7-4.6,28c-0.8,5.4,1.1,10.2,5.1,13.9
	c2.8,2.6,5.6,5.3,8.7,7.4c1.5,1,3.8,0.9,5.8,1c-17.7-10-22.3-33.3-10.2-51c1.2-1.8,1.9-4.1,2.1-6.2c0.4-4.9,3.1-8,7.5-9.7
	c8.9-3.4,17.7-2.5,26,1.7c1,0.5,1.2,2.4,1.8,3.6c0.6,1.5,1.2,2.9,2.1,5c-6.6-1.5-12.8-3-19.1-4.4c0-0.6,0-1.1,0.1-1.7
	c2.5-0.6,5-1.3,7.6-2c-10.7-4.9-29.4,11.5-29.3,26.2c1.2-1.3,2.1-2.3,2.9-3.2c1.1,3.6,1.9,7.3,3.4,10.7c1.5,3.5,3.7,6.6,5.6,9.9
	c-0.6,0.5-1.2,1-1.8,1.5c-3.2-2.3-6.3-4.6-9.6-7c-4,10.2,1.6,15.3,27,25.4c-2.9,5.2-10.5,8.2-18.3,5.8c-6.4-2-12.2-5.7-19.6-9.2
	c2.3,3.1,4,4.9,5.2,7.1c1.5,2.8,3.6,5.7,3.7,8.7c0.5,12,0.6,24,0.3,36c-0.5,16.3-1.5,32.6-2.2,48.9c-0.5,0-0.9,0.1-1.4,0.1
	c-1.5-25.7-3.6-51.3-4-77c-0.1-7.3,0.6-14.4-3.9-20.4c-11.8-15.8-10.9-32.8-6-50.4c0.4-1.6,0.8-3.2,1.7-6.4c-4.1,1.1-7.1,2-10.3,2.8
	c0.2-0.8,0.6-2.2,1.2-4c-4-0.2-7.7-0.4-12.9-0.7c-1,3.1-2.5,7.5-4.2,12.5c5.6,0.7,10.1,1.3,15.9,2c-2.3,0.9-3.4,1.4-4.9,2
	c1.4,5.2,2.7,10.6,4.1,15.7c2.3-2.8,3.2-17,1.8-23.1c0.5,1,1.4,2,1.6,3.1c1.3,8.7,2.2,17.2-1.7,25.8c-1.7,3.8-0.8,8.6-1,13
	c-0.1,2.2-0.2,4.3-0.4,6.9c6.5,11.3,4.8,24.2,3.3,37.1c-0.2,1.4-0.6,2.8-0.9,4.4c2.1,0.3,3.6,0.5,6.3,0.8c-5.4,3-3.7,6.9-3.2,10.7
	c0.4,3.2,2.5,6.8-1.4,9.7c-0.6,0.4,0.1,2.8,0.3,4.2c1.3,6.2-0.8,13.1-5.8,18.2c-3.4-36.9-3.5-73.7-10.6-110.9c-1,1.9-1.4,2.8-2.1,4
	c-0.9-1.2-1.8-2.1-2.3-3.3c-1.8-4.1-4.3-6.8-8.6-9c-2.5-1.3-3.2-6.2-4.4-8.9c-0.3,1.8-0.8,4.8-1.3,7.6c-3.5-4.1-2.9-11.7,2.6-24.4
	c0,3.6,0,5.9,0,8.2c0.5,0,1.1,0.1,1.6,0.1c2.5-17.8,5-35.5,7.6-54c-20.7-11.2-43.6-21.5-52.2-47.7c-1.2,4-3.4,8.1,0.7,9.5
	c2,4.2,2.7,7.9,4.9,10c6.2,5.7,13.1,10.7,19.8,15.8c2.2,1.7,4.8,2.9,6.9,4.8c-19.5-8.4-38.3-17.6-46.5-39.6
	c-1.5,0.8-2.7,1.5-4.4,2.4c4.4,6.2,8.7,12.4,13,18.5c-0.4,0.4-0.8,0.8-1.2,1.2c-2-2.5-3.9-5.2-6.2-7.5c-4.2-4.2-9.2-7.7-12.8-12.3
	c-1.9-2.4-5.2-4.9-4-9.5c0.8-3.3-0.3-7-0.1-10.4c0.4-5.7,1.1-11.5,2-17.1c0.2-1.3,2-2.3,3-3.4c1.1,1.3,2.7,2.5,3.3,4.1
	c0.6,1.6,0.3,3.6,0.4,5.4c0,2.2,0,4.5,1,6.8c1.1-3.5,2.1-7,3.3-10.4c1.4-4,2.5-7.9,1-12.3c-0.3-1,1.6-3.1,2.9-4.3
	c1.4-1.3,3.2-2.2,4.9-3.2c-0.4-0.7-0.8-1.3-1.2-2c-3.1,0-6.2,0-9.1,0C14,257,21,250.8,13,248.5c4.4-5.3,10.3-4.8,15.9-4.6
	c1-3.2,1.9-6,3-9.3c-2.7,0-6.5,0-10.1,0c-0.5-5.1-0.9-9.5-1.3-14.5c2.5-0.8,5.5-1.5,8.4-2.6c2-0.7,4.2-1.6,5.6-3
	c0.9-0.9,1.3-3.1,0.9-4.4c-0.3-0.9-2.1-1.8-3.4-2c-1.9-0.3-3.9-0.1-5.7-0.1c-0.7-4.6-1.4-9-2.1-13.8c3.5-1.1,6.9-2.4,10.3-3.2
	c3.2-0.8,6.2-1.3,5.6-5.8c-0.1-0.9,0.8-2,1.6-3.7c-3.9,0.2-7.4,0.4-11.4,0.6c0-2.5,0.1-4.7,0-6.8c-0.2-4.1,0.6-8.6,4.7-9.4
	c3-0.6,6.6,2,9.6,3.1c0.5-4.8,1.2-11.1,1.9-17.1c-2.5,1.2-5.9,2.9-9.3,4.5c-1.2-4.6-2.2-8.4-3.3-12.5c-0.8,0.3-2,0.6-3.4,1
	c0-0.7-0.2-1.5,0-1.6c2.1-1.2,4.2-2.4,6.5-3.2c4.1-1.4,8.4-2.2,12.2-3.9c1.5-0.7,2.2-3.3,3.2-5.1c-1.7-0.7-3.4-1.8-5.2-1.9
	c-4.5-0.2-10-4.3-11.4-9.7c1.1,1.6,1.8,2.5,2.8,4c1.4-2.1,3.4-3.9,3.4-5.6c-0.1-3.4,2.4-3.4,4.3-4.5c3.5-2.1,7-4.2,10.4-6.6
	c0.7-0.5,0.8-2.1,1.3-3.7c-2.6,0.2-4.7,0.7-6.8,0.4c-2-0.3-4.5-0.8-5.7-2.1c-0.9-0.9-0.1-3.4,0.1-5.2c0.8-6.9,5.6-9,11.5-10.4
	c3.5-0.8,6.2-3.2,5.7-8.1C57.8,77,49.5,82.6,50,71c-1.2,1.1-2,1.8-3.1,2.8c-1.9-3.8,0.1-6,2.7-7.6c2.2-1.4,5.1-1.7,7.3-3.1
	c4.3-2.7,8.4-5.7,12.3-8.9c0.8-0.7,0.6-2.8,0.6-4.3c0.1-4.7,0-9.4,0-14.2c0.6,0,1.2,0,1.9,0c0.2,1.6,0.3,3.2,0.5,4.8
	c3-1.9,3-1.9,0.8-11.7c2,2.5,3.2,3.8,4.9,6c2.7-5.3,5.3-10.3,7.8-15.3c-0.5-0.3-1-0.6-1.5-0.9c-2.2,3-4.4,6-6.6,9
	c0.3-7.8,9.3-15,19.6-15.3C95,14.8,93,17.1,91,19.4c9.9-4.1,17-14.3,30.3-11.9c-3.2,2.8-5.9,5.3-8.4,7.5C122,12,131,9,140,6
	C142.7,6,145.3,6,148,6z M54.8,308.4c-0.5,0.1-1,0.1-1.5,0.2c0.2,2.1,0.5,4.1,0.5,6.2c0,2.8-0.2,5.6-0.2,8.4c0,1.9-0.4,4.2,0.5,5.7
	c7.2,12.3,18.5,20.2,30.4,27.3c1.9,1.1,4.6,0.9,7,1.3c0.2-0.6,0.4-1.2,0.6-1.9c-2.5-1.5-4.9-3-7.5-4.4C71.8,344,62.3,334,56.9,320.4
	C55.4,316.7,55.5,312.4,54.8,308.4z M109.6,133.5c-1.1-0.5-1.9-1-2.8-1.2c-4-1-8-2-12-2.6c-0.8-0.1-1.8,1.4-2.7,2.1
	c0.8,0.8,1.4,2,2.3,2.5c2.4,1.1,4.9,2,7.3,2.9C105.3,138.5,108.2,137.8,109.6,133.5z M88.2,156.8c-0.4,0.5-0.8,0.9-1.2,1.4
	c0.8,1.4,1.4,3.7,2.5,4c4.4,1.2,9,1.7,13.6,2.6c0.3-2.1,0.4-3.6,0.7-5.6C98.4,158.4,93.3,157.6,88.2,156.8z M80.4,212.6
	c4.6,8.2,6,9,13.3,7.1C94.3,213.7,89.6,211.2,80.4,212.6z M96.3,106.2c14.3,4.7,17.5,4.8,19.2,1.6c-1.4-0.5-3.5-0.8-3.9-1.6
	c-1.1-3.1-3.3-3.6-5.9-3.1C102.8,103.7,100,104.9,96.3,106.2z M117.2,445.9c-0.1,8.5,0.5,9.4,10,13.5
	C124.5,454.2,125.1,447.3,117.2,445.9z M84.4,184.7c3.9,6.2,10.2,7.9,15.4,4.5C96.2,182.5,89.5,186.2,84.4,184.7z M106.7,78.2
	c-0.1,0.5-0.5,1.9-0.9,3.6c4.9,0,9.2,0,13.9,0c-0.1-1.8-0.2-3.4-0.3-5C115.1,77.3,111.3,77.7,106.7,78.2z M97.6,357.4
	c-0.2,0.5-0.3,1-0.5,1.5c7,2.7,13.3,7.7,21.4,7C111.6,363,104.6,360.2,97.6,357.4z M77,112.2c-4.2,4.4-2.4,9.7-3.6,14.7
	C77.9,123.7,79,119.1,77,112.2z M121.6,56.1c0.3-1.3,0.6-2.5,0.9-3.7c1.1,1.1,1.9,2.1,3.1,3.3c0.4-5.1-0.4-8.2-5.7-6.3
	c-1,1.8-1.9,3.4-2.8,5.1C118.5,55,119.9,55.5,121.6,56.1z M55.4,207.5c0.9,0.2,1.8,0.5,2.7,0.7c1.1-4.5,2.2-8.9,3.2-13.4
	c-0.8-0.2-1.5-0.4-2.3-0.6C57.9,198.7,56.7,203.1,55.4,207.5z M91,232.9c-0.2,0.6-0.3,1.2-0.5,1.7c3.6,6,10.4-0.2,14.6,3.7
	c0.2-0.7,0.4-1.5,0.5-2.2C100.8,235,95.9,233.9,91,232.9z M112.5,24.5c-0.9,3.6-1.7,7.1-2.6,10.7c0.6,0.1,1.1,0.2,1.7,0.3
	C111.9,31.8,117.6,29.1,112.5,24.5z M94.6,35.6c1.9-4.1,3.8-8.2,5.8-12.2c-0.4-0.2-0.8-0.3-1.1-0.5C97.7,27.1,92.2,29.7,94.6,35.6z
	 M80.7,102.8c1-5.9,1.8-10.5,2.6-15c-0.8-0.1-1.6-0.2-2.3-0.2C82.7,92.3,77.2,96.5,80.7,102.8z M130.4,366.8c0-0.3,0-0.7,0-1
	c-2.8-0.3-5.5-0.5-8.3-0.8c0,0.6,0.1,1.8,0.1,1.8C124.9,366.8,127.6,366.8,130.4,366.8z"/>
<path d="M134,666c-0.8-2.7-1.6-5.3-2.5-8c-7.7,4.3-14.2,2.6-17.7-4.2c8.1,0,16.3,0.2,24.5-0.1c8.3-0.3,16.7-0.6,24.6-6.2
	c0.4,1.7,1.3,3.7,0.8,4c-2,1.6-4.1,3.4-6.5,4.1c-3.7,1-7.7,1.2-11.9,1.7c0,0-0.7-1.2-1.4-2.3c-1.7,1.6-3.9,3-5,5
	c-0.8,1.6-0.1,3.9-0.1,5.9C137.3,666,135.7,666,134,666z"/>
<path d="M157.9,11c-2,0-3.5,0-5.2,0c11.7-5.9,32.5,0.4,52.4,10.2c-9-1-18.1-2-27.7-3c0.8-1.1,1.4-1.9,2.2-3.1
	c-6.1-1.1-12.1-2.2-18-3.4c-0.2,0.6-0.5,1.2-0.7,1.9c2.1,1.5,4.2,3.1,6.8,5c1.8-0.5,4.3-1.1,6.8-1.7c0.1,0.3,0.2,0.6,0.3,0.9
	c-1.5,0.6-3.1,1.2-4.6,1.9c-0.1,0.5-0.2,0.9-0.3,1.4c3,1,5.9,2.3,8.9,2.9c10.1,1.8,20.2,3.4,30.4,5.1c0.8,0.1,1.7,0.5,2.3,1
	c9.1,7.2,19.9,11.3,29.8,17c5.6,3.2,10.2,9.1,13.7,14.8c9.3,15,17.4,30.7,21,48.2c0.2,0.8,0.2,1.6,0.4,3.9c-3.9-2.6-6.9-4.5-9.8-6.4
	c-0.2,0.2-0.3,0.4-0.5,0.6c6.7,5.6,13.4,11.2,20.2,16.8c-0.3,0.4-0.6,0.8-0.9,1.2c-1.5-1-3.1-1.9-5.4-3.3c2,5.8,7.5,10.1,4.1,16.2
	c-2-2.4-3.7-4.5-5.5-6.7c-0.6,1-1.1,2-1.8,3.3c-3-2.3-6.4-4.8-9.7-7.2c-0.2,0.2-0.4,0.4-0.7,0.6c2,3.1,4,6.2,6.1,9.3
	c-0.4,0.3-0.8,0.7-1.1,1c-1.6-0.9-3.2-1.7-4.9-2.6c-0.2,0.2-0.4,0.5-0.6,0.7c5.3,4.5,10.6,9,14.9,12.6c-0.6,6-1,10.6-1.5,15.2
	c-0.5,0-1.1,0-1.6,0c-0.2-1.8-0.5-3.6-0.5-4c-4.9-2.2-9.2-4.1-13.6-6.1c-2.2,3,8.4,5.1,0.9,9c1.4,1.3,2.6,2.6,4,3.8
	c2.3,1.9,6.1,3.3,6.6,5.6c1,4.5,0.3,9.4,0.3,15.7c-5.2-2.5-9.1-4.4-13.3-6.5c0.4,1.7,0.7,3.2,1.1,4.9c-0.9,0.2-1.8,0.3-3.5,0.6
	c1.5,1.8,2.4,4.2,3.9,4.6c9,2.8,6.9,10.3,7.7,17c-2.6,0.3-5.2,1.2-7.4,0.7c-2.4-0.6-4.5-2.5-7.3-4.1c-0.5,3.3-0.9,5.7-1.3,8.3
	c11.1,8.2,12.8,11.5,9.3,19.8c-0.7-0.9-1.3-1.6-2.3-2.8c-0.5,1.6-1,2.9-1.6,4.6c-2.6-1.4-5.2-2.8-7.4-4c-1.7,2.2-3.2,4.3-5.1,6.8
	c1.9,1.3,3.7,3.3,5.9,3.9c5.4,1.4,6.4,5.9,7.7,10.1c0.3,1.1-0.4,2.8-1.2,3.8c-1.4,1.6-3.2,2.7-5.1,4.3c-3-1.5-6.2-3.1-9.4-4.6
	c-1.2,2.6-2.2,4.6-3.4,7c4.7,4.9,14.9,5.6,14.5,14.4c-2.7,3-4.7,5.3-7,7.9c-5.6-1.2-5.6-1.2-17.2,2.3c4.6,2,9.3,3.9,13.8,6.1
	c1.8,0.9,4.1,2.1,4.8,3.7c2.4,6,1,7.5-6,6.8c-0.2,1.9-0.3,3.9-0.6,6.8c-2.7-1-5.3-1.7-7.7-2.8c-5.9-2.8-11.2-2.4-16.1,2.1
	c-1,0.9-2.1,1.6-3.2,2.3c-2.5,1.7-4.4,1.5-5.1-1.7c-1.6-6.7-3.4-13.5-4.5-20.3c-0.3-2.1-1.8-5.8,2.7-6.6c0.3-0.1,0.2-2.4,0.4-3.7
	c1-10.9,1.2-22,3.3-32.6c1.9-9.4,4.2-18.7,6.2-28.1c2.1-9.7,3.3-19.7,4.8-29.5c0.8-5.4,1.1-10.9,1.7-16.4c-0.5-0.1-0.9-0.2-1.4-0.3
	c-2.6,10.6-5.2,21.3-8.1,33.2c0.3-4.4,0.2-7.7,0.7-10.8c1.4-8.5,3-17,4.5-25.5c0.1-0.8,0.1-1.7,0.3-2.5c1.3-4.7,2.6-5.2,8-2.8
	c-0.7-1.1-1.2-2.9-2.2-3.3c-3.5-1.2-3.3-3.6-2.6-6.4c1-4.5,0.8-9.8,3.1-13.5c5.3-8.6,0.1-18.3,4.1-26.8c-3.8-7.4,6.2-12,3.5-19.2
	c3.7,2.4,1.4,5.1,0.9,7.7c-0.5,2.7-1,5.4-1.4,8.1c0.7,0.1,1.4,0.3,2.1,0.4c1.5-7.8,2.9-15.7,4.4-23.5c-0.5-0.2-1.1-0.4-1.6-0.7
	c-1.1,1.9-2.3,3.8-3.4,5.6c-0.6-0.1-1.1-0.1-1.7-0.2c-0.2-5.4,0.3-10.9-0.9-16.1c-0.7-3.4-3.9-6.2-6-9.4c0.4-0.2,1.1-0.6,1.8-1
	c-4.9-6.2-16.1-6.7-15.5-17.8c-8.8-0.7-9.6-8.7-14.1-13.5c-1.6-0.8-3.6-1.9-5.7-2.9c-4.1-2-8.2-4.2-12.5-5.9
	c-3.1-1.2-6.4-1.6-9.6-2.6c-6.2-1.9-8.6-0.8-10.7,5.2c-2.4,7-11.2,12.1-18.6,10.9c-7.5-1.2-9.5-5.1-6.4-12c0.5-1.2,1.2-2.3,2.6-3.3
	c-0.3,1.9-0.6,3.7-1,6.2C146.1,24.5,151.8,17.9,157.9,11z M243,68.5c-0.4,0-0.8,0.1-1.3,0.1c0,5.2,0,10.4,0,15.5c0.4,0,0.8,0,1.3,0
	C243,78.9,243,73.7,243,68.5z"/>
<path d="M114.1,631c-3-1.1-6-2.1-9.1-3.2c0.6-0.4,1.1-0.8,1.7-1.2c-0.5-1.6-0.7-3.3-1.5-4.7c-1.2-2.1-4.3-5-3.9-5.7
	c3.1-4.4-0.7-8.5,0.2-12.9c1.1,0.2,2.1,0.4,4.1,0.8c-0.9-1.8-1.5-3-2.1-4.2c3.5,0.4,7.4,0,9.2,5.5c1.5-2.5,2.6-4.3,4.1-6.7
	c0.2,1.9,0.4,3,0.6,4.9c1-1.4,1.6-2.2,1.7-2.3c3,0.8,5.9,1.5,9.1,2.3c-1.2-2.4-2-4.1-3-6c-0.8,0.8-1.6,1.5-1.7,1.6
	c-2.8-0.7-5.5-2.4-7.2-1.7c-3.6,1.5-5.3-0.8-7.6-2.2c-0.5,1.1-0.9,2.1-1.3,3c-1.8-1.2-3.2-2.1-4.7-3c-0.9-1.5-1.8-3.1-2.7-4.6
	c0.2-0.2,0.3-0.5,0.5-0.7c2.1,1.1,4.1,2.2,6.2,3.3c0.2-0.3,0.5-0.5,0.7-0.8c-1.6-1.5-3.3-2.9-5.3-4.7c1.2,0.2,2,0,2.5,0.4
	c10.2,7,21.8,5.8,33.2,6c2.3,0,4.7,1.1,7.5,1.9c0.1-0.3,0.5-1.7,0.9-2.8c6.4-1.5,12.6-3,18.9-4.5c4-1,6.7,0.6,8.6,4.1
	c3.2,5.9,3.2,12.1,1.5,18.4c-0.7,2.7-1.7,5.4-2.9,7.9c-2.8,6.2-2.9,6.1-9.2,5.5c0.3,1.4,0.6,2.7,1.2,5.4c-3.9-0.5-7.1-0.9-9.5-1.2
	c-2,1.8-3.9,3.4-5.8,5.1c-0.3-0.4-0.7-0.8-1-1.2c1.3-0.6,2.5-1.2,3.8-1.8c0-0.5-0.1-1.1-0.1-1.6c-4.3,0.3-8.6,0.8-13,0.9
	c-3.4,0.1-6.8-0.3-10.2-0.3c-1.1,0-2.2,0.4-4.2,0.7c0.1,0.1-0.6-0.9-1.3-2c-0.3,0.1-0.5,0.1-0.8,0.2c0.1,1.5,0.2,3,0.4,5.2
	c-3-1-5.8-2-8.6-3c1.1,0.1,2.2,0.2,3.2,0.3c0.3-0.5,0.5-1,0.8-1.4c-2.4-1.6-4.8-3.3-7.2-4.9c-0.4,0.4-0.7,0.9-1.1,1.3
	C111.1,627.7,112.6,629.3,114.1,631z M148.2,593.3c0,4.4-2.6,5.1-5.7,5.2c-2.9,0.1-5.8,0-8.7,0c0,4.6,0,8.3,0,13.6
	c11.5-2.5,22.4-4.8,33.2-7.1c1.3,5.5,1.9,6,5.8,4.8c-7.2-5.6,2-13.9-2.5-19.1c-7.7-0.1-13,5.1-19.7,5.7
	C149.6,595.3,148.9,594.3,148.2,593.3z M116.1,621.4c-2.4-4.4-4.8-8.8-7.2-13.4c-4.7,0.9-5.6,3-2.5,7.1c0.5-0.8,0.9-1.6,1.3-2.3
	c0.3,0.3,0.7,0.6,1,1c-1.2,1.1-2.4,2.3-3.6,3.4C110.1,625,110.4,625.1,116.1,621.4z M166.8,612.4c-6,2.1-12.1,4.1-18.1,6.2
	c0.2,0.4,0.3,0.9,0.5,1.3C155.6,618.8,162.4,618.7,166.8,612.4z M159.6,620.6c6.7,1.3,9.3-0.2,8.5-4.4
	C165.4,617.5,162.8,618.9,159.6,620.6z"/>
<path d="M214.2,626.8c2.9,5.7,1.4,12.7-4.9,16.9c-9.9,6.6-21,7.7-32.5,6.9c-3.6-0.3-7.1-1.1-11.1-2.9c2.4-1.6,4.6-3.4,7.1-4.8
	c5.4-3,10.7-6,16.3-8.5c3.5-1.6,7.5-2.4,11.3-3.5C204.7,629.6,209.1,628.3,214.2,626.8z"/>
<path d="M151.9,427.4c0.4-1.2,0.5-2.8,1.3-3.6c4.3-4.4,3.1-7.4-1.9-10c-0.7-0.3-1-1.2-1.5-1.8c3.5-4.4,3.5-4.4,11.4,3.8
	c11.4-4,18.4,1.1,19.7,14.5c0.2,2.1,0,4.3-0.2,6.5c-1.9-8-3.5-16.4-12.5-19.2c-3.1-1-7.1,0.6-11.8,1.2c5.9,9.4,10.8,17.3,15.8,25.1
	c1.7,2.6,3.6,4.8,2,8.5c-0.7,1.6,0.5,4.1,0.8,6.6c-4.3,1.3-8.6,3.2-13.1,3.8c-4.6,0.6-7.8-2.7-9.8-6.5c-4.6-8.9-4.8-18-1-27.3
	c-0.2,2-0.8,4-0.6,5.9c0.7,5.8,0.7,12,2.8,17.3c2.8,7.2,10.7,8.6,17.3,4.1c-1.8-11.4-10.1-19.2-15.7-28.5
	C154.6,427.3,152.9,427.5,151.9,427.4z"/>
<path d="M61.2,35.2c3.9-5.5,6.2-11.9,14.2-14.6c-4.2,9-8.1,17.2-12,25.6C59.2,42.6,67.4,38.1,61.2,35.2z"/>
<path d="M99.2,286.9c6.6-2.8,10.3,0.9,10.4,11.4C105.8,294.1,102.7,290.7,99.2,286.9z"/>
<path d="M214,227.4c-1.4,10.3-2.8,20.7-4.2,31c-0.5-0.1-1.1-0.1-1.6-0.2c1.3-10.3,2.7-20.6,4-30.9
	C212.8,227.4,213.4,227.4,214,227.4z"/>
<path d="M111.5,581.3c-1.6,0.6-2.8,1-4.7,1.7c2.9,1.4,5.1,2.5,7.4,3.6c-0.3,0.5-0.5,1-0.8,1.5c-6.3-1.5-11.5-4.6-13.7-11.4
	c0.8,1.3,1.5,2.7,2.5,3.8c0.9,1,2.3,1.6,3.5,2.4c0.5-1.2,1-2.5,1.5-3.7c0.2-0.6,0.1-1.3,0.4-3.4
	C109.1,578.1,110.1,579.5,111.5,581.3z"/>
<path d="M132.8,572.4c0,3.5,0.1,6.9-0.2,10.4c0,0.5-2.1,0.8-3.5,1.4c1-4.5,1.8-8.1,2.6-11.7C132.1,572.5,132.4,572.4,132.8,572.4z"
	/>
<path d="M108.7,633.5c5.3,1.1,5.5,4.6,6.4,7.8c-0.4,0.3-0.9,0.6-1.3,0.8C112.2,639.5,110.7,636.8,108.7,633.5z"/>
</svg>
