<svg width="36" height="32" fill="none" xmlns="http://www.w3.org/2000/svg"><path d="M11.71 10c.04.018.08.04.122.053.558.166.736.563.47 1.053a6.55 6.55 0 01-1.976 2.24c-.682.49-1.332 1.019-2 1.526-.216.163-.445.31-.726.506.354.021.651.046.949.056 3.393.117 6.787.062 10.178-.058 2.46-.088 4.92-.227 7.38-.343 2.357-.11 4.714-.217 7.072-.337.458-.024.727.18.913.532v.518c-.217.48-.633.605-1.159.624-1.755.065-3.51.157-5.264.24-1.931.09-3.861.191-5.793.272-2.071.087-4.143.185-6.215.224-1.98.037-3.961.003-5.941.001H7.802a.592.592 0 00.099.07c1.58.892 2.89 2.044 3.906 3.483.339.48.318.873-.132 1.147-.494.303-.964.26-1.311-.205a10.875 10.875 0 00-2.07-2.122c-1.302-1.004-2.77-1.691-4.446-1.965-.183-.03-.37-.04-.554-.06-.462-.05-.784-.294-.883-.672-.092-.347.078-.678.474-.91 1.69-.985 3.372-1.984 5.078-2.945.714-.402 1.268-.95 1.824-1.504.227-.227.443-.466.643-.714.254-.312.522-.597.945-.71h.335z" fill="#fff"/></svg>