<svg width="48" height="48" fill="none" xmlns="http://www.w3.org/2000/svg"><g clip-path="url(#clip0)" fill="#000"><path d="M39.706 28.675v1.623c-.123.576-.198 1.167-.377 1.724-.277.86-.696 1.646-1.51 2.121-.664.388-1.4.444-2.139.406-.738-.037-1.464-.17-2.197-.188-1.86-.036-3.722-.072-5.581-.032-2.433.053-4.865.168-7.296.276-1.236.055-2.47.14-3.703.231-1.499.11-2.996.255-4.5.076-1.291-.153-2.353-.711-3.117-1.808-.732-1.053-1.01-2.254-.991-3.506.018-1.252.149-2.488.25-3.729.173-2.122.364-4.243.543-6.365.062-.745.09-1.494.185-2.235.048-.384.22-.75.307-1.133.094-.407.171-.507.578-.552.65-.072 1.3-.16 1.951-.194 2.645-.135 5.29-.313 7.934-.36 4.346-.076 8.688-.187 13.022-.54 1.038-.087 2.088-.011 3.089.34.6.209 1.145.508 1.312 1.214.47.042.667.183.745.626.184 1.031.396 2.061.492 3.102.216 2.399.307 4.81.751 7.184.108.57.17 1.147.252 1.719zM10.23 23.663c-.018.148-.037.29-.053.432-.074.67-.137 1.343-.223 2.012-.19 1.454-.392 2.905-.208 4.376.078.635.249 1.24.609 1.775.588.876 1.465 1.177 2.446 1.157a641.21 641.21 0 008.77-.235c2.227-.077 4.453-.22 6.68-.295a40.859 40.859 0 013.159.038c1.091.047 2.18.188 3.272.212a7.516 7.516 0 001.845-.218c.874-.205 1.462-.761 1.618-1.7a9.08 9.08 0 00.046-2.795c-.18-1.242-.4-2.478-.595-3.717-.065-.417-.105-.839-.16-1.292-.239 0-.454.012-.667 0-2.843-.193-5.684-.093-8.524.05-1.94.096-3.88.22-5.821.272-1.697.046-3.395.019-5.092.006-2.35-.019-4.701-.051-7.102-.078zm26.625-6.998c-1.67-.596-3.398-.697-5.14-.626-1.706.069-3.41.221-5.116.25-3.241.063-6.484.056-9.726.088-1.944.02-3.887.057-5.83.085-.158 0-.291.01-.365.198-.298.757-.304 1.546-.316 2.388.808-.47 1.65-.563 2.498-.605 2.654-.136 5.309-.271 7.963-.388 2.503-.111 5.006-.235 7.51-.286 1.995-.048 3.99.07 5.966.353.954.14 1.907.305 2.89.464l-.334-1.921zM10.37 19.28c0 .5-.014.944.009 1.39a.652.652 0 00.184.42c.497.432 1.03.82 1.519 1.26.298.267.615.24.93.22l-2.324-2.437c-.057-.063-.134-.116-.156-.188a.307.307 0 01.033-.24c.027-.036.15-.032.209 0 .077.05.147.112.207.183.953.912 1.923 1.799 3.034 2.52.565.368 1.14.147 1.71.192a4.646 4.646 0 00-.463-.33c-.936-.639-1.67-1.491-2.398-2.348-.092-.109-.262-.212-.396-.212-.715-.003-1.41-.06-2.098-.43zm7.883.085c.966.962 1.822 2.008 2.991 2.679l.01-.095.453-.126c.05.25.103.501.159.772l2.002-.104c-.288-.236-.535-.434-.777-.637-.885-.738-1.771-1.475-2.649-2.222-.103-.087-.16-.23-.268-.39l-1.921.123zm5.412-.375l-.015.125c.682.61 1.354 1.236 2.052 1.825.455.383.953.715 1.434 1.064.061.046.148.101.216.094.403-.044.804-.104 1.212-.16-.016-.046-.016-.07-.029-.083-.92-.931-1.841-1.86-2.763-2.788a.285.285 0 00-.185-.073c-.642-.003-1.283-.002-1.924-.002l.002-.002zm-.676.096l-2.179.118c.206.188.427.3.619.449.715.553 1.415 1.127 2.133 1.675.283.222.586.413.907.572.232.112.485.156.475.501l1.219-.146c-1.159-.982-2.16-2.02-3.18-3.167l.006-.002zm-9.816.59c.758.844 1.518 1.587 2.485 2.077.447.226.89.46 1.334.692.106.055.205.159.313.166.321.023.645.008.964.008.003-.037.008-.052.005-.055-1.157-.972-2.315-1.943-3.475-2.912a.35.35 0 00-.215-.09c-.459.031-.912.075-1.416.117l.005-.002zm2.257-.163c.079.075.117.12.163.153.914.665 1.834 1.322 2.74 1.997.36.268.692.577 1.04.866a.3.3 0 00.148.088c.369.007.738.003 1.163.003-.243-.209-.445-.353-.615-.532-.777-.825-1.545-1.66-2.32-2.488-.073-.077-.173-.188-.259-.188-.673.023-1.342.067-2.065.103l.005-.002zm15.482 2.18l.062-.118c-.94-.857-1.881-1.713-2.822-2.567a.23.23 0 00-.136-.063c-.526-.003-1.053 0-1.58 0-.013.033-.026.063-.038.098.061.048.128.091.184.145.532.486 1.052.988 1.6 1.458.434.376.897.718 1.353 1.065a.45.45 0 00.28.091c.364-.023.728-.07 1.092-.106l.005-.002zm.44-2.64c.038.048.078.094.12.138.814.689 1.648 1.358 2.436 2.078.56.512 1.245.47 1.98.616-.18-.2-.308-.346-.44-.485-.468-.492-.97-.954-1.403-1.478-.417-.505-.87-.832-1.55-.789-.362.025-.725-.044-1.147-.077l.005-.003zm5.95 3.009l.09-.037-.116-2.356c-.931.146-1.759-.267-2.66-.264l2.687 2.657zm-4.387-.46c-.807-.842-1.613-1.681-2.418-2.518a.253.253 0 00-.154-.082c-.401-.007-.803-.004-1.204-.004 0 .077.061.095.106.134.808.7 1.639 1.374 2.41 2.113.386.38.79.433 1.255.359l.005-.003zm-22.57.051l-.047 1.006 1.053-.072-1.005-.934z"/><path d="M13.48 25.28c.808.09 1.74.204 2.674.293 1.18.11 2.361.203 3.543.294.544.043.842.407.672.854-.118.31-.37.405-.666.387-.957-.06-1.915-.108-2.87-.203-1.157-.116-2.31-.27-3.465-.418-.292-.038-.58-.109-.87-.174-.253-.059-.396-.246-.38-.495.015-.25.157-.453.437-.48.265-.024.53-.036.925-.058zm12.795 1.65c.005.336-.215.61-.534.596-.887-.042-1.773-.107-2.659-.168-.078-.006-.184-.025-.226-.079-.092-.11-.22-.256-.208-.376.012-.12.15-.285.27-.329.233-.076.476-.119.721-.125.683-.04 1.368-.063 2.052-.087.36-.013.58.21.584.568z"/></g><defs><clipPath id="clip0"><path fill="#fff" transform="translate(8.294 14.461)" d="M0 0h31.412v20.538H0z"/></clipPath></defs></svg>