<svg width="234" height="120" fill="none" xmlns="http://www.w3.org/2000/svg"><path fill-rule="evenodd" clip-rule="evenodd" d="M51.966 25.164c3.973-4.086 10.159-7.636 17.924-10.497l7.674 15.423c.74 1.483 2.568 2.109 4.095 1.38 1.518-.73 2.145-2.533 1.405-4.025L75.748 12.74c12.534-3.718 28.193-5.849 45.064-5.849 16.869 0 32.528 2.134 45.061 5.85l-7.315 14.703c-.741 1.492-.113 3.294 1.405 4.025 1.524.729 3.349.106 4.095-1.38l7.671-15.423c7.762 2.858 13.945 6.405 17.915 10.488.795.822 1 2.073.529 3.183l-7.805 18.453c-14.523-7.45-37.152-11.845-61.556-11.845-24.412 0-47.04 4.395-61.567 11.848l-7.8-18.459c-.468-1.107-.263-2.358.521-3.17zm121.471 52.373a10.744 10.744 0 00-2.014-.78V59.88a26.97 26.97 0 017.82 2.046c2.293.971 4.374 2.256 6.265 3.742l-12.071 11.87zm-2.014 19.342c.71-.207 1.392-.484 2.041-.83l12.06 11.857a27.571 27.571 0 01-14.101 5.771V96.879zm-8.167-.83c.652.35 1.332.626 2.045.833v16.795a27.7 27.7 0 01-14.113-5.762l12.068-11.866zm-16.411-26.16l12.047 11.869a10.07 10.07 0 00-.848 2.013h-17.079c.59-5.217 2.696-9.986 5.88-13.883zm18.456 6.868c-.707.193-1.386.452-2.038.783l-12.084-11.903a27.655 27.655 0 0114.122-5.758v16.878zm7.71 10.022c0 2.495-2.057 4.574-4.649 4.574-2.504 0-4.683-2.022-4.683-4.574 0-2.725 2.314-4.573 4.683-4.573 2.384 0 4.649 1.874 4.649 4.573zm-32.062 3.009h17.104c.211.704.499 1.378.86 2.022l-12.059 11.854c-3.19-3.902-5.32-8.668-5.905-13.876zm48.897 13.858l-12.054-11.851c.352-.641.637-1.309.845-2.007h17.058c-.588 5.205-2.685 9.968-5.849 13.858zm5.806-19.875h-17.006a9.841 9.841 0 00-.845-2.016l12.02-11.818c3.193 3.935 5.246 8.698 5.831 13.834zM84.738 101.54a8.96 8.96 0 00.866-.358l8.677 8.53a21.215 21.215 0 01-9.543 3.902V101.54zm-6.979-.367c.282.135.564.256.857.361v12.08a21.2 21.2 0 01-9.55-3.896l8.693-8.545zM64.751 80.69l8.65 8.523a8.224 8.224 0 00-.352.846h-12.27a20.524 20.524 0 013.972-9.37zm13.865 3.956c-.287.096-.56.235-.838.361l-8.705-8.58c2.908-2.11 6.066-3.385 9.543-3.882v12.101zm6.954.337a8.59 8.59 0 00-.832-.31V72.56a21.223 21.223 0 019.528 3.878l-8.696 8.545zm-3.893 11.093c-1.57 0-3.06-1.296-3.06-3.008 0-1.827 1.551-2.98 3.06-2.98 1.677 0 3.03 1.292 3.03 2.98 0 1.745-1.447 3.008-3.03 3.008zm8.601-6.017a8.923 8.923 0 00-.352-.843l8.644-8.496c1.588 2.103 2.837 4.489 3.538 7.145.196.717.331 1.454.444 2.194H90.278zm-29.503 6.017h12.29c.103.295.22.575.354.852l-8.68 8.535a20.427 20.427 0 01-3.964-9.387zm37.828 9.375l-8.677-8.532c.132-.277.248-.554.352-.843h12.274a20.47 20.47 0 01-3.949 9.375zm36.17-21.38H107.32c-4.866-11.824-14.676-17.78-25.643-17.78-4.282 0-9.198 1.236-12.855 3.17l-7.22-17.095c13.605-7.167 35.443-11.403 59.21-11.403 23.761 0 45.597 4.233 59.196 11.4l-1.242 2.945c-2.881-.935-6.82-1.624-10.404-1.624-17.434 0-32.175 13.31-33.589 30.388zm9.699 25.987c.037.036.046.087.083.12.025.024.055.03.083.054a33.926 33.926 0 0023.724 9.643 33.813 33.813 0 0023.663-9.607c.043-.036.098-.051.138-.09.042-.039.055-.096.094-.141 6.015-5.982 9.743-14.199 9.743-23.258 0-8.902-3.63-17.21-9.761-23.287-.034-.033-.043-.078-.076-.111-.028-.027-.062-.033-.092-.057a33.423 33.423 0 00-7.692-5.618l2.323-5.485v-.006l9.121-21.563c1.405-3.306.723-7.088-1.744-9.646C179.653 6.164 146.771.875 120.812.875c-25.961 0-58.843 5.29-73.281 20.143-2.455 2.546-3.137 6.328-1.739 9.631L63.69 73c-3.254 2.805-6.054 6.623-7.677 11.079H53.17a65.394 65.394 0 00-20.122 3.165A41065.1 41065.1 0 002.103 97.247c-1.604.52-2.48 2.223-1.947 3.8.52 1.552 2.225 2.443 3.866 1.916 8.344-2.708 21.89-7.085 30.938-10.004a59.136 59.136 0 0118.209-2.864h1.417c-.113.984-.18 1.974-.18 2.972 0 14.782 12.233 26.808 27.271 26.808a27.365 27.365 0 0019.204-7.817c.021-.018.049-.024.07-.045.024-.021.031-.054.052-.078 4.891-4.847 7.918-11.514 7.918-18.868a25.17 25.17 0 00-.199-2.978h26.121c.787 7.747 4.322 14.718 9.629 19.969z" fill="#000" fill-opacity=".85"/></svg>