<svg width="48" height="48" fill="none" xmlns="http://www.w3.org/2000/svg"><path fill-rule="evenodd" clip-rule="evenodd" d="M32.293 17.52a1 1 0 000-1.414l-.399-.399a1 1 0 00-1.414 0l-5.773 5.773a1 1 0 01-1.414 0l-5.773-5.773a1 1 0 00-1.414 0l-.399.399a1 1 0 000 1.414l5.773 5.773a1 1 0 010 1.414l-5.773 5.773a1 1 0 000 1.414l.399.399a1 1 0 001.414 0l5.773-5.773a1 1 0 011.414 0l5.773 5.773a1 1 0 001.414 0l.399-.399a1 1 0 000-1.414l-5.773-5.773a1 1 0 010-1.414l5.773-5.773z" fill="#000" fill-opacity=".85"/></svg>