<svg width="56" height="42" fill="none" xmlns="http://www.w3.org/2000/svg"><path d="M54.91 26.165a509.694 509.694 0 00-.604-24.306c-.339-.017-.665-.036-.992-.05-1.18-.054-2.359-.11-3.538-.157a664.635 664.635 0 00-15.602-.455 732.442 732.442 0 00-10.27-.094c-1.27-.002-2.54 0-3.81 0h-2.938c.12.117.28.214.343.354.064.145.054.335.038.502-.094.968-.199 1.936-.303 2.904a.546.546 0 11-1.087-.123l.255-2.454c.005-.046 0-.092 0-.163-.258-.01-.514-.044-.766-.028-2.081.13-3.723 1.042-4.875 2.782-.515.777-.757 1.644-.68 2.58.06.738.295 1.397.954 1.827.376.245.805.346 1.243.392 1.446.149 2.889.136 4.324-.124 1.36-.246 2.58-.804 3.628-1.7.809-.691 1.583-1.422 2.371-2.137.814-.738 1.665-1.425 2.659-1.915a7.69 7.69 0 013.071-.784c1.803-.085 3.49.311 5.015 1.282 1.935 1.233 3.139 2.999 3.64 5.22.476 2.107.169 4.116-.97 5.963-1.16 1.878-2.866 2.973-5.046 3.324a5.94 5.94 0 01-2.562-.143c-1.398-.39-2.34-1.273-2.745-2.658-.51-1.739-.313-3.404.77-4.89.782-1.071 1.887-1.567 3.218-1.525 1.282.04 2.288.846 2.553 2.051.196.892-.039 1.66-.733 2.272-.488.431-1.344.178-1.48-.435a.522.522 0 01.213-.577c.19-.137.4-.135.605-.023.027.015.053.033.086.053.278-.303.322-.661.24-1.037-.154-.712-.722-1.173-1.485-1.206-1.088-.047-1.94.395-2.5 1.316-.713 1.174-.828 2.442-.418 3.743.33 1.05 1.079 1.675 2.149 1.904 1.672.358 3.197-.03 4.572-.998 1.375-.97 2.188-2.33 2.493-3.962.485-2.598-.28-4.83-2.16-6.67-1.023-1.003-2.289-1.565-3.697-1.81-1.304-.225-2.58-.13-3.82.344-.936.357-1.74.925-2.48 1.583-.789.7-1.552 1.427-2.336 2.131-1.19 1.069-2.526 1.873-4.103 2.243-.847.198-1.704.327-2.573.33a40.72 40.72 0 01-2.52-.069 3.755 3.755 0 01-1.767-.534c-.85-.521-1.294-1.314-1.45-2.27-.268-1.648.237-3.088 1.276-4.355.993-1.211 2.27-1.995 3.783-2.401.044-.012.088-.025.128-.024-.702 0-1.404-.003-2.107.001-.501.004-1.003.015-1.504.028-1.546.037-3.092.076-4.638.115-.924.023-1.849.045-2.773.073-.851.025-1.702.056-2.553.088-.204.008-.386-.032-.52-.196A.521.521 0 01.051.726a.525.525 0 01.492-.33C1.31.37 2.078.349 2.845.325 4.093.285 5.341.244 6.59.21 7.279.19 7.968.18 8.657.168 10.423.136 12.19.104 13.955.074c.731-.013 1.463-.026 2.194-.03C17.994.03 19.84.021 21.685.011c.841-.005 1.683-.014 2.524-.012 1.47.003 2.939.01 4.407.022 1.14.008 2.279.024 3.418.04a662.73 662.73 0 0112.034.283c1.436.047 2.872.098 4.307.156 1.68.068 3.36.143 5.04.218.486.021.971.045 1.456.076.296.02.494.236.508.534.075 1.71.153 3.422.224 5.133.047 1.145.089 2.29.125 3.434.046 1.483.087 2.966.126 4.45.025.958.047 1.916.062 2.874.025 1.49.055 2.979.062 4.469.015 3.147.021 6.294.022 9.44 0 1.115-.021 2.23-.04 3.344-.028 1.62-.06 3.24-.094 4.858a310.47 310.47 0 01-.052 2.093c-.01.332-.248.578-.557.576-.32-.002-.543-.245-.542-.596 0-.157 0-.313.004-.47.02-.78.045-1.56.061-2.342.028-1.333.053-2.666.072-3.998.01-.64.002-1.281-.02-1.961-.012.032-.019.069-.039.094-.944 1.201-2.189 1.906-3.678 2.198-1.12.22-2.222.155-3.27-.308-1.614-.712-2.567-1.974-2.913-3.683-.246-1.217-.037-2.36.68-3.393.231-.333.523-.596.907-.742.372-.142.736-.134 1.073.102.257.18.328.485.177.743a.54.54 0 01-.721.206c-.1-.049-.168-.021-.245.03-.231.152-.368.381-.49.617-.494.954-.485 1.935-.11 2.917.606 1.582 2.007 2.531 3.71 2.528 1.39-.003 2.6-.473 3.606-1.428.69-.655 1.077-1.477 1.195-2.417.254-2.002-.732-4.134-2.934-5.259-.99-.505-2.038-.828-3.12-1.046-1.283-.26-2.575-.477-3.86-.727-1.18-.229-2.34-.532-3.434-1.046-1.857-.872-3.06-2.302-3.651-4.253-.36-1.187-.55-2.4-.576-3.642-.034-1.65.216-3.25.89-4.762 1.28-2.873 3.467-4.7 6.543-5.376 2.642-.581 4.981.1 6.938 1.974 1.064 1.02 1.756 2.26 2.004 3.72a6.233 6.233 0 01-.492 3.691c-.954 2.095-2.532 3.487-4.779 4.077-1.077.283-2.156.27-3.19-.197-.967-.436-1.673-1.131-1.987-2.165-.38-1.247.298-2.511 1.518-2.855.485-.136.943-.071 1.355.23.272.197.334.53.152.783-.183.254-.512.305-.79.11a.475.475 0 00-.459-.056c-.59.203-.914.816-.734 1.432.24.822.826 1.323 1.607 1.604.854.31 1.726.255 2.568-.035 2.34-.804 3.735-2.45 4.159-4.87.24-1.376-.136-2.648-.939-3.783-1.035-1.464-2.444-2.375-4.22-2.673-1.338-.224-2.636-.025-3.877.51-2.654 1.143-4.24 3.17-4.905 5.947a9.997 9.997 0 00-.271 2.415c.011 1.462.226 2.892.777 4.258.578 1.43 1.624 2.396 3.021 3.012.97.428 1.992.683 3.028.883 1.373.265 2.751.502 4.12.787 1.23.257 2.417.654 3.505 1.302.861.513 1.59 1.163 2.142 2.004.017.026.038.05.057.073.002.002.01 0 .031 0z" fill="#000"/></svg>