<svg width="48" height="48" fill="none" xmlns="http://www.w3.org/2000/svg"><g clip-path="url(#clip0)" fill="#000"><path d="M28.038 14.666a3.623 3.623 0 01-.518-.034 10.154 10.154 0 00-1.492-.097c-.477 0-.973.022-1.454.045-.701.03-1.432.06-2.14.03-.814-.037-1.645-.105-2.499-.172a4.95 4.95 0 00-.81.022c-.315.032-.633.04-.95.026l-.54.12a.56.56 0 01-.609-.804c.373-.71 1.26-2.97 1.682-4.061a.553.553 0 01.474-.374 15.775 15.775 0 011.79 0c.46.03.92.03 1.38 0 .44-.049.883-.072 1.327-.071.518 0 1.085.026 1.779.075.634.048 1.193.067 1.79.09l.678.026a.558.558 0 01.5.355c.075.194.746 1.91.869 2.367.037.138.07.28.1.423.034.241.104.476.21.695.085.094.194.225.335.4a.561.561 0 01-.5.913 4.971 4.971 0 00-.816 0 7.869 7.869 0 01-.586.026zm-2.006-1.253c.554-.004 1.107.032 1.656.109.26.026.523.026.783 0a5.303 5.303 0 01-.172-.666c-.026-.12-.052-.243-.082-.374-.07-.258-.421-1.185-.7-1.91h-.31a54.505 54.505 0 01-1.828-.09 25.316 25.316 0 00-1.704-.075c-.4-.002-.8.018-1.197.06a11.15 11.15 0 01-1.551 0 17.15 17.15 0 00-1.305-.02c-.243.614-.746 1.927-1.175 2.906.187 0 .395-.018.597-.033.327-.034.656-.042.984-.023.843.068 1.663.131 2.461.169.668.03 1.361 0 2.04-.03.492 0 1.015-.023 1.503-.023z"/><path d="M11.682 34.426a.559.559 0 01-.559-.561c0-5.093.026-9.349.075-13.384 0-.96-.02-1.944-.045-2.898-.041-1.38-.082-2.805 0-4.207.067-1.271.414-2.992 2.61-3.298a17.15 17.15 0 012.984-.064c.726.038 1.454.038 2.181 0a.558.558 0 01.597.524.563.563 0 01-.522.598 22 22 0 01-2.297 0 15.85 15.85 0 00-2.801.056c-1.119.153-1.57.748-1.652 2.244-.075 1.357-.034 2.76 0 4.113.026.965.056 1.964.045 2.947-.049 4.031-.075 8.28-.075 13.369a.562.562 0 01-.54.561zm23.621-20.257a.555.555 0 01-.56-.542v-.262a3.913 3.913 0 00-.197-1.421c-.314-.715-1.018-.774-2.145-.786h-.443a8.836 8.836 0 01-1.168-.134c-.283-.045-.548-.09-.816-.112a6.723 6.723 0 00-.82 0c-.247 0-.5.026-.747 0a.557.557 0 01-.54-.58.561.561 0 01.578-.542c.212 0 .432 0 .667-.019.322-.02.645-.02.966 0 .313.026.615.075.906.123.34.061.682.101 1.026.12h.418c1.07 0 2.532.026 3.158 1.455.22.597.32 1.233.29 1.87v.25a.562.562 0 01-.543.576l-.03.004zm.059 1.185a.57.57 0 01-.395-.164l-.06-.064a.557.557 0 01.396-.955c.148 0 .29.058.395.162l.06.064a.56.56 0 01-.396.957zM11.623 36.109a.57.57 0 01-.4-.165l-.059-.063a.557.557 0 010-.793.562.562 0 01.79 0l.064.063a.565.565 0 010 .793.57.57 0 01-.395.165z"/><path d="M14.226 41.004c-.799 0-1.634-.135-2.238-.696-.716-.68-.746-1.705-.802-2.617a7.26 7.26 0 00-.067-.876.563.563 0 01.449-.683.557.557 0 01.651.493c.05.337.079.676.086 1.017.034.725.067 1.473.455 1.844.515.49 1.645.396 2.472.329l.444-.034c.373-.022.746-.06 1.09-.093a12.304 12.304 0 012.516-.075c2.014.144 4.035.144 6.049 0 .503-.026 1.007-.053 1.51-.071 1.686-.075 5.284.12 5.639.12 1.17-.038 1.435-.057 1.864-.416.373-.306.373-.67.373-1.342v-.557c0-.266.041-.52.067-.748a4.689 4.689 0 000-1.444 12.083 12.083 0 01-.127-2.67v-1.1a13.088 13.088 0 010-1.663c.086-.984.083-1.964.071-2.876 0-.344-.03-.684-.06-1.047-.033-.453-.07-.916-.063-1.388.018-.39.062-.778.13-1.163.096-.432.14-.873.131-1.316-.063-.823-.063-1.645-.067-2.438.015-.965-.025-1.93-.12-2.89a.566.566 0 01.712-.606.554.554 0 01.404.478c.098.994.14 1.993.127 2.992 0 .778 0 1.578.067 2.36a6.648 6.648 0 01-.12 1.559c-.06.333-.1.67-.115 1.01 0 .415.026.833.06 1.275.03.374.06.748.063 1.122 0 .942 0 1.952-.075 2.991a12.115 12.115 0 000 1.522c0 .374.026.774 0 1.17-.054.814-.017 1.63.108 2.435a5.624 5.624 0 010 1.773c-.022.228-.048.456-.06.699v.494c0 .691 0 1.555-.782 2.213-.783.658-1.354.636-2.57.673h-.044c-.041 0-3.864-.194-5.546-.127l-1.491.071c-2.067.15-4.142.15-6.21 0a11.486 11.486 0 00-2.3.072c-.373.037-.746.074-1.119.097l-.418.033a7.17 7.17 0 01-1.144.094zm7.402-30.511h-.1a.563.563 0 01-.46-.662c.168-.924.426-2.319 2.03-2.737a2.057 2.057 0 011.662.183c.768.478 1.052 1.466 1.197 2.169a.566.566 0 01-.414.673.555.555 0 01-.67-.449c-.165-.781-.374-1.253-.69-1.443a1.005 1.005 0 00-.791-.049c-.787.206-1.007.748-1.212 1.87a.569.569 0 01-.552.445z"/><path d="M23.105 37.204c-.373 0-.746-.018-1.082-.04a11.564 11.564 0 00-1.521 0c-.745.053-1.492.062-2.237.025a5.356 5.356 0 01-.746-.104 4.982 4.982 0 00-.578-.083 8.843 8.843 0 00-2.271.098.56.56 0 01-.652-.346.567.567 0 01-.035-.264c.026-.374 0-.995-.026-1.552-.018-.374-.037-.748-.033-1.006.004-.258 0-.62.026-.93a8.38 8.38 0 00-.078-2.133 6.544 6.544 0 01-.053-1.903c.023-.303.041-.59.041-.871 0-.28-.018-.662-.033-.995a16.51 16.51 0 01-.023-1.65c.045-.93.12-1.846.176-2.542a6.38 6.38 0 00-.026-.991 7.17 7.17 0 01-.038-1.066l.034-.516a11.625 11.625 0 00-.078-3.111c-.224-1.096 0-3.261.097-4.424.022-.224.044-.453.052-.55a.449.449 0 010-.1.566.566 0 01.578-.535c.524.03 1.05.03 1.573 0 .135 0 .414 0 1.015.026.354 0 .884.04 1.033.033a.566.566 0 01.63.374.562.562 0 01-.336.718c-.156.06-.298.06-1.38 0-.328 0-.775-.037-.872-.03-.373.03-.787.034-1.164.027v.146c-.1 1.024-.31 3.156-.115 4.087.188 1.128.22 2.277.097 3.414l-.034.509a6.95 6.95 0 00.038.912c.037.385.043.773.018 1.16a85.992 85.992 0 00-.175 2.509c-.022.504 0 1.01.022 1.548.019.348.034.692.038 1.04.003.347-.023.646-.045.957a5.876 5.876 0 00.03 1.585c.138.8.173 1.615.104 2.423 0 .296-.026.591-.026.883 0 .236 0 .583.03.95.03.366.033.68.037.994a11.541 11.541 0 011.883 0c.24.018.478.051.713.101.201.042.406.071.611.087.7.032 1.4.024 2.1-.027a13.022 13.022 0 011.666 0 8.3 8.3 0 002.007-.04 10.115 10.115 0 012.028-.08h1.231c1.007-.067 2.61-.093 3.267-.1.656-.008 1.066 0 1.406 0a14.08 14.08 0 01-.086-1.87c0-.213.04-.43.067-.647.068-.418.09-.842.063-1.264a24.268 24.268 0 01-.082-2.749c0-.747 0-1.537-.044-2.288-.032-.6-.032-1.202 0-1.803v-.848c0-.375-.03-.748-.06-1.16-.03-.411-.067-.819-.067-1.245v-4.723c0-.7.042-1.4.127-2.094.033-.307.022-1.433 0-2.338a5.124 5.124 0 00-.985 0h-.157c-.261.04-.528.032-.786-.026a9.829 9.829 0 00-1.223-.03h-.101a.559.559 0 01-.56-.56.562.562 0 01.56-.561h.1c.5-.025.999.001 1.492.078.144.027.292.027.436 0l.18-.019a6.96 6.96 0 011.707.083.562.562 0 01.474.542c0 .243.056 2.412 0 2.97a16.95 16.95 0 00-.146 1.955v4.67c0 .375.03.748.06 1.16.03.411.067.819.067 1.245v.879c-.03.562-.03 1.125 0 1.686.06.797.056 1.605.049 2.383-.024.873 0 1.747.074 2.617a6.64 6.64 0 01-.063 1.518c-.026.199-.048.4-.063.595 0 .775.047 1.55.141 2.319a.563.563 0 01-.652.643c-.43-.023-3.632 0-5.12.1-.444.03-.895 0-1.328 0a8.954 8.954 0 00-1.812.076 6.374 6.374 0 01-1.186.09zm-8.808-24.546z"/><path d="M22.124 17.474c-.41 0-.824 0-1.242-.033-.417-.034-.824-.03-1.238-.03h-1.677a2.062 2.062 0 01-1.243-.165.56.56 0 01-.179-.774.56.56 0 01.772-.18c.19.023.381.023.57 0 .124 0 .243-.018.34-.018h1.417c.43 0 .858 0 1.28.034.42.033.801.03 1.2.03a.559.559 0 01.56.56.562.562 0 01-.56.561v.015zm2.349 3.014a.558.558 0 01-.335-.112c-.183-.138-.701-.093-1.01-.067h-.124c-.43.03-.863.03-1.294 0-.585-.034-1.163-.034-1.73-.064-.306 0-.612-.03-.921-.03-.3.004-.599.025-.895.064-.41.057-.825.077-1.238.06a.56.56 0 01-.519-.602.565.565 0 01.6-.52 7.1 7.1 0 001.041-.056c.332-.034.675-.071 1.007-.071.332 0 .652 0 .977.03.57.03 1.148.03 1.741.063.38.026.76.026 1.138 0h.115c.53-.048 1.253-.112 1.78.285a.56.56 0 01.111.785.567.567 0 01-.444.235zm-7.283 2.719h-.328a.56.56 0 01-.518-.602.563.563 0 01.6-.52 7 7 0 001.074-.037l.287-.022c.328-.017.657-.017.985 0h1.715c.232-.012.46-.053.683-.12a4.6 4.6 0 01.57-.127 5.616 5.616 0 011.589.045c.294.043.59.07.887.078.174.002.347.015.519.037.146.023.295.033.443.03.194 0 .373-.033.578-.06.29-.041.584-.065.877-.07a.559.559 0 01.56.56.562.562 0 01-.56.561 5.63 5.63 0 00-.746.064 8.918 8.918 0 01-.664.064 3.667 3.667 0 01-.626-.034 1.777 1.777 0 00-.396-.03 8.187 8.187 0 01-1.021-.086 4.652 4.652 0 00-1.276-.052 4.256 4.256 0 00-.458.104c-.31.093-.63.145-.951.157h-1.75a8.54 8.54 0 00-.876 0l-.276.023c-.305.037-.619.037-.92.037zm12.806 11.271a.524.524 0 01-.26-.067 2.2 2.2 0 01-.795-.984c-.44.602-.869 1.122-1.436.999a1.68 1.68 0 01-.746-.531c-.052-.053-.093-.098-.127-.124a6.467 6.467 0 01-.42-.374c-.275.432-.662.78-1.12 1.006a.562.562 0 01-.667-.254 4.49 4.49 0 00-.608-.748 5.027 5.027 0 01-.82-1.077.563.563 0 01.668-.793.56.56 0 01.327.277c.176.304.393.582.645.827.131.145.265.291.396.448.223-.255.424-.529.6-.819a.565.565 0 01.679-.247.56.56 0 01.216.143c.248.268.515.518.798.748.056.044.127.115.209.198l.134.13a5.59 5.59 0 00.485-.624 4.6 4.6 0 01.544-.673.547.547 0 01.496-.13.57.57 0 01.396.324l.063.157c.133.42.344.81.623 1.148a.572.572 0 01.198.748.552.552 0 01-.478.292z"/></g><defs><clipPath id="clip0"><path fill="#fff" transform="translate(11 7)" d="M0 0h25v34H0z"/></clipPath></defs></svg>