<svg width="36" height="32" fill="none" xmlns="http://www.w3.org/2000/svg"><path d="M24.097 11c.265.14.542.263.793.42 2.134 1.336 4.34 2.54 6.793 3.29.414.126.836.233 1.258.333.325.078.576.233.644.548.079.365.006.708-.353.929-.716.44-1.42.9-2.163 1.294-1.928 1.019-3.876 2.003-5.813 3.007-.542.28-.98.234-1.253-.156-.283-.403-.167-.93.286-1.251 1.171-.832 2.47-1.456 3.788-2.05.452-.203.882-.447 1.392-.708-.137-.014-.2-.026-.263-.027-6.582-.103-13.164-.207-19.746-.308-2.216-.035-4.432-.06-6.648-.098-.564-.01-.886-.31-.903-.798-.02-.55.289-.863.87-.86.95.004 1.9.018 2.85.034 2.653.044 5.306.093 7.96.136 4.207.068 8.415.133 12.624.197.454.007.908 0 1.408 0-.06-.042-.09-.067-.124-.086-1.23-.704-2.448-1.43-3.697-2.104-.851-.46-.78-1.444.13-1.742h.167z" fill="#fff"/></svg>