<svg version="1.1" id="Layer_1" xmlns="http://www.w3.org/2000/svg" x="0" y="0" viewBox="0 0 141.7 141.7" xml:space="preserve"><g fill="none" stroke="#010101" stroke-width="3" stroke-linecap="round" stroke-linejoin="round" stroke-miterlimit="10"><path d="M34.4 102.5c16.1 9.1 36.4 10.4 53.4 3.2 1.6-.7 3.2-1.4 4.3-2.7 2-2.3 1.9-5.9.6-8.6-1.3-2.7-3.6-4.9-5.9-6.9-4.8-4.2-9.6-8.3-14.6-12.2 4.3 3.9 7 10.5 9.1 15.9 1.2 3.2 1.8 7.4-1 9.4-3.5-.8-6.3-3.5-8-6.7s-2.5-6.7-3.3-10.1c-.5-2.2-1-4.4-1.5-6.7"/><path d="M60.7 80c1.5 5.6 1.3 11.7-.3 17.2-.2.6-.4 1.1-.8 1.5-.6.5-1.5.5-2.3.3-4.3-1.2-6.8-6.1-6.6-10.6.2-4.5 2.4-8.6 4.5-12.6.5-.9 1.3-2 2.3-1.8.8.5.2 2-.7 1.7s-.7-1.7.2-1.7m-7.5.9c-.7 4.8-2.6 9.3-5.5 13.1-.9 1.2-2.2 2.5-3.7 2.5-.9 0-1.7-.4-2.4-1-1.9-1.7-2.3-4.7-1.5-7.2.9-2.4 2.7-4.4 4.7-6 2.2-1.7 4.5-3.2 7-4.4"/><path d="M34.1 104.1c-2.9-3.4-5.9-6.9-6.9-11.3-1.5-6.5 2-13.2 7.1-17.5 5.1-4.2 11.5-6.4 17.9-8.3-.8-4-2.4-7.9-4.7-11.3 3.3 2.6 7.1 4.6 11.2 5.2 4.1.6 8.6-.3 11.8-3-6-2.1-12.3-3.2-18.6-3.4l2.1.6m18.2 19.8c-2.9-1.8-4-6-2.4-9 .9-1.8 2.7-3.2 3.2-5.2.1-.6-.7-1.3-.8-.7"/><path d="M30.3 73.5c.3 1.1.8 2.2 1.4 3.1C21.6 78 11 75.4 2.9 69.3c-2-1.5-.7-6.3.8-8.3 5.6-7.4 12.8-13.5 21.1-17.6-1.5-2.8-3.1-5.6-4.6-8.4-.5-.9-1-1.9-.5-2.8.6-1.1 2.2-1 3.5-.7 4 1 8 1.9 12.1 2.9 2.4.6 4.6 1.3 6 3.4-2.5 2-3.7 5.6-5.2 8.5 4 7.2 8.9 13.8 14.7 19.7-.9.2-1.9-.1-2.4-.9"/><path d="M21.2 53c-.7-.5-1.7-.2-2.3.3-.6.5-1 1.3-1.4 2-1.3 2.2-3.3 4-4.1 6.4s.4 5.8 3 5.8c2.3 0 3.6-2.5 4.3-4.6 1.2-3.4 2.3-7.7-.3-10.2m12.4.8c1.8 2.8 3.6 5.7 5.3 8.5.7 1.1 1.4 2.8.3 3.7-1.2 1.1-3-.5-3.8-1.9-1.7-2.9-3.5-6.1-2.8-9.4.3-1.2.6-3-.7-3.4m-8.6-17.9c-.7-.1-1.4-.1-2.1-.2 4.6 3.2 9.4 6 14.4 8.4.4-.8 0-1.8-.7-2.3m40.7 35.3c-.1-.4-.6.4-.2.5s.7-.4.9-.8c3.9-8.8 10.8-16.2 19.2-20.9 1-.6 2.2-1.4 2-2.6-.1-.5-.6-.9-1-1.3-3.6-3-7.2-5.9-10.9-8.9.9.7 10.5-2 12.1-2.2 4.5-.5 9-.5 13.4-.2 11.4.8 5.1 7 .1 12.9-.5.6-1 1.3-1 2 0 1.1.9 1.8 1.8 2.5 8.4 6.3 16.8 12.5 25.2 18.8 1.6 1.2 3.4 2.7 3.5 4.7.1 1.8-1.1 3.5-2.7 4.4s-3.4 1.1-5.2 1.4c-6.2.8-12.3 1.6-18.5 2.3-7.7 1-16.1 1.9-22.9-1.8"/><path d="M93.8 61.7c-2.8 2.2-5.2 4.8-7.2 7.7-1 1.5-2 3.1-2.2 4.9-.2 1.8.5 3.8 2 4.7 5.4-4.8 8.2-12.4 7.4-19.6m6.4 3.4c-.7 4.4-.6 9 .4 13.4.3 1.4.8 2.8 2 3.6 1.2.7 2.8.5 3.8-.4 1.1-.8 1.7-2.1 2-3.5.6-3.1-.6-6.4-2.6-8.9s-4.6-4.4-7.2-6.3c-.4-.3-1-.7-1.5-.6m-6.6-17.3c2.4-.4 4.6.8 6.8 1.7 3.1 1.3 6.5 1.9 9.9 1.8 1.5 0 3.1-.3 4.2-1.3s1.3-3.1 0-3.9m1.1 25.6c-.2 2.8 1.1 5.8 3.5 7.4.5.3 1 .6 1.6.5 1-.1 1.6-1.1 1.7-2.1.3-1.9-.9-3.9-2.4-5.1-1.5-1.2-3.4-1.9-5.3-2.5.2-.5.4-1.1.6-1.6"/></g></svg>