<svg width="0" height="0" viewBox="0 0 359 211" fill="none" xmlns="http://www.w3.org/2000/svg"><defs><clipPath id="svgPath" clipPathUnits="objectBoundingBox"><path d="M17.478 210.208c-7.65-.472-13.062-8.027-13.809-15.298-.746-7.271 1.4-14.543 2.426-21.908 4.199-28.33-12.503-101.61-3.266-128.995.747-2.36 1.773-4.627 1.773-7.271.093-3.4-1.68-6.705-2.332-10.01C.217 15.866 10.107 5.667 21.21 2.362 32.314-.943 44.257.757 55.92 1.324c18.194 1.038 36.669-.756 54.863 1.605 10.264 1.322 111.126 3.966 121.483 4.627 9.61.756 19.501-.094 29.018-1.039C284.796 4.44 308.123 2.551 331.542.38c5.598-.472 11.477-.944 16.608 1.511 8.864 4.533 10.544 15.676 10.824 25.308.186 14.731-.653 29.369-1.586 43.911-.56 8.027-1.027 16.243-1.587 24.175-1.306 19.642.56 82.534-.839 102.176-.187 2.833-.56 5.855-2.426 8.121-1.866 1.889-4.759 2.739-7.558 3.305-39.934 7.271-171.121-6.61-211.802-5.855-16.421.189-32.656 2.833-49.078 4.533-22.487 2.361-45.16 2.927-67.926 1.7" fill="#FFE0AD"/></clipPath></defs></svg>