<svg width="37" height="34" fill="none" xmlns="http://www.w3.org/2000/svg"><path fill-rule="evenodd" clip-rule="evenodd" d="M2.105 17.092c.12-.155.244-.307.372-.458.431-.509.908-.976 1.425-1.395l1.005-.876 3.648-2.71a12.783 12.783 0 003.518-3.383 3.51 3.51 0 00.549-2.51 20.213 20.213 0 00-.88-2.262 1.618 1.618 0 01.479-2.09 5.472 5.472 0 013.24-.161c.318.076.646.1.97.073.533-.088 1.03-.112 1.508-.233l2.629-.819a3.445 3.445 0 012.344-.116c1.5.872-.08 3.503.188 5.094.087.519.09 1.038.217 1.503a7.317 7.317 0 002.286 3.81c1.625 1.313 3.804 2.003 5.643 3.122a11.247 11.247 0 014.963 6.747A10.05 10.05 0 0135.5 27.2a8.998 8.998 0 01-2.186 2.89 15.5 15.5 0 01-6.12 2.743l-3.226.584-3.46.423-.953.059-1.331.101H15.16l-1.62-.117a33.53 33.53 0 01-4.152-.803c-.574-.18-1.114-.333-1.634-.539a3.495 3.495 0 01-.515-.189c-5.11-2.56-9.094-10.12-5.126-15.252l-.008-.008zm6.583 2.292l1.795-3.485c.508-.864 1.106-1.635 1.665-2.434l.593-1.065a7.12 7.12 0 01.579-.788l-.014-.014a21.102 21.102 0 00-6.714 5.968c-.265.38-.503.779-.712 1.193-.914 1.557-1.27 4.194-.301 4.36.543.091 2.748-3.108 3.106-3.725l.003-.01zm9.607-7.953c.002.565-.041 1.129-.128 1.687v1.387l.044 2.48.028 1.855c.1.632-.045 1.324.058 2l.059 1.05c.091.79.226 1.574.402 2.35a6.09 6.09 0 001.056 2.174c.11.143.309.467.593.405.323-.065.448-.46.549-.759a8.33 8.33 0 00.217-3.503c-.281-1.686-.652-3.172-1.041-4.685l-.75-3.045a22.33 22.33 0 00-.81-2.655l-.276-.745v.004zm5.846.162c.167.247.345.486.535.714l.603 1.095.623.818 1.056 1.634a57.299 57.299 0 002.984 5.412 7.995 7.995 0 001.752 1.751c.15.108.555.52.81.336.19-.13.188-.801.128-1.123a13.65 13.65 0 00-.796-3.05 16.564 16.564 0 00-5.105-5.854 11.77 11.77 0 00-2.198-1.502l-.386-.233-.005.002zm-8.594.116l-.883 1.428-1.578 3.476a20.158 20.158 0 00-1.794 4.32 7.458 7.458 0 00.16 3.415c.075.253.16.691.402.759.222.06.402-.32.478-.437.377-.574.693-1.187 1.04-1.796.54-1.121.91-2.317 1.1-3.548l.232-1.532.565-3.114c.126-.734.208-1.475.245-2.218l.028-.76.005.007zm5.66.507a6.61 6.61 0 001.127 3.693l.695 1.474c.415.98.726 2.003.925 3.05.202.864.258 1.767.464 2.583a9.09 9.09 0 00.926 2.423c.136.235.257.615.603.539.344-.49.608-1.031.78-1.605a7.063 7.063 0 00-.159-4.101 16.823 16.823 0 00-2.513-4.36c-.347-.454-.772-.853-1.128-1.298l-1.306-1.676c-.096-.136-.302-.649-.42-.715l.005-.007z" fill="#000"/></svg>