<svg width="48" height="48" fill="none" xmlns="http://www.w3.org/2000/svg"><g clip-path="url(#clip0)" fill="#000"><path d="M15.105 40h-.659c-1.188-.11-2.894-1.306-3.345-1.708a5.872 5.872 0 01-1.65-2.218 5.633 5.633 0 01-.425-2.693c.254-3.079 2.972-6.137 5.55-7.8 1.338-.865 2.718-.905 3.6-.1.881.804.793 2.299.093 3.178a5.186 5.186 0 01-1.292 1.067c-.109.07-.223.14-.326.214A8.728 8.728 0 0014.74 32a4.359 4.359 0 00-.824 1.545 1.26 1.26 0 00.317 1.281c.379.294.822.505 1.296.617.474.111.969.121 1.447.029 2.308-.343 2.9-.75 4.632-2.483.067-.07.856-.929 1.323-1.45.617-.67 1.182-1.43 1.732-2.165.207-.283.415-.561.628-.834.041-.075.119-.234.197-.378l.114-.218.27-.497.404-.76c0-.089.068-.233.15-.496.084-.263.14-.462.192-.626.178-.505.2-1.047.068-1.564a4.084 4.084 0 01-1.13-.427 2.23 2.23 0 01-.97-1.296 2.14 2.14 0 01.186-1.584c.138-.222.322-.415.539-.569.217-.153.464-.264.727-.325 1.073-.268 2.11.373 2.665.725l.779.452a3.086 3.086 0 011.42 1.808c.333 1.891.317 3.565-.824 5.566l-.239.442-.456.82-.047.079c-.098.168-.352.596-.477.839a10.64 10.64 0 01-1.037 1.599l-.234.273a66.788 66.788 0 01-1.867 2.145l-.166.179-.223.233c-.2.225-.387.46-.56.705a5.704 5.704 0 01-1.556 1.609 2.55 2.55 0 01-1.198 1.093l-.218.104c-1.655.8-3.356 1.619-5.54 1.49h-.228c-.249.024-.596.04-.928.04zm1.504-13.61a2.408 2.408 0 00-1.167.422c-2.267 1.49-4.668 4.101-4.87 6.688-.062.694.05 1.393.327 2.037.277.644.71 1.216 1.265 1.668.457.407 1.81 1.246 2.402 1.286.425.034 1.037 0 1.415 0h.301c1.8.109 3.19-.562 4.808-1.341l.223-.11a1.04 1.04 0 00.34-.218.99.99 0 00.226-.328l.104-.258.248-.129c.514-.336.941-.78 1.25-1.296.215-.306.449-.6.7-.879l.224-.228.181-.189a82.567 82.567 0 001.79-2.056l.249-.293c.314-.416.594-.856.835-1.316.135-.258.41-.73.518-.908l.042-.065.44-.8.25-.451c.938-1.649.954-2.94.658-4.618-.046-.273-.57-.75-1.198-1.082h-.03l-.105-.06-.71-.378a1.61 1.61 0 00-.939-.223.496.496 0 00-.306.223.734.734 0 00.006.482.77.77 0 00.305.383c.237.108.486.19.742.243l-.13.72.369-.646c.065.03.128.064.186.105l.446.258-.052.124c.649.909.255 2.453.15 2.805-.056.18-.124.408-.191.626l-.156.497v.114l-.041.054-.441.83-.28.536-.099.189-.264.496-.042.06c-.218.283-.435.566-.648.854-.57.765-1.162 1.554-1.82 2.28a93.03 93.03 0 01-1.37 1.489c-1.945 1.986-2.852 2.547-5.524 2.944-1.592.234-3.2-.193-4.102-1.087a2.79 2.79 0 01-.708-1.21 2.704 2.704 0 01-.018-1.387c.2-.768.565-1.487 1.073-2.11a10.096 10.096 0 012.272-2.414c.124-.084.249-.168.379-.248.347-.198.658-.447.923-.74a.925.925 0 00.062-1.192.677.677 0 00-.498-.153z"/><path d="M23.793 30.059a4.735 4.735 0 01-1.92-.584 4.519 4.519 0 01-1.473-1.313l-.051-.045a4.754 4.754 0 01-.856-1.077 4.015 4.015 0 00-.42-.685c-.395-.497-.592-.89-.727-2.126-.326-3.039 1.738-6.55 3.942-8.441l.52-.497a60.16 60.16 0 001.923-1.708c.218-.203.457-.437.71-.685 1.557-1.49 3.632-3.545 6.121-3.595h.114a11.102 11.102 0 012.51-.268c1.287.104 2.138.903 2.755 1.49.13.123.26.248.389.357l.58.497-.14.144c.396.59.654 1.256.758 1.95.34.774.482 1.613.415 2.449a8.354 8.354 0 01-1.556 3.059l-.005.054a7.165 7.165 0 01-.519.8l-.114.149c-.451.586-1.209 1.574-2.329 1.698a2.01 2.01 0 01-.794-.072 1.948 1.948 0 01-.694-.375 1.956 1.956 0 01-.51-.616 1.877 1.877 0 01-.211-.76c-.057-.993.73-1.812 1.198-2.293l.072-.07c.063-.114.166-.308.203-.397.109-.253.202-.462.29-.656.33-.583.509-1.233.519-1.897a1.677 1.677 0 00-.104-.248 8.326 8.326 0 01-.363-.496 4.085 4.085 0 00-.57-.705 5.66 5.66 0 00-.711.074l-.405.055-1.405.566-.192.08c-.382.193-.74.426-1.069.694l-.31.214-.976.924-1.338 1.345c-.436.442-.892.82-1.333 1.192l-.306.253A11.484 11.484 0 0024 20.386c-.85 1.937-1.125 3.218-.316 5.055l.124.055c.726.332 2.075.948 2.075 2.408a1.92 1.92 0 01-.542 1.515 2.076 2.076 0 01-.696.474c-.264.11-.549.167-.837.166h-.015zm7.93-19.912l-.052.646c-1.883 0-3.74 1.817-5.093 3.148l-.742.71a84.383 84.383 0 01-1.95 1.733c-.156.144-.519.452-.56.496-1.862 1.604-3.698 4.668-3.429 7.186.104.993.208 1.107.43 1.405.222.289.41.6.561.928.169.253.365.488.586.7l.042.035c.033.033.064.068.093.104l.088.125c.244.324.553.597.91.805a3.2 3.2 0 001.165.401.8.8 0 00.16 0c.089 0 .364-.08.369-.66 0-.432-.384-.685-1.193-1.053l-.425-.204-.229-.119-.108-.223c-1.168-2.438-.836-4.166.191-6.49a12.338 12.338 0 011.743-2.379l.057-.044.332-.283c.42-.348.846-.705 1.235-1.098l1.364-1.36c.638-.611.995-.954 1.078-.993l.063-.05.321-.223a7.58 7.58 0 011.411-.83l.187-.074c.648-.268 1.354-.551 1.556-.63l.187-.04.435-.055c.654-.095 1.4-.204 1.971.273.316.298.593.631.825.993.12.164.223.318.332.447.18.27.311.567.389.879v.164a5.272 5.272 0 01-.612 2.532l-.28.63a6.49 6.49 0 01-.337.646l-.104.134-.14.144c-.301.308-.804.82-.783 1.202a.438.438 0 00.186.323.36.36 0 00.296.094c.446-.05.99-.76 1.25-1.102l.12-.154c.137-.197.263-.401.378-.61l.078-.145a7.542 7.542 0 001.343-2.562 4.506 4.506 0 00-.358-1.703l-.057-.184a3.196 3.196 0 00-.83-1.808l-.425-.496a2.851 2.851 0 00-1.68-.968 10.04 10.04 0 00-2.075.243l-.125.025-.145-.611z"/></g><defs><clipPath id="clip0"><path fill="#fff" transform="translate(9 9)" d="M0 0h30v31H0z"/></clipPath></defs></svg>