<svg width="24" height="24" viewBox="0 0 24 24" fill="none" xmlns="http://www.w3.org/2000/svg">
<path fill-rule="evenodd" clip-rule="evenodd" d="M19.596 11.9105C19.596 7.67256 16.1616 4.22472 11.9102 4.22472C7.67232 4.22472 4.22448 7.67256 4.22448 11.9105C4.22448 16.1614 7.67232 19.5967 11.9102 19.5967C16.1616 19.5967 19.596 16.1614 19.596 11.9105ZM18.7015 3.93504C18.017 3.93504 17.4646 4.48752 17.4646 5.17152C17.4646 5.85648 18.017 6.40896 18.7015 6.40896C19.386 6.40896 19.9385 5.85648 19.9385 5.17152C19.9385 4.48752 19.386 3.93504 18.7015 3.93504ZM6.08128 2.15856H17.7531C19.9163 2.15856 21.6761 3.91791 21.6761 6.08154V17.7529C21.6761 19.9161 19.9163 21.6758 17.7531 21.6758H6.08128C3.91764 21.6758 2.15784 19.9161 2.15784 17.7529V6.08154C2.15784 3.91791 3.91764 2.15856 6.08128 2.15856ZM18.2016 0.000244141H5.6328C2.54016 0.000244141 0 2.52648 0 5.63304V18.2014C0 21.294 2.54016 23.8342 5.6328 23.8342H18.2016C21.3072 23.8342 23.8339 21.294 23.8339 18.2014V5.63304C23.8339 2.52648 21.3072 0.000244141 18.2016 0.000244141ZM6.5796 11.9105C6.5796 8.9674 8.96839 6.56688 11.911 6.56688C14.8655 6.56688 17.2538 8.9674 17.2538 11.9105C17.2538 14.8649 14.8655 17.2541 11.911 17.2541C8.96839 17.2541 6.5796 14.8649 6.5796 11.9105Z" fill="black" fill-opacity="0.85"/>
</svg>
