<svg width="25" height="25" fill="none" xmlns="http://www.w3.org/2000/svg"><path d="M21.346 3.663A12.41 12.41 0 0012.508 0C5.612 0 .008 5.606 0 12.496c0 2.362.658 4.66 1.91 6.651l.295.47-1.259 4.61 4.732-1.244.453.272A12.509 12.509 0 0012.49 25h.009C19.388 25 25 19.394 25 12.496c0-3.334-1.292-6.47-3.654-8.833zm-2.403 13.558c-.271.765-1.62 1.506-2.222 1.564-.6.058-1.168.272-3.95-.823-3.34-1.317-5.455-4.75-5.62-4.972-.164-.223-1.341-1.787-1.341-3.408 0-1.622.847-2.412 1.152-2.741.304-.33.658-.412.88-.412.223 0 .436 0 .634.008.23.009.494.017.74.568.297.65.93 2.28 1.013 2.445.082.165.14.354.025.576-.107.223-.165.354-.33.552-.164.19-.345.428-.493.576-.165.165-.338.346-.149.675.19.33.856 1.408 1.827 2.28 1.26 1.12 2.32 1.466 2.65 1.63.33.165.518.14.716-.082.19-.222.823-.963 1.045-1.293.222-.329.436-.271.74-.164.305.107 1.918.905 2.247 1.07.33.165.552.247.634.387.074.132.074.79-.198 1.564z" fill="#fff"/></svg>