<?xml version="1.0" encoding="utf-8"?>
<!-- Generator: Adobe Illustrator 23.0.0, SVG Export Plug-In . SVG Version: 6.00 Build 0)  -->
<svg version="1.1" id="Layer_1" xmlns="http://www.w3.org/2000/svg" xmlns:xlink="http://www.w3.org/1999/xlink" x="0px" y="0px"
	 viewBox="0 0 66.7 11" style="enable-background:new 0 0 66.7 11;" xml:space="preserve">
<style type="text/css">
	.st0{fill:#231F20;}
	.st1{fill:#DEA92E;}
</style>
<g>
	<g>
		<path class="st0" d="M19.76,6.01h0.68c0.07,0,0.37,0.33,0.37,0.43v0.78c-0.11,0.26-0.46,0.54-0.98,0.54
			c-0.84,0-1.41-0.68-1.51-1.61c-0.05-0.46-0.05-0.96-0.01-1.41c0.12-1.25,0.74-1.68,1.46-1.66C20.7,3.1,21.5,4.37,21.5,4.63h0.3
			V2.8h-0.29c-0.07,0.1-0.22,0.15-0.34,0.15c-0.49,0-0.92-0.22-1.46-0.24c-1.59-0.06-2.65,1.13-2.66,2.71
			c-0.01,1.63,1.02,2.83,2.74,2.83c0.69,0,1.14-0.34,1.42-0.71l0.63,0.62h0.07V6.43c0-0.1,0.31-0.43,0.38-0.43h0.25V5.73h-2.77V6.01
			z"/>
		<path class="st0" d="M26.73,7.6c-0.1,0-0.26-0.17-0.26-0.26v-2.7h-1.56v0.26h0.24c0.1,0,0.37,0.31,0.37,0.41v1.65
			C25.29,7.26,24.83,7.6,24.6,7.6c-0.27,0-0.41-0.24-0.41-0.51V4.63h-1.44v0.26h0.13c0.09,0,0.36,0.31,0.36,0.41v1.9
			c0,0.49,0.39,1.04,0.93,1.04c0.43,0,1.03-0.42,1.4-0.85l0.02,0.15c0.04,0.38,0.34,0.7,0.75,0.69c0.35-0.01,0.79-0.54,0.91-0.68
			l-0.19-0.2C26.99,7.42,26.81,7.6,26.73,7.6z"/>
		<path class="st0" d="M28.89,7.49v-5c0,0-0.67,0.26-1.43,0.43v0.23h0.12c0.09,0,0.38,0.25,0.38,0.36v3.99c0,0.12-0.3,0.4-0.4,0.4
			H27.4v0.26h2.03V7.89h-0.16C29.18,7.89,28.89,7.6,28.89,7.49z"/>
		<path class="st0" d="M30.74,4.07c0.29,0,0.54-0.24,0.54-0.53c0-0.29-0.24-0.53-0.54-0.53c-0.3,0-0.54,0.24-0.54,0.53
			C30.2,3.82,30.44,4.07,30.74,4.07z"/>
		<path class="st0" d="M31.22,7.48V4.54c0,0-0.67,0.3-1.43,0.47v0.24h0.14c0.09,0,0.37,0.24,0.37,0.36v1.88
			c0,0.13-0.28,0.41-0.38,0.41h-0.15v0.26h1.98V7.89h-0.17C31.48,7.89,31.22,7.6,31.22,7.48z"/>
		<path class="st0" d="M35.47,7.62c-0.1,0-0.28-0.15-0.28-0.27V5.66c0-0.7-0.65-1.11-1.5-1.11c-0.69,0-1.52,0.38-1.52,1.24
			l0.15,0.16c0.37,0.06,0.65-0.14,0.62-0.46c-0.04-0.32,0.2-0.54,0.55-0.54c0.51,0,0.77,0.29,0.77,0.65v0.43l-0.85,0.18
			c-0.49,0.1-1.15,0.35-1.15,1.04c0,0.57,0.43,0.98,1.01,0.98c0.43,0,0.89-0.43,1.06-0.65h0.04c0.08,0.35,0.29,0.65,0.68,0.64
			c0.35-0.01,0.83-0.54,0.93-0.7L35.8,7.33C35.73,7.42,35.54,7.62,35.47,7.62z M34.27,7.12c-0.13,0.24-0.4,0.55-0.68,0.55
			c-0.3,0-0.56-0.23-0.56-0.53c0-0.34,0.23-0.53,0.57-0.62l0.66-0.18V7.12z"/>
		<path class="st0" d="M39.9,7.49V5.59c0-0.49-0.41-1.04-0.99-1.04c-0.51,0-1.05,0.57-1.36,0.9l-0.19-0.92c0,0-0.57,0.28-1.2,0.47
			v0.22h0.14c0.07,0,0.37,0.25,0.37,0.35v1.9c0,0.12-0.25,0.4-0.35,0.4H36.2v0.26h1.88V7.89h-0.17c-0.09,0-0.31-0.29-0.31-0.4V5.87
			c0-0.12,0.6-0.69,0.95-0.69c0.21,0,0.42,0.27,0.42,0.5v1.8c0,0.12-0.24,0.4-0.33,0.4h-0.17v0.26h1.87V7.89h-0.11
			C40.13,7.89,39.9,7.6,39.9,7.49z"/>
		<path class="st0" d="M41.61,4.07c0.29,0,0.54-0.24,0.54-0.53c0-0.29-0.24-0.53-0.54-0.53c-0.3,0-0.54,0.24-0.54,0.53
			C41.07,3.82,41.31,4.07,41.61,4.07z"/>
		<path class="st0" d="M42.08,7.48V4.54c0,0-0.67,0.3-1.43,0.47v0.24h0.14c0.09,0,0.37,0.24,0.37,0.36v1.88
			c0,0.13-0.28,0.41-0.38,0.41h-0.15v0.26h1.98V7.89h-0.17C42.35,7.89,42.08,7.6,42.08,7.48z"/>
		<path class="st0" d="M47.47,6.01h0.68c0.07,0,0.37,0.33,0.37,0.43v0.78c-0.11,0.26-0.46,0.54-0.98,0.54
			c-0.84,0-1.41-0.68-1.51-1.61c-0.05-0.46-0.05-0.96-0.01-1.41c0.12-1.25,0.74-1.68,1.46-1.66c0.92,0.02,1.72,1.29,1.72,1.55h0.3
			V2.8h-0.29C49.14,2.9,49,2.95,48.88,2.95c-0.49,0-0.92-0.22-1.46-0.24c-1.59-0.06-2.65,1.13-2.66,2.71
			c-0.01,1.63,1.02,2.83,2.74,2.83c0.69,0,1.14-0.34,1.42-0.71l0.63,0.62h0.06V6.43c0-0.1,0.31-0.43,0.38-0.43h0.25V5.73h-2.77V6.01
			z"/>
		<path class="st0" d="M53.05,4.55c-0.4,0-0.63,0.26-0.82,0.53l-0.4,0.6H51.8l-0.25-1.14c0,0-0.4,0.29-0.98,0.5v0.22h0.14
			c0.12,0,0.38,0.24,0.38,0.37v1.84c0,0.12-0.28,0.43-0.37,0.43h-0.14v0.26h2.23V7.89h-0.4c-0.1,0-0.38-0.31-0.38-0.43V5.96
			c0-0.1,0.4-0.74,0.51-0.74c0.04,0.19,0.2,0.38,0.41,0.42h0.21c0.28-0.07,0.44-0.29,0.44-0.55C53.61,4.79,53.38,4.55,53.05,4.55z"
			/>
		<path class="st0" d="M55.64,4.54c-0.91,0-1.85,0.74-1.85,1.86c0,1.16,0.94,1.84,1.86,1.84c0.96,0,1.84-0.72,1.84-1.85
			C57.49,5.27,56.61,4.54,55.64,4.54z M56.53,6.97c-0.07,0.54-0.4,0.86-0.86,0.86c-0.48,0-0.82-0.38-0.89-0.91
			c-0.04-0.33-0.04-0.82,0-1.14c0.07-0.54,0.39-0.87,0.85-0.87c0.48,0,0.82,0.38,0.9,0.92C56.57,6.16,56.57,6.65,56.53,6.97z"/>
		<path class="st0" d="M61.87,7.6c-0.1,0-0.27-0.17-0.27-0.26v-2.7h-1.56v0.26h0.24c0.1,0,0.37,0.31,0.37,0.41v1.65
			c-0.23,0.31-0.69,0.65-0.91,0.65c-0.27,0-0.41-0.24-0.41-0.51V4.63h-1.44v0.26h0.13c0.09,0,0.36,0.31,0.36,0.41v1.9
			c0,0.49,0.39,1.04,0.93,1.04c0.43,0,1.03-0.42,1.41-0.85l0.01,0.15c0.04,0.38,0.34,0.7,0.75,0.69c0.35-0.01,0.79-0.54,0.91-0.68
			l-0.19-0.2C62.13,7.42,61.95,7.6,61.87,7.6z"/>
		<path class="st0" d="M64.98,4.55c-0.54,0.01-0.93,0.31-1.1,0.53l-0.09-0.45h-1.24v0.29h0.15c0.1,0,0.37,0.28,0.37,0.42V9
			c0,0.14-0.27,0.4-0.36,0.4h-0.12v0.26h2.13V9.4h-0.33c-0.09,0-0.35-0.27-0.35-0.4V7.89c0.19,0.18,0.52,0.34,0.86,0.35
			c0.9,0.01,1.81-0.66,1.81-1.83C66.7,5.19,65.88,4.54,64.98,4.55z M65.68,6.83c-0.05,0.55-0.41,0.97-0.85,0.97
			c-0.49,0-0.77-0.37-0.8-0.9C64,6.6,64,6.23,64.02,5.93c0.04-0.53,0.4-0.97,0.85-0.97c0.49,0,0.76,0.36,0.81,0.9
			C65.7,6.15,65.7,6.53,65.68,6.83z"/>
	</g>
	<g>
		<path class="st1" d="M2.62,6.92c-0.05-0.06-0.12-0.1-0.2-0.14C2.37,6.68,2.31,6.61,2.2,6.59C2.13,6.5,2.05,6.42,1.96,6.34
			c-0.46-0.41-0.8-0.95-1.14-1.48c-0.06-0.2-0.1-0.4-0.13-0.6C0.72,4.24,0.73,4.2,0.73,4.15C0.65,2.94,1.38,1.75,2.45,1.19
			c0.24-0.13,0.51-0.12,0.77-0.2C3.54,0.88,3.8,0.8,4.16,0.87c0.31,0.06,0.61,0.16,0.9,0.29c0.1,0.05,0.19,0.11,0.29,0.17
			c0.01,0.01,0.02,0.03,0.03,0.04c0.11,0.1,0.2,0.22,0.33,0.29c0.02,0.01,0.05,0.02,0.07,0.03C5.9,1.82,6.05,1.84,6.18,1.79
			C6.4,1.81,6.61,1.67,6.5,1.42c0-0.01-0.01-0.01-0.01-0.02c0-0.1-0.04-0.2-0.14-0.3C6.24,0.99,6.07,0.95,5.94,0.89
			C5.73,0.8,5.6,0.65,5.41,0.54C5.38,0.52,5.36,0.51,5.33,0.5c0,0,0,0-0.01-0.01C4.48-0.08,3.04,0.11,2.16,0.54
			C1.72,0.75,1.29,1.12,0.94,1.46C0.78,1.62,0.6,1.83,0.47,2.02C0.38,2.15,0.37,2.3,0.34,2.46C0.13,3-0.05,3.56,0.01,4.15
			c0.06,0.59,0.34,1.12,0.62,1.63C0.89,6.25,1.24,6.63,1.6,7.03C1.79,7.24,2,7.57,2.28,7.66c0.05,0.06,0.1,0.12,0.17,0.16
			c0.02,0.01,0.04,0.02,0.07,0.02c0.17,0.09,0.37-0.05,0.41-0.22C2.94,7.51,2.9,7.4,2.85,7.3C2.77,7.18,2.72,7.02,2.62,6.92z"/>
		<path class="st1" d="M2.84,5.58c-0.03-0.08-0.09-0.16-0.17-0.2c-0.04-0.05-0.08-0.1-0.13-0.15C2.19,4.86,1.9,4.53,1.87,3.98
			C1.82,2.89,2.96,1.94,3.99,2.09C4.38,2.15,4.52,2.2,4.84,2.43C4.94,2.49,5.02,2.57,5.13,2.6c0.17,0.05,0.38,0.05,0.52-0.09
			c0.44-0.42-0.37-0.77-0.63-0.92C4.5,1.29,3.64,1.2,3.07,1.4C2.55,1.58,2,1.82,1.72,2.32C1.52,2.67,1.27,3.04,1.2,3.44
			C1.14,3.77,1.22,4.19,1.27,4.5c0.06,0.36,0.22,0.57,0.43,0.88C1.85,5.61,1.98,5.85,2.2,6C2.2,6,2.2,6,2.21,6.01
			c0.17,0.22,0.38,0.52,0.71,0.37C3.23,6.23,3,5.8,2.86,5.6C2.85,5.59,2.84,5.58,2.84,5.58z"/>
		<path class="st1" d="M3.36,4.58C3.36,4.5,3.31,4.46,3.25,4.43C3.23,4.39,3.2,4.35,3.16,4.31C3.07,4.05,2.98,3.77,3.13,3.54
			c0.22-0.35,0.74-0.45,1.09-0.26c0.22,0.11,0.49,0.33,0.66-0.01c0.13-0.25-0.07-0.51-0.27-0.65c-0.15-0.1-0.28-0.15-0.46-0.14
			c-0.22,0-0.49-0.02-0.71,0c-0.8,0.09-1.3,1.04-1.09,1.76c0.08,0.28,0.28,0.8,0.6,0.87C3.28,5.18,3.38,4.83,3.36,4.58z"/>
		<path class="st1" d="M10.78,4.9c0.21,0.21,0.48,0.05,0.63-0.14c0.51-0.68,0.27-1.61-0.43-2.05c-0.28-0.17-0.82-0.38-1.15-0.34
			C9.4,2.43,9.05,2.91,8.77,3.2C7.94,4.03,7.06,4.84,6.29,5.74C5.73,6.39,4.99,7.2,5.77,7.96c0.3,0.3,0.75,0.65,1.19,0.67
			c0.44,0.02,0.82-0.36,1.14-0.6C8.35,7.84,9.08,7.4,9.03,7.01c-0.01-0.1-0.08-0.14-0.14-0.2C8.67,6.57,8.32,6.38,8.03,6.19
			C8.02,6.16,8,6.14,7.98,6.11C7.79,5.98,7.59,6.02,7.51,6.24c-0.12,0.3,0.22,0.48,0.37,0.69C7.88,6.95,7.89,6.96,7.9,6.97
			c0.03,0.06,0.05,0.12,0.04,0.18C7.9,7.43,7.3,7.8,7.09,7.85C6.31,8.03,6.05,7.17,6.45,6.62c0.33-0.47,0.79-0.91,1.19-1.32
			C8,4.91,8.42,4.59,8.79,4.21C8.99,4,9.2,3.81,9.42,3.62c0.24-0.2,0.35-0.29,0.66-0.32c0.41-0.04,0.73,0.05,0.79,0.51
			C10.92,4.11,10.49,4.61,10.78,4.9z"/>
		<path class="st1" d="M12.05,5.76c0.23-0.16,0.33-0.56,0.43-0.79c0.16-0.36,0.33-0.68,0.29-1.09c-0.07-0.75-0.31-1.44-0.9-1.93
			c-0.56-0.47-1.16-0.78-1.9-0.68c-0.9,0.12-1.56,0.72-2.2,1.31C7.4,2.92,7.11,3.31,6.78,3.69C6.44,4.08,5.99,4.38,5.61,4.73
			C4.98,5.32,4.5,5.97,4.42,6.85C4.35,7.59,4.59,8.28,5.03,8.86C5.01,8.92,5.02,9,5.09,9.05c0.66,0.5,1.26,0.77,2.1,0.68
			c0.75-0.09,1.21-0.31,1.7-0.88c0.32-0.37,0.66-0.7,1.05-0.98c0.2-0.14,0.53-0.3,0.6-0.57c0.05-0.21-0.08-0.35-0.21-0.5
			C9.98,6.38,9.6,5.98,9.23,5.58C9.02,5.35,8.46,4.86,8.27,5.41C8.21,5.59,8.29,5.78,8.41,5.92c0.34,0.4,0.81,0.57,0.94,1.12
			c0.09,0.38-0.06,0.49-0.33,0.77C8.9,7.93,8.77,8.04,8.65,8.16C8.22,8.54,7.76,8.95,7.15,8.97C6.07,9.01,5.11,8.24,5.09,7.14
			C5.07,6.53,5.4,6.23,5.75,5.79c0.22-0.27,0.37-0.58,0.61-0.83c0.69-0.7,1.41-1.39,2.11-2.08C8.8,2.57,9.14,2.2,9.59,2.06
			c0.52-0.16,1.24,0.05,1.7,0.31c0.5,0.29,0.73,0.84,0.72,1.4c-0.01,0.59-0.31,1-0.48,1.54C11.42,5.64,11.7,6,12.05,5.76z"/>
		<path class="st1" d="M13.91,3.55c-0.11-2.04-2.23-3.78-4.26-3.53c-1,0.12-1.87,0.69-2.54,1.42C6.32,2.3,5.48,3.09,4.69,3.94
			C3.32,5.43,2.69,7.47,3.82,9.31c1.1,1.78,3.79,2.27,5.4,0.89c0.5-0.43,0.97-0.9,1.44-1.37c0.44-0.45,1-0.9,1.36-1.42
			c0.58-0.84-0.85-1.46-1.34-1.87C10.5,5.39,9.33,3.63,9.03,4.61C8.94,4.89,9.17,5.1,9.35,5.27c0.55,0.49,1.07,0.93,1.5,1.54
			c0.48,0.7-0.36,0.98-0.75,1.39C9.63,8.68,9.29,9.18,8.7,9.56c-0.62,0.4-1.19,0.59-1.93,0.59c-0.44,0-0.96-0.14-1.42-0.36
			c-0.19-0.11-0.37-0.25-0.53-0.4C4.59,9.16,4.4,8.92,4.25,8.66C4.03,8.17,3.9,7.57,3.91,7.14C3.92,6.78,4.11,6.47,4.2,6.13
			c0.13-0.45,0.18-0.75,0.52-1.12C5.69,3.96,6.76,2.9,7.85,1.97c0.61-0.52,1.36-1.2,2.21-1.07c0.57,0.09,1.42,0.23,1.98,0.53
			c0.09,0.07,0.17,0.14,0.25,0.21c0.19,0.18,0.34,0.37,0.48,0.57c0.26,0.52,0.38,1.17,0.4,1.66c0.03,0.84-0.26,1.62-0.86,2.21
			c-0.08,0.08-0.05,0.17,0.01,0.23c0.04,0.25,0.34,0.43,0.63,0.19c0.3-0.26,0.51-0.82,0.65-1.19C13.82,4.76,13.94,4.16,13.91,3.55z
			 M11.38,7.1C11.39,7.1,11.39,7.11,11.38,7.1l-0.01,0.01c0-0.01,0-0.01,0-0.02L11.38,7.1z"/>
	</g>
</g>
</svg>
