<svg version="1.1" id="Layer_1" xmlns="http://www.w3.org/2000/svg" x="0" y="0" viewBox="0 0 66.7 11" xml:space="preserve"><style>.st1{fill:#dea92e}</style><path d="M19.76 6.01h.68c.07 0 .37.33.37.43v.78c-.11.26-.46.54-.98.54-.84 0-1.41-.68-1.51-1.61-.05-.46-.05-.96-.01-1.41.12-1.25.74-1.68 1.46-1.66.93.02 1.73 1.29 1.73 1.55h.3V2.8h-.29c-.07.1-.22.15-.34.15-.49 0-.92-.22-1.46-.24-1.59-.06-2.65 1.13-2.66 2.71-.01 1.63 1.02 2.83 2.74 2.83.69 0 1.14-.34 1.42-.71l.63.62h.07V6.43c0-.1.31-.43.38-.43h.25v-.27h-2.77v.28zm6.97 1.59c-.1 0-.26-.17-.26-.26v-2.7h-1.56v.26h.24c.1 0 .37.31.37.41v1.65c-.23.3-.69.64-.92.64-.27 0-.41-.24-.41-.51V4.63h-1.44v.26h.13c.09 0 .36.31.36.41v1.9c0 .49.39 1.04.93 1.04.43 0 1.03-.42 1.4-.85l.02.15c.04.38.34.7.75.69.35-.01.79-.54.91-.68l-.19-.2c-.07.07-.25.25-.33.25zm2.16-.11v-5s-.67.26-1.43.43v.23h.12c.09 0 .38.25.38.36V7.5c0 .12-.3.4-.4.4h-.16v.26h2.03v-.27h-.16c-.09 0-.38-.29-.38-.4zm1.85-3.42c.29 0 .54-.24.54-.53 0-.29-.24-.53-.54-.53-.3 0-.54.24-.54.53 0 .28.24.53.54.53zm.48 3.41V4.54s-.67.3-1.43.47v.24h.14c.09 0 .37.24.37.36v1.88c0 .13-.28.41-.38.41h-.15v.26h1.98v-.27h-.17c-.1 0-.36-.29-.36-.41zm4.25.14c-.1 0-.28-.15-.28-.27V5.66c0-.7-.65-1.11-1.5-1.11-.69 0-1.52.38-1.52 1.24l.15.16c.37.06.65-.14.62-.46-.04-.32.2-.54.55-.54.51 0 .77.29.77.65v.43l-.85.18c-.49.1-1.15.35-1.15 1.04 0 .57.43.98 1.01.98.43 0 .89-.43 1.06-.65h.04c.08.35.29.65.68.64.35-.01.83-.54.93-.7l-.18-.19c-.07.09-.26.29-.33.29zm-1.2-.5c-.13.24-.4.55-.68.55-.3 0-.56-.23-.56-.53 0-.34.23-.53.57-.62l.66-.18v.78zm5.63.37v-1.9c0-.49-.41-1.04-.99-1.04-.51 0-1.05.57-1.36.9l-.19-.92s-.57.28-1.2.47v.22h.14c.07 0 .37.25.37.35v1.9c0 .12-.25.4-.35.4h-.12v.26h1.88v-.24h-.17c-.09 0-.31-.29-.31-.4V5.87c0-.12.6-.69.95-.69.21 0 .42.27.42.5v1.8c0 .12-.24.4-.33.4h-.17v.26h1.87v-.25h-.11c-.1 0-.33-.29-.33-.4zm1.71-3.42c.29 0 .54-.24.54-.53 0-.29-.24-.53-.54-.53-.3 0-.54.24-.54.53 0 .28.24.53.54.53zm.47 3.41V4.54s-.67.3-1.43.47v.24h.14c.09 0 .37.24.37.36v1.88c0 .13-.28.41-.38.41h-.15v.26h1.98v-.27h-.17c-.09 0-.36-.29-.36-.41zm5.39-1.47h.68c.07 0 .37.33.37.43v.78c-.11.26-.46.54-.98.54-.84 0-1.41-.68-1.51-1.61-.05-.46-.05-.96-.01-1.41.12-1.25.74-1.68 1.46-1.66.92.02 1.72 1.29 1.72 1.55h.3V2.8h-.29c-.07.1-.21.15-.33.15-.49 0-.92-.22-1.46-.24-1.59-.06-2.65 1.13-2.66 2.71-.01 1.63 1.02 2.83 2.74 2.83.69 0 1.14-.34 1.42-.71l.63.62h.06V6.43c0-.1.31-.43.38-.43h.25v-.27h-2.77v.28zm5.58-1.46c-.4 0-.63.26-.82.53l-.4.6h-.03l-.25-1.14s-.4.29-.98.5v.22h.14c.12 0 .38.24.38.37v1.84c0 .12-.28.43-.37.43h-.14v.26h2.23v-.27h-.4c-.1 0-.38-.31-.38-.43v-1.5c0-.1.4-.74.51-.74.04.19.2.38.41.42h.21c.28-.07.44-.29.44-.55.01-.3-.22-.54-.55-.54zm2.59-.01c-.91 0-1.85.74-1.85 1.86 0 1.16.94 1.84 1.86 1.84.96 0 1.84-.72 1.84-1.85 0-1.12-.88-1.85-1.85-1.85zm.89 2.43c-.07.54-.4.86-.86.86-.48 0-.82-.38-.89-.91a5.43 5.43 0 0 1 0-1.14c.07-.54.39-.87.85-.87.48 0 .82.38.9.92.04.33.04.82 0 1.14zm5.34.63c-.1 0-.27-.17-.27-.26v-2.7h-1.56v.26h.24c.1 0 .37.31.37.41v1.65c-.23.31-.69.65-.91.65-.27 0-.41-.24-.41-.51V4.63h-1.44v.26h.13c.09 0 .36.31.36.41v1.9c0 .49.39 1.04.93 1.04.43 0 1.03-.42 1.41-.85l.01.15c.04.38.34.7.75.69.35-.01.79-.54.91-.68l-.19-.2c-.07.07-.25.25-.33.25zm3.11-3.05c-.54.01-.93.31-1.1.53l-.09-.45h-1.24v.29h.15c.1 0 .37.28.37.42V9c0 .14-.27.4-.36.4h-.12v.26h2.13V9.4h-.33c-.09 0-.35-.27-.35-.4V7.89c.19.18.52.34.86.35.9.01 1.81-.66 1.81-1.83-.01-1.22-.83-1.87-1.73-1.86zm.7 2.28c-.05.55-.41.97-.85.97-.49 0-.77-.37-.8-.9-.03-.3-.03-.67-.01-.97.04-.53.4-.97.85-.97.49 0 .76.36.81.9.02.29.02.67 0 .97z" fill="#231f20"/><path class="st1" d="M2.62 6.92a.597.597 0 0 0-.2-.14c-.05-.1-.11-.17-.22-.19-.07-.09-.15-.17-.24-.25-.46-.41-.8-.95-1.14-1.48-.06-.2-.1-.4-.13-.6.03-.02.04-.06.04-.11-.08-1.21.65-2.4 1.72-2.96.24-.13.51-.12.77-.2.32-.11.58-.19.94-.12.31.06.61.16.9.29.1.05.19.11.29.17.01.01.02.03.03.04.11.1.2.22.33.29.02.01.05.02.07.03.12.13.27.15.4.1.22.02.43-.12.32-.37 0-.01-.01-.01-.01-.02 0-.1-.04-.2-.14-.3-.11-.11-.28-.15-.41-.21C5.73.8 5.6.65 5.41.54A.3.3 0 0 0 5.33.5L5.32.49C4.48-.08 3.04.11 2.16.54c-.44.21-.87.58-1.22.92-.16.16-.34.37-.47.56-.09.13-.1.28-.13.44C.13 3-.05 3.56.01 4.15c.06.59.34 1.12.62 1.63.26.47.61.85.97 1.25.19.21.4.54.68.63.05.06.1.12.17.16.02.01.04.02.07.02.17.09.37-.05.41-.22a.61.61 0 0 0-.08-.32c-.08-.12-.13-.28-.23-.38z"/><path class="st1" d="M2.84 5.58a.37.37 0 0 0-.17-.2c-.04-.05-.08-.1-.13-.15-.35-.37-.64-.7-.67-1.25-.05-1.09 1.09-2.04 2.12-1.89.39.06.53.11.85.34.1.06.18.14.29.17.17.05.38.05.52-.09.44-.42-.37-.77-.63-.92-.52-.3-1.38-.39-1.95-.19-.52.18-1.07.42-1.35.92-.2.35-.45.72-.52 1.12-.06.33.02.75.07 1.06.06.36.22.57.43.88.15.23.28.47.5.62l.01.01c.17.22.38.52.71.37.31-.15.08-.58-.06-.78l-.02-.02z"/><path class="st1" d="M3.36 4.58c0-.08-.05-.12-.11-.15a.47.47 0 0 0-.09-.12c-.09-.26-.18-.54-.03-.77.22-.35.74-.45 1.09-.26.22.11.49.33.66-.01.13-.25-.07-.51-.27-.65a.698.698 0 0 0-.46-.14c-.22 0-.49-.02-.71 0-.8.09-1.3 1.04-1.09 1.76.08.28.28.8.6.87.33.07.43-.28.41-.53zm7.42.32c.21.21.48.05.63-.14.51-.68.27-1.61-.43-2.05-.28-.17-.82-.38-1.15-.34-.43.06-.78.54-1.06.83-.83.83-1.71 1.64-2.48 2.54-.56.65-1.3 1.46-.52 2.22.3.3.75.65 1.19.67.44.02.82-.36 1.14-.6.25-.19.98-.63.93-1.02-.01-.1-.08-.14-.14-.2-.22-.24-.57-.43-.86-.62-.01-.03-.03-.05-.05-.08-.19-.13-.39-.09-.47.13-.12.3.22.48.37.69 0 .02.01.03.02.04.03.06.05.12.04.18-.04.28-.64.65-.85.7-.78.18-1.04-.68-.64-1.23.33-.47.79-.91 1.19-1.32.36-.39.78-.71 1.15-1.09.2-.21.41-.4.63-.59.24-.2.35-.29.66-.32.41-.04.73.05.79.51.05.3-.38.8-.09 1.09z"/><path class="st1" d="M12.05 5.76c.23-.16.33-.56.43-.79.16-.36.33-.68.29-1.09-.07-.75-.31-1.44-.9-1.93-.56-.47-1.16-.78-1.9-.68-.9.12-1.56.72-2.2 1.31-.37.34-.66.73-.99 1.11-.34.39-.79.69-1.17 1.04-.63.59-1.11 1.24-1.19 2.12-.07.74.17 1.43.61 2.01-.02.06-.01.14.06.19.66.5 1.26.77 2.1.68.75-.09 1.21-.31 1.7-.88.32-.37.66-.7 1.05-.98.2-.14.53-.3.6-.57.05-.21-.08-.35-.21-.5-.35-.42-.73-.82-1.1-1.22-.21-.23-.77-.72-.96-.17-.06.18.02.37.14.51.34.4.81.57.94 1.12.09.38-.06.49-.33.77-.12.12-.25.23-.37.35-.43.38-.89.79-1.5.81-1.08.04-2.04-.73-2.06-1.83-.02-.61.31-.91.66-1.35.22-.27.37-.58.61-.83.69-.7 1.41-1.39 2.11-2.08.33-.31.67-.68 1.12-.82.52-.16 1.24.05 1.7.31.5.29.73.84.72 1.4-.01.59-.31 1-.48 1.54-.11.33.17.69.52.45z"/><path class="st1" d="M13.91 3.55C13.8 1.51 11.68-.23 9.65.02c-1 .12-1.87.69-2.54 1.42-.79.86-1.63 1.65-2.42 2.5-1.37 1.49-2 3.53-.87 5.37 1.1 1.78 3.79 2.27 5.4.89.5-.43.97-.9 1.44-1.37.44-.45 1-.9 1.36-1.42.58-.84-.85-1.46-1.34-1.87-.18-.15-1.35-1.91-1.65-.93-.09.28.14.49.32.66.55.49 1.07.93 1.5 1.54.48.7-.36.98-.75 1.39-.47.48-.81.98-1.4 1.36-.62.4-1.19.59-1.93.59-.44 0-.96-.14-1.42-.36-.19-.11-.37-.25-.53-.4-.23-.23-.42-.47-.57-.73-.22-.49-.35-1.09-.34-1.52.01-.36.2-.67.29-1.01.13-.45.18-.75.52-1.12a37.43 37.43 0 0 1 3.13-3.04C8.46 1.45 9.21.77 10.06.9c.57.09 1.42.23 1.98.53.09.07.17.14.25.21.19.18.34.37.48.57.26.52.38 1.17.4 1.66.03.84-.26 1.62-.86 2.21-.08.08-.05.17.01.23.04.25.34.43.63.19.3-.26.51-.82.65-1.19.22-.55.34-1.15.31-1.76zM11.38 7.1c.01 0 .01.01 0 0l-.01.01v-.02l.01.01z"/></svg>