<svg width="213" height="35" viewBox="0 0 213 35" fill="none" xmlns="http://www.w3.org/2000/svg">
<g clip-path="url(#clip0)">
<path fill-rule="evenodd" clip-rule="evenodd" d="M62.6252 19.1967H64.8122C65.0214 19.1967 65.9851 20.241 65.9851 20.5644V23.0238C65.6331 23.8358 64.5068 24.7187 62.8619 24.7187C60.1824 24.7187 58.3726 22.5843 58.045 19.637C57.8793 18.1985 57.8793 16.5978 58.0198 15.1826C58.4192 11.2379 60.3694 9.89366 62.697 9.93885C65.633 10.0082 68.1942 13.9997 68.1942 14.8343H69.1587V9.05827H68.2195C67.9827 9.38167 67.5147 9.52194 67.1366 9.52194C65.5644 9.52194 64.2005 8.82526 62.4626 8.75668C57.3868 8.56966 54.0008 12.3289 53.9794 17.3171C53.9543 22.4681 57.2463 26.25 62.7435 26.25C64.9527 26.25 66.3852 25.1824 67.2771 23.9994L69.2771 25.9476H69.4862V20.5176C69.4862 20.1942 70.4752 19.1733 70.6844 19.1733H71.4862V18.2912H62.6252V19.1967Z" fill="black"/>
<path fill-rule="evenodd" clip-rule="evenodd" d="M85.0894 24.178C84.7793 24.178 84.2325 23.6303 84.2325 23.3216V14.5834H79.1893V15.4159H79.9735C80.2828 15.4159 81.1645 16.4171 81.1645 16.7505V22.0837C80.4251 23.0825 78.9495 24.178 78.2127 24.178C77.3318 24.178 76.8793 23.4159 76.8793 22.5355V14.5834H72.2158V15.4159H72.6451C72.9512 15.4159 73.8114 16.4171 73.8114 16.7505V22.8929C73.8114 24.4875 75.072 26.25 76.8322 26.25C78.2127 26.25 80.1629 24.8922 81.3763 23.5103L81.4267 23.9885C81.5434 25.2256 82.5202 26.25 83.8536 26.2268C84.9727 26.2021 86.4228 24.4635 86.8049 24.0117L86.1862 23.368C85.9232 23.6071 85.3516 24.178 85.0894 24.178Z" fill="black"/>
<path fill-rule="evenodd" clip-rule="evenodd" d="M92.3372 24.0979V8.02087C92.3372 8.02087 90.1741 8.87142 87.7019 9.3908V10.1238H88.1061C88.3905 10.1238 89.341 10.9283 89.341 11.2825V24.0979C89.341 24.4767 88.3681 25.3995 88.0334 25.3995H87.5342V26.25H94.0993V25.3995H93.5753C93.2909 25.3995 92.3372 24.4767 92.3372 24.0979Z" fill="black"/>
<path fill-rule="evenodd" clip-rule="evenodd" d="M98.1112 13.1251C99.1094 13.1251 99.9348 12.2899 99.9348 11.3026C99.9348 10.3144 99.1094 9.47925 98.1112 9.47925C97.087 9.47925 96.2876 10.3144 96.2876 11.3026C96.2876 12.2899 97.087 13.1251 98.1112 13.1251Z" fill="black"/>
<path fill-rule="evenodd" clip-rule="evenodd" d="M99.1234 24.0685V14.5834C99.1234 14.5834 97.1503 15.5559 94.8952 16.1006V16.8597H95.3068C95.5662 16.8597 96.3925 17.6426 96.3925 18.0209V24.0685C96.3925 24.4946 95.5662 25.397 95.2835 25.397H94.8289V26.25H100.664V25.397H100.166C99.9067 25.397 99.1234 24.4715 99.1234 24.0685Z" fill="black"/>
<path fill-rule="evenodd" clip-rule="evenodd" d="M108.932 22.7102C108.504 23.4783 107.641 24.4567 106.734 24.4567C105.753 24.4567 104.919 23.7356 104.919 22.7798C104.919 21.7099 105.658 21.1038 106.781 20.8011L108.932 20.2192V22.7102ZM112.851 24.2932C112.518 24.2932 111.944 23.8044 111.944 23.4321V18.0997C111.944 15.8879 109.818 14.5834 107.07 14.5834C104.824 14.5834 102.123 15.7722 102.123 18.5197L102.624 19.0312C103.817 19.2181 104.75 18.5885 104.63 17.5867C104.512 16.5871 105.277 15.8652 106.422 15.8652C108.073 15.8652 108.911 16.7725 108.911 17.9363V19.2877L106.138 19.8454C104.56 20.1723 102.409 20.9395 102.409 23.1521C102.409 24.9455 103.817 26.25 105.706 26.25C107.118 26.25 108.599 24.8993 109.148 24.1775H109.269C109.529 25.2716 110.224 26.2274 111.491 26.2039C112.635 26.1804 114.191 24.5036 114.524 23.9921L113.904 23.386C113.689 23.666 113.067 24.2932 112.851 24.2932Z" fill="black"/>
<path fill-rule="evenodd" clip-rule="evenodd" d="M126.999 24.0916V17.9978C126.999 16.4089 125.704 14.6304 123.899 14.6304C122.281 14.6304 120.592 16.4567 119.622 17.547L119.021 14.5834C119.021 14.5834 117.24 15.485 115.253 16.1006V16.8119H115.692C115.923 16.8119 116.847 17.6179 116.847 17.95V24.0916C116.847 24.4946 116.061 25.397 115.76 25.397H115.367V26.25H121.287V25.397H120.755C120.479 25.397 119.785 24.4715 119.785 24.0916V18.8994C119.785 18.4972 121.679 16.6709 122.766 16.6709C123.414 16.6709 124.086 17.547 124.086 18.2822V24.0916C124.086 24.4715 123.322 25.397 123.045 25.397H122.511V26.25H128.384V25.397H128.036C127.736 25.397 126.999 24.4476 126.999 24.0916Z" fill="black"/>
<path fill-rule="evenodd" clip-rule="evenodd" d="M132.395 13.1251C133.393 13.1251 134.219 12.2899 134.219 11.3026C134.219 10.3144 133.393 9.47925 132.395 9.47925C131.37 9.47925 130.572 10.3144 130.572 11.3026C130.572 12.2899 131.37 13.1251 132.395 13.1251Z" fill="black"/>
<path fill-rule="evenodd" clip-rule="evenodd" d="M134.137 24.0685V14.5834C134.137 14.5834 132.164 15.5559 129.909 16.1006V16.8597H130.321C130.58 16.8597 131.407 17.6426 131.407 18.0209V24.0685C131.407 24.4946 130.58 25.397 130.298 25.397H129.843V26.25H135.678V25.397H135.18C134.92 25.397 134.137 24.4715 134.137 24.0685Z" fill="black"/>
<path fill-rule="evenodd" clip-rule="evenodd" d="M151.618 19.1967H153.804C154.015 19.1967 154.976 20.241 154.976 20.5644V23.0238C154.627 23.8358 153.497 24.7187 151.854 24.7187C149.174 24.7187 147.365 22.5843 147.037 19.637C146.872 18.1985 146.872 16.5978 147.013 15.1826C147.412 11.2379 149.362 9.89366 151.689 9.93885C154.627 10.0082 157.185 13.9997 157.185 14.8343H158.151V9.05827H157.21C156.972 9.38167 156.504 9.52194 156.13 9.52194C154.558 9.52194 153.191 8.82526 151.455 8.75668C146.379 8.56966 142.994 12.3289 142.973 17.3171C142.947 22.4681 146.239 26.25 151.736 26.25C153.946 26.25 155.376 25.1824 156.267 23.9994L158.27 25.9476H158.476V20.5176C158.476 20.1942 159.468 19.1733 159.681 19.1733H160.479V18.2912H151.618V19.1967Z" fill="black"/>
<path fill-rule="evenodd" clip-rule="evenodd" d="M168.946 14.6312C167.687 14.6312 166.982 15.4618 166.385 16.3395L165.145 18.2596H165.053L164.275 14.5834C164.275 14.5834 163.04 15.5327 161.209 16.1961V16.9065H161.641C162.007 16.9065 162.834 17.6894 162.834 18.0948V24.0209C162.834 24.4008 161.964 25.3971 161.69 25.3971H161.252V26.25H168.192V25.3971H166.957C166.659 25.3971 165.789 24.4008 165.789 24.0209V19.1604C165.789 18.8529 167.049 16.7894 167.389 16.7894C167.529 17.4059 168.009 17.9984 168.673 18.141H169.336C170.206 17.9036 170.692 17.1924 170.692 16.3626C170.692 15.4132 169.98 14.6312 168.946 14.6312Z" fill="black"/>
<path fill-rule="evenodd" clip-rule="evenodd" d="M180.055 22.2381C179.827 23.955 178.804 24.9506 177.343 24.9506C175.834 24.9506 174.767 23.7688 174.533 22.0745C174.391 21.0321 174.391 19.5014 174.533 18.4808C174.767 16.7639 175.766 15.7426 177.226 15.7426C178.754 15.7426 179.827 16.95 180.055 18.6429C180.197 19.6868 180.197 21.2168 180.055 22.2381ZM177.269 14.5834C174.391 14.5834 171.421 16.9275 171.421 20.4518C171.421 24.1163 174.373 26.25 177.294 26.25C180.314 26.25 183.092 23.9776 183.092 20.405C183.092 16.8792 180.332 14.5834 177.269 14.5834Z" fill="black"/>
<path fill-rule="evenodd" clip-rule="evenodd" d="M196.698 24.178C196.388 24.178 195.838 23.6303 195.838 23.3216V14.5834H190.794V15.4159H191.578C191.886 15.4159 192.772 16.4171 192.772 16.7505V22.0837C192.033 23.0825 190.553 24.178 189.82 24.178C188.936 24.178 188.486 23.4159 188.486 22.5355V14.5834H183.822V15.4159H184.251C184.555 15.4159 185.415 16.4171 185.415 16.7505V22.8929C185.415 24.4875 186.679 26.25 188.436 26.25C189.82 26.25 191.767 24.8922 192.987 23.5103L193.031 23.9885C193.151 25.2256 194.124 26.25 195.459 26.2268C196.578 26.2021 198.031 24.4635 198.411 24.0117L197.791 23.368C197.532 23.6071 196.957 24.178 196.698 24.178Z" fill="black"/>
<mask id="mask0" mask-type="alpha" maskUnits="userSpaceOnUse" x="199" y="14" width="14" height="17">
<path d="M199.87 14.5834H213V30.625H199.87V14.5834Z" fill="black"/>
</mask>
<g mask="url(#mask0)">
<path fill-rule="evenodd" clip-rule="evenodd" d="M209.767 21.7291C209.606 23.4561 208.471 24.7713 207.077 24.7713C205.54 24.7713 204.658 23.6187 204.541 21.9358C204.473 21.0146 204.473 19.8395 204.541 18.8936C204.658 17.2347 205.793 15.8521 207.213 15.8521C208.748 15.8521 209.606 16.9808 209.767 18.6629C209.859 19.5848 209.859 20.7831 209.767 21.7291ZM207.564 14.5841C205.867 14.6066 204.633 15.5525 204.078 16.2438L203.8 14.8381H199.87V15.76H200.357C200.66 15.76 201.524 16.6355 201.524 17.0729V28.5272C201.524 28.9654 200.684 29.796 200.383 29.796H199.987V30.625H206.7V29.796H205.657C205.379 29.796 204.566 28.9654 204.566 28.5272V25.0477C205.17 25.6228 206.212 26.1082 207.28 26.1314C210.118 26.1771 213 24.056 213 20.3914C213 16.5891 210.421 14.5377 207.564 14.5841Z" fill="black"/>
</g>
<path fill-rule="evenodd" clip-rule="evenodd" d="M8.50188 21.7251C8.33379 21.5383 8.09845 21.395 7.85275 21.2684C7.68865 20.9866 7.47493 20.7562 7.13553 20.6882C6.8978 20.4032 6.63524 20.1301 6.33827 19.8712C4.8342 18.5603 3.75918 16.8149 2.65694 15.1446C2.45762 14.5169 2.32074 13.8741 2.2447 13.2266C2.31994 13.1419 2.36557 13.0271 2.35677 12.8759C2.11182 8.97731 4.47399 5.16657 7.9344 3.3752C8.71881 2.96911 9.58651 2.99127 10.4142 2.73242C11.4788 2.39837 12.3137 2.11973 13.4712 2.339C14.4637 2.5274 15.4603 2.84008 16.4009 3.26833C16.717 3.44248 17.0292 3.62455 17.3366 3.80978C17.3622 3.85411 17.3926 3.89686 17.4359 3.93723C17.7857 4.26574 18.0906 4.63304 18.5213 4.86419C18.5957 4.90377 18.6742 4.9378 18.7526 4.97184C19.112 5.38426 19.5971 5.4563 20.027 5.31698C20.7426 5.36606 21.4214 4.92593 21.0484 4.12167C21.0379 4.09951 21.0251 4.08209 21.0131 4.06309C21.0123 3.74883 20.8811 3.41319 20.5561 3.09656C20.2031 2.75221 19.6836 2.62002 19.2441 2.42608C18.5821 2.13477 18.1395 1.64477 17.5319 1.29251C17.4487 1.24344 17.3662 1.20623 17.2846 1.17377C17.2758 1.16744 17.2694 1.16032 17.2606 1.15399C14.5022 -0.683306 9.84346 -0.0888185 7.01146 1.28222C5.58103 1.97408 4.16661 3.15593 3.04516 4.24753C2.51606 4.76207 1.93012 5.43888 1.51708 6.031C1.22251 6.4545 1.18809 6.94924 1.10004 7.43845C0.431648 9.17996 -0.163897 10.9887 0.0410215 12.8735C0.244339 14.7512 1.13926 16.4595 2.05019 18.0878C2.89308 19.5958 4.03374 20.8124 5.1824 22.0877C5.78515 22.7582 6.48556 23.8118 7.38608 24.1213C7.54057 24.3232 7.71587 24.5068 7.92639 24.635C7.99283 24.6754 8.06803 24.6936 8.14488 24.7007C8.6964 24.9936 9.35678 24.5321 9.46724 23.9828C9.54089 23.617 9.41041 23.2656 9.2215 22.9561C8.98536 22.5674 8.80526 22.0616 8.50188 21.7251Z" fill="#DEA92E"/>
<path fill-rule="evenodd" clip-rule="evenodd" d="M8.91087 17.784C8.82547 17.5234 8.62726 17.2976 8.37969 17.1723C8.25434 17.0107 8.11332 16.8607 7.96603 16.7075C6.84334 15.546 5.92827 14.4936 5.8515 12.7815C5.69873 9.37123 9.30024 6.40949 12.5672 6.87811C13.7894 7.05365 14.2555 7.22378 15.2701 7.92207C15.5639 8.12467 15.8342 8.36208 16.1859 8.46957C16.7375 8.63892 17.3909 8.61417 17.8335 8.19427C19.2163 6.88121 16.6607 5.78235 15.8381 5.31218C14.1983 4.37339 11.4547 4.0865 9.65984 4.69663C8.00521 5.25805 6.26359 6.01202 5.36655 7.5795C4.74292 8.66908 3.954 9.853 3.71818 11.105C3.52624 12.1203 3.76754 13.4303 3.92423 14.4085C4.10677 15.5445 4.61522 16.1979 5.28272 17.1615C5.78882 17.893 6.18838 18.6423 6.87938 19.0939C6.88878 19.1079 6.89739 19.1218 6.90758 19.1349C7.45991 19.8162 8.12742 20.7651 9.14747 20.2872C10.1581 19.8131 9.43891 18.483 8.97589 17.8489C8.95787 17.8234 8.9328 17.8056 8.91087 17.784Z" fill="#DEA92E"/>
<path fill-rule="evenodd" clip-rule="evenodd" d="M10.5127 14.4127C10.493 14.1758 10.3415 14.0255 10.1604 13.9627C10.0914 13.8237 10.005 13.6944 9.89894 13.5763C9.62538 12.7914 9.35258 11.9535 9.81103 11.2448C10.4923 10.1909 12.0722 9.89411 13.1573 10.4435C13.8416 10.7904 14.657 11.4564 15.1912 10.4263C15.589 9.66015 14.982 8.89247 14.3713 8.46789C13.9174 8.1517 13.5127 8.02761 12.9558 8.03957C12.2745 8.05378 11.4652 7.98052 10.7833 8.05452C8.32051 8.32362 6.80721 11.2082 7.43767 13.3819C7.68394 14.2281 8.30687 15.818 9.28514 16.0169C10.2733 16.2187 10.5726 15.1468 10.5127 14.4127Z" fill="#DEA92E"/>
<path fill-rule="evenodd" clip-rule="evenodd" d="M34.3637 15.5328C35.0305 16.2182 35.8872 15.7027 36.34 15.0761C37.9453 12.8524 37.2006 9.82164 34.9994 8.40815C34.1233 7.84598 32.413 7.17829 31.3758 7.30796C29.9962 7.48032 28.9085 9.05892 28.0222 9.98755C25.414 12.7219 22.6409 15.358 20.2179 18.2704C18.4431 20.4055 16.1197 23.0529 18.5637 25.5311C19.5207 26.5008 20.9198 27.6525 22.3055 27.7065C23.6882 27.7613 24.8904 26.5483 25.9066 25.7437C26.6886 25.1236 28.9964 23.6899 28.8314 22.4375C28.7894 22.1194 28.5918 21.9929 28.3902 21.7698C27.6993 21.0031 26.6092 20.362 25.7105 19.7443C25.6747 19.654 25.6156 19.5711 25.5237 19.5026C24.9511 19.079 24.3208 19.2103 24.0563 19.915C23.6882 20.8976 24.7456 21.4783 25.2133 22.1677C25.2351 22.2168 25.2607 22.2628 25.2958 22.303C25.3954 22.4867 25.4475 22.6783 25.4156 22.8902C25.2779 23.7793 23.3988 24.9947 22.7249 25.155C20.2747 25.7389 19.4678 22.9329 20.7058 21.1352C21.7547 19.6106 23.1918 18.1721 24.4422 16.8158C25.5891 15.5714 26.9305 14.5276 28.0977 13.2833C28.7264 12.6124 29.3885 11.9737 30.0842 11.3769C30.8296 10.7366 31.1844 10.4257 32.1726 10.3363C33.4712 10.2179 34.4695 10.5062 34.6749 12.0107C34.8064 12.9756 33.4463 14.5905 34.3637 15.5328Z" fill="#DEA92E"/>
<path fill-rule="evenodd" clip-rule="evenodd" d="M38.5223 18.6963C39.268 18.1979 39.5718 16.9232 39.9068 16.1791C40.4276 15.0198 40.9571 14.023 40.8303 12.7263C40.5982 10.3535 39.8199 8.15028 37.9313 6.59224C36.1377 5.11191 34.1918 4.11037 31.808 4.43689C28.917 4.8317 26.7788 6.71547 24.7093 8.58983C23.5106 9.67457 22.5743 10.9084 21.5144 12.1117C20.4146 13.3605 18.9759 14.3087 17.7414 15.4248C15.6949 17.2756 14.1605 19.3478 13.8973 22.1475C13.6764 24.4866 14.4388 26.7055 15.8632 28.5241C15.8026 28.7329 15.8456 28.977 16.0658 29.1395C18.1919 30.7132 20.1435 31.597 22.8503 31.2956C25.2835 31.024 26.7477 30.3129 28.3364 28.4927C29.354 27.3279 30.4562 26.273 31.7282 25.3758C32.3758 24.919 33.4485 24.4371 33.6542 23.5808C33.8177 22.901 33.3807 22.4568 32.974 21.978C31.8503 20.6523 30.6253 19.3815 29.4386 18.11C28.7639 17.3879 26.9527 15.818 26.3282 17.5621C26.1193 18.1453 26.3976 18.7395 26.7717 19.1798C27.8539 20.4584 29.3899 21 29.7895 22.7527C30.0646 23.9575 29.6084 24.3052 28.7344 25.1922C28.3555 25.5768 27.9504 25.9371 27.5476 26.2958C26.1719 27.5226 24.671 28.8043 22.7242 28.8805C19.2271 29.0155 16.1288 26.5579 16.049 23.0769C16.0044 21.1358 17.0682 20.1703 18.1975 18.7944C18.9081 17.9287 19.381 16.9514 20.1818 16.1508C22.4156 13.9154 24.7204 11.7444 26.9926 9.54742C28.0389 8.53646 29.1499 7.36538 30.595 6.93446C32.265 6.43526 34.5985 7.08045 36.0827 7.92344C37.6825 8.83237 38.4378 10.5992 38.4218 12.3652C38.4059 14.2404 37.4337 15.552 36.869 17.2489C36.5142 18.3148 37.3874 19.4529 38.5223 18.6963Z" fill="#DEA92E"/>
<path fill-rule="evenodd" clip-rule="evenodd" d="M44.479 11.3086C44.1174 4.81799 37.3208 -0.710937 30.7986 0.0746416C27.601 0.459174 24.7919 2.26624 22.6498 4.57972C20.1295 7.30212 17.418 9.82871 14.8905 12.5393C10.481 17.2709 8.45075 23.7765 12.0973 29.6286C15.6288 35.2983 24.2645 36.8686 29.4337 32.4532C31.0413 31.0802 32.5584 29.5956 34.0526 28.1023C35.469 26.686 37.2621 25.2367 38.4033 23.5917C40.2504 20.9251 35.6704 18.945 34.0962 17.6239C33.5307 17.149 29.7645 11.5524 28.8009 14.6829C28.5328 15.5542 29.2585 16.2407 29.8541 16.77C31.6091 18.3293 33.3031 19.722 34.6624 21.669C36.2192 23.9007 33.5204 24.7869 32.2555 26.0813C30.7383 27.6336 29.6407 29.2173 27.7604 30.4126C25.7745 31.6739 23.9449 32.3046 21.5649 32.2802C20.1628 32.2653 18.4704 31.8477 17.0095 31.1313C16.4036 30.7727 15.8271 30.3473 15.2941 29.848C14.5598 29.1599 13.9562 28.3877 13.4796 27.5628C12.773 26.0058 12.3519 24.106 12.3915 22.733C12.424 21.5919 13.0053 20.5972 13.3059 19.5214C13.7072 18.0832 13.873 17.1325 14.969 15.9545C18.0976 12.5912 21.5158 9.23029 25.0298 6.26255C26.9966 4.60174 29.4115 2.44317 32.1389 2.85759C33.9804 3.13753 36.6975 3.59677 38.4961 4.55849C38.7729 4.76688 39.0418 4.99099 39.3003 5.23319C39.8959 5.79151 40.4043 6.40488 40.8301 7.05677C41.6716 8.71129 42.0657 10.7912 42.1125 12.3459C42.1926 15.0077 41.2647 17.5005 39.359 19.3838C39.1131 19.6276 39.1829 19.9382 39.3756 20.1254C39.5009 20.9125 40.4693 21.5031 41.3964 20.723C42.3758 19.8997 43.0269 18.106 43.4869 16.9469C44.1959 15.1595 44.5861 13.2337 44.479 11.3086Z" fill="#DEA92E"/>
</g>
<defs>
<clipPath id="clip0">
<rect width="213" height="35" fill="white"/>
</clipPath>
</defs>
</svg>
