<svg width="190" height="38" viewBox="0 0 190 38" fill="none" xmlns="http://www.w3.org/2000/svg">
<path d="M71.9197 30.7315C70.4805 30.5609 69.6884 30.1388 68.232 28.7649C67.2806 27.8842 65.6413 26.2042 63.8939 24.1299L63.8896 24.1252C61.9609 21.8888 60.1242 19.6052 58.285 17.1558L66.5631 9.01485C67.6596 7.92155 68.9626 7.24187 70.2322 7.10158C70.5066 7.07107 70.7145 6.83951 70.7145 6.56419V5.62743C70.7145 5.3291 70.4717 5.08704 70.1722 5.08704H62.5001C62.2007 5.08704 61.9581 5.3291 61.9581 5.62743V6.56419C61.9581 6.86277 62.2007 7.10483 62.5001 7.10483C62.8197 7.10483 63.5631 7.14709 63.5631 7.5397C63.5631 7.90055 63.3868 8.50621 62.5496 9.34093L55.7478 16.0445C55.4002 16.3558 55.213 16.4829 54.7889 16.4829H53.8045V12.4963C53.8045 9.34594 53.8456 8.65825 54.3161 7.85378C54.7026 7.20211 55.3911 7.10483 55.7676 7.10483C56.0671 7.10483 56.3096 6.86277 56.3096 6.56419V5.62743C56.3096 5.3291 56.0671 5.08704 55.7676 5.08704H47.2342C46.9347 5.08704 46.6922 5.3291 46.6922 5.62743V6.56419C46.6922 6.86277 46.9347 7.10483 47.2342 7.10483C48.3225 7.10483 48.9146 7.69974 49.0443 8.92882C49.1459 9.80631 49.1973 11.0066 49.1973 12.4963V22.6433C49.1973 26.5468 49.1281 28.8414 48.7649 29.7835C48.5302 30.3816 48.2043 30.7277 47.2342 30.7277C46.9347 30.7277 46.6922 30.9698 46.6922 31.2684V32.2051C46.6922 32.5037 46.9347 32.7455 47.2342 32.7455H55.7676C56.0671 32.7455 56.3096 32.5037 56.3096 32.2051V31.2684C56.3096 30.9698 56.0671 30.7277 55.7676 30.7277C55.0322 30.7277 54.4187 30.3336 54.2045 29.7237C53.9637 29.0375 53.8045 28.5844 53.8045 22.5653V18.891H53.8103C54.1451 18.891 54.2296 18.9298 54.4373 19.1873C58.6845 24.9399 60.8671 27.5739 65.2636 32.5619C65.3664 32.6787 65.5149 32.7455 65.6709 32.7455H71.8554C72.1549 32.7455 72.3977 32.5037 72.3977 32.2051V31.2684C72.3977 30.9945 72.1923 30.764 71.9197 30.7315Z" fill="white"/>
<path d="M91.8189 30.7277C90.8874 30.7277 90.4028 30.3763 90.1468 29.5146C89.9333 28.8049 89.7778 26.8499 89.7778 24.8679V23.0726C89.7778 21.3359 89.8676 18.6934 89.911 17.4236C89.925 17.0057 89.9343 16.7304 89.9343 16.6721C89.9343 16.3736 89.6915 16.1315 89.3921 16.1315H83.2464C82.9472 16.1315 82.7044 16.3736 82.7044 16.6721V17.6089C82.7044 17.8757 82.8995 18.1025 83.1642 18.1433C84.0668 18.2813 84.593 18.5719 85.0412 19.1783C85.5095 19.812 85.7184 20.7845 85.7184 22.3312V25.1412C85.7184 27.5906 83.2808 30.1813 80.9761 30.1813C78.9204 30.1813 77.878 28.8007 77.878 26.0777V20.77C77.878 19.0983 77.9613 17.8232 78.011 17.0613C78.02 16.9247 78.0278 16.8052 78.0338 16.7039C78.0426 16.5554 77.9894 16.4098 77.8871 16.3015C77.7845 16.193 77.6418 16.1315 77.4925 16.1315H71.3469C71.0477 16.1315 70.8049 16.3736 70.8049 16.6721V17.6089C70.8049 17.868 70.989 18.0903 71.244 18.1395C72.1512 18.3146 72.7507 18.728 73.1873 19.4797C73.5355 20.0796 73.8189 21.4812 73.8189 22.6042V24.8679C73.8189 25.7709 73.8558 27.1545 73.8986 27.8339C74.168 31.5502 77.1758 33.2139 80.0368 33.2139C82.2364 33.2139 84.1416 32.2513 85.7184 30.3478V32.2051C85.7184 32.5037 85.9612 32.7455 86.2607 32.7455H91.8189C92.1184 32.7455 92.3612 32.5037 92.3612 32.2051V31.2683C92.3612 30.9698 92.1184 30.7277 91.8189 30.7277Z" fill="white"/>
<path d="M102.818 30.7277C101.811 30.7277 101.38 30.3949 101.11 29.4088C100.777 28.1713 100.777 23.5703 100.777 22.0579V14.9549C100.777 10.44 100.812 8.54296 100.894 5.28983C100.9 5.03876 100.732 4.8167 100.489 4.75318L99.5883 4.51887C99.486 4.49236 99.3779 4.49612 99.2778 4.52987L94.0717 6.28635C93.8899 6.34786 93.7539 6.50066 93.7148 6.68796L93.5192 7.62471C93.4587 7.91379 93.6418 8.19761 93.9307 8.26238C95.3792 8.58722 95.7715 9.15187 96.0343 9.53022C96.6054 10.3347 96.7173 12.1569 96.7173 15.033V22.0579C96.7173 25.7584 96.5909 28.5141 96.3802 29.4238C96.1464 30.3866 95.7208 30.7277 94.7544 30.7277C94.4549 30.7277 94.2122 30.9698 94.2122 31.2683V32.2051C94.2122 32.5037 94.4549 32.7455 94.7544 32.7455H102.818C103.117 32.7455 103.36 32.5037 103.36 32.2051V31.2683C103.36 30.9698 103.117 30.7277 102.818 30.7277Z" fill="white"/>
<path d="M114.091 30.7277C113.147 30.7277 112.624 30.3084 112.342 29.3258C112.095 28.4439 112.05 27.3163 112.05 25.4143V22.4872C112.05 20.3807 112.085 19.0553 112.167 16.2586C112.174 15.9985 111.995 15.7702 111.74 15.7149L110.84 15.5196C110.771 15.5046 110.701 15.5031 110.631 15.5151L105.699 16.3738C105.481 16.4119 105.307 16.5794 105.262 16.7962L105.066 17.733C105.036 17.8767 105.066 18.027 105.15 18.1483C105.233 18.2699 105.362 18.3521 105.508 18.3761C106.64 18.5644 107.001 18.8433 107.377 19.3917C107.773 19.9833 107.99 21.1799 107.99 22.7603V25.4533C107.99 27.4151 107.838 28.6837 107.695 29.2211C107.407 30.3329 107.112 30.7277 106.027 30.7277C105.728 30.7277 105.485 30.9698 105.485 31.2684V32.2051C105.485 32.5037 105.728 32.7455 106.027 32.7455H114.091C114.39 32.7455 114.633 32.5037 114.633 32.2051V31.2684C114.633 30.9698 114.39 30.7277 114.091 30.7277Z" fill="white"/>
<path d="M109.589 12.6626C111.506 12.6626 113.065 11.0839 113.065 9.14337C113.065 7.26261 111.506 5.7327 109.589 5.7327C107.673 5.7327 106.114 7.26261 106.114 9.14337C106.114 11.0839 107.673 12.6626 109.589 12.6626Z" fill="white"/>
<path d="M137.185 30.7277C136.088 30.7277 135.689 30.3506 135.406 29.0467C135.227 28.2278 135.144 26.2085 135.144 25.1022V22.4092C135.144 17.945 132.899 15.5853 128.652 15.5853C126.436 15.5853 124.47 16.8019 123.162 18.2646L123.244 16.265C123.255 16.009 123.083 15.7806 122.834 15.7184L122.051 15.5233C121.977 15.5051 121.901 15.5023 121.826 15.5151L116.894 16.3738C116.675 16.4118 116.502 16.5794 116.457 16.7962L116.261 17.7329C116.2 18.0242 116.387 18.3101 116.679 18.3718C117.92 18.6342 118.334 18.888 118.699 19.6149C119.003 20.1971 119.185 21.8545 119.185 24.0484V25.2972C119.185 27.326 118.976 29.0802 118.776 29.7149C118.572 30.4248 118.107 30.7277 117.222 30.7277C116.923 30.7277 116.68 30.9697 116.68 31.2683V32.2051C116.68 32.5037 116.923 32.7455 117.222 32.7455H125.325C125.624 32.7455 125.867 32.5037 125.867 32.2051V31.2683C125.867 30.9697 125.624 30.7277 125.325 30.7277C124.234 30.7277 123.658 30.2315 123.511 29.15C123.352 28.1957 123.245 26.6318 123.245 25.2582V23.1896C123.245 21.0933 125.213 18.6567 127.752 18.6567C130.057 18.6567 131.085 19.8863 131.085 22.6432V25.1022C131.085 26.201 130.925 28.177 130.815 29.052C130.633 30.4474 130.032 30.7277 129.122 30.7277C128.822 30.7277 128.58 30.9697 128.58 31.2683V32.2051C128.58 32.5037 128.822 32.7455 129.122 32.7455H137.185C137.485 32.7455 137.727 32.5037 137.727 32.2051V31.2683C137.727 30.9697 137.485 30.7277 137.185 30.7277Z" fill="white"/>
<path d="M157.956 31.0978C157.929 30.9425 157.836 30.807 157.7 30.7262C157.565 30.6454 157.4 30.6274 157.251 30.6774C157.067 30.7385 156.848 30.7667 156.561 30.7667C155.843 30.7667 155.633 30.6379 155.378 30.0458C155.072 29.3133 154.968 27.4266 154.876 25.7621C154.861 25.5028 154.847 25.245 154.832 24.9982L154.637 20.9363C154.442 17.3093 152.242 15.5464 147.91 15.5464C146.289 15.5464 144.664 15.9422 143.453 16.6321C142.015 17.4516 141.223 18.6439 141.223 19.9896C141.223 21.4107 142.186 22.4032 143.565 22.4032C145.061 22.4032 145.987 21.2719 145.987 20.2236C145.987 19.2634 145.599 18.9238 145.19 18.5644C145.141 18.5219 145.09 18.4771 145.037 18.4289C145.033 18.4249 145.027 18.4179 145.027 18.4179C145.206 18.2078 145.99 17.7592 147.48 17.7592C149.518 17.7592 150.473 18.696 150.579 20.7963L150.632 21.8818C143.634 22.6025 140.088 24.8796 140.088 28.6534C140.088 31.4239 142.037 33.2139 145.053 33.2139C147.343 33.2139 149.573 31.9765 151.134 29.863C151.255 30.4186 151.426 30.9925 151.723 31.4857C152.422 32.5547 153.602 33.0968 155.23 33.0968C156.207 33.0968 157.074 32.9218 157.81 32.577C158.031 32.4734 158.155 32.2351 158.113 31.9953L157.956 31.0978ZM149.239 28.6584C148.435 29.4894 147.491 29.9472 146.58 29.9472C145.35 29.9472 144.617 29.201 144.617 27.951C144.617 26.6966 145.288 25.7434 146.671 25.0362C147.713 24.501 149.185 24.1849 150.74 24.1614L150.774 25.2392C150.813 26.2935 150.196 27.6676 149.239 28.6584Z" fill="white"/>
<path d="M171.631 15.6243C169.293 15.6243 167.302 16.8397 165.935 19.0353C166.045 17.6904 166.089 16.7226 166.106 16.2623C166.115 16.0072 165.944 15.7806 165.696 15.7184L164.913 15.5233C164.839 15.5051 164.763 15.5023 164.688 15.5151L159.756 16.3738C159.537 16.4118 159.363 16.5794 159.318 16.7962L159.123 17.7329C159.093 17.8757 159.122 18.0242 159.204 18.145C159.285 18.2658 159.413 18.3488 159.556 18.3748C160.729 18.5874 161.095 18.8702 161.426 19.3799C161.821 20.0048 162.047 21.5502 162.047 23.619V25.2192C162.047 26.8619 161.881 29.0497 161.577 29.8577C161.361 30.3948 161.037 30.7277 160.084 30.7277C159.785 30.7277 159.542 30.9697 159.542 31.2683V32.2051C159.542 32.5037 159.785 32.7455 160.084 32.7455H168.108C168.408 32.7455 168.65 32.5037 168.65 32.2051V31.2683C168.65 30.9697 168.408 30.7277 168.108 30.7277C167.14 30.7277 166.702 30.4103 166.436 29.5128C166.238 28.8579 166.106 27.305 166.106 25.6486C166.106 22.1821 168.151 18.3056 170.887 18.3056C171.083 18.3056 172.032 18.3266 172.103 18.7307C172.071 18.7752 172.011 18.8457 171.964 18.9002C171.877 19.0033 171.768 19.1315 171.65 19.2993C171.376 19.7087 171.206 20.0843 171.206 20.692C171.206 21.9568 172.197 22.9108 173.51 22.9108C175.1 22.9108 176.088 21.7165 176.088 19.7942C176.088 17.222 174.38 15.6243 171.631 15.6243Z" fill="white"/>
<path d="M186.858 30.7277C185.914 30.7277 185.391 30.3084 185.109 29.3258C184.862 28.4439 184.816 27.3163 184.816 25.4143V22.4872C184.816 20.3807 184.852 19.0553 184.933 16.2586C184.941 15.9985 184.762 15.7702 184.507 15.7149L183.607 15.5196C183.538 15.5046 183.467 15.5031 183.398 15.5151L178.466 16.3738C178.247 16.4119 178.074 16.5794 178.028 16.7962L177.833 17.733C177.803 17.8767 177.833 18.027 177.916 18.1483C177.999 18.2699 178.129 18.3521 178.274 18.3761C179.406 18.5644 179.767 18.8433 180.143 19.3917C180.539 19.9833 180.757 21.1799 180.757 22.7603V25.4533C180.757 27.4151 180.605 28.6837 180.461 29.2211C180.173 30.3329 179.878 30.7277 178.794 30.7277C178.495 30.7277 178.252 30.9698 178.252 31.2684V32.2051C178.252 32.5037 178.495 32.7455 178.794 32.7455H186.858C187.157 32.7455 187.4 32.5037 187.4 32.2051V31.2684C187.4 30.9698 187.157 30.7277 186.858 30.7277Z" fill="white"/>
<path d="M178.708 9.66403C180.431 10.9469 180.766 11.2825 182.141 13.0935C182.351 13.369 182.767 13.3638 182.97 13.0832C183.977 11.6926 185.145 10.5258 186.503 9.55525C186.786 9.35294 186.792 8.93708 186.515 8.72753C184.7 7.35691 184.364 7.02332 183.076 5.3041C182.87 5.02853 182.456 5.03053 182.25 5.30635C181.225 6.68197 180.055 7.85054 178.712 8.83956C178.434 9.04436 178.431 9.45797 178.708 9.66403Z" fill="white"/>
<path d="M37.2934 18.74C37.1725 16.2613 37.1174 13.7229 36.4344 11.3197C35.9263 9.53175 34.912 7.88505 33.448 6.71974C32.0259 5.58743 30.3442 4.88549 28.6351 4.30834C28.2396 4.1748 27.8724 4.01001 27.5198 3.7937C26.9998 3.42535 26.5263 2.99748 26.0144 2.61838C25.3018 2.09049 24.5371 1.64237 23.6508 1.48233C23.3114 1.42106 22.9635 1.40781 22.6227 1.35129C22.247 1.28902 21.8742 1.2105 21.5025 1.12848C20.7539 0.963186 20.0092 0.776636 19.254 0.641599C18.4675 0.500561 17.6656 0.446046 16.8678 0.509313C15.9844 0.579582 15.1093 0.758631 14.2488 0.963936C13.5383 1.13348 12.8172 1.32428 12.138 1.59536C11.2702 1.9417 10.4693 2.43908 9.73518 3.01174C9.00081 3.58464 8.30556 4.21106 7.61281 4.83223C6.9612 5.41639 6.32338 6.01655 5.71993 6.65047C4.45559 7.97908 3.34022 9.48073 2.57199 11.1504C1.79296 12.8434 1.30589 14.6826 1.05783 16.5259C0.841131 18.1358 0.787959 19.7835 0.948479 21.4012C1.10774 23.0076 1.4644 24.6196 2.05807 26.1232C2.3741 26.9244 2.75985 27.7047 3.20127 28.4444C3.22962 28.4919 3.25896 28.5386 3.2878 28.5856C3.32317 28.7699 3.39415 28.9415 3.5015 29.1003C4.06984 30.1908 4.72245 31.2491 5.47815 32.2256C5.55164 32.3554 5.62688 32.4839 5.70639 32.6102C6.06129 33.1734 6.54009 33.7628 7.15157 34.0719C7.21126 34.1276 7.27121 34.1829 7.3319 34.2377C8.15281 34.9774 9.08859 35.624 10.0878 36.0999C11.2619 36.6588 12.5483 36.9994 13.835 37.1722C15.1547 37.3495 16.4941 37.3815 17.8244 37.3845C18.8913 37.387 19.9593 37.3838 21.0258 37.349C23.1539 37.2797 25.3066 37.0609 27.343 36.4092C28.3848 36.0757 29.3984 35.609 30.3209 35.0216C31.3539 34.3634 32.2689 33.516 33.1074 32.6287C33.9544 31.732 34.7101 30.7705 35.385 29.739C36.0599 28.7072 36.5651 27.6036 36.9272 26.4263C37.317 25.1592 37.4101 23.8231 37.4183 22.5045C37.4261 21.2497 37.3544 19.9928 37.2934 18.74ZM34.6361 23.4745C34.5751 24.3222 34.4374 25.1582 34.1854 25.9707C33.8671 26.8574 33.4312 27.6951 32.9188 28.4861C32.0888 29.6972 31.0989 30.8225 30.0081 31.8065C29.3931 32.3309 28.7312 32.7898 28.0166 33.1686C27.1047 33.6085 26.1398 33.9226 25.1526 34.1459C22.8128 34.6165 20.4082 34.6263 18.0303 34.6303C17.2573 34.6315 16.484 34.6258 15.7118 34.589C14.5335 34.5132 13.3592 34.3494 12.23 33.9986C11.5425 33.7525 10.8879 33.4332 10.2719 33.0416C9.80215 32.716 9.36122 32.3532 8.94638 31.9618C8.90048 31.9103 8.85107 31.8623 8.79765 31.8195C8.6143 31.6407 8.43648 31.4567 8.26342 31.2676C8.08935 31.0666 7.92081 30.8613 7.75778 30.6519C7.69382 30.5362 7.63212 30.4194 7.57168 30.3024C7.2381 29.6289 6.93788 28.908 6.47613 28.3131C5.96472 27.6544 5.51025 26.9629 5.12275 26.2258C4.6131 25.18 4.23587 24.0757 3.97704 22.9424C3.67656 21.4585 3.57423 19.9408 3.6422 18.4294C3.74704 16.824 4.03422 15.224 4.52782 13.6919C4.90153 12.6273 5.38811 11.6101 6.00234 10.6628C7.11846 9.04887 8.53781 7.67675 10.0036 6.3799C10.8508 5.63395 11.7166 4.88949 12.7141 4.3526C13.5719 3.95149 14.5209 3.70893 15.4444 3.50587C16.2513 3.34083 17.0782 3.21854 17.9026 3.2383C18.8331 3.31657 19.7506 3.56389 20.6576 3.76919C21.1612 3.88322 21.6663 3.9955 22.1767 4.07678C22.5815 4.14129 22.9906 4.15605 23.3871 4.25607C23.6159 4.34835 23.8336 4.46288 24.0433 4.59267C24.9778 5.25084 25.7872 6.08632 26.8396 6.57095C27.3457 6.80401 27.8962 6.9488 28.4182 7.14485C28.9148 7.33115 29.4061 7.53271 29.8854 7.76002C30.3276 7.96983 30.7588 8.20239 31.1716 8.46496C31.6283 8.78305 32.0537 9.14214 32.4349 9.5475C32.7605 9.93461 33.0427 10.3537 33.2824 10.7986C33.5982 11.463 33.8194 12.164 33.9845 12.8799C34.2436 14.1725 34.3344 15.4899 34.4131 16.8035C34.5009 18.2631 34.5734 19.7237 34.6263 21.1851C34.6539 21.9481 34.6694 22.7118 34.6361 23.4745Z" fill="white"/>
<path d="M17.016 18.7054C16.534 19.3626 16.5791 20.3436 17.097 20.9731C17.6147 21.6025 18.5477 21.842 19.3167 21.5687C19.5224 21.4957 19.7183 21.3889 19.8788 21.2411C20.2362 20.9128 20.3887 20.4144 20.4276 19.9315C20.4572 19.5659 20.4241 19.1778 20.2227 18.8712C19.9914 18.5196 19.5828 18.3351 19.1938 18.1711L19.2016 18.1678C18.4743 17.7982 17.4981 18.0485 17.016 18.7054Z" fill="white"/>
<path d="M17.627 13.9262C17.5018 15.146 17.8253 16.5206 18.8098 17.2343C18.8098 17.2343 19.2058 17.5572 20.7104 16.1693C20.9209 16 21.1295 15.8292 21.3415 15.6709C23.1654 14.311 25.6462 13.7986 27.8104 14.5058C29.0878 14.9232 30.3898 15.7469 31.6707 15.3411C31.8412 15.287 32.0128 15.2055 32.1151 15.0595C32.2207 14.9087 32.236 14.7139 32.2363 14.5301C32.2383 13.0902 31.532 11.7198 30.5654 10.65C28.686 8.57024 25.6828 7.4927 22.9457 8.11611C20.2086 8.73928 17.9131 11.1414 17.627 13.9262Z" fill="white"/>
<path d="M13.7228 16.4286C13.9875 16.7587 15.8487 18.1493 16.2074 17.5344C16.2074 17.5344 16.4261 17.3246 16.4156 15.4726C16.4201 15.1018 16.4078 14.7307 16.3777 14.3608C16.1718 11.8366 17.2987 9.24144 19.2859 7.66351C19.6137 7.40344 19.9698 7.16188 20.2006 6.81328C20.4313 6.46469 20.5021 5.96756 20.2372 5.64372C19.9199 5.25561 19.3205 5.29963 18.8289 5.4024C17.1981 5.74275 15.5909 6.35966 14.324 7.4387C13.0572 8.51774 12.1648 10.1044 12.1781 11.7656C12.1866 12.8377 12.5593 13.8702 12.9381 14.8737C13.1437 15.4189 13.3582 15.9725 13.7228 16.4286Z" fill="white"/>
<path d="M29.8079 16.9432C29.0103 16.4929 28.1004 16.2846 27.198 16.1263C26.1924 15.9497 25.1586 15.8284 24.1538 16.009C23.1491 16.1895 22.1664 16.7094 21.6294 17.5749C21.4571 17.8527 21.3392 18.1826 21.3262 18.5107C21.3262 18.5107 21.2454 19.0691 21.6721 19.3859C21.6944 19.4104 21.74 19.4439 21.8336 19.4789C21.9525 19.5342 22.0959 19.5757 22.2795 19.5915C22.5998 19.6547 23.0726 19.701 23.7686 19.6835C24.1012 19.7135 24.4842 19.7448 24.9289 19.7773C25.7455 19.8883 26.5611 20.0238 27.3314 20.3114C28.2398 20.6507 29.0926 21.2254 29.5809 22.0611C30.293 23.28 30.1287 24.8334 30.7053 26.1215C30.8061 26.3465 30.9614 26.5856 31.2054 26.6246C31.5771 26.6841 31.8267 26.2625 31.9493 25.9077C32.4946 24.33 32.783 22.6278 32.4898 20.9848C32.1966 19.3419 31.2646 17.7652 29.8079 16.9432Z" fill="white"/>
<path d="M12.3266 21.4085C13.0198 21.514 13.775 21.5687 14.3775 21.2114C14.8736 20.9173 15.1602 20.2374 14.9656 19.7348C14.9656 19.7348 14.9403 19.3517 12.214 17.1923C12.214 17.1923 10.9406 16.2203 10.6113 12.5273C10.5694 12.1217 10.5172 11.7208 10.4344 11.3307C10.3549 10.9566 10.2223 10.5563 9.89871 10.3512C9.26792 9.95212 8.47811 10.5595 8.05574 11.1739C7.10366 12.5583 6.59777 14.2425 6.63012 15.9207C6.65019 16.959 6.88219 18.0163 7.45805 18.8815C8.50043 20.4474 10.4635 21.1241 12.3266 21.4085Z" fill="white"/>
<path d="M18.3556 25.1777C18.561 24.6256 18.6935 24.0187 18.542 23.4498C18.3905 22.8809 17.8863 22.3732 17.2959 22.3792L17.4291 22.4545C16.3599 22.0076 15.224 22.8026 14.1357 23.2009C12.1977 23.9099 9.93836 23.293 8.34946 21.9789C7.61509 21.3712 6.9562 20.6017 6.04099 20.3319C5.86065 20.2787 5.65574 20.2494 5.49296 20.3429C5.3046 20.4507 5.23413 20.6845 5.20027 20.8986C5.06357 21.7636 5.2567 22.6488 5.54313 23.4765C6.15084 25.233 7.1882 26.8399 8.54008 28.1188C9.03042 28.5829 9.57067 29.0095 10.1959 29.2658C10.7485 29.4921 11.3509 29.5779 11.9481 29.5829C14.7118 29.6057 17.3948 27.7612 18.3556 25.1777Z" fill="white"/>
<path d="M21.8093 22.524C21.3322 22.2587 20.6904 22.329 20.2823 22.6908C19.9628 22.9741 19.8058 23.4205 19.8524 23.8426L19.788 23.5861C19.9369 24.5946 19.8048 25.6429 19.4095 26.5831C18.8296 27.9635 17.7275 29.0528 16.5996 30.0403C15.9977 30.5672 15.3165 31.2526 15.4978 32.0303C15.699 32.8933 16.8186 33.1656 17.6974 33.0364C19.5464 32.7638 21.1524 31.4564 22.0197 29.8057C22.8872 28.155 23.0688 26.204 22.7829 24.3625C22.6725 23.6526 22.4385 22.8739 21.8093 22.524Z" fill="white"/>
<path d="M25.1792 21.4815C24.8316 21.319 24.4634 21.1582 24.0801 21.1839C23.6971 21.2097 23.3029 21.488 23.285 21.8703C23.28 21.9776 23.3044 22.0789 23.3457 22.1754C23.3633 22.2159 23.3839 22.2552 23.4069 22.2937C23.5381 22.5543 23.8536 23.2217 24.0555 23.9794C24.5022 25.9419 24.34 28.0503 23.964 30.0493C23.9081 30.3476 23.8481 30.6605 23.9399 30.9498C24.1243 31.5322 24.879 31.7738 25.4639 31.592C26.0487 31.4104 26.4857 30.9285 26.8518 30.4387C27.6926 29.3146 28.3339 28.0063 28.4733 26.6106C28.6131 25.2153 28.2015 23.7286 27.1967 22.7473C26.6264 22.1899 25.902 21.8198 25.1792 21.4815Z" fill="white"/>
</svg>
