<?xml version="1.0" encoding="utf-8"?>
<!-- Generator: Adobe Illustrator 18.1.1, SVG Export Plug-In . SVG Version: 6.00 Build 0)  -->
<!DOCTYPE svg PUBLIC "-//W3C//DTD SVG 1.1//EN" "http://www.w3.org/Graphics/SVG/1.1/DTD/svg11.dtd" [
	<!ENTITY st0 "fill:#010101;">
]>
<svg version="1.1" id="Layer_1" xmlns="http://www.w3.org/2000/svg" xmlns:xlink="http://www.w3.org/1999/xlink" x="0px" y="0px"
	 viewBox="0 0 146.2 97.3" style="enable-background:new 0 0 146.2 97.3;" xml:space="preserve">
<g>
	<g>
		<path style="&st0;" d="M28,36.5c4.3-0.5,8.7-0.9,13-1.3c0,0,0,0,0,0.1c0.2,1.6,2.7,1.6,2.5,0c0-0.1,0-0.2,0-0.3
			c9.4-0.7,18.8-1.1,28.3-1.1c15.6-0.1,31,1.5,46.5,2.6c1.6,0.1,1.6-2.4,0-2.5c-15.5-1.1-31-2.7-46.5-2.6c-5,0-9.9,0.1-14.9,0.4
			c0.5-0.1,0.9-0.6,0.9-1.2c0-2.9-1.3-8.5,2.6-9.5c5.2-1.3,7.6,4.2,8.9,8.2c0.4,1.3,2.5,1.1,2.4-0.3c-0.1-2.4,0.5-6.5,3.8-6.3
			c3.1,0.2,3.6,3.9,3.3,6.3c-0.2,1.5,2,1.5,2.4,0.3c0.9-2.4,0.9-6.8,4.2-7c3.9-0.2,5.8,4.4,5.9,7.7c0,1.4,2,1.7,2.4,0.3
			c1-3,1-10.5,4.9-11.5c2.8-0.7,4.9,1.8,5.3,4.2c0.4,2.4,0,4.8-0.3,7.2c-0.2,1.6,2.2,2.2,2.4,0.7c0.3-2,0.5-4.4,0.4-6.7
			c0.6-0.4,1.9-0.5,2.6-0.7c0.8-0.3,1.5-0.7,2.2-1.2c1.5-1.2,2.4-2.9,3.3-4.5c0.8-1.4-1.3-2.6-2.1-1.2c-0.9,1.6-1.8,3.5-3.6,4.4
			c-0.7,0.3-1.8,0.5-2.7,0.8c-0.7-2.9-2.5-5.1-6.4-5.3c-4.6-0.3-6.1,4.2-7.1,8.4c-1.2-2.6-3.4-4.7-6.5-4.9c-3.3-0.2-4.7,1.5-5.6,3.8
			c-0.9-1.9-2.5-3.4-5-3.5c-2.9-0.1-4.7,1.8-5.6,4.1c-1.9-3.6-4.9-6.5-9.6-5.8c-2.4,0.4-3.6,1.6-4.3,3.2c-1.4-4.2-3.8-7.8-8.7-7
			c-4.3,0.7-6.2,3.4-6.9,6.7c-3.2-1.2-5.6-3.6-8.2-5.8c-1.2-1-3,0.7-1.8,1.8c3,2.6,5.8,5.3,9.6,6.6c-0.2,2.9,0.2,6,0.6,8.6
			c-4.2,0.4-8.4,0.8-12.7,1.3C26.4,34.3,26.4,36.7,28,36.5z M47.3,17.4c6.5-1.3,7.3,9.4,8,13.6c0.1,0.5,0.4,0.8,0.8,0.9
			c-4.4,0.2-8.7,0.4-13.1,0.8C42.1,26.9,40.8,18.7,47.3,17.4z"/>
		<path style="&st0;" d="M40.7,9.4c0,0.1,0,0.1,0,0.2c0.1,1.4,1.2,2.6,2.6,2.9c1.9,0.4,4.4,0.2,5.4-1.7c1.4-2.8-1.1-7.5-4.3-7.6
			C41.8,3,40.6,5.9,40,8C39.8,8.6,40.2,9.2,40.7,9.4z M44,5.6C44,5.6,44,5.6,44,5.6c0.1,0,0.1-0.1,0.2-0.1c0,0,0,0,0.1,0
			c0,0,0,0,0,0c0,0,0.1,0,0.2,0c0.1,0,0.1,0,0.2,0.1c0,0,0.1,0,0.1,0c0,0,0,0,0,0c0.1,0.1,0.2,0.1,0.3,0.2c0.1,0,0,0,0,0
			c0,0,0,0,0.1,0.1c0.2,0.2,0.4,0.4,0.5,0.6c0,0,0.1,0.1,0.1,0.2C45.9,6.8,46,6.9,46,7c0.1,0.1,0.1,0.3,0.2,0.4c0,0,0,0.1,0.1,0.1
			c0,0,0,0,0,0c0,0,0,0,0,0c0.1,0.2,0.2,0.5,0.2,0.7c0,0,0,0.2,0,0.3c0,0.1,0,0.2,0,0.3c0,0.1,0,0.2,0,0.3c0,0,0,0.1,0,0.2
			c-0.1,0.2-0.1,0.2-0.2,0.3c-0.1,0.1-0.1,0.1-0.3,0.2C46.1,10,46,10,46,10c0,0,0,0,0,0c-0.2,0.1-0.3,0.1-0.5,0.1
			c-0.1,0-0.7,0-1.1,0c-0.3,0-0.8,0-1-0.3c-0.5-0.5,0-1.4,0.5-1.8c0.9-0.6,0.6-1.8-0.1-2.2c0,0,0,0,0.1-0.1
			C43.8,5.7,43.8,5.7,44,5.6z"/>
		<path style="&st0;" d="M63,16.1c1.4-0.5,2.7-1.7,2.6-3.4c-0.1-1.4-1.1-2.6-2.5-3c-1-0.3-2-0.2-2.9,0.2c-0.2,0-0.3-0.1-0.5-0.1
			c-0.4-0.1-0.8,0.3-1.1,0.6c-0.9,1.3-1.5,3.3-0.6,4.8C59.2,16.8,61.4,16.7,63,16.1z M63.1,12.6c0,0,0.1,0.3,0.1,0.3
			c0,0.1,0,0.2,0,0.1c0,0,0,0,0,0c-0.1,0.1-0.1,0.2-0.2,0.3c-0.2,0.2-0.5,0.3-0.8,0.4c-0.5,0.2-1.3,0.4-1.8,0.2
			c-0.2-0.1-0.2-0.3-0.2-0.7c0-0.1,0-0.2,0.1-0.3c0,0,0,0,0.1-0.1c0.1,0.1,0.2,0.1,0.3,0.2c0.9,0.6,1.8-0.2,1.8-1.1
			c0,0,0.1,0,0.2,0.1C62.7,12.1,63,12.4,63.1,12.6z"/>
		<path style="&st0;" d="M70.9,15.6c0.2,0.9,0.8,1.9,1.7,2.5c1,0.7,2.2,0.6,3.2-0.1c1.8-1.2,3.2-4.4,1.5-6.2c-1.2-1.3-3.1-1-4.6-0.6
			c-0.7,0.2-0.9,0.8-0.9,1.3C71.2,13.4,70.7,14.4,70.9,15.6z M74,16C74,16,74,16,74,16C74,16,74,16,74,16z M74.1,16L74.1,16
			C74.1,16,74.1,16,74.1,16z M75.2,13.2c0,0,0.1,0,0.2,0c0,0,0,0,0.1,0c0,0,0,0,0.1,0c0,0,0,0,0,0c0,0,0,0,0,0c0,0,0,0,0,0
			c0,0.1,0,0.2,0.1,0.2c-0.1-0.3,0,0.1,0,0.3c0,0,0,0.1,0,0.1c0,0.1-0.1,0.2-0.1,0.4c0,0.1,0,0.1-0.1,0.2c0,0-0.1,0.2-0.1,0.2
			c-0.1,0.2-0.2,0.4-0.3,0.6c0,0,0,0,0,0c0,0,0,0,0,0.1c-0.1,0.1-0.2,0.2-0.2,0.2c0,0-0.1,0.1-0.1,0.1c0,0-0.2,0.1-0.2,0.1
			c0,0-0.1,0-0.1,0.1c0,0-0.1,0-0.1,0c0,0,0,0,0,0c0,0,0,0,0,0c0.1-0.1,0,0-0.1,0c0,0,0,0-0.1,0c0,0-0.1,0-0.1-0.1c0,0,0,0,0,0
			c0,0,0,0,0,0c0,0,0-0.1-0.1-0.1c0,0-0.1-0.2-0.1-0.1c-0.2-0.2-0.4-0.5-0.4-0.8c0-0.4,0.3-0.7,0.6-1c0.2-0.2,0.3-0.4,0.3-0.6
			C74.5,13.2,74.8,13.2,75.2,13.2z"/>
		<path style="&st0;" d="M88.3,17.4c1.5-0.7,2.3-2.5,1.8-4.1c-0.5-1.6-1.9-2.2-3.4-2.1c-0.2-0.1-0.3-0.3-0.5-0.4
			c-0.6-0.3-1.3-0.1-1.7,0.4c-0.8,1.3-1.4,3.1-0.8,4.6C84.5,17.8,86.7,18.3,88.3,17.4z M86.9,15.3c-0.3,0.1-0.6,0.1-0.8,0
			c0,0-0.1-0.1-0.1,0C86,15.1,86,14.9,86,14.8c0-0.2,0-0.4,0-0.7c0.5,0.3,1.1,0.1,1.5-0.3c0,0,0.1,0,0.1,0c0.1,0.1,0.2,0.2,0.2,0.4
			C87.9,14.6,87.6,15.2,86.9,15.3z"/>
		<path style="&st0;" d="M102.1,15.2c1.4-0.3,2.5-1.6,3.2-2.8c0.7-1.1,1.3-2.7,0.9-4.1c-0.7-2-2.8-1.6-4.4-0.9
			c-0.7-0.2-1.5-0.2-2.1,0.3c-1.4,0.9-1.3,2.9-1,4.3C99,13.7,100.1,15.6,102.1,15.2z M103.1,11.3c-0.1,0.1-0.2,0.2-0.2,0.4
			c0,0-0.1,0.1-0.1,0.1c0,0,0,0,0,0c0,0,0,0,0,0c-0.2,0.2-0.3,0.4-0.5,0.5c-0.1,0.1-0.2,0.1-0.2,0.2c-0.1,0-0.1,0.1-0.2,0.1
			c-0.1,0-0.1,0.1-0.2,0.1c0,0-0.1,0-0.1,0c0,0,0,0,0,0c0,0,0,0,0,0c0,0,0,0,0,0c0,0,0,0,0,0c-0.1-0.1-0.1-0.2-0.2-0.3
			c0,0-0.1-0.3-0.1-0.4c-0.1-0.2-0.1-0.5-0.2-0.7c-0.1-0.4-0.1-0.9,0-1.3c0.3,0.1,0.5,0.2,0.9,0.1c0.1,0.1,0.2,0.1,0.4,0.2
			c0.6,0.4,1.1,0.2,1.4-0.2c0,0.1,0,0.1-0.1,0.2c0,0.1-0.1,0.2-0.1,0.2C103.4,10.8,103.3,11.1,103.1,11.3z M103.9,9.2
			C103.9,9.2,103.9,9.2,103.9,9.2C103.9,9.2,103.9,9.2,103.9,9.2z"/>
		<path style="&st0;" d="M93.8,59.4c-1.7,3.2-5-0.2-4.7-2.8c0.1-1,0.7-2,1.2-2.8c0.2-0.4,0.6-1.1,1.1-1.3c0.3-0.2,0.1-0.2,0.4,0.4
			c0.7,1.4,2.8,0.2,2.1-1.2c-1.9-3.8-5-0.7-6.4,2.3c-0.9-2.6-3.2-4.6-6.9-3.7c-1.6,0.4-0.9,2.7,0.7,2.4c6-1.4,5.6,10.3,0.3,7.9
			c-1.4-0.6-2.7,1.5-1.2,2.1c3.8,1.7,6.2-0.1,7.2-2.8c1.8,3.3,6.3,5,8.6,0.8C96.7,59.3,94.6,58,93.8,59.4z"/>
		<path style="&st0;" d="M108.2,51.1c-0.9,2.3-2,4.5-3.2,6.6c-1.8-1.9-2.9-4.5-4-6.8c-0.7-1.4-2.8-0.2-2.1,1.2
			c1.4,2.7,2.6,5.7,4.9,7.8c-0.6,0.9-1.2,1.9-1.8,2.8c-0.4,0.7-2.3,3.5-3.4,4.2c-0.2-0.4-0.6-0.7-1.1-0.7c-0.2,0-0.4,0-0.7,0
			c-1,0-1.5,1-1.1,1.9c4.1,7.5,14.2-14.2,15-16.3C111.2,50.2,108.8,49.6,108.2,51.1z"/>
		<path style="&st0;" d="M8,50.2C7.7,50,7.4,49.9,7,50c-0.1,0-0.2,0.1-0.4,0.1c-0.4,0-0.8,0-1.2,0.1c-0.9,0.1-1.3,1-1.1,1.7
			c-1.6,2.3-1.7,6-0.4,8.1c2.1,3.3,6.9,3.4,10,1.6c3-1.7,4.1-5.3,1.6-8C13.8,51.7,10.8,50.5,8,50.2z M13.9,58.5
			c-1.3,1.6-4.4,2.3-6.3,1.5c-1.4-0.6-2.1-1.9-2.1-3.4c0-1.2,0.4-3.2,1.5-4C10.5,53,16.6,55.2,13.9,58.5z"/>
		<path style="&st0;" d="M61.5,60.2c-2,0.1-4.9,0.1-6-2c-1.2-2.3,0.2-6.1,3.1-5.6c1.6,0.3,2.2-2.1,0.7-2.4c-3.9-0.6-6.6,2.3-6.6,5.9
			c-0.1,0-0.1,0.1-0.2,0.1c-0.5,0.3-0.9,0.7-1.3,1c0.1-1.8,0.3-3.6,0.4-5.3c0.1-1.6-2.3-1.6-2.5,0c-0.1,1.2-0.9,2.4-1.8,3.2
			c-1-3.2-5.4-6.7-8.4-4.7c-1.3,0.9-0.1,3,1.2,2.1c1.8-1.2,4.8,2.2,4.9,3.9c0.2,3-3.5,4.1-5.9,3.8c-1.6-0.2-2.2,2.2-0.7,2.4
			c3.5,0.5,7.9-1,8.9-4.6c0.1,0,0.2-0.1,0.2-0.1c0.4-0.2,0.8-0.5,1.1-0.8c-0.1,1.2-0.1,2.4,0,3.6c0.1,1.1,1.7,1.8,2.3,0.6
			c0.5-1.1,1.3-1.9,2.2-2.6c1.3,3.2,5.1,4.1,8.4,3.9C63.1,62.6,63.1,60.1,61.5,60.2z"/>
		<path style="&st0;" d="M33.3,57.4c-0.5,0-1.1,0-1.6,0c-0.2-1.9,0.2-3.8,0.3-5.7c0-0.7-0.6-1.2-1.2-1.2c-2.5-0.2-4.8-1-6.9,0.4
			c-0.5,0.1-1,0.5-1,1.2c0,2,0,3.9-0.2,5.9c-0.7,0-1.4,0-2.1,0c-0.9,0-1.3,0.8-1.2,1.6c0.3,1.5,0.3,3.1,0.5,4.6
			c0.2,1.6,2.7,1.6,2.5,0c-0.2-1.2-0.2-2.5-0.3-3.7c3.4,0,6.8-0.5,10.2-0.5c0.1,1.1,0.2,2.2-0.3,3c-0.8,1.4,1.4,2.6,2.1,1.2
			c0.9-1.7,0.6-3.6,0.5-5.5C34.5,57.9,34,57.4,33.3,57.4z M25.3,52.8c1.1-0.7,2.7-0.4,4.1-0.1c-0.1,1.6-0.3,3.2-0.2,4.8
			c-1.4,0.1-2.7,0.2-4.1,0.3C25.3,56.1,25.3,54.4,25.3,52.8z"/>
		<path style="&st0;" d="M75.8,58c0.1-2.6-0.2-5.2-2-7c-2.4-2.3-5.8-1.2-7.3,1.5c-0.8,1.4,1.4,2.7,2.1,1.2c1.3-2.4,3.7-1.7,4.4,0.8
			c0.2,0.7,0.3,1.4,0.3,2.1c-2.8-0.9-6.4-1.5-7.3,1.8c-0.4,1.6,0.6,3.2,2,4c1.8,1,3.6,0.4,5.4-0.1c0.6,0.9,2.3,0.7,2.3-0.7
			c0-0.8,0.1-1.7,0.1-2.6C76,58.7,76,58.3,75.8,58z M69.8,60.5c-0.8-0.2-1.9-1.3-0.9-1.9c1.1-0.7,3,0,4.4,0.6c0,0.2,0,0.4,0,0.6
			c0,0,0,0,0,0C72.2,60.1,70.9,60.8,69.8,60.5z"/>
		<path style="&st0;" d="M116.5,50.8c-0.4-1.2-2.5-1.1-2.4,0.3c0.1,3.2,0,6.5-0.2,9.7c-0.2,2.5-0.5,5-0.1,7.6
			c0.2,1.6,2.6,0.9,2.4-0.7c-0.2-1.7-0.1-3.5,0-5.2c2.4,0.6,4.9,0.7,6.7-1.5c1.6-1.9,2-5.1,0.7-7.3
			C122.3,51.4,118.8,49.9,116.5,50.8z M121,59.4c-1.2,1.5-3,1-4.6,0.6c0.1-2,0.2-3.9,0.2-5.9c0.7-2.3,4-0.6,4.9,0.9
			C122.2,56.3,121.9,58.3,121,59.4z"/>
		<path style="&st0;" d="M141.2,60.2c-2.3,1.1-2.3-1.6-2.4-3.3c-0.1-2,0.1-4-0.1-6c-0.2-1.6-2.7-1.6-2.5,0c0.2,1.6,0,4.4,0.3,7
			c-0.1,0-0.1,0-0.2,0.1c-1.3,0.8-4.2,3.4-5.8,2.4c-1.3-0.8-1.1-3.2-1-4.5c0.2-1.8,0.4-3.4-0.1-5.1c-0.4-1.5-2.8-0.9-2.4,0.7
			c1,3.5-1.8,9.1,2.5,11.2c2.5,1.3,5.4-0.8,7.5-2.2c0.7,2.2,2.3,3.4,5.4,1.9C143.9,61.6,142.6,59.5,141.2,60.2z"/>
	</g>
	<g>
		<path style="&st0;" d="M117.3,87.9c-0.7,1.2-2.2,0.1-2.2-1c0-0.4,0.3-0.8,0.5-1.2c0.1-0.2,0.3-0.4,0.5-0.5
			c0.2-0.1,0.1-0.1,0.2,0.1c0.4,0.7,1.4,0.1,1-0.6c-0.9-1.6-2.3-0.4-3,0.9c-0.4-1.1-1.4-1.9-3-1.5c-0.7,0.2-0.4,1.3,0.3,1.1
			c2.6-0.6,2.4,4.4,0.1,3.4c-0.7-0.3-1.3,0.7-0.6,1c1.7,0.8,2.8-0.1,3.2-1.3c0.9,1.4,2.9,1.9,3.9,0.2
			C118.7,87.9,117.7,87.3,117.3,87.9z"/>
		<path style="&st0;" d="M108.4,84.6c-0.5,1.2-1.1,2.4-1.7,3.6c-1-1-1.6-2.4-2.2-3.6c-0.3-0.7-1.3-0.1-1,0.6c0.7,1.4,1.3,3,2.6,4.1
			c-0.3,0.5-0.7,1-1,1.5c-0.3,0.4-1.2,1.9-1.9,2.2c-0.1-0.2-0.3-0.4-0.6-0.4c-0.1,0-0.2,0-0.4,0c-0.5,0-0.7,0.5-0.5,0.9
			c1,1.9,2.8,0,3.5-1c1.7-2.3,3.1-4.8,4.2-7.5C109.8,84.2,108.7,83.9,108.4,84.6z"/>
		<path style="&st0;" d="M123.8,84.5c0.1,0.8,0.2,1.6,0.2,2.4c-0.9-0.1-1.8-0.1-2.7-0.2c0-0.8,0.1-1.7,0.3-2.5
			c0.2-0.7-0.9-1-1.1-0.3c-0.3,1-0.3,2.1-0.3,3.1c-0.1,0.2-0.1,0.3,0,0.5c0,0.7,0,1.4,0.1,2.1c0,0.8,1.2,0.8,1.2,0
			c0-0.6,0-1.2,0-1.8c0.9,0.1,1.8,0.1,2.7,0.2c0,0.5,0,1,0,1.5c0,0.8,1.2,0.8,1.2,0c0-1.7,0-3.4-0.2-5.1
			C124.9,83.8,123.7,83.8,123.8,84.5z"/>
		<path style="&st0;" d="M102.2,88c-0.3-0.7-1.4-0.4-1.1,0.3c0.3,0.8-0.8,0.4-1.2,0.2c-0.5-0.3-0.8-0.7-1.2-1.1
			c-0.1-0.1-0.3-0.3-0.4-0.4c0.8-0.6,1.3-1.5,1.3-2.7c0-0.7-1.2-0.8-1.2,0c0.1,1.3-0.7,2-1.9,2c0-0.6,0.1-1.2,0.2-1.8
			c0.1-0.7-1-1.1-1.1-0.3c-0.2,1.7-0.1,3.4-0.5,5c-0.2,0.7,0.9,1,1.1,0.3c0.2-0.7,0.3-1.3,0.3-2c1.6,0.1,2.3,1.9,4,2.2
			C101.6,90.1,102.7,89.3,102.2,88z"/>
		<path style="&st0;" d="M27.5,84.3c-0.7-0.4-1.5-0.4-2.2-0.1c-0.1,0.1-0.3,0.1-0.4,0.2c-0.2-0.6-1.2-0.5-1.1,0.2
			c0.1,1.6,0,3.2-0.1,4.8c-0.1,1.3-0.3,2.6-0.1,3.9c0.1,0.7,1.2,0.4,1.1-0.3c-0.2-1.3,0.1-2.6,0.1-3.9c0-0.2,0-0.4,0-0.7
			c1.2,0.9,3.2,0.8,3.7-0.8C29.1,86.5,28.6,84.9,27.5,84.3z M27.5,87.5c-0.5,0.7-2.2,0.2-2.2-0.7c0-0.2-0.1-0.4-0.3-0.5
			c0-0.1,0-0.2,0-0.3c0.1-0.1,0.2-0.2,0.2-0.4c0.6-0.5,1.4-0.9,2-0.2C27.6,86,27.9,87,27.5,87.5z"/>
		<path style="&st0;" d="M35.2,84.5c-0.5,1.2-1.1,2.4-1.7,3.6c-1-1-1.6-2.4-2.2-3.6c-0.3-0.7-1.3-0.1-1,0.6c0.7,1.4,1.3,3,2.6,4.1
			c-0.3,0.5-0.7,1-1,1.5c-0.2,0.4-1.2,1.9-1.9,2.2c-0.1-0.2-0.3-0.4-0.6-0.4c-0.1,0-0.2,0-0.4,0c-0.5,0-0.7,0.5-0.5,0.9
			c1,1.9,2.8,0,3.5-1c1.7-2.3,3.1-4.8,4.2-7.5C36.6,84.1,35.5,83.8,35.2,84.5z"/>
		<path style="&st0;" d="M41.8,87.3c0.2-0.1,0.3-0.2,0.4-0.4c0.5-0.6,0.7-1.5,0.3-2.2c-0.7-1.1-3.1-1.9-4.1-0.9
			c-0.5,0.5,0.3,1.4,0.8,0.8c0.4-0.4,1.8,0.1,2.1,0.5c1.1,1.2-1.6,1.5-2.2,1.5c-0.6,0-0.8,1-0.2,1.1c0.5,0.1,3.9,0.6,2.5,1.6
			c-0.8,0.6-2.3,0.8-2.8-0.2c-0.4-0.6-1.4-0.1-1,0.6c1,1.6,3.5,1.5,4.8,0.3c0.6-0.5,0.9-1.2,0.4-1.9C42.6,87.8,42.2,87.5,41.8,87.3z
			"/>
		<path style="&st0;" d="M51.4,87.5C51.3,87.7,51,88,50.7,88c-0.3-0.1-0.4-0.5-0.4-0.7c0-0.1,0-0.2,0-0.3c0-0.7,0.2-1.5,0.3-2.2
			c0.1-0.7-1.1-0.7-1.2,0c-0.1,0.6-0.3,1.4-0.3,2.2c-0.6,0.7-1.8,1.4-2.7,1.2c-1.2-0.3-0.4-2.7-0.3-3.5c0-0.8-1.1-0.8-1.2,0
			c-0.1,1.5-0.9,4.1,1.2,4.6c1.1,0.3,2.3-0.2,3.2-0.9c0.1,0.1,0.2,0.3,0.3,0.4c0.9,1,2.2,0.3,2.8-0.6C52.9,87.4,51.8,86.8,51.4,87.5
			z"/>
		<path style="&st0;" d="M57.7,84.7c0.1,0.8,0.2,1.6,0.2,2.4C57,87,56.1,87,55.2,86.9c0-0.8,0.1-1.7,0.3-2.5c0.2-0.7-0.9-1-1.1-0.3
			c-0.3,1-0.3,2.1-0.3,3.1c-0.1,0.2-0.1,0.3,0,0.5c0,0.7,0,1.4,0.1,2.1c0,0.8,1.2,0.8,1.2,0c0-0.6,0-1.2,0-1.8
			c0.9,0.1,1.8,0.1,2.7,0.2c0,0.5,0,1,0,1.5c0,0.8,1.2,0.8,1.2,0c0-1.7,0-3.4-0.2-5.1C58.7,84,57.6,84,57.7,84.7z"/>
		<path style="&st0;" d="M65.9,84.5c-2-1.4-4.9,0-5.2,2.4c-0.2,2.4,2.7,4.9,4.7,2.8c0.5-0.5-0.3-1.4-0.8-0.8
			c-1.3,1.4-3.1-0.8-2.7-2.2c0.4-1.4,2.2-2,3.4-1.2C65.9,86,66.5,85,65.9,84.5z"/>
		<path style="&st0;" d="M73.6,88.6c0,0.2-0.1,0.3-0.4,0.4c-0.3,0.2-0.5,0.1-0.8-0.2c-0.1-0.1-0.1-0.4-0.2-0.5
			c-0.1-0.4-0.3-0.7-0.5-1.1c-0.2-0.3-0.6-0.6-0.9-0.8c1.2-0.5,2.4-1.3,1.9-2.5c-0.2-0.7-1.4-0.4-1.1,0.3c0.3,0.9-1.8,1.4-2.6,1.5
			c0.1-0.6,0.2-1.2,0.2-1.7c0-0.8-1.2-0.8-1.2,0c0,2.1-0.8,4.5,0.2,6.5c0.3,0.7,1.3,0.1,1-0.6c-0.4-0.9-0.4-1.9-0.3-2.9
			c0.6,0.2,1.3,0.4,1.8,0.8c0.4,0.4,0.5,0.8,0.7,1.3c0.3,0.6,0.7,1.1,1.3,1.2c1.2,0.2,2.6-0.9,2-2.2C74.2,87.4,73.2,88,73.6,88.6z"
			/>
		<path style="&st0;" d="M24.7,79c0.7,0.1,1-1,0.3-1.1c-2-0.4-4.1-0.4-6,0.1c-0.2-0.2-0.6-0.3-0.8,0c-0.1,0.2-0.2,0.3-0.4,0.5
			c-0.2,0.3-0.2,0.8,0.1,0.9c-0.2,3.3,0.1,6.7-0.6,9.9c-0.2,0.7,1,1,1.1,0.3c0.7-3.4,0.5-7,0.7-10.4C21,78.7,22.8,78.7,24.7,79z"/>
		<path style="&st0;" d="M81.3,87.9c0.1-1.5,0-3.1-1.3-3.9c-1.4-0.9-3.3,0.1-4.1,1.4c-0.4,0.7,0.6,1.2,1,0.6
			c0.5-0.9,2.1-1.8,2.8-0.6c0.4,0.6,0.4,1.3,0.4,2c-0.5-0.3-1.2-0.2-1.7-0.1c-0.8,0.2-2.1,1-1.9,2c0.2,1.1,1.6,1,2.4,0.8
			c0.4-0.1,0.8-0.3,1.2-0.5c0,0.7,1.2,0.7,1.2,0c0-0.3,0-0.6,0-1c0,0,0,0,0.1-0.1C81.5,88.3,81.4,88.1,81.3,87.9z M77.8,89.1
			C77.8,89.1,77.8,89.1,77.8,89.1C77.8,89.1,77.8,89.1,77.8,89.1c0-0.1,0.3-0.3,0.3-0.4c0.2-0.1,0.3-0.2,0.5-0.2
			c0.3-0.1,0.8-0.2,1,0c-0.1,0.1-0.3,0.2-0.4,0.2C79,88.9,78.1,89.3,77.8,89.1z"/>
		<path style="&st0;" d="M86.8,83.4c-0.6,0-1.2,0.3-1.6,0.7c-0.8,0.7-1.3,2.2-0.4,3c0.1,0.1,0.3,0.2,0.5,0.3c-0.5,1-1.1,2.6-2.2,2.3
			c-0.7-0.2-1,1-0.3,1.1c2.3,0.5,2.8-1.9,3.8-3.4c0.2,0,0.4-0.1,0.7-0.1c0,0.7,0,1.3,0,2c0,0.8,1.2,0.8,1.2,0c0-0.9,0-1.9,0-2.8
			c0-0.4,0-0.9-0.1-1.3c0,0,0,0,0,0c0.2-0.1,0.4-0.5,0.2-0.8C88.1,83.9,87.5,83.4,86.8,83.4z M87,86.3c-0.3,0.1-0.8,0.2-1,0.1
			c-0.1,0-0.1,0-0.2,0c0,0,0,0,0,0c0,0,0,0,0,0c0,0-0.1,0-0.1,0c0,0,0,0,0,0c0,0,0-0.1,0-0.1c0,0,0-0.1,0-0.1c0,0,0,0,0,0
			c0,0,0,0,0,0c0,0,0-0.1,0-0.1c0,0,0,0,0,0c0,0,0,0,0,0c0-0.1,0-0.1,0-0.2c0-0.2,0-0.1,0.1-0.2c0.2-0.3,0.2-0.3,0.4-0.5
			c0.1-0.1,0.1-0.1,0.2-0.2c0.1,0,0.1-0.1,0.2-0.1c0,0,0,0,0,0c0,0,0,0,0,0c0.2-0.1,0.3-0.1,0.5,0c0,0.1,0,0.2,0,0.3
			c0.2,0.4,0.2,0.9,0.2,1.4C87.1,86.2,87.1,86.2,87,86.3z"/>
		<path style="&st0;" d="M132.6,84.9c-0.4-0.6-1-1-1.8-1c-0.6,0-1.2,0.3-1.6,0.7c-0.8,0.7-1.3,2.2-0.4,3c0.1,0.1,0.3,0.2,0.5,0.3
			c-0.5,1-1.1,2.6-2.2,2.3c-0.7-0.2-1,1-0.3,1.1c2.3,0.5,2.8-1.9,3.8-3.4c0.2,0,0.4-0.1,0.7-0.1c0,0.7,0,1.3,0,2
			c0,0.8,1.2,0.8,1.2,0c0-0.9,0-1.9,0-2.8c0-0.4,0-0.9-0.1-1.3c0,0,0,0,0,0C132.6,85.6,132.8,85.2,132.6,84.9z M131,86.8
			c-0.3,0.1-0.8,0.2-1,0.1c-0.1,0-0.1,0-0.2,0c0,0,0,0,0,0c0,0,0,0,0,0c0,0-0.1,0-0.1,0c0,0,0,0,0,0c0,0,0-0.1,0-0.1
			c0,0,0-0.1,0-0.1c0,0,0,0,0,0c0,0,0,0,0,0c0,0,0-0.1,0-0.1c0,0,0,0,0,0c0,0,0,0,0,0c0-0.1,0-0.1,0-0.2c0-0.2,0-0.1,0.1-0.2
			c0.2-0.3,0.2-0.3,0.4-0.5c0.1-0.1,0.1-0.1,0.2-0.2c0.1,0,0.1-0.1,0.2-0.1c0,0,0,0,0,0c0,0,0,0,0,0c0.2-0.1,0.3-0.1,0.5,0
			c0,0.1,0,0.2,0,0.3c0.2,0.4,0.2,0.9,0.2,1.4C131.1,86.8,131.1,86.8,131,86.8z"/>
	</g>
</g>
</svg>
