<svg width="330" height="83" viewBox="0 0 330 83" fill="none" xmlns="http://www.w3.org/2000/svg">
<path d="M0 17.672H20.6349V47.5873H28.1595V17.672H48.7943V0.664185H0V17.672Z" fill="black" fill-opacity="0.85"/>
<path d="M58.3457 5.97728V21.8301L106.735 30.4928C100.398 32.0229 93.8928 32.7505 87.3734 32.6585C68.7644 32.6585 59.7638 27.8362 58.4325 26.3347V42.1875C62.5711 45.566 74.6973 48.2803 87.3734 48.2803C100.05 48.2803 112.118 45.566 116.314 42.1875V26.3924L68.1277 17.7297C74.4237 16.2508 80.8769 15.543 87.3445 15.6218C105.838 15.6218 115.012 20.2997 116.285 21.8012V5.97728C111.713 2.45444 100.397 0 87.3445 0C74.6973 0 62.8315 2.45444 58.3457 5.97728Z" fill="black" fill-opacity="0.85"/>
<path d="M125.863 7.96972V38.0871C130.378 42.5051 141.607 48.2803 157.698 48.2803C174.195 48.2803 184.758 42.5051 189.533 38.0871V7.96972C184.99 3.75386 174.224 0 157.698 0C141.752 0 130.233 3.81161 125.863 7.96972ZM150.029 16.6324C148.148 18.6223 147.111 21.2607 147.135 23.9958C147.093 26.7342 148.132 29.3793 150.029 31.3591C142.942 30.8316 136.163 28.2526 130.523 23.938C132.549 22.2632 138.713 18.134 150.029 16.7768V16.6324ZM165.107 31.619C167.034 29.6501 168.113 27.0074 168.113 24.2556C168.113 21.5039 167.034 18.8612 165.107 16.8923C172.184 17.3779 178.964 19.9173 184.613 24.1979C178.97 28.5065 172.193 31.0849 165.107 31.619Z" fill="black" fill-opacity="0.85"/>
<path d="M232.425 38.0005L218.591 0.664185H198.824V47.5873H215.841V13.5428L228.46 47.5873H248.226L262.205 13.8604V47.5873H269.701V0.664185H247.879L232.425 38.0005Z" fill="black" fill-opacity="0.85"/>
<path d="M329.001 17.672V0.664185H279.223V17.672H300.35V30.6084H279.223V47.5873H329.001V30.6084H307.874V17.672H329.001Z" fill="black" fill-opacity="0.85"/>
<path d="M8.89556 64.5326H10.8479V74.5111H12.9086V64.5326H15.5117V63.2311H12.9086V62.7973C12.9086 60.1074 13.5594 59.0445 15.3165 59.0445C16.7916 59.0445 17.9413 59.9556 17.0085 62.7973H19.1777C20.0454 59.1746 18.028 57.808 15.5768 57.808C12.9086 57.808 10.8479 59.2831 10.8479 63.0142V63.2311H8.89556V64.5326ZM18.3776 68.5891H20.5469C20.2649 68.0468 20.113 67.4828 20.113 66.9622C20.113 65.1617 21.1759 64.2506 22.8246 64.2506C24.7769 64.2506 25.7313 65.1617 25.7313 67.3743V67.8733L23.8007 68.1986C21.1543 68.6542 18.3559 68.9796 18.3559 71.908C18.3559 74.0122 20.0479 74.728 21.805 74.728C23.4753 74.728 24.8419 73.9037 25.7313 73.036V74.5111H27.7921V67.5913C27.7921 64.229 25.8398 63.0142 22.9113 63.0142C19.9829 63.0142 18.0089 64.4676 18.0089 66.8754C18.0089 67.396 18.0523 67.9817 18.3776 68.5891ZM20.5252 71.7128C20.5252 70.433 21.3712 69.6954 23.7573 69.3266L25.7313 69.023V71.7779C25.0155 72.4503 23.779 73.2746 22.3039 73.2746C21.3929 73.2746 20.5252 72.8408 20.5252 71.7128ZM35.5481 74.728C38.4983 74.728 40.1469 73.3614 40.1469 71.4959C40.1469 66.8537 32.9234 69.4134 32.9234 66.0077C32.9234 64.9014 33.726 64.1639 35.3746 64.1639C37.1967 64.1639 38.021 64.9665 38.021 66.7019C38.021 67.331 37.8909 67.7214 37.7607 68.1336H39.93C40.0818 67.8516 40.1903 67.1791 40.1903 66.7886C40.1903 64.2506 38.52 63.0142 35.5047 63.0142C32.9017 63.0142 30.971 64.294 30.971 66.3114C30.971 71.0837 38.1946 68.3722 38.1946 71.8646C38.1946 73.0794 37.0666 73.5783 35.7434 73.5783C34.1381 73.5783 32.7715 72.8625 32.7715 70.9536C32.7715 70.5197 32.7932 70.0859 32.9884 69.6303H30.8192C30.6674 69.8906 30.6023 70.2594 30.6023 70.9753C30.6023 73.535 32.8149 74.728 35.5481 74.728ZM43.7693 70.997C43.7693 73.5566 45.1793 74.728 47.6956 74.728C49.9733 74.728 52.2293 72.9493 50.8193 69.7171H48.867C49.9733 72.19 49.1273 73.318 47.6306 73.318C46.329 73.318 45.8301 72.5371 45.8301 70.8234V64.5326H50.3855V63.2311H45.8301V59.9773L41.817 64.5326H43.7693V70.997ZM68.9775 68.3722C69.7584 64.8146 67.7627 63.0142 64.5306 63.0142C61.1683 63.0142 58.7387 65.3136 58.7387 68.9796C58.7387 72.5588 61.1249 74.728 64.3787 74.728C67.4807 74.728 69.4113 72.8191 68.587 69.3917H66.3527C67.177 71.8863 66.3744 73.4916 64.3787 73.4916C62.383 73.4916 60.908 72.0816 60.908 68.9796C60.908 65.986 62.2529 64.2506 64.3787 64.2506C66.6347 64.2506 67.5024 65.7257 66.8083 68.3722H68.9775ZM72.0237 68.5891H74.193C73.911 68.0468 73.7591 67.4828 73.7591 66.9622C73.7591 65.1617 74.822 64.2506 76.4707 64.2506C78.423 64.2506 79.3774 65.1617 79.3774 67.3743V67.8733L77.4468 68.1986C74.8003 68.6542 72.002 68.9796 72.002 71.908C72.002 74.0122 73.694 74.728 75.4511 74.728C77.1214 74.728 78.488 73.9037 79.3774 73.036V74.5111H81.4382V67.5913C81.4382 64.229 79.4859 63.0142 76.5574 63.0142C73.629 63.0142 71.655 64.4676 71.655 66.8754C71.655 67.396 71.6983 67.9817 72.0237 68.5891ZM74.1713 71.7128C74.1713 70.433 75.0173 69.6954 77.4034 69.3266L79.3774 69.023V71.7779C78.6616 72.4503 77.4251 73.2746 75.95 73.2746C75.039 73.2746 74.1713 72.8408 74.1713 71.7128ZM89.1942 74.728C92.1444 74.728 93.793 73.3614 93.793 71.4959C93.793 66.8537 86.5694 69.4134 86.5694 66.0077C86.5694 64.9014 87.3721 64.1639 89.0207 64.1639C90.8428 64.1639 91.6671 64.9665 91.6671 66.7019C91.6671 67.331 91.537 67.7214 91.4068 68.1336H93.5761C93.7279 67.8516 93.8364 67.1791 93.8364 66.7886C93.8364 64.2506 92.1661 63.0142 89.1508 63.0142C86.5477 63.0142 84.6171 64.294 84.6171 66.3114C84.6171 71.0837 91.8407 68.3722 91.8407 71.8646C91.8407 73.0794 90.7127 73.5783 89.3894 73.5783C87.7842 73.5783 86.4176 72.8625 86.4176 70.9536C86.4176 70.5197 86.4393 70.0859 86.6345 69.6303H84.4653C84.3134 69.8906 84.2484 70.2594 84.2484 70.9753C84.2484 73.535 86.461 74.728 89.1942 74.728ZM105.984 63.2311H103.923V71.908C103.251 72.4503 102.123 73.1011 100.886 73.1011C99.1725 73.1011 98.717 72.3853 98.717 70.3028V63.2311H96.6562V70.9753C96.6562 73.3397 97.4588 74.728 99.9317 74.728C101.559 74.728 103.121 73.7736 103.923 73.1445V74.5111H105.984V63.2311ZM109.274 68.5891H111.444C111.162 68.0468 111.01 67.4828 111.01 66.9622C111.01 65.1617 112.073 64.2506 113.721 64.2506C115.674 64.2506 116.628 65.1617 116.628 67.3743V67.8733L114.697 68.1986C112.051 68.6542 109.253 68.9796 109.253 71.908C109.253 74.0122 110.945 74.728 112.702 74.728C114.372 74.728 115.739 73.9037 116.628 73.036V74.5111H118.689V67.5913C118.689 64.229 116.736 63.0142 113.808 63.0142C110.88 63.0142 108.906 64.4676 108.906 66.8754C108.906 67.396 108.949 67.9817 109.274 68.5891ZM111.422 71.7128C111.422 70.433 112.268 69.6954 114.654 69.3266L116.628 69.023V71.7779C115.912 72.4503 114.676 73.2746 113.201 73.2746C112.29 73.2746 111.422 72.8408 111.422 71.7128ZM121.824 74.5111H123.885V58.025H121.824V74.5111ZM132.987 63.2311V74.5111H135.048V64.5326H140.558V63.2311H132.987ZM143.062 80.1511H145.123V73.3831C145.969 74.2074 147.162 74.728 148.789 74.728C151.544 74.728 153.8 72.2985 153.8 68.8711C153.8 65.4654 151.696 63.0142 148.768 63.0142C147.162 63.0142 145.839 63.7083 145.123 64.5977V63.2311H143.062V80.1511ZM148.138 73.3614C146.685 73.3614 145.687 72.6239 145.123 71.9297V65.7691C145.6 65.14 146.555 64.4242 148.138 64.4242C150.416 64.4242 151.631 66.3331 151.631 68.8711C151.631 71.4742 150.416 73.3614 148.138 73.3614ZM159.309 76.3983C158.528 78.5459 158.224 79.0665 157.248 79.0665C156.532 79.0665 156.12 78.6326 156.12 77.8951C156.12 77.3745 156.207 76.8973 156.575 76.2682H154.319C153.994 76.984 153.907 77.3962 153.907 78.0036C153.907 79.2183 154.753 80.368 157.053 80.368C159.222 80.368 159.894 78.9146 160.719 76.6803L165.643 63.2311H164.124L160.914 71.9948L156.966 63.2311H154.905L160.003 74.5111L159.309 76.3983ZM172.577 73.5566C170.104 73.5566 169.063 71.9731 169.974 69.3483H167.739C166.698 72.6022 169.128 74.728 172.447 74.728C175.939 74.728 177.501 73.3614 177.501 71.6043C177.501 69.5653 175.787 68.8711 174.377 68.8277C175.657 68.6976 177.067 67.8733 177.067 66.1162C177.067 64.1639 175.505 63.0142 172.533 63.0142C168.759 63.0142 166.525 64.858 167.501 68.4156H169.67C168.867 65.7257 169.822 64.1639 172.338 64.1639C174.204 64.1639 174.898 65.1617 174.898 66.2897C174.898 67.7431 174.073 68.3071 172.403 68.3071H170.407V69.6086H172.772C174.312 69.6086 175.332 70.1943 175.332 71.344C175.332 72.9276 174.334 73.5566 172.577 73.5566ZM182.265 74.5111L187.58 65.6173V74.5111H189.641V63.2311H187.58L182.265 72.125V63.2311H180.205V74.5111H182.265ZM192.904 63.2311V74.5111H194.965V69.37H200.062V74.5111H202.123V63.2311H200.062V68.0685H194.965V63.2311H192.904ZM215.067 68.3722C215.848 64.8146 213.852 63.0142 210.62 63.0142C207.257 63.0142 204.828 65.3136 204.828 68.9796C204.828 72.5588 207.214 74.728 210.468 74.728C213.57 74.728 215.501 72.8191 214.676 69.3917H212.442C213.266 71.8863 212.464 73.4916 210.468 73.4916C208.472 73.4916 206.997 72.0816 206.997 68.9796C206.997 65.986 208.342 64.2506 210.468 64.2506C212.724 64.2506 213.592 65.7257 212.897 68.3722H215.067ZM218.07 74.5111H220.13V69.2833L225.445 74.5111H228.156L221.996 68.4373L227.506 63.2311H225.662L220.13 68.4373V63.2311H218.07V74.5111ZM234.507 74.728C237.739 74.728 239.973 72.2985 239.973 68.8711C239.973 65.4871 237.739 63.0142 234.507 63.0142C231.296 63.0142 229.04 65.4871 229.04 68.8711C229.04 72.2985 231.296 74.728 234.507 74.728ZM234.507 73.4916C232.359 73.4916 231.209 71.626 231.209 68.8711C231.209 66.1596 232.359 64.2506 234.507 64.2506C236.654 64.2506 237.804 66.1596 237.804 68.8711C237.804 71.626 236.654 73.4916 234.507 73.4916ZM244.745 74.5111L250.06 65.6173V74.5111H252.121V63.2311H250.06L244.745 72.125V63.2311H242.684V74.5111H244.745ZM251.014 57.808H249.149C249.301 58.1551 249.322 58.4371 249.322 58.6974C249.344 59.8254 248.737 60.3677 247.457 60.3677C246.264 60.3677 245.548 59.8471 245.548 58.6974C245.548 58.4371 245.548 58.1551 245.721 57.808H243.856C243.747 58.1334 243.726 58.4371 243.726 58.6757C243.726 60.3243 244.832 61.3222 247.457 61.3222C250.147 61.3222 251.144 60.2376 251.144 58.5673C251.144 58.3286 251.101 58.0683 251.014 57.808ZM261.241 74.5111H263.301V69.2833L268.616 74.5111H271.328L265.167 68.4373L270.677 63.2311H268.833L263.301 68.4373V63.2311H261.241V74.5111ZM275.964 76.3983C275.183 78.5459 274.88 79.0665 273.903 79.0665C273.188 79.0665 272.775 78.6326 272.775 77.8951C272.775 77.3745 272.862 76.8973 273.231 76.2682H270.975C270.65 76.984 270.563 77.3962 270.563 78.0036C270.563 79.2183 271.409 80.368 273.708 80.368C275.877 80.368 276.55 78.9146 277.374 76.6803L282.298 63.2311H280.78L277.569 71.9948L273.621 63.2311H271.561L276.658 74.5111L275.964 76.3983ZM284.22 74.5111L287.626 69.9991L291.053 74.5111H293.44L288.819 68.4156L292.745 63.2311H291.075L287.995 67.3093L284.893 63.2311H282.507L286.802 68.8928L282.55 74.5111H284.22ZM295.716 63.2311V74.5111H297.777V69.37H302.875V74.5111H304.935V63.2311H302.875V68.0685H297.777V63.2311H295.716ZM310.243 74.5111L315.558 65.6173V74.5111H317.619V63.2311H315.558L310.243 72.125V63.2311H308.182V74.5111H310.243Z" fill="black" fill-opacity="0.85"/>
</svg>
