<svg width="273" height="175" viewBox="0 0 273 175" fill="none" xmlns="http://www.w3.org/2000/svg">
<g clip-path="url(#clip0_131_288)">
<path d="M0.490234 149.024H17.5709V173.796H23.7602V149.024H40.8409V134.923H0.490234V149.024Z" fill="black" fill-opacity="0.85"/>
<path d="M48.7344 139.312V152.453L88.7252 159.647C83.4924 160.942 78.1141 161.555 72.7241 161.47C57.3467 161.47 49.9099 157.465 48.7344 156.218V169.335C52.1649 172.165 62.1926 174.419 72.7241 174.419C83.2555 174.419 93.1873 172.165 96.7137 169.335V156.218L56.8669 149.024C62.0775 147.795 67.4188 147.207 72.772 147.273C88.0295 147.273 95.6342 151.158 96.7617 152.405V139.312C92.9953 136.386 83.6394 134.372 72.772 134.372C62.2406 134.372 52.3328 136.386 48.7344 139.312Z" fill="black" fill-opacity="0.85"/>
<path d="M104.654 140.966V165.906C108.277 169.527 117.585 174.324 130.779 174.324C144.405 174.324 153.137 169.671 156.976 165.882V140.942C153.185 137.441 144.285 134.348 130.779 134.348C117.705 134.372 108.181 137.513 104.654 140.966ZM130.875 160.846C117.465 160.846 110.532 156.05 108.493 154.3C110.532 152.501 117.465 147.897 130.875 147.897C144.285 147.897 151.194 152.501 153.233 154.3C151.098 156.098 144.117 160.846 130.779 160.846H130.875Z" fill="black" fill-opacity="0.85"/>
<path d="M192.647 165.858L181.204 134.923H164.867V173.796H178.949V145.571L189.385 173.796H205.722L217.261 145.859V173.796H223.474V134.923H205.434L192.647 165.858Z" fill="black" fill-opacity="0.85"/>
<path d="M231.367 149.024H248.832V159.719H231.367V173.796H272.51V159.719H255.021V149.024H272.51V134.923H231.367V149.024Z" fill="black" fill-opacity="0.85"/>
</g>
<g clip-path="url(#clip1_131_288)">
<path d="M102.1 72.0166V105.001C106.988 109.845 119.307 116.173 136.74 116.173C154.772 116.173 166.321 109.992 171.381 105.001V72.0166C166.395 67.4048 154.62 63.3062 136.74 63.3062C119.466 63.3062 106.866 67.4781 102.1 72.0166ZM128.497 97.8118C116.117 96.2908 109.396 91.6485 107.165 89.6694C109.396 87.6904 116.123 83.1458 128.503 81.6676C126.383 83.8195 125.194 86.719 125.194 89.7397C125.194 92.7604 126.383 95.6599 128.503 97.8118H128.497ZM166.321 89.6694C164.091 91.6485 157.327 96.2847 144.99 97.8057C147.108 95.6541 148.296 92.7559 148.296 89.7366C148.296 86.7174 147.108 83.8192 144.99 81.6676C157.351 83.1519 164.073 87.6904 166.321 89.6694Z" fill="black" fill-opacity="0.85"/>
<path d="M146.468 37.407C146.468 43.2282 145.185 50.1 142.741 52.8732H126.664C129.108 50.1 130.391 43.2282 130.391 37.407C130.391 28.6844 127.012 25.5081 127.012 15.46C127.012 9.65106 128.296 3.17019 130.74 0H146.817C144.372 3.17019 143.089 9.65106 143.089 15.46C143.089 25.5081 146.468 28.6844 146.468 37.407Z" fill="black" fill-opacity="0.85"/>
<path d="M121.91 37.407C121.91 43.2282 120.627 50.1 118.183 52.8732H102.1C104.544 50.1 105.827 43.2282 105.827 37.407C105.827 28.6844 102.448 25.5081 102.448 15.46C102.448 9.65106 103.731 3.17019 106.175 0H122.252C119.808 3.17019 118.525 9.65106 118.525 15.46C118.525 25.5081 121.91 28.6844 121.91 37.407Z" fill="black" fill-opacity="0.85"/>
<path d="M171.034 37.407C171.034 43.2282 169.757 50.1 167.307 52.8732H151.242C153.686 50.1 154.97 43.2282 154.97 37.407C154.97 28.6844 151.59 25.5081 151.59 15.46C151.59 9.65106 152.874 3.17019 155.318 0H171.407C168.963 3.17019 167.68 9.65106 167.68 15.46C167.655 25.5081 171.034 28.6844 171.034 37.407Z" fill="black" fill-opacity="0.85"/>
</g>
<defs>
<clipPath id="clip0_131_288">
<rect width="272.019" height="40.0478" fill="white" transform="translate(0.490234 134.372)"/>
</clipPath>
<clipPath id="clip1_131_288">
<rect width="69.2875" height="116.185" fill="white" transform="translate(102.1)"/>
</clipPath>
</defs>
</svg>
