<svg width="24" height="24" fill="none" xmlns="http://www.w3.org/2000/svg"><path fill-rule="evenodd" clip-rule="evenodd" d="M19.596 11.91a7.686 7.686 0 00-7.686-7.685c-4.238 0-7.686 3.448-7.686 7.686a7.687 7.687 0 007.686 7.686 7.678 7.678 0 007.686-7.687zm-.895-7.975c-.684 0-1.236.553-1.236 1.237s.552 1.237 1.236 1.237a1.236 1.236 0 100-2.474zM6.082 2.159h11.672a3.927 3.927 0 013.923 3.923v11.67a3.927 3.927 0 01-3.923 3.924H6.081a3.927 3.927 0 01-3.923-3.923V6.082A3.927 3.927 0 016.08 2.159zM18.201 0H5.634C2.54 0 0 2.526 0 5.633v12.568c0 3.093 2.54 5.633 5.633 5.633h12.569c3.105 0 5.632-2.54 5.632-5.633V5.633A5.639 5.639 0 0018.202 0zM6.58 11.91c0-2.943 2.388-5.343 5.331-5.343 2.955 0 5.343 2.4 5.343 5.344a5.337 5.337 0 11-10.674 0z" fill="#000" fill-opacity=".85"/></svg>