<svg width="29" height="17" fill="none" xmlns="http://www.w3.org/2000/svg"><path d="M14.5 0c-3.863 0-6.76.95-9.665 3.781H0s0 1.416 1.938 1.894C1.068 6.833 0 8.84 0 10.394 0 14.288 2.775 17 6.76 17c2.26 0 4.476-1.24 5.802-2.831L14.5 17l1.938-2.831C17.764 15.76 19.973 17 22.24 17c3.985 0 6.76-2.712 6.76-6.606 0-1.554-1.062-3.555-1.938-4.725C29 5.197 29 3.775 29 3.775h-4.835C21.267.944 18.363 0 14.5 0zm0 .944c4.835 0 7.733 2.831 7.733 2.831-3.87 0-7.733 4.725-7.733 9.45 0-4.725-3.863-9.444-7.733-9.444 0-.006 2.898-2.837 7.733-2.837zM6.767 5.669c2.666 0 4.836 2.107 4.836 4.725 0 2.604-2.157 4.725-4.836 4.725-2.678 0-4.835-2.108-4.835-4.725.006-2.605 2.17-4.725 4.835-4.725zm15.466 0c2.665 0 4.835 2.107 4.835 4.725 0 2.604-2.157 4.725-4.835 4.725-2.679 0-4.836-2.12-4.836-4.725 0-2.605 2.164-4.725 4.836-4.725zM6.767 7.563c-1.603 0-2.897 1.27-2.897 2.83 0 1.561 1.3 2.832 2.897 2.832 1.603 0 2.898-1.27 2.898-2.831 0-1.56-1.295-2.831-2.898-2.831zm15.466 0c-1.603 0-2.898 1.27-2.898 2.83 0 1.561 1.301 2.832 2.898 2.832 1.603 0 2.897-1.27 2.897-2.831 0-1.56-1.294-2.831-2.897-2.831zM6.767 8.5c1.062 0 1.938.85 1.938 1.894s-.87 1.894-1.938 1.894c-1.062 0-1.938-.844-1.938-1.894A1.93 1.93 0 016.767 8.5zm15.466 0c1.062 0 1.938.85 1.938 1.894s-.87 1.894-1.938 1.894c-1.069 0-1.938-.85-1.938-1.894 0-1.045.87-1.894 1.938-1.894zm-15.466.944a.958.958 0 00-.966.943c0 .523.438.944.966.944a.958.958 0 00.966-.944c.006-.515-.431-.943-.966-.943zm15.466 0a.958.958 0 00-.966.943c0 .523.438.944.966.944a.958.958 0 00.966-.944.958.958 0 00-.966-.943z" fill="#fff"/></svg>